<?xml version="1.0" encoding="UTF-8" standalone="no"?>
<!DOCTYPE svg PUBLIC "-//W3C//DTD SVG 1.1//EN"
 "http://www.w3.org/Graphics/SVG/1.1/DTD/svg11.dtd">
<!-- Generated by graphviz version 2.43.0 (0)
 -->
<!-- Title: A Pages: 1 -->
<svg width="140pt" height="227pt"
 viewBox="0.00 0.00 139.50 227.00" xmlns="http://www.w3.org/2000/svg" xmlns:xlink="http://www.w3.org/1999/xlink">

<svg id="main" version="1.1" xmlns="http://www.w3.org/2000/svg" xmlns:xlink="http://www.w3.org/1999/xlink" xml:space="preserve">

<style type="text/css"><![CDATA[
.node, .edge {opacity: 0.7;}
.node.selected, .edge.selected {opacity: 1;}
.edge:hover path { stroke: red; }
.edge:hover polygon { stroke: red; fill: red; }
]]></style>
<script type="application/ecmascript" xlink:href="../../svg.min.js"/>
<svg id="graph" class="graph">
<g id="graph0" class="graph" transform="scale(1 1) rotate(0) translate(4 223)">
<title>A</title>
<!-- Node1 -->
<g id="Node000001" class="node">
<title>Node1</title>
<g id="a_Node000001"><a xlink:title=" ">
<polygon fill="#999999" stroke="transparent" points="104,-219 31,-219 31,-170 104,-170 104,-219"/>
<text text-anchor="start" x="64.5" y="-206.5" font-family="Helvetica,sans-Serif" font-size="10.00">A</text>
<text text-anchor="start" x="35.5" y="-191.5" font-family="Helvetica,sans-Serif" font-size="10.00">+</text>
<text text-anchor="start" x="48.5" y="-191.5" font-family="Helvetica,sans-Serif" font-size="10.00">A * m_self</text>
<text text-anchor="start" x="66" y="-176.5" font-family="Helvetica,sans-Serif" font-size="10.00"> </text>
<polygon fill="#666666" stroke="#666666" points="31.5,-201.5 31.5,-201.5 104.5,-201.5 104.5,-201.5 31.5,-201.5"/>
<polygon fill="#666666" stroke="#666666" points="31.5,-186.5 31.5,-186.5 46.5,-186.5 46.5,-186.5 31.5,-186.5"/>
<polygon fill="#666666" stroke="#666666" points="46.5,-186.5 46.5,-186.5 104.5,-186.5 104.5,-186.5 46.5,-186.5"/>
<polygon fill="none" stroke="#666666" points="31,-170 31,-219 104,-219 104,-170 31,-170"/>
</a>
</g>
</g>
<!-- Node2 -->
<g id="Node000002" class="node">
<title>Node2</title>
<g id="a_Node000002"><a xlink:href="../../d9/d56/classC.html" target="_top" xlink:title=" ">
<polygon fill="white" stroke="transparent" points="61,-134 0,-134 0,-85 61,-85 61,-134"/>
<text text-anchor="start" x="27.5" y="-121.5" font-family="Helvetica,sans-Serif" font-size="10.00">C</text>
<text text-anchor="start" x="4.5" y="-106.5" font-family="Helvetica,sans-Serif" font-size="10.00">+</text>
<text text-anchor="start" x="17.5" y="-106.5" font-family="Helvetica,sans-Serif" font-size="10.00">D * m_d</text>
<text text-anchor="start" x="29" y="-91.5" font-family="Helvetica,sans-Serif" font-size="10.00"> </text>
<polygon fill="#666666" stroke="#666666" points="0.5,-116.5 0.5,-116.5 61.5,-116.5 61.5,-116.5 0.5,-116.5"/>
<polygon fill="#666666" stroke="#666666" points="0.5,-101.5 0.5,-101.5 15.5,-101.5 15.5,-101.5 0.5,-101.5"/>
<polygon fill="#666666" stroke="#666666" points="15.5,-101.5 15.5,-101.5 61.5,-101.5 61.5,-101.5 15.5,-101.5"/>
<polygon fill="none" stroke="#666666" points="0,-85 0,-134 61,-134 61,-85 0,-85"/>
</a>
</g>
</g>
<!-- Node1&#45;&gt;Node2 -->
<g id="edge1_Node000001_Node000002" class="edge">
<title>Node1&#45;&gt;Node2</title>
<g id="a_edge1_Node000001_Node000002"><a xlink:title=" ">
<path fill="none" stroke="#63b8ff" d="M52.84,-160.62C48.9,-151.77 44.7,-142.36 41.03,-134.12"/>
<polygon fill="none" stroke="#63b8ff" points="49.73,-162.23 57,-169.94 56.12,-159.38 49.73,-162.23"/>
</a>
</g>
</g>
<!-- Node3 -->
<g id="Node000003" class="node">
<title>Node3</title>
<g id="a_Node000003"><a xlink:href="../../de/d26/classD.html" target="_top" xlink:title=" ">
<polygon fill="white" stroke="transparent" points="131.5,-134 79.5,-134 79.5,-85 131.5,-85 131.5,-134"/>
<text text-anchor="start" x="101.5" y="-121.5" font-family="Helvetica,sans-Serif" font-size="10.00">D</text>
<text text-anchor="start" x="83.5" y="-106.5" font-family="Helvetica,sans-Serif" font-size="10.00">+</text>
<text text-anchor="start" x="96.5" y="-106.5" font-family="Helvetica,sans-Serif" font-size="10.00">C m_c</text>
<text text-anchor="start" x="103.5" y="-91.5" font-family="Helvetica,sans-Serif" font-size="10.00"> </text>
<polygon fill="#666666" stroke="#666666" points="79.5,-116.5 79.5,-116.5 131.5,-116.5 131.5,-116.5 79.5,-116.5"/>
<polygon fill="#666666" stroke="#666666" points="79.5,-101.5 79.5,-101.5 94.5,-101.5 94.5,-101.5 79.5,-101.5"/>
<polygon fill="#666666" stroke="#666666" points="94.5,-101.5 94.5,-101.5 131.5,-101.5 131.5,-101.5 94.5,-101.5"/>
<polygon fill="none" stroke="#666666" points="79.5,-85 79.5,-134 131.5,-134 131.5,-85 79.5,-85"/>
</a>
</g>
</g>
<!-- Node1&#45;&gt;Node3 -->
<g id="edge2_Node000001_Node000003" class="edge">
<title>Node1&#45;&gt;Node3</title>
<g id="a_edge2_Node000001_Node000003"><a xlink:title=" ">
<path fill="none" stroke="darkgreen" d="M82.55,-160.62C86.61,-151.77 90.91,-142.36 94.69,-134.12"/>
<polygon fill="none" stroke="darkgreen" points="79.27,-159.39 78.29,-169.94 85.63,-162.3 79.27,-159.39"/>
</a>
</g>
</g>
<!-- Node4 -->
<g id="Node000004" class="node">
<title>Node4</title>
<g id="a_Node000004"><a xlink:href="../../da/d5a/classE.html" target="_top" xlink:title=" ">
<polygon fill="white" stroke="transparent" points="114,-49 97,-49 97,0 114,0 114,-49"/>
<text text-anchor="start" x="102.5" y="-36.5" font-family="Helvetica,sans-Serif" font-size="10.00">E</text>
<text text-anchor="start" x="104" y="-21.5" font-family="Helvetica,sans-Serif" font-size="10.00"> </text>
<text text-anchor="start" x="104" y="-6.5" font-family="Helvetica,sans-Serif" font-size="10.00"> </text>
<polygon fill="#666666" stroke="#666666" points="97.5,-31.5 97.5,-31.5 114.5,-31.5 114.5,-31.5 97.5,-31.5"/>
<polygon fill="#666666" stroke="#666666" points="97.5,-16.5 97.5,-16.5 114.5,-16.5 114.5,-16.5 97.5,-16.5"/>
<polygon fill="none" stroke="#666666" points="97,0 97,-49 114,-49 114,0 97,0"/>
</a>
</g>
</g>
<!-- Node3&#45;&gt;Node4 -->
<g id="edge3_Node000003_Node000004" class="edge">
<title>Node3&#45;&gt;Node4</title>
<g id="a_edge3_Node000003_Node000004"><a xlink:title=" ">
<path fill="none" stroke="#63b8ff" d="M105.5,-74.77C105.5,-66.17 105.5,-57.1 105.5,-49.12"/>
<polygon fill="none" stroke="#63b8ff" points="102,-74.94 105.5,-84.94 109,-74.94 102,-74.94"/>
</a>
</g>
</g>
</g>
</svg>
</svg>

<style type='text/css'>
<![CDATA[
[data-mouse-over-selected='false'] { opacity: 0.7; }
[data-mouse-over-selected='true']  { opacity: 1.0; }
]]>
</style>
<script type="application/ecmascript"><![CDATA[
document.addEventListener('DOMContentLoaded', (event) => {
  highlightEdges();
  highlightAdjacentNodes();
});
]]></script>
</svg>
