<?xml version="1.0" encoding="UTF-8" standalone="no"?>
<!DOCTYPE svg PUBLIC "-//W3C//DTD SVG 1.1//EN"
 "http://www.w3.org/Graphics/SVG/1.1/DTD/svg11.dtd">
<!-- Generated by graphviz version 2.43.0 (0)
 -->
<!-- Title: NookpostBackend.ApiEndpoints.Posts.GetPost Pages: 1 -->
<svg width="289pt" height="134pt"
 viewBox="0.00 0.00 289.00 134.00" xmlns="http://www.w3.org/2000/svg" xmlns:xlink="http://www.w3.org/1999/xlink">
<g id="graph0" class="graph" transform="scale(1 1) rotate(0) translate(4 130)">
<title>NookpostBackend.ApiEndpoints.Posts.GetPost</title>
<!-- Node1 -->
<g id="Node000001" class="node">
<title>Node1</title>
<g id="a_Node000001"><a xlink:title=" ">
<polygon fill="#999999" stroke="transparent" points="281,-126 0,-126 0,0 281,0 281,-126"/>
<text text-anchor="start" x="62" y="-114" font-family="Helvetica,sans-Serif" font-size="10.00">NookpostBackend.ApiEndpoints.</text>
<text text-anchor="start" x="107" y="-103" font-family="Helvetica,sans-Serif" font-size="10.00">Posts.GetPost</text>
<text text-anchor="start" x="139" y="-88" font-family="Helvetica,sans-Serif" font-size="10.00"> </text>
<text text-anchor="start" x="4.5" y="-73" font-family="Helvetica,sans-Serif" font-size="10.00">+</text>
<text text-anchor="start" x="17.5" y="-73" font-family="Helvetica,sans-Serif" font-size="10.00">static Microsoft.AspNetCore.</text>
<text text-anchor="start" x="17.5" y="-62" font-family="Helvetica,sans-Serif" font-size="10.00">Http.HttpResults.Results</text>
<text text-anchor="start" x="17.5" y="-51" font-family="Helvetica,sans-Serif" font-size="10.00">&lt; Ok&lt; NookpostBackend.ApiSchemas.</text>
<text text-anchor="start" x="17.5" y="-40" font-family="Helvetica,sans-Serif" font-size="10.00">Posts.GetPost.GetPostResponseBody</text>
<text text-anchor="start" x="17.5" y="-29" font-family="Helvetica,sans-Serif" font-size="10.00"> &gt;, NotFound, BadRequest &gt; HandleRequest</text>
<text text-anchor="start" x="17.5" y="-18" font-family="Helvetica,sans-Serif" font-size="10.00">(string uuid, NookpostBackend.Data.DatabaseHandle</text>
<text text-anchor="start" x="17.5" y="-7" font-family="Helvetica,sans-Serif" font-size="10.00"> databaseHandle)</text>
<polygon fill="#666666" stroke="#666666" points="0.5,-98 0.5,-98 281.5,-98 281.5,-98 0.5,-98"/>
<polygon fill="#666666" stroke="#666666" points="0.5,-83 0.5,-83 281.5,-83 281.5,-83 0.5,-83"/>
<polygon fill="none" stroke="#666666" points="0,0 0,-126 281,-126 281,0 0,0"/>
</a>
</g>
</g>
</g>
</svg>
