<?xml version="1.0" encoding="UTF-8" standalone="no"?>
<!DOCTYPE svg PUBLIC "-//W3C//DTD SVG 1.1//EN"
 "http://www.w3.org/Graphics/SVG/1.1/DTD/svg11.dtd">
<!-- Generated by graphviz version 2.43.0 (0)
 -->
<!-- Title: NookpostBackend.Authentication.TokenService Pages: 1 -->
<svg width="184pt" height="90pt"
 viewBox="0.00 0.00 184.00 90.00" xmlns="http://www.w3.org/2000/svg" xmlns:xlink="http://www.w3.org/1999/xlink">
<g id="graph0" class="graph" transform="scale(1 1) rotate(0) translate(4 86)">
<title>NookpostBackend.Authentication.TokenService</title>
<!-- Node1 -->
<g id="Node000001" class="node">
<title>Node1</title>
<g id="a_Node000001"><a xlink:title="The service provider for token generation. Initialized as singleton by the application builder.">
<polygon fill="#999999" stroke="transparent" points="176,-82 0,-82 0,0 176,0 176,-82"/>
<text text-anchor="start" x="5" y="-70" font-family="Helvetica,sans-Serif" font-size="10.00">NookpostBackend.Authentication.</text>
<text text-anchor="start" x="56" y="-59" font-family="Helvetica,sans-Serif" font-size="10.00">TokenService</text>
<text text-anchor="start" x="8" y="-44" font-family="Helvetica,sans-Serif" font-size="10.00">+</text>
<text text-anchor="start" x="25" y="-44" font-family="Helvetica,sans-Serif" font-size="10.00">const int AccessTokenExpiry</text>
<text text-anchor="start" x="25" y="-33" font-family="Helvetica,sans-Serif" font-size="10.00">TimeInSeconds</text>
<text text-anchor="start" x="8" y="-18" font-family="Helvetica,sans-Serif" font-size="10.00">+</text>
<text text-anchor="start" x="25" y="-18" font-family="Helvetica,sans-Serif" font-size="10.00">string GenerateNewToken</text>
<text text-anchor="start" x="25" y="-7" font-family="Helvetica,sans-Serif" font-size="10.00">(User user)</text>
<polygon fill="#666666" stroke="#666666" points="0,-54 0,-54 176,-54 176,-54 0,-54"/>
<polygon fill="#666666" stroke="#666666" points="0,-28 0,-28 23,-28 23,-28 0,-28"/>
<polygon fill="#666666" stroke="#666666" points="23,-28 23,-28 176,-28 176,-28 23,-28"/>
<polygon fill="none" stroke="#666666" points="0,0 0,-82 176,-82 176,0 0,0"/>
</a>
</g>
</g>
</g>
</svg>
