<?xml version="1.0" encoding="UTF-8" standalone="no"?>
<!DOCTYPE svg PUBLIC "-//W3C//DTD SVG 1.1//EN"
 "http://www.w3.org/Graphics/SVG/1.1/DTD/svg11.dtd">
<!-- Generated by graphviz version 2.43.0 (0)
 -->
<!-- Title: NookpostBackend.Configuration.Settings Pages: 1 -->
<!--zoomable 689 -->

<svg id="main" version="1.1" xmlns="http://www.w3.org/2000/svg" xmlns:xlink="http://www.w3.org/1999/xlink" xml:space="preserve" onload="init(evt)">

<style type="text/css"><![CDATA[
.node, .edge {opacity: 0.7;}
.node.selected, .edge.selected {opacity: 1;}
.edge:hover path { stroke: red; }
.edge:hover polygon { stroke: red; fill: red; }
]]></style>

<defs>
  <circle id="rim" cx="0" cy="0" r="7"/>
  <circle id="rim2" cx="0" cy="0" r="3.5"/>
  <g id="zoomPlus">
    <use xlink:href="#rim" fill="#404040"><set attributeName="fill" to="#808080" begin="zoomplus.mouseover" end="zoomplus.mouseout"/></use>
    <path d="M-4,0h8M0,-4v8" fill="none" stroke="white" stroke-width="1.5" pointer-events="none"/>
  </g>
  <g id="zoomMin">
    <use xlink:href="#rim" fill="#404040"><set attributeName="fill" to="#808080" begin="zoomminus.mouseover" end="zoomminus.mouseout"/></use>
    <path d="M-4,0h8" fill="none" stroke="white" stroke-width="1.5" pointer-events="none"/>
  </g>
  <g id="arrowUp" transform="translate(30 24)">
    <use xlink:href="#rim"/>
    <path pointer-events="none" fill="none" stroke="white" stroke-width="1.5" d="M0,-3.0v7 M-2.5,-0.5L0,-3.0L2.5,-0.5"/>
  </g>
  <g id="arrowRight" transform="rotate(90) translate(36 -43)">
    <use xlink:href="#rim"/>
    <path pointer-events="none" fill="none" stroke="white" stroke-width="1.5" d="M0,-3.0v7 M-2.5,-0.5L0,-3.0L2.5,-0.5"/>
  </g>
  <g id="arrowDown" transform="rotate(180) translate(-30 -48)">
    <use xlink:href="#rim"/>
    <path pointer-events="none" fill="none" stroke="white" stroke-width="1.5" d="M0,-3.0v7 M-2.5,-0.5L0,-3.0L2.5,-0.5"/>
  </g>
  <g id="arrowLeft" transform="rotate(270) translate(-36 17)">
    <use xlink:href="#rim"/>
    <path pointer-events="none" fill="none" stroke="white" stroke-width="1.5" d="M0,-3.0v7 M-2.5,-0.5L0,-3.0L2.5,-0.5"/>
  </g>
  <g id="resetDef">
    <use xlink:href="#rim2" fill="#404040"><set attributeName="fill" to="#808080" begin="reset.mouseover" end="reset.mouseout"/></use>
  </g>
</defs>
<script type="application/ecmascript">
var viewWidth = 297;
var viewHeight = 689;
var sectionId = 'dynsection-0';
</script>
<script type="application/ecmascript" xlink:href="../../svg.min.js"/>
<svg id="graph" class="graph">
<g id="viewport">
<title>NookpostBackend.Configuration.Settings</title>
<!-- Node1 -->
<g id="Node000001" class="node">
<title>Node1</title>
<g id="a_Node000001"><a xlink:title="Singleton that holds settings about the server. Automatically loaded and set up by static constructor...">
<polygon fill="#999999" stroke="transparent" points="217,-317 0,-317 0,0 217,0 217,-317"/>
<text text-anchor="start" x="29" y="-304.5" font-family="Helvetica,sans-Serif" font-size="10.00">NookpostBackend.Configuration.</text>
<text text-anchor="start" x="89" y="-293.5" font-family="Helvetica,sans-Serif" font-size="10.00">Settings</text>
<text text-anchor="start" x="4.5" y="-278.5" font-family="Helvetica,sans-Serif" font-size="10.00">+</text>
<text text-anchor="start" x="17.5" y="-278.5" font-family="Helvetica,sans-Serif" font-size="10.00">const int JwtSigningKeyLength</text>
<text text-anchor="start" x="4.5" y="-263.5" font-family="Helvetica,sans-Serif" font-size="10.00">+</text>
<text text-anchor="start" x="17.5" y="-263.5" font-family="Helvetica,sans-Serif" font-size="10.00">const int ServerUserPassword</text>
<text text-anchor="start" x="17.5" y="-252.5" font-family="Helvetica,sans-Serif" font-size="10.00">PepperLength</text>
<text text-anchor="start" x="4.5" y="-237.5" font-family="Helvetica,sans-Serif" font-size="10.00">+</text>
<text text-anchor="start" x="17.5" y="-237.5" font-family="Helvetica,sans-Serif" font-size="10.00">const int UserPasswordSalt</text>
<text text-anchor="start" x="17.5" y="-226.5" font-family="Helvetica,sans-Serif" font-size="10.00">Length</text>
<text text-anchor="start" x="4.5" y="-211.5" font-family="Helvetica,sans-Serif" font-size="10.00">+</text>
<text text-anchor="start" x="17.5" y="-211.5" font-family="Helvetica,sans-Serif" font-size="10.00">static byte[] JwtIssuerSigningKey</text>
<text text-anchor="start" x="4.5" y="-196.5" font-family="Helvetica,sans-Serif" font-size="10.00">+</text>
<text text-anchor="start" x="17.5" y="-196.5" font-family="Helvetica,sans-Serif" font-size="10.00">byte[] _jwtIssuerSigningKey</text>
<text text-anchor="start" x="4.5" y="-181.5" font-family="Helvetica,sans-Serif" font-size="10.00">+</text>
<text text-anchor="start" x="17.5" y="-181.5" font-family="Helvetica,sans-Serif" font-size="10.00">static string ServerUser</text>
<text text-anchor="start" x="17.5" y="-170.5" font-family="Helvetica,sans-Serif" font-size="10.00">PasswordPepper</text>
<text text-anchor="start" x="4.5" y="-155.5" font-family="Helvetica,sans-Serif" font-size="10.00">+</text>
<text text-anchor="start" x="17.5" y="-155.5" font-family="Helvetica,sans-Serif" font-size="10.00">string _serverUserPassword</text>
<text text-anchor="start" x="17.5" y="-144.5" font-family="Helvetica,sans-Serif" font-size="10.00">Pepper</text>
<text text-anchor="start" x="4.5" y="-129.5" font-family="Helvetica,sans-Serif" font-size="10.00">+</text>
<text text-anchor="start" x="17.5" y="-129.5" font-family="Helvetica,sans-Serif" font-size="10.00">Settings(byte[] _jwtIssuer</text>
<text text-anchor="start" x="17.5" y="-118.5" font-family="Helvetica,sans-Serif" font-size="10.00">SigningKey, string _serverUserPassword</text>
<text text-anchor="start" x="17.5" y="-107.5" font-family="Helvetica,sans-Serif" font-size="10.00">Pepper)</text>
<text text-anchor="start" x="4.5" y="-92.5" font-family="Helvetica,sans-Serif" font-size="10.00">+</text>
<text text-anchor="start" x="17.5" y="-92.5" font-family="Helvetica,sans-Serif" font-size="10.00">Settings()</text>
<text text-anchor="start" x="4.5" y="-77.5" font-family="Helvetica,sans-Serif" font-size="10.00">+</text>
<text text-anchor="start" x="17.5" y="-77.5" font-family="Helvetica,sans-Serif" font-size="10.00">static void LoadSettings()</text>
<text text-anchor="start" x="4.5" y="-62.5" font-family="Helvetica,sans-Serif" font-size="10.00">+</text>
<text text-anchor="start" x="17.5" y="-62.5" font-family="Helvetica,sans-Serif" font-size="10.00">static void SaveSettings()</text>
<text text-anchor="start" x="7" y="-47.5" font-family="Helvetica,sans-Serif" font-size="10.00">&#45;</text>
<text text-anchor="start" x="17.5" y="-47.5" font-family="Helvetica,sans-Serif" font-size="10.00">static Settings()</text>
<text text-anchor="start" x="7" y="-32.5" font-family="Helvetica,sans-Serif" font-size="10.00">&#45;</text>
<text text-anchor="start" x="17.5" y="-32.5" font-family="Helvetica,sans-Serif" font-size="10.00">static Settings ReadSettings()</text>
<text text-anchor="start" x="7" y="-17.5" font-family="Helvetica,sans-Serif" font-size="10.00">&#45;</text>
<text text-anchor="start" x="17.5" y="-17.5" font-family="Helvetica,sans-Serif" font-size="10.00">static bool isSettingsIntegrity</text>
<text text-anchor="start" x="17.5" y="-6.5" font-family="Helvetica,sans-Serif" font-size="10.00">Ok(Settings settings)</text>
<polygon fill="#666666" stroke="#666666" points="0.5,-288.5 0.5,-288.5 217.5,-288.5 217.5,-288.5 0.5,-288.5"/>
<polygon fill="#666666" stroke="#666666" points="0.5,-139.5 0.5,-139.5 15.5,-139.5 15.5,-139.5 0.5,-139.5"/>
<polygon fill="#666666" stroke="#666666" points="15.5,-139.5 15.5,-139.5 217.5,-139.5 217.5,-139.5 15.5,-139.5"/>
<polygon fill="none" stroke="#666666" points="0,0 0,-317 217,-317 217,0 0,0"/>
</a>
</g>
</g>
<!-- Node2 -->
<g id="Node000002" class="node">
<title>Node2</title>
<g id="a_Node000002"><a xlink:href="../../df/d2d/classNookpostBackend_1_1Configuration_1_1Settings.html" target="_top" xlink:title="Singleton that holds settings about the server. Automatically loaded and set up by static constructor...">
<polygon fill="white" stroke="transparent" points="217,-681 0,-681 0,-364 217,-364 217,-681"/>
<text text-anchor="start" x="29" y="-668.5" font-family="Helvetica,sans-Serif" font-size="10.00">NookpostBackend.Configuration.</text>
<text text-anchor="start" x="89" y="-657.5" font-family="Helvetica,sans-Serif" font-size="10.00">Settings</text>
<text text-anchor="start" x="4.5" y="-642.5" font-family="Helvetica,sans-Serif" font-size="10.00">+</text>
<text text-anchor="start" x="17.5" y="-642.5" font-family="Helvetica,sans-Serif" font-size="10.00">const int JwtSigningKeyLength</text>
<text text-anchor="start" x="4.5" y="-627.5" font-family="Helvetica,sans-Serif" font-size="10.00">+</text>
<text text-anchor="start" x="17.5" y="-627.5" font-family="Helvetica,sans-Serif" font-size="10.00">const int ServerUserPassword</text>
<text text-anchor="start" x="17.5" y="-616.5" font-family="Helvetica,sans-Serif" font-size="10.00">PepperLength</text>
<text text-anchor="start" x="4.5" y="-601.5" font-family="Helvetica,sans-Serif" font-size="10.00">+</text>
<text text-anchor="start" x="17.5" y="-601.5" font-family="Helvetica,sans-Serif" font-size="10.00">const int UserPasswordSalt</text>
<text text-anchor="start" x="17.5" y="-590.5" font-family="Helvetica,sans-Serif" font-size="10.00">Length</text>
<text text-anchor="start" x="4.5" y="-575.5" font-family="Helvetica,sans-Serif" font-size="10.00">+</text>
<text text-anchor="start" x="17.5" y="-575.5" font-family="Helvetica,sans-Serif" font-size="10.00">static byte[] JwtIssuerSigningKey</text>
<text text-anchor="start" x="4.5" y="-560.5" font-family="Helvetica,sans-Serif" font-size="10.00">+</text>
<text text-anchor="start" x="17.5" y="-560.5" font-family="Helvetica,sans-Serif" font-size="10.00">byte[] _jwtIssuerSigningKey</text>
<text text-anchor="start" x="4.5" y="-545.5" font-family="Helvetica,sans-Serif" font-size="10.00">+</text>
<text text-anchor="start" x="17.5" y="-545.5" font-family="Helvetica,sans-Serif" font-size="10.00">static string ServerUser</text>
<text text-anchor="start" x="17.5" y="-534.5" font-family="Helvetica,sans-Serif" font-size="10.00">PasswordPepper</text>
<text text-anchor="start" x="4.5" y="-519.5" font-family="Helvetica,sans-Serif" font-size="10.00">+</text>
<text text-anchor="start" x="17.5" y="-519.5" font-family="Helvetica,sans-Serif" font-size="10.00">string _serverUserPassword</text>
<text text-anchor="start" x="17.5" y="-508.5" font-family="Helvetica,sans-Serif" font-size="10.00">Pepper</text>
<text text-anchor="start" x="4.5" y="-493.5" font-family="Helvetica,sans-Serif" font-size="10.00">+</text>
<text text-anchor="start" x="17.5" y="-493.5" font-family="Helvetica,sans-Serif" font-size="10.00">Settings(byte[] _jwtIssuer</text>
<text text-anchor="start" x="17.5" y="-482.5" font-family="Helvetica,sans-Serif" font-size="10.00">SigningKey, string _serverUserPassword</text>
<text text-anchor="start" x="17.5" y="-471.5" font-family="Helvetica,sans-Serif" font-size="10.00">Pepper)</text>
<text text-anchor="start" x="4.5" y="-456.5" font-family="Helvetica,sans-Serif" font-size="10.00">+</text>
<text text-anchor="start" x="17.5" y="-456.5" font-family="Helvetica,sans-Serif" font-size="10.00">Settings()</text>
<text text-anchor="start" x="4.5" y="-441.5" font-family="Helvetica,sans-Serif" font-size="10.00">+</text>
<text text-anchor="start" x="17.5" y="-441.5" font-family="Helvetica,sans-Serif" font-size="10.00">static void LoadSettings()</text>
<text text-anchor="start" x="4.5" y="-426.5" font-family="Helvetica,sans-Serif" font-size="10.00">+</text>
<text text-anchor="start" x="17.5" y="-426.5" font-family="Helvetica,sans-Serif" font-size="10.00">static void SaveSettings()</text>
<text text-anchor="start" x="7" y="-411.5" font-family="Helvetica,sans-Serif" font-size="10.00">&#45;</text>
<text text-anchor="start" x="17.5" y="-411.5" font-family="Helvetica,sans-Serif" font-size="10.00">static Settings()</text>
<text text-anchor="start" x="7" y="-396.5" font-family="Helvetica,sans-Serif" font-size="10.00">&#45;</text>
<text text-anchor="start" x="17.5" y="-396.5" font-family="Helvetica,sans-Serif" font-size="10.00">static Settings ReadSettings()</text>
<text text-anchor="start" x="7" y="-381.5" font-family="Helvetica,sans-Serif" font-size="10.00">&#45;</text>
<text text-anchor="start" x="17.5" y="-381.5" font-family="Helvetica,sans-Serif" font-size="10.00">static bool isSettingsIntegrity</text>
<text text-anchor="start" x="17.5" y="-370.5" font-family="Helvetica,sans-Serif" font-size="10.00">Ok(Settings settings)</text>
<polygon fill="#666666" stroke="#666666" points="0.5,-652.5 0.5,-652.5 217.5,-652.5 217.5,-652.5 0.5,-652.5"/>
<polygon fill="#666666" stroke="#666666" points="0.5,-503.5 0.5,-503.5 15.5,-503.5 15.5,-503.5 0.5,-503.5"/>
<polygon fill="#666666" stroke="#666666" points="15.5,-503.5 15.5,-503.5 217.5,-503.5 217.5,-503.5 15.5,-503.5"/>
<polygon fill="none" stroke="#666666" points="0,-364 0,-681 217,-681 217,-364 0,-364"/>
</a>
</g>
</g>
<!-- Node2&#45;&gt;Node1 -->
<g id="edge1_Node000001_Node000002" class="edge">
<title>Node2&#45;&gt;Node1</title>
<g id="a_edge1_Node000001_Node000002"><a xlink:title=" ">
<path fill="none" stroke="#63b8ff" d="M108.5,-363.77C108.5,-352.44 108.5,-340.98 108.5,-329.58"/>
<polygon fill="none" stroke="#63b8ff" points="108.5,-329.25 104.5,-323.25 108.5,-317.25 112.5,-323.25 108.5,-329.25"/>
</a>
</g>
<text text-anchor="middle" x="135.5" y="-338" font-family="Helvetica,sans-Serif" font-size="10.00" fill="grey"> &#45;_instance</text>
</g>
<!-- Node2&#45;&gt;Node2 -->
<g id="edge2_Node000002_Node000002" class="edge">
<title>Node2&#45;&gt;Node2</title>
<g id="a_edge2_Node000002_Node000002"><a xlink:title=" ">
<path fill="none" stroke="#63b8ff" d="M217.36,-550.32C228.14,-544.75 235,-535.47 235,-522.5 235,-514.19 232.19,-507.39 227.33,-502.12"/>
<polygon fill="none" stroke="#63b8ff" points="226.98,-501.86 219.77,-501.47 217.36,-494.68 224.56,-495.06 226.98,-501.86"/>
</a>
</g>
<text text-anchor="middle" x="262" y="-520" font-family="Helvetica,sans-Serif" font-size="10.00" fill="grey"> &#45;_instance</text>
</g>
</g>
</svg>

<g id="navigator" transform="translate(0 0)" fill="#404254">
  <rect fill="#f2f5e9" fill-opacity="0.5" stroke="#606060" stroke-width=".5" x="0" y="0" width="60" height="60"/>
  <use id="zoomplus" xlink:href="#zoomPlus" x="17" y="9" onmousedown="handleZoom(evt,'in')"/>
  <use id="zoomminus" xlink:href="#zoomMin" x="42" y="9" onmousedown="handleZoom(evt,'out')"/>
  <use id="reset" xlink:href="#resetDef" x="30" y="36" onmousedown="handleReset()"/>
   <use id="arrowup" xlink:href="#arrowUp" x="0" y="0" onmousedown="handlePan(0,-1)"/>
  <use id="arrowright" xlink:href="#arrowRight" x="0" y="0" onmousedown="handlePan(1,0)"/>
  <use id="arrowdown" xlink:href="#arrowDown" x="0" y="0" onmousedown="handlePan(0,1)"/>
  <use id="arrowleft" xlink:href="#arrowLeft" x="0" y="0" onmousedown="handlePan(-1,0)"/>
</g>
<svg viewBox="0 0 15 15" width="100%" height="30px" preserveAspectRatio="xMaxYMin meet">
 <g id="arrow_out" transform="scale(0.3 0.3)">
  <a xlink:href="classNookpostBackend_1_1Configuration_1_1Settings__coll__graph_org.svg" target="_base">
   <rect id="button" ry="5" rx="5" y="6" x="6" height="38" width="38"
        fill="#f2f5e9" fill-opacity="0.5" stroke="#606060" stroke-width="1.0"/>
   <path id="arrow"
     d="M 11.500037,31.436501 C 11.940474,20.09759 22.043105,11.32322 32.158766,21.979434 L 37.068811,17.246167 C 37.068811,17.246167 37.088388,32 37.088388,32 L 22.160133,31.978069 C 22.160133,31.978069 26.997745,27.140456 26.997745,27.140456 C 18.528582,18.264221 13.291696,25.230495 11.500037,31.436501 z"
     style="fill:#404040;"/>
  </a>
 </g>
</svg>

<style type='text/css'>
<![CDATA[
[data-mouse-over-selected='false'] { opacity: 0.7; }
[data-mouse-over-selected='true']  { opacity: 1.0; }
]]>
</style>
<script type="application/ecmascript"><![CDATA[
document.addEventListener('DOMContentLoaded', (event) => {
  highlightEdges();
  highlightAdjacentNodes();
});
]]></script>
</svg>
