<?xml version="1.0" encoding="UTF-8" standalone="no"?>
<!DOCTYPE svg PUBLIC "-//W3C//DTD SVG 1.1//EN"
 "http://www.w3.org/Graphics/SVG/1.1/DTD/svg11.dtd">
<!-- Generated by graphviz version 2.43.0 (0)
 -->
<!-- Title: B Pages: 1 -->
<svg width="69pt" height="227pt"
 viewBox="0.00 0.00 69.00 227.00" xmlns="http://www.w3.org/2000/svg" xmlns:xlink="http://www.w3.org/1999/xlink">
<g id="graph0" class="graph" transform="scale(1 1) rotate(0) translate(4 223)">
<title>B</title>
<!-- Node1 -->
<g id="Node000001" class="node">
<title>Node1</title>
<g id="a_Node000001"><a xlink:title=" ">
<polygon fill="#999999" stroke="transparent" points="61,-219 0,-219 0,-170 61,-170 61,-219"/>
<text text-anchor="start" x="27.5" y="-206.5" font-family="Helvetica,sans-Serif" font-size="10.00">B</text>
<text text-anchor="start" x="4.5" y="-191.5" font-family="Helvetica,sans-Serif" font-size="10.00">+</text>
<text text-anchor="start" x="17.5" y="-191.5" font-family="Helvetica,sans-Serif" font-size="10.00">A * m_a</text>
<text text-anchor="start" x="29" y="-176.5" font-family="Helvetica,sans-Serif" font-size="10.00"> </text>
<polygon fill="#666666" stroke="#666666" points="0.5,-201.5 0.5,-201.5 61.5,-201.5 61.5,-201.5 0.5,-201.5"/>
<polygon fill="#666666" stroke="#666666" points="0.5,-186.5 0.5,-186.5 15.5,-186.5 15.5,-186.5 0.5,-186.5"/>
<polygon fill="#666666" stroke="#666666" points="15.5,-186.5 15.5,-186.5 61.5,-186.5 61.5,-186.5 15.5,-186.5"/>
<polygon fill="none" stroke="#666666" points="0,-170 0,-219 61,-219 61,-170 0,-170"/>
</a>
</g>
</g>
<!-- Node2 -->
<g id="Node000002" class="node">
<title>Node2</title>
<g id="a_Node000002"><a xlink:href="../../de/d26/classD.html" target="_top" xlink:title=" ">
<polygon fill="white" stroke="transparent" points="56.5,-134 4.5,-134 4.5,-85 56.5,-85 56.5,-134"/>
<text text-anchor="start" x="26.5" y="-121.5" font-family="Helvetica,sans-Serif" font-size="10.00">D</text>
<text text-anchor="start" x="8.5" y="-106.5" font-family="Helvetica,sans-Serif" font-size="10.00">+</text>
<text text-anchor="start" x="21.5" y="-106.5" font-family="Helvetica,sans-Serif" font-size="10.00">C m_c</text>
<text text-anchor="start" x="28.5" y="-91.5" font-family="Helvetica,sans-Serif" font-size="10.00"> </text>
<polygon fill="#666666" stroke="#666666" points="4.5,-116.5 4.5,-116.5 56.5,-116.5 56.5,-116.5 4.5,-116.5"/>
<polygon fill="#666666" stroke="#666666" points="4.5,-101.5 4.5,-101.5 19.5,-101.5 19.5,-101.5 4.5,-101.5"/>
<polygon fill="#666666" stroke="#666666" points="19.5,-101.5 19.5,-101.5 56.5,-101.5 56.5,-101.5 19.5,-101.5"/>
<polygon fill="none" stroke="#666666" points="4.5,-85 4.5,-134 56.5,-134 56.5,-85 4.5,-85"/>
</a>
</g>
</g>
<!-- Node1&#45;&gt;Node2 -->
<g id="edge1_Node000001_Node000002" class="edge">
<title>Node1&#45;&gt;Node2</title>
<g id="a_edge1_Node000001_Node000002"><a xlink:title=" ">
<path fill="none" stroke="#8b1a1a" d="M30.5,-159.77C30.5,-151.17 30.5,-142.1 30.5,-134.12"/>
<polygon fill="none" stroke="#8b1a1a" points="27,-159.94 30.5,-169.94 34,-159.94 27,-159.94"/>
</a>
</g>
</g>
<!-- Node3 -->
<g id="Node000003" class="node">
<title>Node3</title>
<g id="a_Node000003"><a xlink:href="../../da/d5a/classE.html" target="_top" xlink:title=" ">
<polygon fill="white" stroke="transparent" points="39,-49 22,-49 22,0 39,0 39,-49"/>
<text text-anchor="start" x="27.5" y="-36.5" font-family="Helvetica,sans-Serif" font-size="10.00">E</text>
<text text-anchor="start" x="29" y="-21.5" font-family="Helvetica,sans-Serif" font-size="10.00"> </text>
<text text-anchor="start" x="29" y="-6.5" font-family="Helvetica,sans-Serif" font-size="10.00"> </text>
<polygon fill="#666666" stroke="#666666" points="22.5,-31.5 22.5,-31.5 39.5,-31.5 39.5,-31.5 22.5,-31.5"/>
<polygon fill="#666666" stroke="#666666" points="22.5,-16.5 22.5,-16.5 39.5,-16.5 39.5,-16.5 22.5,-16.5"/>
<polygon fill="none" stroke="#666666" points="22,0 22,-49 39,-49 39,0 22,0"/>
</a>
</g>
</g>
<!-- Node2&#45;&gt;Node3 -->
<g id="edge2_Node000002_Node000003" class="edge">
<title>Node2&#45;&gt;Node3</title>
<g id="a_edge2_Node000002_Node000003"><a xlink:title=" ">
<path fill="none" stroke="#63b8ff" d="M30.5,-74.77C30.5,-66.17 30.5,-57.1 30.5,-49.12"/>
<polygon fill="none" stroke="#63b8ff" points="27,-74.94 30.5,-84.94 34,-74.94 27,-74.94"/>
</a>
</g>
</g>
</g>
</svg>
