<?xml version="1.0" encoding="UTF-8" standalone="no"?>
<!DOCTYPE svg PUBLIC "-//W3C//DTD SVG 1.1//EN"
 "http://www.w3.org/Graphics/SVG/1.1/DTD/svg11.dtd">
<!-- Generated by graphviz version 2.43.0 (0)
 -->
<!-- Title: NookpostBackend.ApiEndpoints.EndpointSetup.Setup Pages: 1 -->
<svg width="1086pt" height="745pt"
 viewBox="0.00 0.00 1086.00 744.50" xmlns="http://www.w3.org/2000/svg" xmlns:xlink="http://www.w3.org/1999/xlink">
<g id="graph0" class="graph" transform="scale(1 1) rotate(0) translate(4 740.5)">
<title>NookpostBackend.ApiEndpoints.EndpointSetup.Setup</title>
<!-- Node1 -->
<g id="Node000001" class="node">
<title>Node1</title>
<g id="a_Node000001"><a xlink:title="Sets up all API Endpints on the given webapp">
<polygon fill="#999999" stroke="#666666" points="174,-484.5 0,-484.5 0,-454.5 174,-454.5 174,-484.5"/>
<text text-anchor="start" x="8" y="-472.5" font-family="Helvetica,sans-Serif" font-size="10.00">NookpostBackend.ApiEndpoints.</text>
<text text-anchor="middle" x="87" y="-461.5" font-family="Helvetica,sans-Serif" font-size="10.00">EndpointSetup.Setup</text>
</a>
</g>
</g>
<!-- Node2 -->
<g id="Node000002" class="node">
<title>Node2</title>
<g id="a_Node000002"><a xlink:href="../../da/dec/classNookpostBackend_1_1ApiEndpoints_1_1Authentication_1_1EndpointSetup.html#a8392c3a12fa78c0464e385e38fb3e4c1" target="_top" xlink:title="Initialize the Authentication Endpoints on the WebApp object.">
<polygon fill="white" stroke="#666666" points="402,-706.5 210,-706.5 210,-676.5 402,-676.5 402,-706.5"/>
<text text-anchor="start" x="218" y="-694.5" font-family="Helvetica,sans-Serif" font-size="10.00">NookpostBackend.ApiEndpoints.</text>
<text text-anchor="middle" x="306" y="-683.5" font-family="Helvetica,sans-Serif" font-size="10.00">Authentication.EndpointSetup.Setup</text>
</a>
</g>
</g>
<!-- Node1&#45;&gt;Node2 -->
<g id="edge1_Node000001_Node000002" class="edge">
<title>Node1&#45;&gt;Node2</title>
<g id="a_edge1_Node000001_Node000002"><a xlink:title=" ">
<path fill="none" stroke="#63b8ff" d="M96.02,-484.61C113.36,-516.19 157.07,-590.16 210,-637.5 225.15,-651.05 244.26,-662.72 261.37,-671.71"/>
<polygon fill="#63b8ff" stroke="#63b8ff" points="260.12,-675 270.62,-676.42 263.3,-668.76 260.12,-675"/>
</a>
</g>
</g>
<!-- Node6 -->
<g id="Node000006" class="node">
<title>Node6</title>
<g id="a_Node000006"><a xlink:href="../../d9/de7/classNookpostBackend_1_1ApiEndpoints_1_1Categories_1_1EndpointSetup.html#a86d3e18e54302732e5eebb32bdb6ad57" target="_top" xlink:title="Sets up the post endpoints on the given Webapp">
<polygon fill="white" stroke="#666666" points="393,-628.5 219,-628.5 219,-598.5 393,-598.5 393,-628.5"/>
<text text-anchor="start" x="227" y="-616.5" font-family="Helvetica,sans-Serif" font-size="10.00">NookpostBackend.ApiEndpoints.</text>
<text text-anchor="middle" x="306" y="-605.5" font-family="Helvetica,sans-Serif" font-size="10.00">Categories.EndpointSetup.Setup</text>
</a>
</g>
</g>
<!-- Node1&#45;&gt;Node6 -->
<g id="edge5_Node000001_Node000006" class="edge">
<title>Node1&#45;&gt;Node6</title>
<g id="a_edge5_Node000001_Node000006"><a xlink:title=" ">
<path fill="none" stroke="#63b8ff" d="M110.81,-484.64C149.88,-510.57 229.66,-563.5 273.83,-592.82"/>
<polygon fill="#63b8ff" stroke="#63b8ff" points="271.9,-595.74 282.17,-598.35 275.77,-589.9 271.9,-595.74"/>
</a>
</g>
</g>
<!-- Node9 -->
<g id="Node000009" class="node">
<title>Node9</title>
<g id="a_Node000009"><a xlink:href="../../dd/d3d/classNookpostBackend_1_1ApiEndpoints_1_1Posts_1_1EndpointSetup.html#a464305357459e2d7e611f4e1fb258cf8" target="_top" xlink:title="Sets up the post endpoints on the given Webapp">
<polygon fill="white" stroke="#666666" points="393,-484.5 219,-484.5 219,-454.5 393,-454.5 393,-484.5"/>
<text text-anchor="start" x="227" y="-472.5" font-family="Helvetica,sans-Serif" font-size="10.00">NookpostBackend.ApiEndpoints.</text>
<text text-anchor="middle" x="306" y="-461.5" font-family="Helvetica,sans-Serif" font-size="10.00">Posts.EndpointSetup.Setup</text>
</a>
</g>
</g>
<!-- Node1&#45;&gt;Node9 -->
<g id="edge8_Node000001_Node000009" class="edge">
<title>Node1&#45;&gt;Node9</title>
<g id="a_edge8_Node000001_Node000009"><a xlink:title=" ">
<path fill="none" stroke="#63b8ff" d="M174.08,-469.5C185.42,-469.5 197.12,-469.5 208.62,-469.5"/>
<polygon fill="#63b8ff" stroke="#63b8ff" points="208.67,-473 218.67,-469.5 208.67,-466 208.67,-473"/>
</a>
</g>
</g>
<!-- Node15 -->
<g id="Node000015" class="node">
<title>Node15</title>
<g id="a_Node000015"><a xlink:href="../../d3/dd0/classNookpostBackend_1_1ApiEndpoints_1_1Users_1_1EndpointSetup.html#a4dbfdc6339578aaf6762795e71dbe9dd" target="_top" xlink:title="Sets up the user endpoints on the given Webapp">
<polygon fill="white" stroke="#666666" points="393,-268.5 219,-268.5 219,-238.5 393,-238.5 393,-268.5"/>
<text text-anchor="start" x="227" y="-256.5" font-family="Helvetica,sans-Serif" font-size="10.00">NookpostBackend.ApiEndpoints.</text>
<text text-anchor="middle" x="306" y="-245.5" font-family="Helvetica,sans-Serif" font-size="10.00">Users.EndpointSetup.Setup</text>
</a>
</g>
</g>
<!-- Node1&#45;&gt;Node15 -->
<g id="edge14_Node000001_Node000015" class="edge">
<title>Node1&#45;&gt;Node15</title>
<g id="a_edge14_Node000001_Node000015"><a xlink:title=" ">
<path fill="none" stroke="#63b8ff" d="M103.26,-454.31C140.92,-416.82 238.45,-319.74 282.64,-275.75"/>
<polygon fill="#63b8ff" stroke="#63b8ff" points="285.14,-278.21 289.76,-268.67 280.2,-273.25 285.14,-278.21"/>
</a>
</g>
</g>
<!-- Node22 -->
<g id="Node000022" class="node">
<title>Node22</title>
<g id="a_Node000022"><a xlink:href="../../d2/d5d/classNookpostBackend_1_1ApiEndpoints_1_1UserSettings_1_1EndpointSetup.html#aa202c3a7566b9d1591d3b894013cbc42" target="_top" xlink:title="Sets up the user settigns endpoints on the given Webapp">
<polygon fill="white" stroke="#666666" points="397.5,-94.5 214.5,-94.5 214.5,-64.5 397.5,-64.5 397.5,-94.5"/>
<text text-anchor="start" x="222.5" y="-82.5" font-family="Helvetica,sans-Serif" font-size="10.00">NookpostBackend.ApiEndpoints.</text>
<text text-anchor="middle" x="306" y="-71.5" font-family="Helvetica,sans-Serif" font-size="10.00">UserSettings.EndpointSetup.Setup</text>
</a>
</g>
</g>
<!-- Node1&#45;&gt;Node22 -->
<g id="edge22_Node000001_Node000022" class="edge">
<title>Node1&#45;&gt;Node22</title>
<g id="a_edge22_Node000001_Node000022"><a xlink:title=" ">
<path fill="none" stroke="#63b8ff" d="M95.09,-454.36C113.13,-416.07 162.72,-312.57 210,-229.5 236,-183.81 269.52,-132.43 289,-103.21"/>
<polygon fill="#63b8ff" stroke="#63b8ff" points="292.15,-104.8 294.81,-94.54 286.34,-100.9 292.15,-104.8"/>
</a>
</g>
</g>
<!-- Node3 -->
<g id="Node000003" class="node">
<title>Node3</title>
<g id="a_Node000003"><a xlink:href="../../d0/d93/classNookpostBackend_1_1ApiEndpoints_1_1Authentication_1_1Login.html#a918444cedb461f353b4f3a00642ba169" target="_top" xlink:title="Authenticates the user and returns an access token.">
<polygon fill="white" stroke="#666666" points="629.5,-736.5 455.5,-736.5 455.5,-706.5 629.5,-706.5 629.5,-736.5"/>
<text text-anchor="start" x="463.5" y="-724.5" font-family="Helvetica,sans-Serif" font-size="10.00">NookpostBackend.ApiEndpoints.</text>
<text text-anchor="middle" x="542.5" y="-713.5" font-family="Helvetica,sans-Serif" font-size="10.00">Authentication.Login.PostLogin</text>
</a>
</g>
</g>
<!-- Node2&#45;&gt;Node3 -->
<g id="edge2_Node000002_Node000003" class="edge">
<title>Node2&#45;&gt;Node3</title>
<g id="a_edge2_Node000002_Node000003"><a xlink:title=" ">
<path fill="none" stroke="#63b8ff" d="M402.04,-703.66C416.24,-705.48 430.89,-707.35 445.12,-709.17"/>
<polygon fill="#63b8ff" stroke="#63b8ff" points="445.03,-712.69 455.39,-710.48 445.92,-705.74 445.03,-712.69"/>
</a>
</g>
</g>
<!-- Node4 -->
<g id="Node000004" class="node">
<title>Node4</title>
<g id="a_Node000004"><a xlink:href="../../d3/d34/classNookpostBackend_1_1Cryptography_1_1PasswordHashing.html#a40192bd81c7fc4e7cc265f84e5d99df3" target="_top" xlink:title="Validate a password for a user.">
<polygon fill="white" stroke="#666666" points="866,-622.5 683,-622.5 683,-592.5 866,-592.5 866,-622.5"/>
<text text-anchor="start" x="691" y="-610.5" font-family="Helvetica,sans-Serif" font-size="10.00">NookpostBackend.Cryptography.</text>
<text text-anchor="middle" x="774.5" y="-599.5" font-family="Helvetica,sans-Serif" font-size="10.00">PasswordHashing.isPasswordValid</text>
</a>
</g>
</g>
<!-- Node3&#45;&gt;Node4 -->
<g id="edge3_Node000003_Node000004" class="edge">
<title>Node3&#45;&gt;Node4</title>
<g id="a_edge3_Node000003_Node000004"><a xlink:title=" ">
<path fill="none" stroke="#63b8ff" d="M622.83,-706.49C631.15,-703.93 639.35,-700.95 647,-697.5 685.86,-680 724.98,-649.78 749.21,-629.23"/>
<polygon fill="#63b8ff" stroke="#63b8ff" points="751.54,-631.85 756.83,-622.67 746.97,-626.54 751.54,-631.85"/>
</a>
</g>
</g>
<!-- Node5 -->
<g id="Node000005" class="node">
<title>Node5</title>
<g id="a_Node000005"><a xlink:href="../../d3/d34/classNookpostBackend_1_1Cryptography_1_1PasswordHashing.html#aeb943c5a3973106cc7405123255da371" target="_top" xlink:title="Hash a password with the given salt and password. The Pepper will automatically be obtained from sett...">
<polygon fill="white" stroke="#666666" points="1078,-544.5 902,-544.5 902,-514.5 1078,-514.5 1078,-544.5"/>
<text text-anchor="start" x="910" y="-532.5" font-family="Helvetica,sans-Serif" font-size="10.00">NookpostBackend.Cryptography.</text>
<text text-anchor="middle" x="990" y="-521.5" font-family="Helvetica,sans-Serif" font-size="10.00">PasswordHashing.HashPassword</text>
</a>
</g>
</g>
<!-- Node4&#45;&gt;Node5 -->
<g id="edge4_Node000004_Node000005" class="edge">
<title>Node4&#45;&gt;Node5</title>
<g id="a_edge4_Node000004_Node000005"><a xlink:title=" ">
<path fill="none" stroke="#63b8ff" d="M816.66,-592.46C851.26,-579.82 900.85,-561.7 937.97,-548.14"/>
<polygon fill="#63b8ff" stroke="#63b8ff" points="939.41,-551.34 947.6,-544.63 937,-544.77 939.41,-551.34"/>
</a>
</g>
</g>
<!-- Node7 -->
<g id="Node000007" class="node">
<title>Node7</title>
<g id="a_Node000007"><a xlink:href="../../da/d57/classNookpostBackend_1_1ApiEndpoints_1_1Categories_1_1GetAllCategories.html#a36e796bcfd7fa5da82d9b48f4aacf17c" target="_top" xlink:title="Gets all categories.">
<polygon fill="white" stroke="#666666" points="638.5,-688 446.5,-688 446.5,-647 638.5,-647 638.5,-688"/>
<text text-anchor="start" x="454.5" y="-676" font-family="Helvetica,sans-Serif" font-size="10.00">NookpostBackend.ApiEndpoints.</text>
<text text-anchor="start" x="454.5" y="-665" font-family="Helvetica,sans-Serif" font-size="10.00">Categories.GetAllCategories.Handle</text>
<text text-anchor="middle" x="542.5" y="-654" font-family="Helvetica,sans-Serif" font-size="10.00">Request</text>
</a>
</g>
</g>
<!-- Node6&#45;&gt;Node7 -->
<g id="edge6_Node000006_Node000007" class="edge">
<title>Node6&#45;&gt;Node7</title>
<g id="a_edge6_Node000006_Node000007"><a xlink:title=" ">
<path fill="none" stroke="#63b8ff" d="M372.32,-628.54C394.12,-633.56 418.92,-639.27 442.68,-644.74"/>
<polygon fill="#63b8ff" stroke="#63b8ff" points="441.9,-648.16 452.43,-646.99 443.47,-641.33 441.9,-648.16"/>
</a>
</g>
</g>
<!-- Node8 -->
<g id="Node000008" class="node">
<title>Node8</title>
<g id="a_Node000008"><a xlink:href="../../d1/d03/classNookpostBackend_1_1ApiEndpoints_1_1Categories_1_1GetCategory.html#ab26aea39bfa0116227341c1ae6abefa2" target="_top" xlink:title="Gets a category.">
<polygon fill="white" stroke="#666666" points="647,-628.5 438,-628.5 438,-598.5 647,-598.5 647,-628.5"/>
<text text-anchor="start" x="446" y="-616.5" font-family="Helvetica,sans-Serif" font-size="10.00">NookpostBackend.ApiEndpoints.</text>
<text text-anchor="middle" x="542.5" y="-605.5" font-family="Helvetica,sans-Serif" font-size="10.00">Categories.GetCategory.HandleRequest</text>
</a>
</g>
</g>
<!-- Node6&#45;&gt;Node8 -->
<g id="edge7_Node000006_Node000008" class="edge">
<title>Node6&#45;&gt;Node8</title>
<g id="a_edge7_Node000006_Node000008"><a xlink:title=" ">
<path fill="none" stroke="#63b8ff" d="M393.32,-613.5C404.53,-613.5 416.15,-613.5 427.72,-613.5"/>
<polygon fill="#63b8ff" stroke="#63b8ff" points="427.87,-617 437.87,-613.5 427.87,-610 427.87,-617"/>
</a>
</g>
</g>
<!-- Node10 -->
<g id="Node000010" class="node">
<title>Node10</title>
<g id="a_Node000010"><a xlink:href="../../d8/dcc/classNookpostBackend_1_1ApiEndpoints_1_1Posts_1_1DeletePost.html#aec4ba97b4ad288b8ecc4d1b61244da9f" target="_top" xlink:title="Deletes a post.">
<polygon fill="white" stroke="#666666" points="630.5,-580.5 454.5,-580.5 454.5,-550.5 630.5,-550.5 630.5,-580.5"/>
<text text-anchor="start" x="462.5" y="-568.5" font-family="Helvetica,sans-Serif" font-size="10.00">NookpostBackend.ApiEndpoints.</text>
<text text-anchor="middle" x="542.5" y="-557.5" font-family="Helvetica,sans-Serif" font-size="10.00">Posts.DeletePost.HandleRequest</text>
</a>
</g>
</g>
<!-- Node9&#45;&gt;Node10 -->
<g id="edge9_Node000009_Node000010" class="edge">
<title>Node9&#45;&gt;Node10</title>
<g id="a_edge9_Node000009_Node000010"><a xlink:title=" ">
<path fill="none" stroke="#63b8ff" d="M329.73,-484.53C355.14,-500.72 398,-526.21 438,-541.5 443.77,-543.7 449.79,-545.74 455.92,-547.62"/>
<polygon fill="#63b8ff" stroke="#63b8ff" points="455.01,-551 465.59,-550.44 456.97,-544.28 455.01,-551"/>
</a>
</g>
</g>
<!-- Node11 -->
<g id="Node000011" class="node">
<title>Node11</title>
<g id="a_Node000011"><a xlink:href="../../da/dbd/classNookpostBackend_1_1ApiEndpoints_1_1Posts_1_1GetPost.html#ae9af24ab2b8d507826b031e3c37324c1" target="_top" xlink:title="Gets a post.">
<polygon fill="white" stroke="#666666" points="629.5,-532.5 455.5,-532.5 455.5,-502.5 629.5,-502.5 629.5,-532.5"/>
<text text-anchor="start" x="463.5" y="-520.5" font-family="Helvetica,sans-Serif" font-size="10.00">NookpostBackend.ApiEndpoints.</text>
<text text-anchor="middle" x="542.5" y="-509.5" font-family="Helvetica,sans-Serif" font-size="10.00">Posts.GetPost.HandleRequest</text>
</a>
</g>
</g>
<!-- Node9&#45;&gt;Node11 -->
<g id="edge10_Node000009_Node000011" class="edge">
<title>Node9&#45;&gt;Node11</title>
<g id="a_edge10_Node000009_Node000011"><a xlink:title=" ">
<path fill="none" stroke="#63b8ff" d="M380.55,-484.56C405.22,-489.6 432.89,-495.27 458.25,-500.46"/>
<polygon fill="#63b8ff" stroke="#63b8ff" points="457.71,-503.92 468.21,-502.5 459.11,-497.06 457.71,-503.92"/>
</a>
</g>
</g>
<!-- Node12 -->
<g id="Node000012" class="node">
<title>Node12</title>
<g id="a_Node000012"><a xlink:href="../../d1/df7/classNookpostBackend_1_1ApiEndpoints_1_1Posts_1_1GetPostFiltered.html#a851fc8ec666222bb7b1ef45e286e5957" target="_top" xlink:title="Gets a filtered set of posts.">
<polygon fill="white" stroke="#666666" points="641.5,-484.5 443.5,-484.5 443.5,-454.5 641.5,-454.5 641.5,-484.5"/>
<text text-anchor="start" x="451.5" y="-472.5" font-family="Helvetica,sans-Serif" font-size="10.00">NookpostBackend.ApiEndpoints.</text>
<text text-anchor="middle" x="542.5" y="-461.5" font-family="Helvetica,sans-Serif" font-size="10.00">Posts.GetPostFiltered.HandleRequest</text>
</a>
</g>
</g>
<!-- Node9&#45;&gt;Node12 -->
<g id="edge11_Node000009_Node000012" class="edge">
<title>Node9&#45;&gt;Node12</title>
<g id="a_edge11_Node000009_Node000012"><a xlink:title=" ">
<path fill="none" stroke="#63b8ff" d="M393.32,-469.5C406.33,-469.5 419.88,-469.5 433.28,-469.5"/>
<polygon fill="#63b8ff" stroke="#63b8ff" points="433.48,-473 443.48,-469.5 433.48,-466 433.48,-473"/>
</a>
</g>
</g>
<!-- Node13 -->
<g id="Node000013" class="node">
<title>Node13</title>
<g id="a_Node000013"><a xlink:href="../../d9/d72/classNookpostBackend_1_1ApiEndpoints_1_1Posts_1_1PostPost.html#a84d88a3574a77476de35fd8ad00dde3e" target="_top" xlink:title="Creates a post.">
<polygon fill="white" stroke="#666666" points="629.5,-436.5 455.5,-436.5 455.5,-406.5 629.5,-406.5 629.5,-436.5"/>
<text text-anchor="start" x="463.5" y="-424.5" font-family="Helvetica,sans-Serif" font-size="10.00">NookpostBackend.ApiEndpoints.</text>
<text text-anchor="middle" x="542.5" y="-413.5" font-family="Helvetica,sans-Serif" font-size="10.00">Posts.PostPost.HandleRequest</text>
</a>
</g>
</g>
<!-- Node9&#45;&gt;Node13 -->
<g id="edge12_Node000009_Node000013" class="edge">
<title>Node9&#45;&gt;Node13</title>
<g id="a_edge12_Node000009_Node000013"><a xlink:title=" ">
<path fill="none" stroke="#63b8ff" d="M380.55,-454.44C405.22,-449.4 432.89,-443.73 458.25,-438.54"/>
<polygon fill="#63b8ff" stroke="#63b8ff" points="459.11,-441.94 468.21,-436.5 457.71,-435.08 459.11,-441.94"/>
</a>
</g>
</g>
<!-- Node14 -->
<g id="Node000014" class="node">
<title>Node14</title>
<g id="a_Node000014"><a xlink:href="../../d8/d19/classNookpostBackend_1_1ApiEndpoints_1_1Posts_1_1PutPost.html#a152ffc5dd937f07a8ff30ab4acd55e8e" target="_top" xlink:title="Modifies a post.">
<polygon fill="white" stroke="#666666" points="629.5,-388.5 455.5,-388.5 455.5,-358.5 629.5,-358.5 629.5,-388.5"/>
<text text-anchor="start" x="463.5" y="-376.5" font-family="Helvetica,sans-Serif" font-size="10.00">NookpostBackend.ApiEndpoints.</text>
<text text-anchor="middle" x="542.5" y="-365.5" font-family="Helvetica,sans-Serif" font-size="10.00">Posts.PutPost.HandleRequest</text>
</a>
</g>
</g>
<!-- Node9&#45;&gt;Node14 -->
<g id="edge13_Node000009_Node000014" class="edge">
<title>Node9&#45;&gt;Node14</title>
<g id="a_edge13_Node000009_Node000014"><a xlink:title=" ">
<path fill="none" stroke="#63b8ff" d="M329.73,-454.47C355.14,-438.28 398,-412.79 438,-397.5 443.77,-395.3 449.79,-393.26 455.92,-391.38"/>
<polygon fill="#63b8ff" stroke="#63b8ff" points="456.97,-394.72 465.59,-388.56 455.01,-388 456.97,-394.72"/>
</a>
</g>
</g>
<!-- Node16 -->
<g id="Node000016" class="node">
<title>Node16</title>
<g id="a_Node000016"><a xlink:href="../../db/d18/classNookpostBackend_1_1ApiEndpoints_1_1Users_1_1DeleteUserMe.html#aae42f13191e9d45986c2b7b38ff59f6f" target="_top" xlink:title="Deletes a user.">
<polygon fill="white" stroke="#666666" points="639.5,-340.5 445.5,-340.5 445.5,-310.5 639.5,-310.5 639.5,-340.5"/>
<text text-anchor="start" x="453.5" y="-328.5" font-family="Helvetica,sans-Serif" font-size="10.00">NookpostBackend.ApiEndpoints.</text>
<text text-anchor="middle" x="542.5" y="-317.5" font-family="Helvetica,sans-Serif" font-size="10.00">Users.DeleteUserMe.HandleRequest</text>
</a>
</g>
</g>
<!-- Node15&#45;&gt;Node16 -->
<g id="edge15_Node000015_Node000016" class="edge">
<title>Node15&#45;&gt;Node16</title>
<g id="a_edge15_Node000015_Node000016"><a xlink:title=" ">
<path fill="none" stroke="#63b8ff" d="M344.14,-268.5C370.14,-278.66 405.85,-291.92 438,-301.5 445.6,-303.77 453.57,-305.95 461.57,-308.01"/>
<polygon fill="#63b8ff" stroke="#63b8ff" points="460.77,-311.42 471.32,-310.46 462.48,-304.63 460.77,-311.42"/>
</a>
</g>
</g>
<!-- Node17 -->
<g id="Node000017" class="node">
<title>Node17</title>
<g id="a_Node000017"><a xlink:href="../../d9/dc5/classNookpostBackend_1_1ApiEndpoints_1_1Users_1_1GetUser.html#aafe1f7a8c5753df2bd92177a685b5d69" target="_top" xlink:title="Gets a user.">
<polygon fill="white" stroke="#666666" points="629.5,-292.5 455.5,-292.5 455.5,-262.5 629.5,-262.5 629.5,-292.5"/>
<text text-anchor="start" x="463.5" y="-280.5" font-family="Helvetica,sans-Serif" font-size="10.00">NookpostBackend.ApiEndpoints.</text>
<text text-anchor="middle" x="542.5" y="-269.5" font-family="Helvetica,sans-Serif" font-size="10.00">Users.GetUser.HandleRequest</text>
</a>
</g>
</g>
<!-- Node15&#45;&gt;Node17 -->
<g id="edge16_Node000015_Node000017" class="edge">
<title>Node15&#45;&gt;Node17</title>
<g id="a_edge16_Node000015_Node000017"><a xlink:title=" ">
<path fill="none" stroke="#63b8ff" d="M393.32,-262.33C410.24,-264.07 428.09,-265.89 445.31,-267.66"/>
<polygon fill="#63b8ff" stroke="#63b8ff" points="445.06,-271.15 455.36,-268.68 445.77,-264.18 445.06,-271.15"/>
</a>
</g>
</g>
<!-- Node18 -->
<g id="Node000018" class="node">
<title>Node18</title>
<g id="a_Node000018"><a xlink:href="../../d5/dd1/classNookpostBackend_1_1ApiEndpoints_1_1Users_1_1GetUserMe.html#ab0714f7a75f23d54d5e96a7af1da3c37" target="_top" xlink:title="Gets a user.">
<polygon fill="white" stroke="#666666" points="632,-244.5 453,-244.5 453,-214.5 632,-214.5 632,-244.5"/>
<text text-anchor="start" x="461" y="-232.5" font-family="Helvetica,sans-Serif" font-size="10.00">NookpostBackend.ApiEndpoints.</text>
<text text-anchor="middle" x="542.5" y="-221.5" font-family="Helvetica,sans-Serif" font-size="10.00">Users.GetUserMe.HandleRequest</text>
</a>
</g>
</g>
<!-- Node15&#45;&gt;Node18 -->
<g id="edge17_Node000015_Node000018" class="edge">
<title>Node15&#45;&gt;Node18</title>
<g id="a_edge17_Node000015_Node000018"><a xlink:title=" ">
<path fill="none" stroke="#63b8ff" d="M393.32,-244.67C409.33,-243.03 426.16,-241.3 442.51,-239.63"/>
<polygon fill="#63b8ff" stroke="#63b8ff" points="443.02,-243.1 452.61,-238.6 442.31,-236.13 443.02,-243.1"/>
</a>
</g>
</g>
<!-- Node19 -->
<g id="Node000019" class="node">
<title>Node19</title>
<g id="a_Node000019"><a xlink:href="../../d6/df1/classNookpostBackend_1_1ApiEndpoints_1_1Users_1_1PostUser.html#a9f3f056050d7adf6dd07e6671928d306" target="_top" xlink:title="Creates a new user.">
<polygon fill="white" stroke="#666666" points="629.5,-196.5 455.5,-196.5 455.5,-166.5 629.5,-166.5 629.5,-196.5"/>
<text text-anchor="start" x="463.5" y="-184.5" font-family="Helvetica,sans-Serif" font-size="10.00">NookpostBackend.ApiEndpoints.</text>
<text text-anchor="middle" x="542.5" y="-173.5" font-family="Helvetica,sans-Serif" font-size="10.00">Users.PostUser.HandleRequest</text>
</a>
</g>
</g>
<!-- Node15&#45;&gt;Node19 -->
<g id="edge18_Node000015_Node000019" class="edge">
<title>Node15&#45;&gt;Node19</title>
<g id="a_edge18_Node000015_Node000019"><a xlink:title=" ">
<path fill="none" stroke="#63b8ff" d="M344.14,-238.5C370.14,-228.34 405.85,-215.08 438,-205.5 445.6,-203.23 453.57,-201.05 461.57,-198.99"/>
<polygon fill="#63b8ff" stroke="#63b8ff" points="462.48,-202.37 471.32,-196.54 460.77,-195.58 462.48,-202.37"/>
</a>
</g>
</g>
<!-- Node21 -->
<g id="Node000021" class="node">
<title>Node21</title>
<g id="a_Node000021"><a xlink:href="../../de/d32/classNookpostBackend_1_1ApiEndpoints_1_1Users_1_1PutUserMe.html#a3f88a9d10120a42efb3e0c2ef3e6430b" target="_top" xlink:title="Modifies a user.">
<polygon fill="white" stroke="#666666" points="631.5,-148.5 453.5,-148.5 453.5,-118.5 631.5,-118.5 631.5,-148.5"/>
<text text-anchor="start" x="461.5" y="-136.5" font-family="Helvetica,sans-Serif" font-size="10.00">NookpostBackend.ApiEndpoints.</text>
<text text-anchor="middle" x="542.5" y="-125.5" font-family="Helvetica,sans-Serif" font-size="10.00">Users.PutUserMe.HandleRequest</text>
</a>
</g>
</g>
<!-- Node15&#45;&gt;Node21 -->
<g id="edge21_Node000015_Node000021" class="edge">
<title>Node15&#45;&gt;Node21</title>
<g id="a_edge21_Node000015_Node000021"><a xlink:title=" ">
<path fill="none" stroke="#63b8ff" d="M322.97,-238.38C346.36,-217.1 392.13,-178.55 438,-157.5 442.43,-155.47 447.05,-153.6 451.77,-151.88"/>
<polygon fill="#63b8ff" stroke="#63b8ff" points="453.22,-155.09 461.57,-148.57 450.98,-148.46 453.22,-155.09"/>
</a>
</g>
</g>
<!-- Node19&#45;&gt;Node5 -->
<g id="edge19_Node000019_Node000005" class="edge">
<title>Node19&#45;&gt;Node5</title>
<g id="a_edge19_Node000019_Node000005"><a xlink:title=" ">
<path fill="none" stroke="#63b8ff" d="M626.6,-196.56C633.68,-199.09 640.58,-202.05 647,-205.5 795.32,-285.21 926.27,-446.26 971.86,-506.27"/>
<polygon fill="#63b8ff" stroke="#63b8ff" points="969.15,-508.48 977.96,-514.37 974.74,-504.27 969.15,-508.48"/>
</a>
</g>
</g>
<!-- Node20 -->
<g id="Node000020" class="node">
<title>Node20</title>
<g id="a_Node000020"><a xlink:href="../../d5/d04/classNookpostBackend_1_1Cryptography_1_1Generators.html#a3472fe1c61d5f1bc60d0af99a253be6b" target="_top" xlink:title="Generate a new random hex string with the specified length.">
<polygon fill="white" stroke="#666666" points="862,-196.5 687,-196.5 687,-166.5 862,-166.5 862,-196.5"/>
<text text-anchor="start" x="695" y="-184.5" font-family="Helvetica,sans-Serif" font-size="10.00">NookpostBackend.Cryptography.</text>
<text text-anchor="middle" x="774.5" y="-173.5" font-family="Helvetica,sans-Serif" font-size="10.00">Generators.NewRandomString</text>
</a>
</g>
</g>
<!-- Node19&#45;&gt;Node20 -->
<g id="edge20_Node000019_Node000020" class="edge">
<title>Node19&#45;&gt;Node20</title>
<g id="a_edge20_Node000019_Node000020"><a xlink:title=" ">
<path fill="none" stroke="#63b8ff" d="M629.8,-181.5C645.06,-181.5 661.05,-181.5 676.59,-181.5"/>
<polygon fill="#63b8ff" stroke="#63b8ff" points="676.72,-185 686.72,-181.5 676.72,-178 676.72,-185"/>
</a>
</g>
</g>
<!-- Node23 -->
<g id="Node000023" class="node">
<title>Node23</title>
<g id="a_Node000023"><a xlink:href="../../df/da2/classNookpostBackend_1_1ApiEndpoints_1_1UserSettings_1_1GetUserSettings.html#aa366405fbc610d9f97f12515d60cc643" target="_top" xlink:title="Gets the user&#39;s settings.">
<polygon fill="white" stroke="#666666" points="642,-100 443,-100 443,-59 642,-59 642,-100"/>
<text text-anchor="start" x="451" y="-88" font-family="Helvetica,sans-Serif" font-size="10.00">NookpostBackend.ApiEndpoints.</text>
<text text-anchor="start" x="451" y="-77" font-family="Helvetica,sans-Serif" font-size="10.00">UserSettings.GetUserSettings.Handle</text>
<text text-anchor="middle" x="542.5" y="-66" font-family="Helvetica,sans-Serif" font-size="10.00">Request</text>
</a>
</g>
</g>
<!-- Node22&#45;&gt;Node23 -->
<g id="edge23_Node000022_Node000023" class="edge">
<title>Node22&#45;&gt;Node23</title>
<g id="a_edge23_Node000022_Node000023"><a xlink:title=" ">
<path fill="none" stroke="#63b8ff" d="M397.66,-79.5C409.13,-79.5 420.95,-79.5 432.66,-79.5"/>
<polygon fill="#63b8ff" stroke="#63b8ff" points="432.91,-83 442.91,-79.5 432.91,-76 432.91,-83"/>
</a>
</g>
</g>
<!-- Node24 -->
<g id="Node000024" class="node">
<title>Node24</title>
<g id="a_Node000024"><a xlink:href="../../df/db7/classNookpostBackend_1_1ApiEndpoints_1_1UserSettings_1_1PutUserSettings.html#aa029e02f5547b89c2d3f354a9fd462fc" target="_top" xlink:title="Updates the user&#39;s settings.">
<polygon fill="white" stroke="#666666" points="641,-41 444,-41 444,0 641,0 641,-41"/>
<text text-anchor="start" x="452" y="-29" font-family="Helvetica,sans-Serif" font-size="10.00">NookpostBackend.ApiEndpoints.</text>
<text text-anchor="start" x="452" y="-18" font-family="Helvetica,sans-Serif" font-size="10.00">UserSettings.PutUserSettings.Handle</text>
<text text-anchor="middle" x="542.5" y="-7" font-family="Helvetica,sans-Serif" font-size="10.00">Request</text>
</a>
</g>
</g>
<!-- Node22&#45;&gt;Node24 -->
<g id="edge24_Node000022_Node000024" class="edge">
<title>Node22&#45;&gt;Node24</title>
<g id="a_edge24_Node000022_Node000024"><a xlink:title=" ">
<path fill="none" stroke="#63b8ff" d="M366.78,-64.46C392.03,-58.11 422,-50.57 449.93,-43.54"/>
<polygon fill="#63b8ff" stroke="#63b8ff" points="450.87,-46.91 459.71,-41.08 449.16,-40.12 450.87,-46.91"/>
</a>
</g>
</g>
</g>
</svg>
