<?xml version="1.0" encoding="UTF-8" standalone="no"?>
<!DOCTYPE svg PUBLIC "-//W3C//DTD SVG 1.1//EN"
 "http://www.w3.org/Graphics/SVG/1.1/DTD/svg11.dtd">
<!-- Generated by graphviz version 2.43.0 (0)
 -->
<!-- Title: NookpostBackend.ApiEndpoints.EndpointSetup.Setup Pages: 1 -->
<!--zoomable 804 -->

<svg id="main" version="1.1" xmlns="http://www.w3.org/2000/svg" xmlns:xlink="http://www.w3.org/1999/xlink" xml:space="preserve" onload="init(evt)">

<style type="text/css"><![CDATA[
.node, .edge {opacity: 0.7;}
.node.selected, .edge.selected {opacity: 1;}
.edge:hover path { stroke: red; }
.edge:hover polygon { stroke: red; fill: red; }
]]></style>

<defs>
  <circle id="rim" cx="0" cy="0" r="7"/>
  <circle id="rim2" cx="0" cy="0" r="3.5"/>
  <g id="zoomPlus">
    <use xlink:href="#rim" fill="#404040"><set attributeName="fill" to="#808080" begin="zoomplus.mouseover" end="zoomplus.mouseout"/></use>
    <path d="M-4,0h8M0,-4v8" fill="none" stroke="white" stroke-width="1.5" pointer-events="none"/>
  </g>
  <g id="zoomMin">
    <use xlink:href="#rim" fill="#404040"><set attributeName="fill" to="#808080" begin="zoomminus.mouseover" end="zoomminus.mouseout"/></use>
    <path d="M-4,0h8" fill="none" stroke="white" stroke-width="1.5" pointer-events="none"/>
  </g>
  <g id="arrowUp" transform="translate(30 24)">
    <use xlink:href="#rim"/>
    <path pointer-events="none" fill="none" stroke="white" stroke-width="1.5" d="M0,-3.0v7 M-2.5,-0.5L0,-3.0L2.5,-0.5"/>
  </g>
  <g id="arrowRight" transform="rotate(90) translate(36 -43)">
    <use xlink:href="#rim"/>
    <path pointer-events="none" fill="none" stroke="white" stroke-width="1.5" d="M0,-3.0v7 M-2.5,-0.5L0,-3.0L2.5,-0.5"/>
  </g>
  <g id="arrowDown" transform="rotate(180) translate(-30 -48)">
    <use xlink:href="#rim"/>
    <path pointer-events="none" fill="none" stroke="white" stroke-width="1.5" d="M0,-3.0v7 M-2.5,-0.5L0,-3.0L2.5,-0.5"/>
  </g>
  <g id="arrowLeft" transform="rotate(270) translate(-36 17)">
    <use xlink:href="#rim"/>
    <path pointer-events="none" fill="none" stroke="white" stroke-width="1.5" d="M0,-3.0v7 M-2.5,-0.5L0,-3.0L2.5,-0.5"/>
  </g>
  <g id="resetDef">
    <use xlink:href="#rim2" fill="#404040"><set attributeName="fill" to="#808080" begin="reset.mouseover" end="reset.mouseout"/></use>
  </g>
</defs>
<script type="application/ecmascript">
var viewWidth = 1088;
var viewHeight = 804;
var sectionId = 'dynsection-1';
</script>
<script type="application/ecmascript" xlink:href="../../svg.min.js"/>
<svg id="graph" class="graph">
<g id="viewport">
<title>NookpostBackend.ApiEndpoints.EndpointSetup.Setup</title>
<!-- Node1 -->
<g id="Node000001" class="node">
<title>Node1</title>
<g id="a_Node000001"><a xlink:title="Sets up all API Endpints on the given webapp">
<polygon fill="#999999" stroke="#666666" points="174,-484.5 0,-484.5 0,-454.5 174,-454.5 174,-484.5"/>
<text text-anchor="start" x="8" y="-472.5" font-family="Helvetica,sans-Serif" font-size="10.00">NookpostBackend.ApiEndpoints.</text>
<text text-anchor="middle" x="87" y="-461.5" font-family="Helvetica,sans-Serif" font-size="10.00">EndpointSetup.Setup</text>
</a>
</g>
</g>
<!-- Node2 -->
<g id="Node000002" class="node">
<title>Node2</title>
<g id="a_Node000002"><a xlink:href="../../da/dec/classNookpostBackend_1_1ApiEndpoints_1_1Authentication_1_1EndpointSetup.html#a1ce02f35f787186f930949cddfb0a906" target="_top" xlink:title="Initialize the Authentication Endpoints on the WebApp object.">
<polygon fill="white" stroke="#666666" points="402,-736.5 210,-736.5 210,-706.5 402,-706.5 402,-736.5"/>
<text text-anchor="start" x="218" y="-724.5" font-family="Helvetica,sans-Serif" font-size="10.00">NookpostBackend.ApiEndpoints.</text>
<text text-anchor="middle" x="306" y="-713.5" font-family="Helvetica,sans-Serif" font-size="10.00">Authentication.EndpointSetup.Setup</text>
</a>
</g>
</g>
<!-- Node1&#45;&gt;Node2 -->
<g id="edge1_Node000001_Node000002" class="edge">
<title>Node1&#45;&gt;Node2</title>
<g id="a_edge1_Node000001_Node000002"><a xlink:title=" ">
<path fill="none" stroke="#63b8ff" d="M97.43,-484.71C116.69,-515.23 162.74,-585.47 210,-637.5 230.85,-660.46 257.52,-683.58 277.29,-699.74"/>
<polygon fill="#63b8ff" stroke="#63b8ff" points="275.33,-702.66 285.31,-706.22 279.73,-697.21 275.33,-702.66"/>
</a>
</g>
</g>
<!-- Node7 -->
<g id="Node000007" class="node">
<title>Node7</title>
<g id="a_Node000007"><a xlink:href="../../d9/de7/classNookpostBackend_1_1ApiEndpoints_1_1Categories_1_1EndpointSetup.html#aacb25ada7f3efec9e4cc8c58a8539259" target="_top" xlink:title="Sets up the post endpoints on the given Webapp">
<polygon fill="white" stroke="#666666" points="393,-628.5 219,-628.5 219,-598.5 393,-598.5 393,-628.5"/>
<text text-anchor="start" x="227" y="-616.5" font-family="Helvetica,sans-Serif" font-size="10.00">NookpostBackend.ApiEndpoints.</text>
<text text-anchor="middle" x="306" y="-605.5" font-family="Helvetica,sans-Serif" font-size="10.00">Categories.EndpointSetup.Setup</text>
</a>
</g>
</g>
<!-- Node1&#45;&gt;Node7 -->
<g id="edge8_Node000001_Node000007" class="edge">
<title>Node1&#45;&gt;Node7</title>
<g id="a_edge8_Node000001_Node000007"><a xlink:title=" ">
<path fill="none" stroke="#63b8ff" d="M110.81,-484.64C149.88,-510.57 229.66,-563.5 273.83,-592.82"/>
<polygon fill="#63b8ff" stroke="#63b8ff" points="271.9,-595.74 282.17,-598.35 275.77,-589.9 271.9,-595.74"/>
</a>
</g>
</g>
<!-- Node10 -->
<g id="Node000010" class="node">
<title>Node10</title>
<g id="a_Node000010"><a xlink:href="../../dd/d3d/classNookpostBackend_1_1ApiEndpoints_1_1Posts_1_1EndpointSetup.html#a103e8bd9436f02dd9538df0df4f845e8" target="_top" xlink:title="Sets up the post endpoints on the given Webapp">
<polygon fill="white" stroke="#666666" points="393,-484.5 219,-484.5 219,-454.5 393,-454.5 393,-484.5"/>
<text text-anchor="start" x="227" y="-472.5" font-family="Helvetica,sans-Serif" font-size="10.00">NookpostBackend.ApiEndpoints.</text>
<text text-anchor="middle" x="306" y="-461.5" font-family="Helvetica,sans-Serif" font-size="10.00">Posts.EndpointSetup.Setup</text>
</a>
</g>
</g>
<!-- Node1&#45;&gt;Node10 -->
<g id="edge11_Node000001_Node000010" class="edge">
<title>Node1&#45;&gt;Node10</title>
<g id="a_edge11_Node000001_Node000010"><a xlink:title=" ">
<path fill="none" stroke="#63b8ff" d="M174.08,-469.5C185.42,-469.5 197.12,-469.5 208.62,-469.5"/>
<polygon fill="#63b8ff" stroke="#63b8ff" points="208.67,-473 218.67,-469.5 208.67,-466 208.67,-473"/>
</a>
</g>
</g>
<!-- Node16 -->
<g id="Node000016" class="node">
<title>Node16</title>
<g id="a_Node000016"><a xlink:href="../../d3/dd0/classNookpostBackend_1_1ApiEndpoints_1_1Users_1_1EndpointSetup.html#a676597125ea860c4be862c26004f1eb0" target="_top" xlink:title="Sets up the user endpoints on the given Webapp">
<polygon fill="white" stroke="#666666" points="393,-268.5 219,-268.5 219,-238.5 393,-238.5 393,-268.5"/>
<text text-anchor="start" x="227" y="-256.5" font-family="Helvetica,sans-Serif" font-size="10.00">NookpostBackend.ApiEndpoints.</text>
<text text-anchor="middle" x="306" y="-245.5" font-family="Helvetica,sans-Serif" font-size="10.00">Users.EndpointSetup.Setup</text>
</a>
</g>
</g>
<!-- Node1&#45;&gt;Node16 -->
<g id="edge17_Node000001_Node000016" class="edge">
<title>Node1&#45;&gt;Node16</title>
<g id="a_edge17_Node000001_Node000016"><a xlink:title=" ">
<path fill="none" stroke="#63b8ff" d="M103.26,-454.31C140.92,-416.82 238.45,-319.74 282.64,-275.75"/>
<polygon fill="#63b8ff" stroke="#63b8ff" points="285.14,-278.21 289.76,-268.67 280.2,-273.25 285.14,-278.21"/>
</a>
</g>
</g>
<!-- Node23 -->
<g id="Node000023" class="node">
<title>Node23</title>
<g id="a_Node000023"><a xlink:href="../../d2/d5d/classNookpostBackend_1_1ApiEndpoints_1_1UserSettings_1_1EndpointSetup.html#a3a95720b985443f2506ff318db7eec2c" target="_top" xlink:title="Sets up the user settigns endpoints on the given Webapp">
<polygon fill="white" stroke="#666666" points="397.5,-94.5 214.5,-94.5 214.5,-64.5 397.5,-64.5 397.5,-94.5"/>
<text text-anchor="start" x="222.5" y="-82.5" font-family="Helvetica,sans-Serif" font-size="10.00">NookpostBackend.ApiEndpoints.</text>
<text text-anchor="middle" x="306" y="-71.5" font-family="Helvetica,sans-Serif" font-size="10.00">UserSettings.EndpointSetup.Setup</text>
</a>
</g>
</g>
<!-- Node1&#45;&gt;Node23 -->
<g id="edge25_Node000001_Node000023" class="edge">
<title>Node1&#45;&gt;Node23</title>
<g id="a_edge25_Node000001_Node000023"><a xlink:title=" ">
<path fill="none" stroke="#63b8ff" d="M95.09,-454.36C113.13,-416.07 162.72,-312.57 210,-229.5 236,-183.81 269.52,-132.43 289,-103.21"/>
<polygon fill="#63b8ff" stroke="#63b8ff" points="292.15,-104.8 294.81,-94.54 286.34,-100.9 292.15,-104.8"/>
</a>
</g>
</g>
<!-- Node3 -->
<g id="Node000003" class="node">
<title>Node3</title>
<g id="a_Node000003"><a xlink:href="../../de/dbb/classNookpostBackend_1_1ApiEndpoints_1_1Authentication_1_1ChangePassword.html#a07692ff1a9588157d49b26df8228f381" target="_top" xlink:title="Changes the password of a user.">
<polygon fill="white" stroke="#666666" points="649,-796 438,-796 438,-755 649,-755 649,-796"/>
<text text-anchor="start" x="446" y="-784" font-family="Helvetica,sans-Serif" font-size="10.00">NookpostBackend.ApiEndpoints.</text>
<text text-anchor="start" x="446" y="-773" font-family="Helvetica,sans-Serif" font-size="10.00">Authentication.ChangePassword.Handle</text>
<text text-anchor="middle" x="543.5" y="-762" font-family="Helvetica,sans-Serif" font-size="10.00">Request</text>
</a>
</g>
</g>
<!-- Node2&#45;&gt;Node3 -->
<g id="edge2_Node000002_Node000003" class="edge">
<title>Node2&#45;&gt;Node3</title>
<g id="a_edge2_Node000002_Node000003"><a xlink:title=" ">
<path fill="none" stroke="#63b8ff" d="M372.6,-736.54C394.49,-741.56 419.39,-747.27 443.26,-752.74"/>
<polygon fill="#63b8ff" stroke="#63b8ff" points="442.52,-756.17 453.05,-754.99 444.09,-749.34 442.52,-756.17"/>
</a>
</g>
</g>
<!-- Node6 -->
<g id="Node000006" class="node">
<title>Node6</title>
<g id="a_Node000006"><a xlink:href="../../d0/d93/classNookpostBackend_1_1ApiEndpoints_1_1Authentication_1_1Login.html#a918444cedb461f353b4f3a00642ba169" target="_top" xlink:title="Authenticates the user and returns an access token.">
<polygon fill="white" stroke="#666666" points="630.5,-736.5 456.5,-736.5 456.5,-706.5 630.5,-706.5 630.5,-736.5"/>
<text text-anchor="start" x="464.5" y="-724.5" font-family="Helvetica,sans-Serif" font-size="10.00">NookpostBackend.ApiEndpoints.</text>
<text text-anchor="middle" x="543.5" y="-713.5" font-family="Helvetica,sans-Serif" font-size="10.00">Authentication.Login.PostLogin</text>
</a>
</g>
</g>
<!-- Node2&#45;&gt;Node6 -->
<g id="edge6_Node000002_Node000006" class="edge">
<title>Node2&#45;&gt;Node6</title>
<g id="a_edge6_Node000002_Node000006"><a xlink:title=" ">
<path fill="none" stroke="#63b8ff" d="M402.11,-721.5C416.49,-721.5 431.34,-721.5 445.75,-721.5"/>
<polygon fill="#63b8ff" stroke="#63b8ff" points="446.16,-725 456.16,-721.5 446.16,-718 446.16,-725"/>
</a>
</g>
</g>
<!-- Node4 -->
<g id="Node000004" class="node">
<title>Node4</title>
<g id="a_Node000004"><a xlink:href="../../d3/d34/classNookpostBackend_1_1Cryptography_1_1PasswordHashing.html#aeb943c5a3973106cc7405123255da371" target="_top" xlink:title="Hash a password with the given salt and password. The Pepper will automatically be obtained from sett...">
<polygon fill="white" stroke="#666666" points="1080,-739.5 904,-739.5 904,-709.5 1080,-709.5 1080,-739.5"/>
<text text-anchor="start" x="912" y="-727.5" font-family="Helvetica,sans-Serif" font-size="10.00">NookpostBackend.Cryptography.</text>
<text text-anchor="middle" x="992" y="-716.5" font-family="Helvetica,sans-Serif" font-size="10.00">PasswordHashing.HashPassword</text>
</a>
</g>
</g>
<!-- Node3&#45;&gt;Node4 -->
<g id="edge3_Node000003_Node000004" class="edge">
<title>Node3&#45;&gt;Node4</title>
<g id="a_edge3_Node000003_Node000004"><a xlink:title=" ">
<path fill="none" stroke="#63b8ff" d="M649.35,-769.66C712.83,-765.41 795.29,-758.6 868,-748.5 881.87,-746.57 896.55,-744.1 910.74,-741.47"/>
<polygon fill="#63b8ff" stroke="#63b8ff" points="911.8,-744.83 920.97,-739.54 910.5,-737.96 911.8,-744.83"/>
</a>
</g>
</g>
<!-- Node5 -->
<g id="Node000005" class="node">
<title>Node5</title>
<g id="a_Node000005"><a xlink:href="../../d3/d34/classNookpostBackend_1_1Cryptography_1_1PasswordHashing.html#a40192bd81c7fc4e7cc265f84e5d99df3" target="_top" xlink:title="Validate a password for a user.">
<polygon fill="white" stroke="#666666" points="868,-739.5 685,-739.5 685,-709.5 868,-709.5 868,-739.5"/>
<text text-anchor="start" x="693" y="-727.5" font-family="Helvetica,sans-Serif" font-size="10.00">NookpostBackend.Cryptography.</text>
<text text-anchor="middle" x="776.5" y="-716.5" font-family="Helvetica,sans-Serif" font-size="10.00">PasswordHashing.isPasswordValid</text>
</a>
</g>
</g>
<!-- Node3&#45;&gt;Node5 -->
<g id="edge4_Node000003_Node000005" class="edge">
<title>Node3&#45;&gt;Node5</title>
<g id="a_edge4_Node000003_Node000005"><a xlink:title=" ">
<path fill="none" stroke="#63b8ff" d="M637.46,-754.98C657.32,-750.59 678.1,-746 697.33,-741.76"/>
<polygon fill="#63b8ff" stroke="#63b8ff" points="698.23,-745.14 707.24,-739.57 696.72,-738.31 698.23,-745.14"/>
</a>
</g>
</g>
<!-- Node5&#45;&gt;Node4 -->
<g id="edge5_Node000005_Node000004" class="edge">
<title>Node5&#45;&gt;Node4</title>
<g id="a_edge5_Node000005_Node000004"><a xlink:title=" ">
<path fill="none" stroke="#63b8ff" d="M868.04,-724.5C876.45,-724.5 884.99,-724.5 893.45,-724.5"/>
<polygon fill="#63b8ff" stroke="#63b8ff" points="893.72,-728 903.72,-724.5 893.72,-721 893.72,-728"/>
</a>
</g>
</g>
<!-- Node6&#45;&gt;Node5 -->
<g id="edge7_Node000006_Node000005" class="edge">
<title>Node6&#45;&gt;Node5</title>
<g id="a_edge7_Node000006_Node000005"><a xlink:title=" ">
<path fill="none" stroke="#63b8ff" d="M630.52,-722.62C644.9,-722.8 659.94,-723 674.65,-723.19"/>
<polygon fill="#63b8ff" stroke="#63b8ff" points="674.73,-726.69 684.77,-723.32 674.82,-719.69 674.73,-726.69"/>
</a>
</g>
</g>
<!-- Node8 -->
<g id="Node000008" class="node">
<title>Node8</title>
<g id="a_Node000008"><a xlink:href="../../da/d57/classNookpostBackend_1_1ApiEndpoints_1_1Categories_1_1GetAllCategories.html#a36e796bcfd7fa5da82d9b48f4aacf17c" target="_top" xlink:title="Gets all categories.">
<polygon fill="white" stroke="#666666" points="639.5,-688 447.5,-688 447.5,-647 639.5,-647 639.5,-688"/>
<text text-anchor="start" x="455.5" y="-676" font-family="Helvetica,sans-Serif" font-size="10.00">NookpostBackend.ApiEndpoints.</text>
<text text-anchor="start" x="455.5" y="-665" font-family="Helvetica,sans-Serif" font-size="10.00">Categories.GetAllCategories.Handle</text>
<text text-anchor="middle" x="543.5" y="-654" font-family="Helvetica,sans-Serif" font-size="10.00">Request</text>
</a>
</g>
</g>
<!-- Node7&#45;&gt;Node8 -->
<g id="edge9_Node000007_Node000008" class="edge">
<title>Node7&#45;&gt;Node8</title>
<g id="a_edge9_Node000007_Node000008"><a xlink:title=" ">
<path fill="none" stroke="#63b8ff" d="M372.6,-628.54C394.49,-633.56 419.39,-639.27 443.26,-644.74"/>
<polygon fill="#63b8ff" stroke="#63b8ff" points="442.52,-648.17 453.05,-646.99 444.09,-641.34 442.52,-648.17"/>
</a>
</g>
</g>
<!-- Node9 -->
<g id="Node000009" class="node">
<title>Node9</title>
<g id="a_Node000009"><a xlink:href="../../d1/d03/classNookpostBackend_1_1ApiEndpoints_1_1Categories_1_1GetCategory.html#aab4933583ea240f4aa8139282030f82b" target="_top" xlink:title="Gets a category.">
<polygon fill="white" stroke="#666666" points="648,-628.5 439,-628.5 439,-598.5 648,-598.5 648,-628.5"/>
<text text-anchor="start" x="447" y="-616.5" font-family="Helvetica,sans-Serif" font-size="10.00">NookpostBackend.ApiEndpoints.</text>
<text text-anchor="middle" x="543.5" y="-605.5" font-family="Helvetica,sans-Serif" font-size="10.00">Categories.GetCategory.HandleRequest</text>
</a>
</g>
</g>
<!-- Node7&#45;&gt;Node9 -->
<g id="edge10_Node000007_Node000009" class="edge">
<title>Node7&#45;&gt;Node9</title>
<g id="a_edge10_Node000007_Node000009"><a xlink:title=" ">
<path fill="none" stroke="#63b8ff" d="M393.02,-613.5C404.62,-613.5 416.66,-613.5 428.65,-613.5"/>
<polygon fill="#63b8ff" stroke="#63b8ff" points="428.7,-617 438.7,-613.5 428.7,-610 428.7,-617"/>
</a>
</g>
</g>
<!-- Node11 -->
<g id="Node000011" class="node">
<title>Node11</title>
<g id="a_Node000011"><a xlink:href="../../d8/dcc/classNookpostBackend_1_1ApiEndpoints_1_1Posts_1_1DeletePost.html#aafb2cb6c66e36704201b1226837e3740" target="_top" xlink:title="Deletes a post.">
<polygon fill="white" stroke="#666666" points="631.5,-580.5 455.5,-580.5 455.5,-550.5 631.5,-550.5 631.5,-580.5"/>
<text text-anchor="start" x="463.5" y="-568.5" font-family="Helvetica,sans-Serif" font-size="10.00">NookpostBackend.ApiEndpoints.</text>
<text text-anchor="middle" x="543.5" y="-557.5" font-family="Helvetica,sans-Serif" font-size="10.00">Posts.DeletePost.HandleRequest</text>
</a>
</g>
</g>
<!-- Node10&#45;&gt;Node11 -->
<g id="edge12_Node000010_Node000011" class="edge">
<title>Node10&#45;&gt;Node11</title>
<g id="a_edge12_Node000010_Node000011"><a xlink:title=" ">
<path fill="none" stroke="#63b8ff" d="M329.72,-484.54C355.13,-500.75 397.99,-526.25 438,-541.5 443.82,-543.72 449.91,-545.77 456.09,-547.65"/>
<polygon fill="#63b8ff" stroke="#63b8ff" points="455.28,-551.06 465.86,-550.48 457.22,-544.34 455.28,-551.06"/>
</a>
</g>
</g>
<!-- Node12 -->
<g id="Node000012" class="node">
<title>Node12</title>
<g id="a_Node000012"><a xlink:href="../../da/dbd/classNookpostBackend_1_1ApiEndpoints_1_1Posts_1_1GetPost.html#ae9af24ab2b8d507826b031e3c37324c1" target="_top" xlink:title="Gets a post.">
<polygon fill="white" stroke="#666666" points="630.5,-532.5 456.5,-532.5 456.5,-502.5 630.5,-502.5 630.5,-532.5"/>
<text text-anchor="start" x="464.5" y="-520.5" font-family="Helvetica,sans-Serif" font-size="10.00">NookpostBackend.ApiEndpoints.</text>
<text text-anchor="middle" x="543.5" y="-509.5" font-family="Helvetica,sans-Serif" font-size="10.00">Posts.GetPost.HandleRequest</text>
</a>
</g>
</g>
<!-- Node10&#45;&gt;Node12 -->
<g id="edge13_Node000010_Node000012" class="edge">
<title>Node10&#45;&gt;Node12</title>
<g id="a_edge13_Node000010_Node000012"><a xlink:title=" ">
<path fill="none" stroke="#63b8ff" d="M380.87,-484.56C405.64,-489.6 433.43,-495.27 458.89,-500.46"/>
<polygon fill="#63b8ff" stroke="#63b8ff" points="458.4,-503.93 468.89,-502.5 459.8,-497.07 458.4,-503.93"/>
</a>
</g>
</g>
<!-- Node13 -->
<g id="Node000013" class="node">
<title>Node13</title>
<g id="a_Node000013"><a xlink:href="../../d1/df7/classNookpostBackend_1_1ApiEndpoints_1_1Posts_1_1GetPostFiltered.html#ab77f9cfc81e4b800d0e26397f6761c5e" target="_top" xlink:title="Gets a filtered set of posts.">
<polygon fill="white" stroke="#666666" points="642.5,-484.5 444.5,-484.5 444.5,-454.5 642.5,-454.5 642.5,-484.5"/>
<text text-anchor="start" x="452.5" y="-472.5" font-family="Helvetica,sans-Serif" font-size="10.00">NookpostBackend.ApiEndpoints.</text>
<text text-anchor="middle" x="543.5" y="-461.5" font-family="Helvetica,sans-Serif" font-size="10.00">Posts.GetPostFiltered.HandleRequest</text>
</a>
</g>
</g>
<!-- Node10&#45;&gt;Node13 -->
<g id="edge14_Node000010_Node000013" class="edge">
<title>Node10&#45;&gt;Node13</title>
<g id="a_edge14_Node000010_Node000013"><a xlink:title=" ">
<path fill="none" stroke="#63b8ff" d="M393.02,-469.5C406.45,-469.5 420.47,-469.5 434.32,-469.5"/>
<polygon fill="#63b8ff" stroke="#63b8ff" points="434.36,-473 444.36,-469.5 434.36,-466 434.36,-473"/>
</a>
</g>
</g>
<!-- Node14 -->
<g id="Node000014" class="node">
<title>Node14</title>
<g id="a_Node000014"><a xlink:href="../../d9/d72/classNookpostBackend_1_1ApiEndpoints_1_1Posts_1_1PostPost.html#ab6761b9fcefc2fe1e724b9be8e7c2224" target="_top" xlink:title="Creates a post.">
<polygon fill="white" stroke="#666666" points="630.5,-436.5 456.5,-436.5 456.5,-406.5 630.5,-406.5 630.5,-436.5"/>
<text text-anchor="start" x="464.5" y="-424.5" font-family="Helvetica,sans-Serif" font-size="10.00">NookpostBackend.ApiEndpoints.</text>
<text text-anchor="middle" x="543.5" y="-413.5" font-family="Helvetica,sans-Serif" font-size="10.00">Posts.PostPost.HandleRequest</text>
</a>
</g>
</g>
<!-- Node10&#45;&gt;Node14 -->
<g id="edge15_Node000010_Node000014" class="edge">
<title>Node10&#45;&gt;Node14</title>
<g id="a_edge15_Node000010_Node000014"><a xlink:title=" ">
<path fill="none" stroke="#63b8ff" d="M380.87,-454.44C405.64,-449.4 433.43,-443.73 458.89,-438.54"/>
<polygon fill="#63b8ff" stroke="#63b8ff" points="459.8,-441.93 468.89,-436.5 458.4,-435.07 459.8,-441.93"/>
</a>
</g>
</g>
<!-- Node15 -->
<g id="Node000015" class="node">
<title>Node15</title>
<g id="a_Node000015"><a xlink:href="../../d8/d19/classNookpostBackend_1_1ApiEndpoints_1_1Posts_1_1PutPost.html#a4aafa9ec932f88a404ffccae46d19c24" target="_top" xlink:title="Modifies a post.">
<polygon fill="white" stroke="#666666" points="630.5,-388.5 456.5,-388.5 456.5,-358.5 630.5,-358.5 630.5,-388.5"/>
<text text-anchor="start" x="464.5" y="-376.5" font-family="Helvetica,sans-Serif" font-size="10.00">NookpostBackend.ApiEndpoints.</text>
<text text-anchor="middle" x="543.5" y="-365.5" font-family="Helvetica,sans-Serif" font-size="10.00">Posts.PutPost.HandleRequest</text>
</a>
</g>
</g>
<!-- Node10&#45;&gt;Node15 -->
<g id="edge16_Node000010_Node000015" class="edge">
<title>Node10&#45;&gt;Node15</title>
<g id="a_edge16_Node000010_Node000015"><a xlink:title=" ">
<path fill="none" stroke="#63b8ff" d="M329.72,-454.46C355.13,-438.25 397.99,-412.75 438,-397.5 443.82,-395.28 449.91,-393.23 456.09,-391.35"/>
<polygon fill="#63b8ff" stroke="#63b8ff" points="457.22,-394.66 465.86,-388.52 455.28,-387.94 457.22,-394.66"/>
</a>
</g>
</g>
<!-- Node17 -->
<g id="Node000017" class="node">
<title>Node17</title>
<g id="a_Node000017"><a xlink:href="../../db/d18/classNookpostBackend_1_1ApiEndpoints_1_1Users_1_1DeleteUserMe.html#a25526844b67839083164fb8c1c857476" target="_top" xlink:title="Deletes a user.">
<polygon fill="white" stroke="#666666" points="640.5,-340.5 446.5,-340.5 446.5,-310.5 640.5,-310.5 640.5,-340.5"/>
<text text-anchor="start" x="454.5" y="-328.5" font-family="Helvetica,sans-Serif" font-size="10.00">NookpostBackend.ApiEndpoints.</text>
<text text-anchor="middle" x="543.5" y="-317.5" font-family="Helvetica,sans-Serif" font-size="10.00">Users.DeleteUserMe.HandleRequest</text>
</a>
</g>
</g>
<!-- Node16&#45;&gt;Node17 -->
<g id="edge18_Node000016_Node000017" class="edge">
<title>Node16&#45;&gt;Node17</title>
<g id="a_edge18_Node000016_Node000017"><a xlink:title=" ">
<path fill="none" stroke="#63b8ff" d="M344.13,-268.52C370.13,-278.69 405.84,-291.96 438,-301.5 445.68,-303.78 453.72,-305.97 461.8,-308.04"/>
<polygon fill="#63b8ff" stroke="#63b8ff" points="461.09,-311.47 471.64,-310.49 462.79,-304.67 461.09,-311.47"/>
</a>
</g>
</g>
<!-- Node18 -->
<g id="Node000018" class="node">
<title>Node18</title>
<g id="a_Node000018"><a xlink:href="../../d9/dc5/classNookpostBackend_1_1ApiEndpoints_1_1Users_1_1GetUser.html#aafe1f7a8c5753df2bd92177a685b5d69" target="_top" xlink:title="Gets a user.">
<polygon fill="white" stroke="#666666" points="630.5,-292.5 456.5,-292.5 456.5,-262.5 630.5,-262.5 630.5,-292.5"/>
<text text-anchor="start" x="464.5" y="-280.5" font-family="Helvetica,sans-Serif" font-size="10.00">NookpostBackend.ApiEndpoints.</text>
<text text-anchor="middle" x="543.5" y="-269.5" font-family="Helvetica,sans-Serif" font-size="10.00">Users.GetUser.HandleRequest</text>
</a>
</g>
</g>
<!-- Node16&#45;&gt;Node18 -->
<g id="edge19_Node000016_Node000018" class="edge">
<title>Node16&#45;&gt;Node18</title>
<g id="a_edge19_Node000016_Node000018"><a xlink:title=" ">
<path fill="none" stroke="#63b8ff" d="M393.02,-262.27C410.27,-264.02 428.49,-265.88 446.06,-267.67"/>
<polygon fill="#63b8ff" stroke="#63b8ff" points="446.02,-271.19 456.32,-268.72 446.72,-264.22 446.02,-271.19"/>
</a>
</g>
</g>
<!-- Node19 -->
<g id="Node000019" class="node">
<title>Node19</title>
<g id="a_Node000019"><a xlink:href="../../d5/dd1/classNookpostBackend_1_1ApiEndpoints_1_1Users_1_1GetUserMe.html#ab0714f7a75f23d54d5e96a7af1da3c37" target="_top" xlink:title="Gets a user.">
<polygon fill="white" stroke="#666666" points="633,-244.5 454,-244.5 454,-214.5 633,-214.5 633,-244.5"/>
<text text-anchor="start" x="462" y="-232.5" font-family="Helvetica,sans-Serif" font-size="10.00">NookpostBackend.ApiEndpoints.</text>
<text text-anchor="middle" x="543.5" y="-221.5" font-family="Helvetica,sans-Serif" font-size="10.00">Users.GetUserMe.HandleRequest</text>
</a>
</g>
</g>
<!-- Node16&#45;&gt;Node19 -->
<g id="edge20_Node000016_Node000019" class="edge">
<title>Node16&#45;&gt;Node19</title>
<g id="a_edge20_Node000016_Node000019"><a xlink:title=" ">
<path fill="none" stroke="#63b8ff" d="M393.02,-244.73C409.45,-243.06 426.77,-241.29 443.57,-239.58"/>
<polygon fill="#63b8ff" stroke="#63b8ff" points="444.35,-243.02 453.95,-238.52 443.64,-236.06 444.35,-243.02"/>
</a>
</g>
</g>
<!-- Node20 -->
<g id="Node000020" class="node">
<title>Node20</title>
<g id="a_Node000020"><a xlink:href="../../d6/df1/classNookpostBackend_1_1ApiEndpoints_1_1Users_1_1PostUser.html#a8700a486b1505274c3477371788540ed" target="_top" xlink:title="Creates a new user.">
<polygon fill="white" stroke="#666666" points="630.5,-196.5 456.5,-196.5 456.5,-166.5 630.5,-166.5 630.5,-196.5"/>
<text text-anchor="start" x="464.5" y="-184.5" font-family="Helvetica,sans-Serif" font-size="10.00">NookpostBackend.ApiEndpoints.</text>
<text text-anchor="middle" x="543.5" y="-173.5" font-family="Helvetica,sans-Serif" font-size="10.00">Users.PostUser.HandleRequest</text>
</a>
</g>
</g>
<!-- Node16&#45;&gt;Node20 -->
<g id="edge21_Node000016_Node000020" class="edge">
<title>Node16&#45;&gt;Node20</title>
<g id="a_edge21_Node000016_Node000020"><a xlink:title=" ">
<path fill="none" stroke="#63b8ff" d="M344.13,-238.48C370.13,-228.31 405.84,-215.04 438,-205.5 445.68,-203.22 453.72,-201.03 461.8,-198.96"/>
<polygon fill="#63b8ff" stroke="#63b8ff" points="462.79,-202.33 471.64,-196.51 461.09,-195.53 462.79,-202.33"/>
</a>
</g>
</g>
<!-- Node22 -->
<g id="Node000022" class="node">
<title>Node22</title>
<g id="a_Node000022"><a xlink:href="../../de/d32/classNookpostBackend_1_1ApiEndpoints_1_1Users_1_1PutUserMe.html#a5d8dc3a5c76809680d26a896c9e9ac13" target="_top" xlink:title="Modifies a user.">
<polygon fill="white" stroke="#666666" points="632.5,-148.5 454.5,-148.5 454.5,-118.5 632.5,-118.5 632.5,-148.5"/>
<text text-anchor="start" x="462.5" y="-136.5" font-family="Helvetica,sans-Serif" font-size="10.00">NookpostBackend.ApiEndpoints.</text>
<text text-anchor="middle" x="543.5" y="-125.5" font-family="Helvetica,sans-Serif" font-size="10.00">Users.PutUserMe.HandleRequest</text>
</a>
</g>
</g>
<!-- Node16&#45;&gt;Node22 -->
<g id="edge24_Node000016_Node000022" class="edge">
<title>Node16&#45;&gt;Node22</title>
<g id="a_edge24_Node000016_Node000022"><a xlink:title=" ">
<path fill="none" stroke="#63b8ff" d="M322.97,-238.37C346.34,-217.07 392.1,-178.5 438,-157.5 442.59,-155.4 447.38,-153.48 452.28,-151.71"/>
<polygon fill="#63b8ff" stroke="#63b8ff" points="453.43,-155.02 461.8,-148.52 451.21,-148.38 453.43,-155.02"/>
</a>
</g>
</g>
<!-- Node20&#45;&gt;Node4 -->
<g id="edge22_Node000020_Node000004" class="edge">
<title>Node20&#45;&gt;Node4</title>
<g id="a_edge22_Node000020_Node000004"><a xlink:title=" ">
<path fill="none" stroke="#63b8ff" d="M630.66,-195.52C637.14,-198.28 643.34,-201.57 649,-205.5 840.02,-338.14 951.8,-615.27 982.38,-699.61"/>
<polygon fill="#63b8ff" stroke="#63b8ff" points="979.12,-700.9 985.78,-709.14 985.71,-698.54 979.12,-700.9"/>
</a>
</g>
</g>
<!-- Node21 -->
<g id="Node000021" class="node">
<title>Node21</title>
<g id="a_Node000021"><a xlink:href="../../d5/d04/classNookpostBackend_1_1Cryptography_1_1Generators.html#a3472fe1c61d5f1bc60d0af99a253be6b" target="_top" xlink:title="Generate a new random hex string with the specified length.">
<polygon fill="white" stroke="#666666" points="864,-196.5 689,-196.5 689,-166.5 864,-166.5 864,-196.5"/>
<text text-anchor="start" x="697" y="-184.5" font-family="Helvetica,sans-Serif" font-size="10.00">NookpostBackend.Cryptography.</text>
<text text-anchor="middle" x="776.5" y="-173.5" font-family="Helvetica,sans-Serif" font-size="10.00">Generators.NewRandomString</text>
</a>
</g>
</g>
<!-- Node20&#45;&gt;Node21 -->
<g id="edge23_Node000020_Node000021" class="edge">
<title>Node20&#45;&gt;Node21</title>
<g id="a_edge23_Node000020_Node000021"><a xlink:title=" ">
<path fill="none" stroke="#63b8ff" d="M630.52,-181.5C646.09,-181.5 662.43,-181.5 678.3,-181.5"/>
<polygon fill="#63b8ff" stroke="#63b8ff" points="678.64,-185 688.64,-181.5 678.64,-178 678.64,-185"/>
</a>
</g>
</g>
<!-- Node24 -->
<g id="Node000024" class="node">
<title>Node24</title>
<g id="a_Node000024"><a xlink:href="../../df/da2/classNookpostBackend_1_1ApiEndpoints_1_1UserSettings_1_1GetUserSettings.html#aa366405fbc610d9f97f12515d60cc643" target="_top" xlink:title="Gets the user&#39;s settings.">
<polygon fill="white" stroke="#666666" points="643,-100 444,-100 444,-59 643,-59 643,-100"/>
<text text-anchor="start" x="452" y="-88" font-family="Helvetica,sans-Serif" font-size="10.00">NookpostBackend.ApiEndpoints.</text>
<text text-anchor="start" x="452" y="-77" font-family="Helvetica,sans-Serif" font-size="10.00">UserSettings.GetUserSettings.Handle</text>
<text text-anchor="middle" x="543.5" y="-66" font-family="Helvetica,sans-Serif" font-size="10.00">Request</text>
</a>
</g>
</g>
<!-- Node23&#45;&gt;Node24 -->
<g id="edge26_Node000023_Node000024" class="edge">
<title>Node23&#45;&gt;Node24</title>
<g id="a_edge26_Node000023_Node000024"><a xlink:title=" ">
<path fill="none" stroke="#63b8ff" d="M397.71,-79.5C409.46,-79.5 421.58,-79.5 433.58,-79.5"/>
<polygon fill="#63b8ff" stroke="#63b8ff" points="433.62,-83 443.62,-79.5 433.62,-76 433.62,-83"/>
</a>
</g>
</g>
<!-- Node25 -->
<g id="Node000025" class="node">
<title>Node25</title>
<g id="a_Node000025"><a xlink:href="../../df/db7/classNookpostBackend_1_1ApiEndpoints_1_1UserSettings_1_1PutUserSettings.html#a05edf9a738bd690376945b679ec95bdd" target="_top" xlink:title="Updates the user&#39;s settings.">
<polygon fill="white" stroke="#666666" points="642,-41 445,-41 445,0 642,0 642,-41"/>
<text text-anchor="start" x="453" y="-29" font-family="Helvetica,sans-Serif" font-size="10.00">NookpostBackend.ApiEndpoints.</text>
<text text-anchor="start" x="453" y="-18" font-family="Helvetica,sans-Serif" font-size="10.00">UserSettings.PutUserSettings.Handle</text>
<text text-anchor="middle" x="543.5" y="-7" font-family="Helvetica,sans-Serif" font-size="10.00">Request</text>
</a>
</g>
</g>
<!-- Node23&#45;&gt;Node25 -->
<g id="edge27_Node000023_Node000025" class="edge">
<title>Node23&#45;&gt;Node25</title>
<g id="a_edge27_Node000023_Node000025"><a xlink:title=" ">
<path fill="none" stroke="#63b8ff" d="M367.04,-64.46C392.39,-58.11 422.49,-50.57 450.54,-43.54"/>
<polygon fill="#63b8ff" stroke="#63b8ff" points="451.51,-46.9 460.36,-41.08 449.81,-40.11 451.51,-46.9"/>
</a>
</g>
</g>
</g>
</svg>

<g id="navigator" transform="translate(0 0)" fill="#404254">
  <rect fill="#f2f5e9" fill-opacity="0.5" stroke="#606060" stroke-width=".5" x="0" y="0" width="60" height="60"/>
  <use id="zoomplus" xlink:href="#zoomPlus" x="17" y="9" onmousedown="handleZoom(evt,'in')"/>
  <use id="zoomminus" xlink:href="#zoomMin" x="42" y="9" onmousedown="handleZoom(evt,'out')"/>
  <use id="reset" xlink:href="#resetDef" x="30" y="36" onmousedown="handleReset()"/>
   <use id="arrowup" xlink:href="#arrowUp" x="0" y="0" onmousedown="handlePan(0,-1)"/>
  <use id="arrowright" xlink:href="#arrowRight" x="0" y="0" onmousedown="handlePan(1,0)"/>
  <use id="arrowdown" xlink:href="#arrowDown" x="0" y="0" onmousedown="handlePan(0,1)"/>
  <use id="arrowleft" xlink:href="#arrowLeft" x="0" y="0" onmousedown="handlePan(-1,0)"/>
</g>
<svg viewBox="0 0 15 15" width="100%" height="30px" preserveAspectRatio="xMaxYMin meet">
 <g id="arrow_out" transform="scale(0.3 0.3)">
  <a xlink:href="classNookpostBackend_1_1ApiEndpoints_1_1EndpointSetup_a00aafd7a4451d533ddb2969de9ac57a3_cgraph_org.svg" target="_base">
   <rect id="button" ry="5" rx="5" y="6" x="6" height="38" width="38"
        fill="#f2f5e9" fill-opacity="0.5" stroke="#606060" stroke-width="1.0"/>
   <path id="arrow"
     d="M 11.500037,31.436501 C 11.940474,20.09759 22.043105,11.32322 32.158766,21.979434 L 37.068811,17.246167 C 37.068811,17.246167 37.088388,32 37.088388,32 L 22.160133,31.978069 C 22.160133,31.978069 26.997745,27.140456 26.997745,27.140456 C 18.528582,18.264221 13.291696,25.230495 11.500037,31.436501 z"
     style="fill:#404040;"/>
  </a>
 </g>
</svg>

<style type='text/css'>
<![CDATA[
[data-mouse-over-selected='false'] { opacity: 0.7; }
[data-mouse-over-selected='true']  { opacity: 1.0; }
]]>
</style>
<script type="application/ecmascript"><![CDATA[
document.addEventListener('DOMContentLoaded', (event) => {
  highlightEdges();
  highlightAdjacentNodes();
});
]]></script>
</svg>
