<?xml version="1.0" encoding="UTF-8" standalone="no"?>
<!DOCTYPE svg PUBLIC "-//W3C//DTD SVG 1.1//EN"
 "http://www.w3.org/Graphics/SVG/1.1/DTD/svg11.dtd">
<!-- Generated by graphviz version 2.43.0 (0)
 -->
<!-- Title: NookpostBackend.ApiSchemas.Authentication.Login.AuthenticationLoginResponseBody Pages: 1 -->
<svg width="193pt" height="94pt"
 viewBox="0.00 0.00 193.00 94.00" xmlns="http://www.w3.org/2000/svg" xmlns:xlink="http://www.w3.org/1999/xlink">
<g id="graph0" class="graph" transform="scale(1 1) rotate(0) translate(4 90)">
<title>NookpostBackend.ApiSchemas.Authentication.Login.AuthenticationLoginResponseBody</title>
<!-- Node1 -->
<g id="Node000001" class="node">
<title>Node1</title>
<g id="a_Node000001"><a xlink:title="Represents a token object in the response to a Login request.">
<polygon fill="#999999" stroke="transparent" points="185,-86 0,-86 0,0 185,0 185,-86"/>
<text text-anchor="start" x="5.5" y="-74" font-family="Helvetica,sans-Serif" font-size="10.00">NookpostBackend.ApiSchemas.</text>
<text text-anchor="start" x="5.5" y="-63" font-family="Helvetica,sans-Serif" font-size="10.00">Authentication.Login.Authentication</text>
<text text-anchor="start" x="43.5" y="-52" font-family="Helvetica,sans-Serif" font-size="10.00">LoginResponseBody</text>
<text text-anchor="start" x="17.5" y="-37" font-family="Helvetica,sans-Serif" font-size="10.00">+</text>
<text text-anchor="start" x="43.5" y="-37" font-family="Helvetica,sans-Serif" font-size="10.00">string? Token</text>
<text text-anchor="start" x="17.5" y="-22" font-family="Helvetica,sans-Serif" font-size="10.00">+</text>
<text text-anchor="start" x="43.5" y="-22" font-family="Helvetica,sans-Serif" font-size="10.00">long ExpiryTimestamp</text>
<text text-anchor="start" x="91" y="-7" font-family="Helvetica,sans-Serif" font-size="10.00"> </text>
<polygon fill="#666666" stroke="#666666" points="0.5,-47 0.5,-47 185.5,-47 185.5,-47 0.5,-47"/>
<polygon fill="#666666" stroke="#666666" points="0.5,-17 0.5,-17 41.5,-17 41.5,-17 0.5,-17"/>
<polygon fill="#666666" stroke="#666666" points="41.5,-17 41.5,-17 185.5,-17 185.5,-17 41.5,-17"/>
<polygon fill="none" stroke="#666666" points="0,0 0,-86 185,-86 185,0 0,0"/>
</a>
</g>
</g>
</g>
</svg>
