<?xml version="1.0" encoding="UTF-8" standalone="no"?>
<!DOCTYPE svg PUBLIC "-//W3C//DTD SVG 1.1//EN"
 "http://www.w3.org/Graphics/SVG/1.1/DTD/svg11.dtd">
<!-- Generated by graphviz version 2.43.0 (0)
 -->
<!-- Title: ApiSchemas/Categories Pages: 1 -->
<!--zoomable 94 -->

<svg id="main" version="1.1" xmlns="http://www.w3.org/2000/svg" xmlns:xlink="http://www.w3.org/1999/xlink" xml:space="preserve" onload="init(evt)">

<style type="text/css"><![CDATA[
.node, .edge {opacity: 0.7;}
.node.selected, .edge.selected {opacity: 1;}
.edge:hover path { stroke: red; }
.edge:hover polygon { stroke: red; fill: red; }
]]></style>

<defs>
  <circle id="rim" cx="0" cy="0" r="7"/>
  <circle id="rim2" cx="0" cy="0" r="3.5"/>
  <g id="zoomPlus">
    <use xlink:href="#rim" fill="#404040"><set attributeName="fill" to="#808080" begin="zoomplus.mouseover" end="zoomplus.mouseout"/></use>
    <path d="M-4,0h8M0,-4v8" fill="none" stroke="white" stroke-width="1.5" pointer-events="none"/>
  </g>
  <g id="zoomMin">
    <use xlink:href="#rim" fill="#404040"><set attributeName="fill" to="#808080" begin="zoomminus.mouseover" end="zoomminus.mouseout"/></use>
    <path d="M-4,0h8" fill="none" stroke="white" stroke-width="1.5" pointer-events="none"/>
  </g>
  <g id="arrowUp" transform="translate(30 24)">
    <use xlink:href="#rim"/>
    <path pointer-events="none" fill="none" stroke="white" stroke-width="1.5" d="M0,-3.0v7 M-2.5,-0.5L0,-3.0L2.5,-0.5"/>
  </g>
  <g id="arrowRight" transform="rotate(90) translate(36 -43)">
    <use xlink:href="#rim"/>
    <path pointer-events="none" fill="none" stroke="white" stroke-width="1.5" d="M0,-3.0v7 M-2.5,-0.5L0,-3.0L2.5,-0.5"/>
  </g>
  <g id="arrowDown" transform="rotate(180) translate(-30 -48)">
    <use xlink:href="#rim"/>
    <path pointer-events="none" fill="none" stroke="white" stroke-width="1.5" d="M0,-3.0v7 M-2.5,-0.5L0,-3.0L2.5,-0.5"/>
  </g>
  <g id="arrowLeft" transform="rotate(270) translate(-36 17)">
    <use xlink:href="#rim"/>
    <path pointer-events="none" fill="none" stroke="white" stroke-width="1.5" d="M0,-3.0v7 M-2.5,-0.5L0,-3.0L2.5,-0.5"/>
  </g>
  <g id="resetDef">
    <use xlink:href="#rim2" fill="#404040"><set attributeName="fill" to="#808080" begin="reset.mouseover" end="reset.mouseout"/></use>
  </g>
</defs>
<script type="application/ecmascript">
var viewWidth = 535;
var viewHeight = 94;
var sectionId = 'dynsection-0';
</script>
<script type="application/ecmascript" xlink:href="svg.min.js"/>
<svg id="graph" class="graph">
<g id="viewport">
<title>ApiSchemas/Categories</title>
<g id="clust1" class="cluster">
<title>clusterdir_a4b65a36bdc5cfef53d3123cd25b8a09</title>
<g id="a_clust1"><a xlink:href="dir_a4b65a36bdc5cfef53d3123cd25b8a09.html" target="_top" xlink:title="ApiSchemas">
<polygon fill="#edf0f7" stroke="#404040" stroke-dasharray="5,2" points="8,-8 8,-78 519,-78 519,-8 8,-8"/>
<text text-anchor="middle" x="263.5" y="-66" font-family="Helvetica,sans-Serif" font-size="10.00">ApiSchemas</text>
</a>
</g>
</g>
<g id="clust2" class="cluster">
<title>clusterdir_39b2e364c2ea21119d770e54d535e24f</title>
<g id="a_clust2"><a xlink:href="dir_39b2e364c2ea21119d770e54d535e24f.html" target="_top">
<polygon fill="#edf0f7" stroke="#404040" stroke-width="2" points="16,-16 16,-51 511,-51 511,-16 16,-16"/>
</a>
</g>
</g>
<!-- dir_39b2e364c2ea21119d770e54d535e24f -->
<g id="node1" class="node">
<title>dir_39b2e364c2ea21119d770e54d535e24f</title>
<text text-anchor="middle" x="468" y="-31" font-family="Helvetica,sans-Serif" font-size="10.00">Categories</text>
</g>
<!-- dir_55d7e7ce72c895e7d178c20cd9be67f6 -->
<g id="node2" class="node">
<title>dir_55d7e7ce72c895e7d178c20cd9be67f6</title>
<g id="a_node2"><a xlink:href="dir_55d7e7ce72c895e7d178c20cd9be67f6.html" target="_top" xlink:title="GetAllCategories">
<polygon fill="#a2b4d6" stroke="#404040" points="415.5,-43 316.5,-43 316.5,-24 415.5,-24 415.5,-43"/>
<text text-anchor="middle" x="366" y="-31" font-family="Helvetica,sans-Serif" font-size="10.00">GetAllCategories</text>
</a>
</g>
</g>
<!-- dir_4a742e40c91b29f3f0e3c7dc7fd64f0f -->
<g id="node3" class="node">
<title>dir_4a742e40c91b29f3f0e3c7dc7fd64f0f</title>
<g id="a_node3"><a xlink:href="dir_4a742e40c91b29f3f0e3c7dc7fd64f0f.html" target="_top" xlink:title="GetCategory">
<polygon fill="#a2b4d6" stroke="#404040" points="298,-43 220,-43 220,-24 298,-24 298,-43"/>
<text text-anchor="middle" x="259" y="-31" font-family="Helvetica,sans-Serif" font-size="10.00">GetCategory</text>
</a>
</g>
</g>
<!-- dir_986db049458282aacaac1f55af8b2796 -->
<g id="node4" class="node">
<title>dir_986db049458282aacaac1f55af8b2796</title>
<g id="a_node4"><a xlink:href="dir_986db049458282aacaac1f55af8b2796.html" target="_top" xlink:title="PostCategory">
<polygon fill="#a2b4d6" stroke="#404040" points="202,-43 120,-43 120,-24 202,-24 202,-43"/>
<text text-anchor="middle" x="161" y="-31" font-family="Helvetica,sans-Serif" font-size="10.00">PostCategory</text>
</a>
</g>
</g>
<!-- dir_5826104124833741b02c1ea0750d75d7 -->
<g id="node5" class="node">
<title>dir_5826104124833741b02c1ea0750d75d7</title>
<g id="a_node5"><a xlink:href="dir_5826104124833741b02c1ea0750d75d7.html" target="_top" xlink:title="PutCategory">
<polygon fill="#a2b4d6" stroke="#404040" points="101.5,-43 24.5,-43 24.5,-24 101.5,-24 101.5,-43"/>
<text text-anchor="middle" x="63" y="-31" font-family="Helvetica,sans-Serif" font-size="10.00">PutCategory</text>
</a>
</g>
</g>
</g>
</svg>

<g id="navigator" transform="translate(0 0)" fill="#404254">
  <rect fill="#f2f5e9" fill-opacity="0.5" stroke="#606060" stroke-width=".5" x="0" y="0" width="60" height="60"/>
  <use id="zoomplus" xlink:href="#zoomPlus" x="17" y="9" onmousedown="handleZoom(evt,'in')"/>
  <use id="zoomminus" xlink:href="#zoomMin" x="42" y="9" onmousedown="handleZoom(evt,'out')"/>
  <use id="reset" xlink:href="#resetDef" x="30" y="36" onmousedown="handleReset()"/>
   <use id="arrowup" xlink:href="#arrowUp" x="0" y="0" onmousedown="handlePan(0,-1)"/>
  <use id="arrowright" xlink:href="#arrowRight" x="0" y="0" onmousedown="handlePan(1,0)"/>
  <use id="arrowdown" xlink:href="#arrowDown" x="0" y="0" onmousedown="handlePan(0,1)"/>
  <use id="arrowleft" xlink:href="#arrowLeft" x="0" y="0" onmousedown="handlePan(-1,0)"/>
</g>
<svg viewBox="0 0 15 15" width="100%" height="30px" preserveAspectRatio="xMaxYMin meet">
 <g id="arrow_out" transform="scale(0.3 0.3)">
  <a xlink:href="dir_39b2e364c2ea21119d770e54d535e24f_dep_org.svg" target="_base">
   <rect id="button" ry="5" rx="5" y="6" x="6" height="38" width="38"
        fill="#f2f5e9" fill-opacity="0.5" stroke="#606060" stroke-width="1.0"/>
   <path id="arrow"
     d="M 11.500037,31.436501 C 11.940474,20.09759 22.043105,11.32322 32.158766,21.979434 L 37.068811,17.246167 C 37.068811,17.246167 37.088388,32 37.088388,32 L 22.160133,31.978069 C 22.160133,31.978069 26.997745,27.140456 26.997745,27.140456 C 18.528582,18.264221 13.291696,25.230495 11.500037,31.436501 z"
     style="fill:#404040;"/>
  </a>
 </g>
</svg>

<style type='text/css'>
<![CDATA[
[data-mouse-over-selected='false'] { opacity: 0.7; }
[data-mouse-over-selected='true']  { opacity: 1.0; }
]]>
</style>
<script type="application/ecmascript"><![CDATA[
document.addEventListener('DOMContentLoaded', (event) => {
  highlightEdges();
  highlightAdjacentNodes();
});
]]></script>
</svg>
