<?xml version="1.0" encoding="UTF-8" standalone="no"?>
<!DOCTYPE svg PUBLIC "-//W3C//DTD SVG 1.1//EN"
 "http://www.w3.org/Graphics/SVG/1.1/DTD/svg11.dtd">
<!-- Generated by graphviz version 2.43.0 (0)
 -->
<!-- Title: Graphical Class Hierarchy Pages: 1 -->
<svg width="411pt" height="86pt"
 viewBox="0.00 0.00 411.00 86.00" xmlns="http://www.w3.org/2000/svg" xmlns:xlink="http://www.w3.org/1999/xlink">
<g id="graph0" class="graph" transform="scale(1 1) rotate(0) translate(4 82)">
<title>Graphical Class Hierarchy</title>
<!-- Node0 -->
<g id="Node000000" class="node">
<title>Node0</title>
<g id="a_Node000000"><a xlink:href="d4/d64/classNookpostBackend_1_1ApiSchemas_1_1Posts_1_1PostData.html" target="_top" xlink:title="Represents a post created by a user.">
<polygon fill="white" stroke="#666666" points="170,-54 0,-54 0,-24 170,-24 170,-54"/>
<text text-anchor="start" x="8" y="-42" font-family="Helvetica,sans-Serif" font-size="10.00">NookpostBackend.ApiSchemas.</text>
<text text-anchor="middle" x="85" y="-31" font-family="Helvetica,sans-Serif" font-size="10.00">Posts.PostData</text>
</a>
</g>
</g>
<!-- Node1 -->
<g id="Node000001" class="node">
<title>Node1</title>
<g id="a_Node000001"><a xlink:href="d6/db5/classNookpostBackend_1_1ApiSchemas_1_1Posts_1_1GetPost_1_1GetPostResponseBody.html" target="_top" xlink:title="Response to a post get request.">
<polygon fill="white" stroke="#666666" points="403,-78 206,-78 206,-48 403,-48 403,-78"/>
<text text-anchor="start" x="214" y="-66" font-family="Helvetica,sans-Serif" font-size="10.00">NookpostBackend.ApiSchemas.</text>
<text text-anchor="middle" x="304.5" y="-55" font-family="Helvetica,sans-Serif" font-size="10.00">Posts.GetPost.GetPostResponseBody</text>
</a>
</g>
</g>
<!-- Node0&#45;&gt;Node1 -->
<g id="edge9_Node000000_Node000001" class="edge">
<title>Node0&#45;&gt;Node1</title>
<g id="a_edge9_Node000000_Node000001"><a xlink:title=" ">
<path fill="none" stroke="#63b8ff" d="M180.06,-49.38C188.61,-50.32 197.28,-51.28 205.86,-52.23"/>
<polygon fill="#63b8ff" stroke="#63b8ff" points="180.41,-45.9 170.09,-48.28 179.65,-52.85 180.41,-45.9"/>
</a>
</g>
</g>
<!-- Node2 -->
<g id="Node000002" class="node">
<title>Node2</title>
<g id="a_Node000002"><a xlink:href="d1/d89/classNookpostBackend_1_1ApiSchemas_1_1Posts_1_1PutPost_1_1PutPostRequestBody.html" target="_top" xlink:title="Response to a post get request.">
<polygon fill="white" stroke="#666666" points="398,-30 211,-30 211,0 398,0 398,-30"/>
<text text-anchor="start" x="219" y="-18" font-family="Helvetica,sans-Serif" font-size="10.00">NookpostBackend.ApiSchemas.</text>
<text text-anchor="middle" x="304.5" y="-7" font-family="Helvetica,sans-Serif" font-size="10.00">Posts.PutPost.PutPostRequestBody</text>
</a>
</g>
</g>
<!-- Node0&#45;&gt;Node2 -->
<g id="edge10_Node000000_Node000002" class="edge">
<title>Node0&#45;&gt;Node2</title>
<g id="a_edge10_Node000000_Node000002"><a xlink:title=" ">
<path fill="none" stroke="#63b8ff" d="M180.22,-28.6C190.42,-27.48 200.79,-26.33 210.96,-25.21"/>
<polygon fill="#63b8ff" stroke="#63b8ff" points="179.65,-25.15 170.09,-29.72 180.41,-32.1 179.65,-25.15"/>
</a>
</g>
</g>
</g>
</svg>
