<?xml version="1.0" encoding="UTF-8" standalone="no"?>
<!DOCTYPE svg PUBLIC "-//W3C//DTD SVG 1.1//EN"
 "http://www.w3.org/Graphics/SVG/1.1/DTD/svg11.dtd">
<!-- Generated by graphviz version 2.43.0 (0)
 -->
<!-- Title: Graphical Class Hierarchy Pages: 1 -->
<svg width="657pt" height="110pt"
 viewBox="0.00 0.00 657.00 110.00" xmlns="http://www.w3.org/2000/svg" xmlns:xlink="http://www.w3.org/1999/xlink">
<g id="graph0" class="graph" transform="scale(1 1) rotate(0) translate(4 106)">
<title>Graphical Class Hierarchy</title>
<!-- Node0 -->
<g id="Node000000" class="node">
<title>Node0</title>
<g id="a_Node000000"><a xlink:href="d4/d64/classNookpostBackend_1_1ApiSchemas_1_1Posts_1_1PostData.html" target="_top" xlink:title="Represents a post created by a user.">
<polygon fill="white" stroke="#666666" points="170,-54 0,-54 0,-24 170,-24 170,-54"/>
<text text-anchor="start" x="8" y="-42" font-family="Helvetica,sans-Serif" font-size="10.00">NookpostBackend.ApiSchemas.</text>
<text text-anchor="middle" x="85" y="-31" font-family="Helvetica,sans-Serif" font-size="10.00">Posts.PostData</text>
</a>
</g>
</g>
<!-- Node1 -->
<g id="Node000001" class="node">
<title>Node1</title>
<g id="a_Node000001"><a xlink:href="d8/d95/classNookpostBackend_1_1ApiSchemas_1_1Posts_1_1PostGetData.html" target="_top" xlink:title="Common data for a psot get response.">
<polygon fill="white" stroke="#666666" points="384.5,-78 214.5,-78 214.5,-48 384.5,-48 384.5,-78"/>
<text text-anchor="start" x="222.5" y="-66" font-family="Helvetica,sans-Serif" font-size="10.00">NookpostBackend.ApiSchemas.</text>
<text text-anchor="middle" x="299.5" y="-55" font-family="Helvetica,sans-Serif" font-size="10.00">Posts.PostGetData</text>
</a>
</g>
</g>
<!-- Node0&#45;&gt;Node1 -->
<g id="edge5_Node000000_Node000001" class="edge">
<title>Node0&#45;&gt;Node1</title>
<g id="a_edge5_Node000000_Node000001"><a xlink:title=" ">
<path fill="none" stroke="#63b8ff" d="M180.55,-49.68C191.8,-50.95 203.22,-52.24 214.31,-53.49"/>
<polygon fill="#63b8ff" stroke="#63b8ff" points="180.62,-46.16 170.29,-48.52 179.83,-53.12 180.62,-46.16"/>
</a>
</g>
</g>
<!-- Node4 -->
<g id="Node000004" class="node">
<title>Node4</title>
<g id="a_Node000004"><a xlink:href="d1/d89/classNookpostBackend_1_1ApiSchemas_1_1Posts_1_1PutPost_1_1PutPostRequestBody.html" target="_top" xlink:title="Response to a post get request.">
<polygon fill="white" stroke="#666666" points="393,-30 206,-30 206,0 393,0 393,-30"/>
<text text-anchor="start" x="214" y="-18" font-family="Helvetica,sans-Serif" font-size="10.00">NookpostBackend.ApiSchemas.</text>
<text text-anchor="middle" x="299.5" y="-7" font-family="Helvetica,sans-Serif" font-size="10.00">Posts.PutPost.PutPostRequestBody</text>
</a>
</g>
</g>
<!-- Node0&#45;&gt;Node4 -->
<g id="edge8_Node000000_Node000004" class="edge">
<title>Node0&#45;&gt;Node4</title>
<g id="a_edge8_Node000000_Node000004"><a xlink:title=" ">
<path fill="none" stroke="#63b8ff" d="M180.24,-28.36C188.77,-27.39 197.4,-26.42 205.91,-25.46"/>
<polygon fill="#63b8ff" stroke="#63b8ff" points="179.83,-24.88 170.29,-29.48 180.62,-31.84 179.83,-24.88"/>
</a>
</g>
</g>
<!-- Node2 -->
<g id="Node000002" class="node">
<title>Node2</title>
<g id="a_Node000002"><a xlink:href="d6/db5/classNookpostBackend_1_1ApiSchemas_1_1Posts_1_1GetPost_1_1GetPostResponseBody.html" target="_top" xlink:title="Response to a post get request.">
<polygon fill="white" stroke="#666666" points="637.5,-102 440.5,-102 440.5,-72 637.5,-72 637.5,-102"/>
<text text-anchor="start" x="448.5" y="-90" font-family="Helvetica,sans-Serif" font-size="10.00">NookpostBackend.ApiSchemas.</text>
<text text-anchor="middle" x="539" y="-79" font-family="Helvetica,sans-Serif" font-size="10.00">Posts.GetPost.GetPostResponseBody</text>
</a>
</g>
</g>
<!-- Node1&#45;&gt;Node2 -->
<g id="edge6_Node000001_Node000002" class="edge">
<title>Node1&#45;&gt;Node2</title>
<g id="a_edge6_Node000001_Node000002"><a xlink:title=" ">
<path fill="none" stroke="#63b8ff" d="M394.81,-72.53C409.75,-74.04 425.23,-75.6 440.24,-77.12"/>
<polygon fill="#63b8ff" stroke="#63b8ff" points="394.87,-69.02 384.57,-71.5 394.17,-75.98 394.87,-69.02"/>
</a>
</g>
</g>
<!-- Node3 -->
<g id="Node000003" class="node">
<title>Node3</title>
<g id="a_Node000003"><a xlink:href="d0/d1f/classNookpostBackend_1_1ApiSchemas_1_1Posts_1_1GetPostFiltered_1_1GetPostFilteredPost.html" target="_top" xlink:title="Response to a post get request.">
<polygon fill="white" stroke="#666666" points="649,-54 429,-54 429,-24 649,-24 649,-54"/>
<text text-anchor="start" x="437" y="-42" font-family="Helvetica,sans-Serif" font-size="10.00">NookpostBackend.ApiSchemas.</text>
<text text-anchor="middle" x="539" y="-31" font-family="Helvetica,sans-Serif" font-size="10.00">Posts.GetPostFiltered.GetPostFilteredPost</text>
</a>
</g>
</g>
<!-- Node1&#45;&gt;Node3 -->
<g id="edge7_Node000001_Node000003" class="edge">
<title>Node1&#45;&gt;Node3</title>
<g id="a_edge7_Node000001_Node000003"><a xlink:title=" ">
<path fill="none" stroke="#63b8ff" d="M394.72,-53.48C405.87,-52.35 417.33,-51.19 428.67,-50.05"/>
<polygon fill="#63b8ff" stroke="#63b8ff" points="394.17,-50.02 384.57,-54.5 394.87,-56.98 394.17,-50.02"/>
</a>
</g>
</g>
</g>
</svg>
