<?xml version="1.0" encoding="UTF-8" standalone="no"?>
<!DOCTYPE svg PUBLIC "-//W3C//DTD SVG 1.1//EN"
 "http://www.w3.org/Graphics/SVG/1.1/DTD/svg11.dtd">
<!-- Generated by graphviz version 2.43.0 (0)
 -->
<!-- Title: Graphical Class Hierarchy Pages: 1 -->
<svg width="411pt" height="167pt"
 viewBox="0.00 0.00 411.00 167.00" xmlns="http://www.w3.org/2000/svg" xmlns:xlink="http://www.w3.org/1999/xlink">
<g id="graph0" class="graph" transform="scale(1 1) rotate(0) translate(4 163)">
<title>Graphical Class Hierarchy</title>
<!-- Node0 -->
<g id="Node000000" class="node">
<title>Node0</title>
<g id="a_Node000000"><a xlink:href="d0/db2/classNookpostBackend_1_1ApiSchemas_1_1Categories_1_1CategoryData.html" target="_top" xlink:title=" ">
<polygon fill="white" stroke="#666666" points="170,-94.5 0,-94.5 0,-64.5 170,-64.5 170,-94.5"/>
<text text-anchor="start" x="8" y="-82.5" font-family="Helvetica,sans-Serif" font-size="10.00">NookpostBackend.ApiSchemas.</text>
<text text-anchor="middle" x="85" y="-71.5" font-family="Helvetica,sans-Serif" font-size="10.00">Categories.CategoryData</text>
</a>
</g>
</g>
<!-- Node1 -->
<g id="Node000001" class="node">
<title>Node1</title>
<g id="a_Node000001"><a xlink:href="dc/d55/classNookpostBackend_1_1ApiSchemas_1_1Categories_1_1GetAllCategories_1_1GetAllCategoriesCategory.html" target="_top" xlink:title=" ">
<polygon fill="white" stroke="#666666" points="392,-159 217,-159 217,-118 392,-118 392,-159"/>
<text text-anchor="start" x="225" y="-147" font-family="Helvetica,sans-Serif" font-size="10.00">NookpostBackend.ApiSchemas.</text>
<text text-anchor="start" x="225" y="-136" font-family="Helvetica,sans-Serif" font-size="10.00">Categories.GetAllCategories.Get</text>
<text text-anchor="middle" x="304.5" y="-125" font-family="Helvetica,sans-Serif" font-size="10.00">AllCategoriesCategory</text>
</a>
</g>
</g>
<!-- Node0&#45;&gt;Node1 -->
<g id="edge2_Node000000_Node000001" class="edge">
<title>Node0&#45;&gt;Node1</title>
<g id="a_edge2_Node000000_Node000001"><a xlink:title=" ">
<path fill="none" stroke="#63b8ff" d="M151.18,-97.18C175.24,-103.71 202.71,-111.16 227.64,-117.92"/>
<polygon fill="#63b8ff" stroke="#63b8ff" points="152.01,-93.78 141.45,-94.54 150.18,-100.54 152.01,-93.78"/>
</a>
</g>
</g>
<!-- Node2 -->
<g id="Node000002" class="node">
<title>Node2</title>
<g id="a_Node000002"><a xlink:href="d9/d33/classNookpostBackend_1_1ApiSchemas_1_1Categories_1_1GetCategory_1_1GetCategoryResponseBody.html" target="_top" xlink:title=" ">
<polygon fill="white" stroke="#666666" points="403,-100 206,-100 206,-59 403,-59 403,-100"/>
<text text-anchor="start" x="214" y="-88" font-family="Helvetica,sans-Serif" font-size="10.00">NookpostBackend.ApiSchemas.</text>
<text text-anchor="start" x="214" y="-77" font-family="Helvetica,sans-Serif" font-size="10.00">Categories.GetCategory.GetCategory</text>
<text text-anchor="middle" x="304.5" y="-66" font-family="Helvetica,sans-Serif" font-size="10.00">ResponseBody</text>
</a>
</g>
</g>
<!-- Node0&#45;&gt;Node2 -->
<g id="edge3_Node000000_Node000002" class="edge">
<title>Node0&#45;&gt;Node2</title>
<g id="a_edge3_Node000000_Node000002"><a xlink:title=" ">
<path fill="none" stroke="#63b8ff" d="M180.34,-79.5C188.8,-79.5 197.37,-79.5 205.86,-79.5"/>
<polygon fill="#63b8ff" stroke="#63b8ff" points="180.09,-76 170.09,-79.5 180.09,-83 180.09,-76"/>
</a>
</g>
</g>
<!-- Node3 -->
<g id="Node000003" class="node">
<title>Node3</title>
<g id="a_Node000003"><a xlink:href="d7/ded/classNookpostBackend_1_1ApiSchemas_1_1Categories_1_1PutCategory_1_1PutCategoryRequestBody.html" target="_top" xlink:title="The body of a PUT request to category.">
<polygon fill="white" stroke="#666666" points="401.5,-41 207.5,-41 207.5,0 401.5,0 401.5,-41"/>
<text text-anchor="start" x="215.5" y="-29" font-family="Helvetica,sans-Serif" font-size="10.00">NookpostBackend.ApiSchemas.</text>
<text text-anchor="start" x="215.5" y="-18" font-family="Helvetica,sans-Serif" font-size="10.00">Categories.PutCategory.PutCategory</text>
<text text-anchor="middle" x="304.5" y="-7" font-family="Helvetica,sans-Serif" font-size="10.00">RequestBody</text>
</a>
</g>
</g>
<!-- Node0&#45;&gt;Node3 -->
<g id="edge4_Node000000_Node000003" class="edge">
<title>Node0&#45;&gt;Node3</title>
<g id="a_edge4_Node000000_Node000003"><a xlink:title=" ">
<path fill="none" stroke="#63b8ff" d="M151.18,-61.82C175.24,-55.29 202.71,-47.84 227.64,-41.08"/>
<polygon fill="#63b8ff" stroke="#63b8ff" points="150.18,-58.46 141.45,-64.46 152.01,-65.22 150.18,-58.46"/>
</a>
</g>
</g>
</g>
</svg>
