<?xml version="1.0" encoding="UTF-8" standalone="no"?>
<!DOCTYPE svg PUBLIC "-//W3C//DTD SVG 1.1//EN"
 "http://www.w3.org/Graphics/SVG/1.1/DTD/svg11.dtd">
<!-- Generated by graphviz version 2.43.0 (0)
 -->
<!-- Title: Graphical Class Hierarchy Pages: 1 -->
<svg width="420pt" height="134pt"
 viewBox="0.00 0.00 420.00 134.00" xmlns="http://www.w3.org/2000/svg" xmlns:xlink="http://www.w3.org/1999/xlink">
<g id="graph0" class="graph" transform="scale(1 1) rotate(0) translate(4 130)">
<title>Graphical Class Hierarchy</title>
<!-- Node0 -->
<g id="Node000000" class="node">
<title>Node0</title>
<g id="a_Node000000"><a xlink:href="d8/d91/classNookpostBackend_1_1ApiSchemas_1_1Users_1_1UserData.html" target="_top" xlink:title="Common data for the user object.">
<polygon fill="white" stroke="#666666" points="170,-78 0,-78 0,-48 170,-48 170,-78"/>
<text text-anchor="start" x="8" y="-66" font-family="Helvetica,sans-Serif" font-size="10.00">NookpostBackend.ApiSchemas.</text>
<text text-anchor="middle" x="85" y="-55" font-family="Helvetica,sans-Serif" font-size="10.00">Users.UserData</text>
</a>
</g>
</g>
<!-- Node1 -->
<g id="Node000001" class="node">
<title>Node1</title>
<g id="a_Node000001"><a xlink:href="d7/db0/classNookpostBackend_1_1ApiSchemas_1_1Users_1_1GetUser_1_1UsersGetResponseBody.html" target="_top" xlink:title="The response to a user get request if successful.">
<polygon fill="white" stroke="#666666" points="412,-126 206,-126 206,-96 412,-96 412,-126"/>
<text text-anchor="start" x="214" y="-114" font-family="Helvetica,sans-Serif" font-size="10.00">NookpostBackend.ApiSchemas.</text>
<text text-anchor="middle" x="309" y="-103" font-family="Helvetica,sans-Serif" font-size="10.00">Users.GetUser.UsersGetResponseBody</text>
</a>
</g>
</g>
<!-- Node0&#45;&gt;Node1 -->
<g id="edge11_Node000000_Node000001" class="edge">
<title>Node0&#45;&gt;Node1</title>
<g id="a_edge11_Node000000_Node000001"><a xlink:title=" ">
<path fill="none" stroke="#63b8ff" d="M165.71,-80.23C189.55,-85.39 215.49,-91 238.61,-96"/>
<polygon fill="#63b8ff" stroke="#63b8ff" points="166.15,-76.75 155.63,-78.06 164.67,-83.59 166.15,-76.75"/>
</a>
</g>
</g>
<!-- Node2 -->
<g id="Node000002" class="node">
<title>Node2</title>
<g id="a_Node000002"><a xlink:href="d6/d75/classNookpostBackend_1_1ApiSchemas_1_1Users_1_1PostUser_1_1UsersPostRequestBody.html" target="_top" xlink:title="The request body of a user create request.">
<polygon fill="white" stroke="#666666" points="412,-78 206,-78 206,-48 412,-48 412,-78"/>
<text text-anchor="start" x="214" y="-66" font-family="Helvetica,sans-Serif" font-size="10.00">NookpostBackend.ApiSchemas.</text>
<text text-anchor="middle" x="309" y="-55" font-family="Helvetica,sans-Serif" font-size="10.00">Users.PostUser.UsersPostRequestBody</text>
</a>
</g>
</g>
<!-- Node0&#45;&gt;Node2 -->
<g id="edge12_Node000000_Node000002" class="edge">
<title>Node0&#45;&gt;Node2</title>
<g id="a_edge12_Node000000_Node000002"><a xlink:title=" ">
<path fill="none" stroke="#63b8ff" d="M180.44,-63C188.87,-63 197.42,-63 205.9,-63"/>
<polygon fill="#63b8ff" stroke="#63b8ff" points="180.25,-59.5 170.25,-63 180.25,-66.5 180.25,-59.5"/>
</a>
</g>
</g>
<!-- Node3 -->
<g id="Node000003" class="node">
<title>Node3</title>
<g id="a_Node000003"><a xlink:href="db/d04/classNookpostBackend_1_1ApiSchemas_1_1Users_1_1PutUser_1_1UserPutRequestBody.html" target="_top" xlink:title="Request body of a user put request.">
<polygon fill="white" stroke="#666666" points="404.5,-30 213.5,-30 213.5,0 404.5,0 404.5,-30"/>
<text text-anchor="start" x="221.5" y="-18" font-family="Helvetica,sans-Serif" font-size="10.00">NookpostBackend.ApiSchemas.</text>
<text text-anchor="middle" x="309" y="-7" font-family="Helvetica,sans-Serif" font-size="10.00">Users.PutUser.UserPutRequestBody</text>
</a>
</g>
</g>
<!-- Node0&#45;&gt;Node3 -->
<g id="edge13_Node000000_Node000003" class="edge">
<title>Node0&#45;&gt;Node3</title>
<g id="a_edge13_Node000000_Node000003"><a xlink:title=" ">
<path fill="none" stroke="#63b8ff" d="M165.71,-45.77C189.55,-40.61 215.49,-35 238.61,-30"/>
<polygon fill="#63b8ff" stroke="#63b8ff" points="164.67,-42.41 155.63,-47.94 166.15,-49.25 164.67,-42.41"/>
</a>
</g>
</g>
</g>
</svg>
