<?xml version="1.0" encoding="UTF-8" standalone="no"?>
<!DOCTYPE svg PUBLIC "-//W3C//DTD SVG 1.1//EN"
 "http://www.w3.org/Graphics/SVG/1.1/DTD/svg11.dtd">
<!-- Generated by graphviz version 2.43.0 (0)
 -->
<!-- Title: NookpostBackend.ApiSchemas.Categories.CategoryData Pages: 1 -->
<!--zoomable 190 -->

<svg id="main" version="1.1" xmlns="http://www.w3.org/2000/svg" xmlns:xlink="http://www.w3.org/1999/xlink" xml:space="preserve" onload="init(evt)">

<style type="text/css"><![CDATA[
.node, .edge {opacity: 0.7;}
.node.selected, .edge.selected {opacity: 1;}
.edge:hover path { stroke: red; }
.edge:hover polygon { stroke: red; fill: red; }
]]></style>

<defs>
  <circle id="rim" cx="0" cy="0" r="7"/>
  <circle id="rim2" cx="0" cy="0" r="3.5"/>
  <g id="zoomPlus">
    <use xlink:href="#rim" fill="#404040"><set attributeName="fill" to="#808080" begin="zoomplus.mouseover" end="zoomplus.mouseout"/></use>
    <path d="M-4,0h8M0,-4v8" fill="none" stroke="white" stroke-width="1.5" pointer-events="none"/>
  </g>
  <g id="zoomMin">
    <use xlink:href="#rim" fill="#404040"><set attributeName="fill" to="#808080" begin="zoomminus.mouseover" end="zoomminus.mouseout"/></use>
    <path d="M-4,0h8" fill="none" stroke="white" stroke-width="1.5" pointer-events="none"/>
  </g>
  <g id="arrowUp" transform="translate(30 24)">
    <use xlink:href="#rim"/>
    <path pointer-events="none" fill="none" stroke="white" stroke-width="1.5" d="M0,-3.0v7 M-2.5,-0.5L0,-3.0L2.5,-0.5"/>
  </g>
  <g id="arrowRight" transform="rotate(90) translate(36 -43)">
    <use xlink:href="#rim"/>
    <path pointer-events="none" fill="none" stroke="white" stroke-width="1.5" d="M0,-3.0v7 M-2.5,-0.5L0,-3.0L2.5,-0.5"/>
  </g>
  <g id="arrowDown" transform="rotate(180) translate(-30 -48)">
    <use xlink:href="#rim"/>
    <path pointer-events="none" fill="none" stroke="white" stroke-width="1.5" d="M0,-3.0v7 M-2.5,-0.5L0,-3.0L2.5,-0.5"/>
  </g>
  <g id="arrowLeft" transform="rotate(270) translate(-36 17)">
    <use xlink:href="#rim"/>
    <path pointer-events="none" fill="none" stroke="white" stroke-width="1.5" d="M0,-3.0v7 M-2.5,-0.5L0,-3.0L2.5,-0.5"/>
  </g>
  <g id="resetDef">
    <use xlink:href="#rim2" fill="#404040"><set attributeName="fill" to="#808080" begin="reset.mouseover" end="reset.mouseout"/></use>
  </g>
</defs>
<script type="application/ecmascript">
var viewWidth = 593;
var viewHeight = 190;
var sectionId = 'dynsection-0';
</script>
<script type="application/ecmascript" xlink:href="../../svg.min.js"/>
<svg id="graph" class="graph">
<g id="viewport">
<title>NookpostBackend.ApiSchemas.Categories.CategoryData</title>
<!-- Node1 -->
<g id="Node000001" class="node">
<title>Node1</title>
<g id="a_Node000001"><a xlink:title=" ">
<polygon fill="#999999" stroke="transparent" points="364.5,-182 200.5,-182 200.5,-107 364.5,-107 364.5,-182"/>
<text text-anchor="start" x="205.5" y="-169.5" font-family="Helvetica,sans-Serif" font-size="10.00">NookpostBackend.ApiSchemas.</text>
<text text-anchor="start" x="220.5" y="-158.5" font-family="Helvetica,sans-Serif" font-size="10.00">Categories.CategoryData</text>
<text text-anchor="start" x="223.5" y="-143.5" font-family="Helvetica,sans-Serif" font-size="10.00">+</text>
<text text-anchor="start" x="255.5" y="-143.5" font-family="Helvetica,sans-Serif" font-size="10.00">string? Name</text>
<text text-anchor="start" x="223.5" y="-128.5" font-family="Helvetica,sans-Serif" font-size="10.00">+</text>
<text text-anchor="start" x="255.5" y="-128.5" font-family="Helvetica,sans-Serif" font-size="10.00">string? Icon</text>
<text text-anchor="start" x="280.5" y="-113.5" font-family="Helvetica,sans-Serif" font-size="10.00"> </text>
<polygon fill="#666666" stroke="#666666" points="200.5,-153.5 200.5,-153.5 364.5,-153.5 364.5,-153.5 200.5,-153.5"/>
<polygon fill="#666666" stroke="#666666" points="200.5,-123.5 200.5,-123.5 253.5,-123.5 253.5,-123.5 200.5,-123.5"/>
<polygon fill="#666666" stroke="#666666" points="253.5,-123.5 253.5,-123.5 364.5,-123.5 364.5,-123.5 253.5,-123.5"/>
<polygon fill="none" stroke="#666666" points="200.5,-107 200.5,-182 364.5,-182 364.5,-107 200.5,-107"/>
</a>
</g>
</g>
<!-- Node2 -->
<g id="Node000002" class="node">
<title>Node2</title>
<g id="a_Node000002"><a xlink:href="../../dc/d55/classNookpostBackend_1_1ApiSchemas_1_1Categories_1_1GetAllCategories_1_1GetAllCategoriesCategory.html" target="_top" xlink:title=" ">
<polygon fill="white" stroke="transparent" points="169,-71 0,-71 0,0 169,0 169,-71"/>
<text text-anchor="start" x="5.5" y="-58.5" font-family="Helvetica,sans-Serif" font-size="10.00">NookpostBackend.ApiSchemas.</text>
<text text-anchor="start" x="5.5" y="-47.5" font-family="Helvetica,sans-Serif" font-size="10.00">Categories.GetAllCategories.Get</text>
<text text-anchor="start" x="30" y="-36.5" font-family="Helvetica,sans-Serif" font-size="10.00">AllCategoriesCategory</text>
<text text-anchor="start" x="26.5" y="-21.5" font-family="Helvetica,sans-Serif" font-size="10.00">+</text>
<text text-anchor="start" x="61.5" y="-21.5" font-family="Helvetica,sans-Serif" font-size="10.00">string? Uuid</text>
<text text-anchor="start" x="83" y="-6.5" font-family="Helvetica,sans-Serif" font-size="10.00"> </text>
<polygon fill="#666666" stroke="#666666" points="0.5,-31.5 0.5,-31.5 169.5,-31.5 169.5,-31.5 0.5,-31.5"/>
<polygon fill="#666666" stroke="#666666" points="0.5,-16.5 0.5,-16.5 59.5,-16.5 59.5,-16.5 0.5,-16.5"/>
<polygon fill="#666666" stroke="#666666" points="59.5,-16.5 59.5,-16.5 169.5,-16.5 169.5,-16.5 59.5,-16.5"/>
<polygon fill="none" stroke="#666666" points="0,0 0,-71 169,-71 169,0 0,0"/>
</a>
</g>
</g>
<!-- Node1&#45;&gt;Node2 -->
<g id="edge1_Node000001_Node000002" class="edge">
<title>Node1&#45;&gt;Node2</title>
<g id="a_edge1_Node000001_Node000002"><a xlink:title=" ">
<path fill="none" stroke="#63b8ff" d="M205.98,-102.15C186.96,-91.87 166.78,-80.97 148.44,-71.06"/>
<polygon fill="none" stroke="#63b8ff" points="204.45,-105.3 214.91,-106.98 207.78,-99.14 204.45,-105.3"/>
</a>
</g>
</g>
<!-- Node3 -->
<g id="Node000003" class="node">
<title>Node3</title>
<g id="a_Node000003"><a xlink:href="../../d9/d33/classNookpostBackend_1_1ApiSchemas_1_1Categories_1_1GetCategory_1_1GetCategoryResponseBody.html" target="_top" xlink:title=" ">
<polygon fill="white" stroke="transparent" points="378,-71 187,-71 187,0 378,0 378,-71"/>
<text text-anchor="start" x="192.5" y="-58.5" font-family="Helvetica,sans-Serif" font-size="10.00">NookpostBackend.ApiSchemas.</text>
<text text-anchor="start" x="192.5" y="-47.5" font-family="Helvetica,sans-Serif" font-size="10.00">Categories.GetCategory.GetCategory</text>
<text text-anchor="start" x="246.5" y="-36.5" font-family="Helvetica,sans-Serif" font-size="10.00">ResponseBody</text>
<text text-anchor="start" x="219" y="-21.5" font-family="Helvetica,sans-Serif" font-size="10.00">+</text>
<text text-anchor="start" x="259.5" y="-21.5" font-family="Helvetica,sans-Serif" font-size="10.00">string? Uuid</text>
<text text-anchor="start" x="281" y="-6.5" font-family="Helvetica,sans-Serif" font-size="10.00"> </text>
<polygon fill="#666666" stroke="#666666" points="187.5,-31.5 187.5,-31.5 378.5,-31.5 378.5,-31.5 187.5,-31.5"/>
<polygon fill="#666666" stroke="#666666" points="187.5,-16.5 187.5,-16.5 257.5,-16.5 257.5,-16.5 187.5,-16.5"/>
<polygon fill="#666666" stroke="#666666" points="257.5,-16.5 257.5,-16.5 378.5,-16.5 378.5,-16.5 257.5,-16.5"/>
<polygon fill="none" stroke="#666666" points="187,0 187,-71 378,-71 378,0 187,0"/>
</a>
</g>
</g>
<!-- Node1&#45;&gt;Node3 -->
<g id="edge2_Node000001_Node000003" class="edge">
<title>Node1&#45;&gt;Node3</title>
<g id="a_edge2_Node000001_Node000003"><a xlink:title=" ">
<path fill="none" stroke="#63b8ff" d="M282.5,-96.94C282.5,-88.25 282.5,-79.31 282.5,-71.06"/>
<polygon fill="none" stroke="#63b8ff" points="279,-96.98 282.5,-106.98 286,-96.98 279,-96.98"/>
</a>
</g>
</g>
<!-- Node4 -->
<g id="Node000004" class="node">
<title>Node4</title>
<g id="a_Node000004"><a xlink:href="../../d7/ded/classNookpostBackend_1_1ApiSchemas_1_1Categories_1_1PutCategory_1_1PutCategoryRequestBody.html" target="_top" xlink:title="The body of a PUT request to category.">
<polygon fill="white" stroke="transparent" points="584.5,-71 396.5,-71 396.5,0 584.5,0 584.5,-71"/>
<text text-anchor="start" x="401.5" y="-58.5" font-family="Helvetica,sans-Serif" font-size="10.00">NookpostBackend.ApiSchemas.</text>
<text text-anchor="start" x="401.5" y="-47.5" font-family="Helvetica,sans-Serif" font-size="10.00">Categories.PutCategory.PutCategory</text>
<text text-anchor="start" x="458" y="-36.5" font-family="Helvetica,sans-Serif" font-size="10.00">RequestBody</text>
<text text-anchor="start" x="427.5" y="-21.5" font-family="Helvetica,sans-Serif" font-size="10.00">+</text>
<text text-anchor="start" x="467.5" y="-21.5" font-family="Helvetica,sans-Serif" font-size="10.00">string? Uuid</text>
<text text-anchor="start" x="488.5" y="-6.5" font-family="Helvetica,sans-Serif" font-size="10.00"> </text>
<polygon fill="#666666" stroke="#666666" points="396.5,-31.5 396.5,-31.5 584.5,-31.5 584.5,-31.5 396.5,-31.5"/>
<polygon fill="#666666" stroke="#666666" points="396.5,-16.5 396.5,-16.5 465.5,-16.5 465.5,-16.5 396.5,-16.5"/>
<polygon fill="#666666" stroke="#666666" points="465.5,-16.5 465.5,-16.5 584.5,-16.5 584.5,-16.5 465.5,-16.5"/>
<polygon fill="none" stroke="#666666" points="396.5,0 396.5,-71 584.5,-71 584.5,0 396.5,0"/>
</a>
</g>
</g>
<!-- Node1&#45;&gt;Node4 -->
<g id="edge3_Node000001_Node000004" class="edge">
<title>Node1&#45;&gt;Node4</title>
<g id="a_edge3_Node000001_Node000004"><a xlink:title=" ">
<path fill="none" stroke="#63b8ff" d="M362.61,-102.29C382.67,-91.97 403.97,-81.01 423.33,-71.06"/>
<polygon fill="none" stroke="#63b8ff" points="360.79,-99.29 353.5,-106.98 363.99,-105.51 360.79,-99.29"/>
</a>
</g>
</g>
</g>
</svg>

<g id="navigator" transform="translate(0 0)" fill="#404254">
  <rect fill="#f2f5e9" fill-opacity="0.5" stroke="#606060" stroke-width=".5" x="0" y="0" width="60" height="60"/>
  <use id="zoomplus" xlink:href="#zoomPlus" x="17" y="9" onmousedown="handleZoom(evt,'in')"/>
  <use id="zoomminus" xlink:href="#zoomMin" x="42" y="9" onmousedown="handleZoom(evt,'out')"/>
  <use id="reset" xlink:href="#resetDef" x="30" y="36" onmousedown="handleReset()"/>
   <use id="arrowup" xlink:href="#arrowUp" x="0" y="0" onmousedown="handlePan(0,-1)"/>
  <use id="arrowright" xlink:href="#arrowRight" x="0" y="0" onmousedown="handlePan(1,0)"/>
  <use id="arrowdown" xlink:href="#arrowDown" x="0" y="0" onmousedown="handlePan(0,1)"/>
  <use id="arrowleft" xlink:href="#arrowLeft" x="0" y="0" onmousedown="handlePan(-1,0)"/>
</g>
<svg viewBox="0 0 15 15" width="100%" height="30px" preserveAspectRatio="xMaxYMin meet">
 <g id="arrow_out" transform="scale(0.3 0.3)">
  <a xlink:href="classNookpostBackend_1_1ApiSchemas_1_1Categories_1_1CategoryData__inherit__graph_org.svg" target="_base">
   <rect id="button" ry="5" rx="5" y="6" x="6" height="38" width="38"
        fill="#f2f5e9" fill-opacity="0.5" stroke="#606060" stroke-width="1.0"/>
   <path id="arrow"
     d="M 11.500037,31.436501 C 11.940474,20.09759 22.043105,11.32322 32.158766,21.979434 L 37.068811,17.246167 C 37.068811,17.246167 37.088388,32 37.088388,32 L 22.160133,31.978069 C 22.160133,31.978069 26.997745,27.140456 26.997745,27.140456 C 18.528582,18.264221 13.291696,25.230495 11.500037,31.436501 z"
     style="fill:#404040;"/>
  </a>
 </g>
</svg>

<style type='text/css'>
<![CDATA[
[data-mouse-over-selected='false'] { opacity: 0.7; }
[data-mouse-over-selected='true']  { opacity: 1.0; }
]]>
</style>
<script type="application/ecmascript"><![CDATA[
document.addEventListener('DOMContentLoaded', (event) => {
  highlightEdges();
  highlightAdjacentNodes();
});
]]></script>
</svg>
