<?xml version="1.0" encoding="UTF-8" standalone="no"?>
<!DOCTYPE svg PUBLIC "-//W3C//DTD SVG 1.1//EN"
 "http://www.w3.org/Graphics/SVG/1.1/DTD/svg11.dtd">
<!-- Generated by graphviz version 2.43.0 (0)
 -->
<!-- Title: NookpostBackend.ApiSchemas.Categories.CategoryData Pages: 1 -->
<svg width="593pt" height="190pt"
 viewBox="0.00 0.00 592.50 190.00" xmlns="http://www.w3.org/2000/svg" xmlns:xlink="http://www.w3.org/1999/xlink">
<g id="graph0" class="graph" transform="scale(1 1) rotate(0) translate(4 186)">
<title>NookpostBackend.ApiSchemas.Categories.CategoryData</title>
<!-- Node1 -->
<g id="Node000001" class="node">
<title>Node1</title>
<g id="a_Node000001"><a xlink:title=" ">
<polygon fill="#999999" stroke="transparent" points="364.5,-182 200.5,-182 200.5,-107 364.5,-107 364.5,-182"/>
<text text-anchor="start" x="205.5" y="-169.5" font-family="Helvetica,sans-Serif" font-size="10.00">NookpostBackend.ApiSchemas.</text>
<text text-anchor="start" x="220.5" y="-158.5" font-family="Helvetica,sans-Serif" font-size="10.00">Categories.CategoryData</text>
<text text-anchor="start" x="223.5" y="-143.5" font-family="Helvetica,sans-Serif" font-size="10.00">+</text>
<text text-anchor="start" x="255.5" y="-143.5" font-family="Helvetica,sans-Serif" font-size="10.00">string? Name</text>
<text text-anchor="start" x="223.5" y="-128.5" font-family="Helvetica,sans-Serif" font-size="10.00">+</text>
<text text-anchor="start" x="255.5" y="-128.5" font-family="Helvetica,sans-Serif" font-size="10.00">string? Icon</text>
<text text-anchor="start" x="280.5" y="-113.5" font-family="Helvetica,sans-Serif" font-size="10.00"> </text>
<polygon fill="#666666" stroke="#666666" points="200.5,-153.5 200.5,-153.5 364.5,-153.5 364.5,-153.5 200.5,-153.5"/>
<polygon fill="#666666" stroke="#666666" points="200.5,-123.5 200.5,-123.5 253.5,-123.5 253.5,-123.5 200.5,-123.5"/>
<polygon fill="#666666" stroke="#666666" points="253.5,-123.5 253.5,-123.5 364.5,-123.5 364.5,-123.5 253.5,-123.5"/>
<polygon fill="none" stroke="#666666" points="200.5,-107 200.5,-182 364.5,-182 364.5,-107 200.5,-107"/>
</a>
</g>
</g>
<!-- Node2 -->
<g id="Node000002" class="node">
<title>Node2</title>
<g id="a_Node000002"><a xlink:href="../../dc/d55/classNookpostBackend_1_1ApiSchemas_1_1Categories_1_1GetAllCategories_1_1GetAllCategoriesCategory.html" target="_top" xlink:title=" ">
<polygon fill="white" stroke="transparent" points="169,-71 0,-71 0,0 169,0 169,-71"/>
<text text-anchor="start" x="5.5" y="-58.5" font-family="Helvetica,sans-Serif" font-size="10.00">NookpostBackend.ApiSchemas.</text>
<text text-anchor="start" x="5.5" y="-47.5" font-family="Helvetica,sans-Serif" font-size="10.00">Categories.GetAllCategories.Get</text>
<text text-anchor="start" x="30" y="-36.5" font-family="Helvetica,sans-Serif" font-size="10.00">AllCategoriesCategory</text>
<text text-anchor="start" x="26.5" y="-21.5" font-family="Helvetica,sans-Serif" font-size="10.00">+</text>
<text text-anchor="start" x="61.5" y="-21.5" font-family="Helvetica,sans-Serif" font-size="10.00">string? Uuid</text>
<text text-anchor="start" x="83" y="-6.5" font-family="Helvetica,sans-Serif" font-size="10.00"> </text>
<polygon fill="#666666" stroke="#666666" points="0.5,-31.5 0.5,-31.5 169.5,-31.5 169.5,-31.5 0.5,-31.5"/>
<polygon fill="#666666" stroke="#666666" points="0.5,-16.5 0.5,-16.5 59.5,-16.5 59.5,-16.5 0.5,-16.5"/>
<polygon fill="#666666" stroke="#666666" points="59.5,-16.5 59.5,-16.5 169.5,-16.5 169.5,-16.5 59.5,-16.5"/>
<polygon fill="none" stroke="#666666" points="0,0 0,-71 169,-71 169,0 0,0"/>
</a>
</g>
</g>
<!-- Node1&#45;&gt;Node2 -->
<g id="edge1_Node000001_Node000002" class="edge">
<title>Node1&#45;&gt;Node2</title>
<g id="a_edge1_Node000001_Node000002"><a xlink:title=" ">
<path fill="none" stroke="#63b8ff" d="M205.98,-102.15C186.96,-91.87 166.78,-80.97 148.44,-71.06"/>
<polygon fill="none" stroke="#63b8ff" points="204.45,-105.3 214.91,-106.98 207.78,-99.14 204.45,-105.3"/>
</a>
</g>
</g>
<!-- Node3 -->
<g id="Node000003" class="node">
<title>Node3</title>
<g id="a_Node000003"><a xlink:href="../../d9/d33/classNookpostBackend_1_1ApiSchemas_1_1Categories_1_1GetCategory_1_1GetCategoryResponseBody.html" target="_top" xlink:title=" ">
<polygon fill="white" stroke="transparent" points="378,-71 187,-71 187,0 378,0 378,-71"/>
<text text-anchor="start" x="192.5" y="-58.5" font-family="Helvetica,sans-Serif" font-size="10.00">NookpostBackend.ApiSchemas.</text>
<text text-anchor="start" x="192.5" y="-47.5" font-family="Helvetica,sans-Serif" font-size="10.00">Categories.GetCategory.GetCategory</text>
<text text-anchor="start" x="246.5" y="-36.5" font-family="Helvetica,sans-Serif" font-size="10.00">ResponseBody</text>
<text text-anchor="start" x="219" y="-21.5" font-family="Helvetica,sans-Serif" font-size="10.00">+</text>
<text text-anchor="start" x="259.5" y="-21.5" font-family="Helvetica,sans-Serif" font-size="10.00">string? Uuid</text>
<text text-anchor="start" x="281" y="-6.5" font-family="Helvetica,sans-Serif" font-size="10.00"> </text>
<polygon fill="#666666" stroke="#666666" points="187.5,-31.5 187.5,-31.5 378.5,-31.5 378.5,-31.5 187.5,-31.5"/>
<polygon fill="#666666" stroke="#666666" points="187.5,-16.5 187.5,-16.5 257.5,-16.5 257.5,-16.5 187.5,-16.5"/>
<polygon fill="#666666" stroke="#666666" points="257.5,-16.5 257.5,-16.5 378.5,-16.5 378.5,-16.5 257.5,-16.5"/>
<polygon fill="none" stroke="#666666" points="187,0 187,-71 378,-71 378,0 187,0"/>
</a>
</g>
</g>
<!-- Node1&#45;&gt;Node3 -->
<g id="edge2_Node000001_Node000003" class="edge">
<title>Node1&#45;&gt;Node3</title>
<g id="a_edge2_Node000001_Node000003"><a xlink:title=" ">
<path fill="none" stroke="#63b8ff" d="M282.5,-96.94C282.5,-88.25 282.5,-79.31 282.5,-71.06"/>
<polygon fill="none" stroke="#63b8ff" points="279,-96.98 282.5,-106.98 286,-96.98 279,-96.98"/>
</a>
</g>
</g>
<!-- Node4 -->
<g id="Node000004" class="node">
<title>Node4</title>
<g id="a_Node000004"><a xlink:href="../../d7/ded/classNookpostBackend_1_1ApiSchemas_1_1Categories_1_1PutCategory_1_1PutCategoryRequestBody.html" target="_top" xlink:title="The body of a PUT request to category.">
<polygon fill="white" stroke="transparent" points="584.5,-71 396.5,-71 396.5,0 584.5,0 584.5,-71"/>
<text text-anchor="start" x="401.5" y="-58.5" font-family="Helvetica,sans-Serif" font-size="10.00">NookpostBackend.ApiSchemas.</text>
<text text-anchor="start" x="401.5" y="-47.5" font-family="Helvetica,sans-Serif" font-size="10.00">Categories.PutCategory.PutCategory</text>
<text text-anchor="start" x="458" y="-36.5" font-family="Helvetica,sans-Serif" font-size="10.00">RequestBody</text>
<text text-anchor="start" x="427.5" y="-21.5" font-family="Helvetica,sans-Serif" font-size="10.00">+</text>
<text text-anchor="start" x="467.5" y="-21.5" font-family="Helvetica,sans-Serif" font-size="10.00">string? Uuid</text>
<text text-anchor="start" x="488.5" y="-6.5" font-family="Helvetica,sans-Serif" font-size="10.00"> </text>
<polygon fill="#666666" stroke="#666666" points="396.5,-31.5 396.5,-31.5 584.5,-31.5 584.5,-31.5 396.5,-31.5"/>
<polygon fill="#666666" stroke="#666666" points="396.5,-16.5 396.5,-16.5 465.5,-16.5 465.5,-16.5 396.5,-16.5"/>
<polygon fill="#666666" stroke="#666666" points="465.5,-16.5 465.5,-16.5 584.5,-16.5 584.5,-16.5 465.5,-16.5"/>
<polygon fill="none" stroke="#666666" points="396.5,0 396.5,-71 584.5,-71 584.5,0 396.5,0"/>
</a>
</g>
</g>
<!-- Node1&#45;&gt;Node4 -->
<g id="edge3_Node000001_Node000004" class="edge">
<title>Node1&#45;&gt;Node4</title>
<g id="a_edge3_Node000001_Node000004"><a xlink:title=" ">
<path fill="none" stroke="#63b8ff" d="M362.61,-102.29C382.67,-91.97 403.97,-81.01 423.33,-71.06"/>
<polygon fill="none" stroke="#63b8ff" points="360.79,-99.29 353.5,-106.98 363.99,-105.51 360.79,-99.29"/>
</a>
</g>
</g>
</g>
</svg>
