<?xml version="1.0" encoding="UTF-8" standalone="no"?>
<!DOCTYPE svg PUBLIC "-//W3C//DTD SVG 1.1//EN"
 "http://www.w3.org/Graphics/SVG/1.1/DTD/svg11.dtd">
<!-- Generated by graphviz version 2.43.0 (0)
 -->
<!-- Title: NookpostBackend.ApiSchemas.Categories.CategoryData Pages: 1 -->
<svg width="384pt" height="190pt"
 viewBox="0.00 0.00 383.50 190.00" xmlns="http://www.w3.org/2000/svg" xmlns:xlink="http://www.w3.org/1999/xlink">
<g id="graph0" class="graph" transform="scale(1 1) rotate(0) translate(4 186)">
<title>NookpostBackend.ApiSchemas.Categories.CategoryData</title>
<!-- Node1 -->
<g id="Node000001" class="node">
<title>Node1</title>
<g id="a_Node000001"><a xlink:title=" ">
<polygon fill="#999999" stroke="transparent" points="264.5,-182 100.5,-182 100.5,-107 264.5,-107 264.5,-182"/>
<text text-anchor="start" x="105.5" y="-169.5" font-family="Helvetica,sans-Serif" font-size="10.00">NookpostBackend.ApiSchemas.</text>
<text text-anchor="start" x="120.5" y="-158.5" font-family="Helvetica,sans-Serif" font-size="10.00">Categories.CategoryData</text>
<text text-anchor="start" x="123.5" y="-143.5" font-family="Helvetica,sans-Serif" font-size="10.00">+</text>
<text text-anchor="start" x="155.5" y="-143.5" font-family="Helvetica,sans-Serif" font-size="10.00">string? Name</text>
<text text-anchor="start" x="123.5" y="-128.5" font-family="Helvetica,sans-Serif" font-size="10.00">+</text>
<text text-anchor="start" x="155.5" y="-128.5" font-family="Helvetica,sans-Serif" font-size="10.00">string? Icon</text>
<text text-anchor="start" x="180.5" y="-113.5" font-family="Helvetica,sans-Serif" font-size="10.00"> </text>
<polygon fill="#666666" stroke="#666666" points="100.5,-153.5 100.5,-153.5 264.5,-153.5 264.5,-153.5 100.5,-153.5"/>
<polygon fill="#666666" stroke="#666666" points="100.5,-123.5 100.5,-123.5 153.5,-123.5 153.5,-123.5 100.5,-123.5"/>
<polygon fill="#666666" stroke="#666666" points="153.5,-123.5 153.5,-123.5 264.5,-123.5 264.5,-123.5 153.5,-123.5"/>
<polygon fill="none" stroke="#666666" points="100.5,-107 100.5,-182 264.5,-182 264.5,-107 100.5,-107"/>
</a>
</g>
</g>
<!-- Node2 -->
<g id="Node000002" class="node">
<title>Node2</title>
<g id="a_Node000002"><a xlink:href="../../dc/d55/classNookpostBackend_1_1ApiSchemas_1_1Categories_1_1GetAllCategories_1_1GetAllCategoriesCategory.html" target="_top" xlink:title=" ">
<polygon fill="white" stroke="transparent" points="169,-71 0,-71 0,0 169,0 169,-71"/>
<text text-anchor="start" x="5.5" y="-58.5" font-family="Helvetica,sans-Serif" font-size="10.00">NookpostBackend.ApiSchemas.</text>
<text text-anchor="start" x="5.5" y="-47.5" font-family="Helvetica,sans-Serif" font-size="10.00">Categories.GetAllCategories.Get</text>
<text text-anchor="start" x="30" y="-36.5" font-family="Helvetica,sans-Serif" font-size="10.00">AllCategoriesCategory</text>
<text text-anchor="start" x="26.5" y="-21.5" font-family="Helvetica,sans-Serif" font-size="10.00">+</text>
<text text-anchor="start" x="61.5" y="-21.5" font-family="Helvetica,sans-Serif" font-size="10.00">string? Uuid</text>
<text text-anchor="start" x="83" y="-6.5" font-family="Helvetica,sans-Serif" font-size="10.00"> </text>
<polygon fill="#666666" stroke="#666666" points="0.5,-31.5 0.5,-31.5 169.5,-31.5 169.5,-31.5 0.5,-31.5"/>
<polygon fill="#666666" stroke="#666666" points="0.5,-16.5 0.5,-16.5 59.5,-16.5 59.5,-16.5 0.5,-16.5"/>
<polygon fill="#666666" stroke="#666666" points="59.5,-16.5 59.5,-16.5 169.5,-16.5 169.5,-16.5 59.5,-16.5"/>
<polygon fill="none" stroke="#666666" points="0,0 0,-71 169,-71 169,0 0,0"/>
</a>
</g>
</g>
<!-- Node1&#45;&gt;Node2 -->
<g id="edge1_Node000001_Node000002" class="edge">
<title>Node1&#45;&gt;Node2</title>
<g id="a_edge1_Node000001_Node000002"><a xlink:title=" ">
<path fill="none" stroke="#63b8ff" d="M142.19,-99.48C133.5,-90 124.45,-80.11 116.15,-71.06"/>
<polygon fill="none" stroke="#63b8ff" points="139.71,-101.97 149.05,-106.98 144.87,-97.24 139.71,-101.97"/>
</a>
</g>
</g>
<!-- Node3 -->
<g id="Node000003" class="node">
<title>Node3</title>
<g id="a_Node000003"><a xlink:href="../../d7/ded/classNookpostBackend_1_1ApiSchemas_1_1Categories_1_1PutCategory_1_1PutCategoryRequestBody.html" target="_top" xlink:title="The body of a PUT request to category.">
<polygon fill="white" stroke="transparent" points="375.5,-71 187.5,-71 187.5,0 375.5,0 375.5,-71"/>
<text text-anchor="start" x="192.5" y="-58.5" font-family="Helvetica,sans-Serif" font-size="10.00">NookpostBackend.ApiSchemas.</text>
<text text-anchor="start" x="192.5" y="-47.5" font-family="Helvetica,sans-Serif" font-size="10.00">Categories.PutCategory.PutCategory</text>
<text text-anchor="start" x="249" y="-36.5" font-family="Helvetica,sans-Serif" font-size="10.00">RequestBody</text>
<text text-anchor="start" x="218.5" y="-21.5" font-family="Helvetica,sans-Serif" font-size="10.00">+</text>
<text text-anchor="start" x="258.5" y="-21.5" font-family="Helvetica,sans-Serif" font-size="10.00">string? Uuid</text>
<text text-anchor="start" x="279.5" y="-6.5" font-family="Helvetica,sans-Serif" font-size="10.00"> </text>
<polygon fill="#666666" stroke="#666666" points="187.5,-31.5 187.5,-31.5 375.5,-31.5 375.5,-31.5 187.5,-31.5"/>
<polygon fill="#666666" stroke="#666666" points="187.5,-16.5 187.5,-16.5 256.5,-16.5 256.5,-16.5 187.5,-16.5"/>
<polygon fill="#666666" stroke="#666666" points="256.5,-16.5 256.5,-16.5 375.5,-16.5 375.5,-16.5 256.5,-16.5"/>
<polygon fill="none" stroke="#666666" points="187.5,0 187.5,-71 375.5,-71 375.5,0 187.5,0"/>
</a>
</g>
</g>
<!-- Node1&#45;&gt;Node3 -->
<g id="edge2_Node000001_Node000003" class="edge">
<title>Node1&#45;&gt;Node3</title>
<g id="a_edge2_Node000001_Node000003"><a xlink:title=" ">
<path fill="none" stroke="#63b8ff" d="M223.22,-99.48C232,-90 241.15,-80.11 249.53,-71.06"/>
<polygon fill="none" stroke="#63b8ff" points="220.52,-97.26 216.29,-106.98 225.65,-102.01 220.52,-97.26"/>
</a>
</g>
</g>
</g>
</svg>
