<?xml version="1.0" encoding="UTF-8" standalone="no"?>
<!DOCTYPE svg PUBLIC "-//W3C//DTD SVG 1.1//EN"
 "http://www.w3.org/Graphics/SVG/1.1/DTD/svg11.dtd">
<!-- Generated by graphviz version 2.43.0 (0)
 -->
<!-- Title: NookpostBackend.ApiEndpoints.Categories.GetCategory Pages: 1 -->
<svg width="282pt" height="134pt"
 viewBox="0.00 0.00 282.00 134.00" xmlns="http://www.w3.org/2000/svg" xmlns:xlink="http://www.w3.org/1999/xlink">
<g id="graph0" class="graph" transform="scale(1 1) rotate(0) translate(4 130)">
<title>NookpostBackend.ApiEndpoints.Categories.GetCategory</title>
<!-- Node1 -->
<g id="Node000001" class="node">
<title>Node1</title>
<g id="a_Node000001"><a xlink:title="Handles getting a category.">
<polygon fill="#999999" stroke="transparent" points="274,-126 0,-126 0,0 274,0 274,-126"/>
<text text-anchor="start" x="58" y="-114" font-family="Helvetica,sans-Serif" font-size="10.00">NookpostBackend.ApiEndpoints.</text>
<text text-anchor="start" x="78" y="-103" font-family="Helvetica,sans-Serif" font-size="10.00">Categories.GetCategory</text>
<text text-anchor="start" x="135" y="-88" font-family="Helvetica,sans-Serif" font-size="10.00"> </text>
<text text-anchor="start" x="4" y="-73" font-family="Helvetica,sans-Serif" font-size="10.00">+</text>
<text text-anchor="start" x="17" y="-73" font-family="Helvetica,sans-Serif" font-size="10.00">static Microsoft.AspNetCore.</text>
<text text-anchor="start" x="17" y="-62" font-family="Helvetica,sans-Serif" font-size="10.00">Http.HttpResults.Results</text>
<text text-anchor="start" x="17" y="-51" font-family="Helvetica,sans-Serif" font-size="10.00">&lt; Ok&lt; NookpostBackend.ApiSchemas.</text>
<text text-anchor="start" x="17" y="-40" font-family="Helvetica,sans-Serif" font-size="10.00">Categories.CategoryData &gt;, NotFound,</text>
<text text-anchor="start" x="17" y="-29" font-family="Helvetica,sans-Serif" font-size="10.00"> BadRequest &gt; HandleRequest(string</text>
<text text-anchor="start" x="17" y="-18" font-family="Helvetica,sans-Serif" font-size="10.00"> uuid, ClaimsPrincipal user, NookpostBackend.Data.</text>
<text text-anchor="start" x="17" y="-7" font-family="Helvetica,sans-Serif" font-size="10.00">DatabaseHandle databaseHandle)</text>
<polygon fill="#666666" stroke="#666666" points="0,-98 0,-98 274,-98 274,-98 0,-98"/>
<polygon fill="#666666" stroke="#666666" points="0,-83 0,-83 274,-83 274,-83 0,-83"/>
<polygon fill="none" stroke="#666666" points="0,0 0,-126 274,-126 274,0 0,0"/>
</a>
</g>
</g>
</g>
</svg>
