<?xml version="1.0" encoding="UTF-8" standalone="no"?>
<!DOCTYPE svg PUBLIC "-//W3C//DTD SVG 1.1//EN"
 "http://www.w3.org/Graphics/SVG/1.1/DTD/svg11.dtd">
<!-- Generated by graphviz version 2.43.0 (0)
 -->
<!-- Title: NookpostBackend.Cryptography.PasswordHashing.isPasswordValid Pages: 1 -->
<svg width="1088pt" height="98pt"
 viewBox="0.00 0.00 1088.00 97.50" xmlns="http://www.w3.org/2000/svg" xmlns:xlink="http://www.w3.org/1999/xlink">
<g id="graph0" class="graph" transform="scale(1 1) rotate(0) translate(4 93.5)">
<title>NookpostBackend.Cryptography.PasswordHashing.isPasswordValid</title>
<!-- Node1 -->
<g id="Node000001" class="node">
<title>Node1</title>
<g id="a_Node000001"><a xlink:title="Validate a password for a user.">
<polygon fill="#999999" stroke="#666666" points="1080,-57 897,-57 897,-27 1080,-27 1080,-57"/>
<text text-anchor="start" x="905" y="-45" font-family="Helvetica,sans-Serif" font-size="10.00">NookpostBackend.Cryptography.</text>
<text text-anchor="middle" x="988.5" y="-34" font-family="Helvetica,sans-Serif" font-size="10.00">PasswordHashing.isPasswordValid</text>
</a>
</g>
</g>
<!-- Node2 -->
<g id="Node000002" class="node">
<title>Node2</title>
<g id="a_Node000002"><a xlink:href="../../de/dbb/classNookpostBackend_1_1ApiEndpoints_1_1Authentication_1_1ChangePassword.html#abd3c4e5b346311d2d9d92063e1e0aa2e" target="_top" xlink:title="Changes the password of a user.">
<polygon fill="white" stroke="#666666" points="861,-89.5 650,-89.5 650,-48.5 861,-48.5 861,-89.5"/>
<text text-anchor="start" x="658" y="-77.5" font-family="Helvetica,sans-Serif" font-size="10.00">NookpostBackend.ApiEndpoints.</text>
<text text-anchor="start" x="658" y="-66.5" font-family="Helvetica,sans-Serif" font-size="10.00">Authentication.ChangePassword.Handle</text>
<text text-anchor="middle" x="755.5" y="-55.5" font-family="Helvetica,sans-Serif" font-size="10.00">Request</text>
</a>
</g>
</g>
<!-- Node1&#45;&gt;Node2 -->
<g id="edge1_Node000001_Node000002" class="edge">
<title>Node1&#45;&gt;Node2</title>
<g id="a_edge1_Node000001_Node000002"><a xlink:title=" ">
<path fill="none" stroke="#63b8ff" d="M886.87,-53.76C878.31,-54.76 869.63,-55.78 861.04,-56.78"/>
<polygon fill="#63b8ff" stroke="#63b8ff" points="887.34,-57.23 896.87,-52.59 886.53,-50.28 887.34,-57.23"/>
</a>
</g>
</g>
<!-- Node6 -->
<g id="Node000006" class="node">
<title>Node6</title>
<g id="a_Node000006"><a xlink:href="../../d0/d93/classNookpostBackend_1_1ApiEndpoints_1_1Authentication_1_1Login.html#a918444cedb461f353b4f3a00642ba169" target="_top" xlink:title="Authenticates the user and returns an access token.">
<polygon fill="white" stroke="#666666" points="842.5,-30 668.5,-30 668.5,0 842.5,0 842.5,-30"/>
<text text-anchor="start" x="676.5" y="-18" font-family="Helvetica,sans-Serif" font-size="10.00">NookpostBackend.ApiEndpoints.</text>
<text text-anchor="middle" x="755.5" y="-7" font-family="Helvetica,sans-Serif" font-size="10.00">Authentication.Login.PostLogin</text>
</a>
</g>
</g>
<!-- Node1&#45;&gt;Node6 -->
<g id="edge5_Node000001_Node000006" class="edge">
<title>Node1&#45;&gt;Node6</title>
<g id="a_edge5_Node000001_Node000006"><a xlink:title=" ">
<path fill="none" stroke="#63b8ff" d="M886.77,-30.23C872.08,-28.51 857.08,-26.76 842.72,-25.08"/>
<polygon fill="#63b8ff" stroke="#63b8ff" points="886.53,-33.72 896.87,-31.41 887.34,-26.77 886.53,-33.72"/>
</a>
</g>
</g>
<!-- Node3 -->
<g id="Node000003" class="node">
<title>Node3</title>
<g id="a_Node000003"><a xlink:href="../../da/dec/classNookpostBackend_1_1ApiEndpoints_1_1Authentication_1_1EndpointSetup.html#a8392c3a12fa78c0464e385e38fb3e4c1" target="_top" xlink:title="Initialize the Authentication Endpoints on the WebApp object.">
<polygon fill="white" stroke="#666666" points="614,-57 422,-57 422,-27 614,-27 614,-57"/>
<text text-anchor="start" x="430" y="-45" font-family="Helvetica,sans-Serif" font-size="10.00">NookpostBackend.ApiEndpoints.</text>
<text text-anchor="middle" x="518" y="-34" font-family="Helvetica,sans-Serif" font-size="10.00">Authentication.EndpointSetup.Setup</text>
</a>
</g>
</g>
<!-- Node2&#45;&gt;Node3 -->
<g id="edge2_Node000002_Node000003" class="edge">
<title>Node2&#45;&gt;Node3</title>
<g id="a_edge2_Node000002_Node000003"><a xlink:title=" ">
<path fill="none" stroke="#63b8ff" d="M639.75,-55.84C631.14,-54.86 622.51,-53.87 614.04,-52.9"/>
<polygon fill="#63b8ff" stroke="#63b8ff" points="639.5,-59.34 649.83,-57 640.3,-52.38 639.5,-59.34"/>
</a>
</g>
</g>
<!-- Node4 -->
<g id="Node000004" class="node">
<title>Node4</title>
<g id="a_Node000004"><a xlink:href="../../db/d6a/classNookpostBackend_1_1ApiEndpoints_1_1EndpointSetup.html#a00aafd7a4451d533ddb2969de9ac57a3" target="_top" xlink:title="Sets up all API Endpints on the given webapp">
<polygon fill="white" stroke="#666666" points="386,-57 212,-57 212,-27 386,-27 386,-57"/>
<text text-anchor="start" x="220" y="-45" font-family="Helvetica,sans-Serif" font-size="10.00">NookpostBackend.ApiEndpoints.</text>
<text text-anchor="middle" x="299" y="-34" font-family="Helvetica,sans-Serif" font-size="10.00">EndpointSetup.Setup</text>
</a>
</g>
</g>
<!-- Node3&#45;&gt;Node4 -->
<g id="edge3_Node000003_Node000004" class="edge">
<title>Node3&#45;&gt;Node4</title>
<g id="a_edge3_Node000003_Node000004"><a xlink:title=" ">
<path fill="none" stroke="#63b8ff" d="M411.79,-42C403.22,-42 394.63,-42 386.22,-42"/>
<polygon fill="#63b8ff" stroke="#63b8ff" points="411.82,-45.5 421.82,-42 411.82,-38.5 411.82,-45.5"/>
</a>
</g>
</g>
<!-- Node5 -->
<g id="Node000005" class="node">
<title>Node5</title>
<g id="a_Node000005"><a xlink:href="../../d8/dc6/classNookpostBackend_1_1Program.html#a3920d589512f09ab0634c9b16cefa59e" target="_top" xlink:title=" ">
<polygon fill="white" stroke="#666666" points="176,-51.5 0,-51.5 0,-32.5 176,-32.5 176,-51.5"/>
<text text-anchor="middle" x="88" y="-39.5" font-family="Helvetica,sans-Serif" font-size="10.00">NookpostBackend.Program.Main</text>
</a>
</g>
</g>
<!-- Node4&#45;&gt;Node5 -->
<g id="edge4_Node000004_Node000005" class="edge">
<title>Node4&#45;&gt;Node5</title>
<g id="a_edge4_Node000004_Node000005"><a xlink:title=" ">
<path fill="none" stroke="#63b8ff" d="M201.76,-42C193.18,-42 184.53,-42 176.03,-42"/>
<polygon fill="#63b8ff" stroke="#63b8ff" points="201.79,-45.5 211.79,-42 201.79,-38.5 201.79,-45.5"/>
</a>
</g>
</g>
<!-- Node6&#45;&gt;Node3 -->
<g id="edge6_Node000006_Node000003" class="edge">
<title>Node6&#45;&gt;Node3</title>
<g id="a_edge6_Node000006_Node000003"><a xlink:title=" ">
<path fill="none" stroke="#63b8ff" d="M658.48,-26.01C643.91,-27.68 628.88,-29.4 614.33,-31.07"/>
<polygon fill="#63b8ff" stroke="#63b8ff" points="658.94,-29.48 668.48,-24.86 658.15,-22.52 658.94,-29.48"/>
</a>
</g>
</g>
</g>
</svg>
