<?xml version="1.0" encoding="UTF-8" standalone="no"?>
<!DOCTYPE svg PUBLIC "-//W3C//DTD SVG 1.1//EN"
 "http://www.w3.org/Graphics/SVG/1.1/DTD/svg11.dtd">
<!-- Generated by graphviz version 2.43.0 (0)
 -->
<!-- Title: NookpostBackend.Cryptography.PasswordHashing.HashPassword Pages: 1 -->
<svg width="1300pt" height="186pt"
 viewBox="0.00 0.00 1300.00 185.50" xmlns="http://www.w3.org/2000/svg" xmlns:xlink="http://www.w3.org/1999/xlink">
<g id="graph0" class="graph" transform="scale(1 1) rotate(0) translate(4 181.5)">
<title>NookpostBackend.Cryptography.PasswordHashing.HashPassword</title>
<!-- Node1 -->
<g id="Node000001" class="node">
<title>Node1</title>
<g id="a_Node000001"><a xlink:title="Hash a password with the given salt and password. The Pepper will automatically be obtained from sett...">
<polygon fill="#999999" stroke="#666666" points="1292,-102 1116,-102 1116,-72 1292,-72 1292,-102"/>
<text text-anchor="start" x="1124" y="-90" font-family="Helvetica,sans-Serif" font-size="10.00">NookpostBackend.Cryptography.</text>
<text text-anchor="middle" x="1204" y="-79" font-family="Helvetica,sans-Serif" font-size="10.00">PasswordHashing.HashPassword</text>
</a>
</g>
</g>
<!-- Node2 -->
<g id="Node000002" class="node">
<title>Node2</title>
<g id="a_Node000002"><a xlink:href="../../de/dbb/classNookpostBackend_1_1ApiEndpoints_1_1Authentication_1_1ChangePassword.html#a07692ff1a9588157d49b26df8228f381" target="_top" xlink:title="Changes the password of a user.">
<polygon fill="white" stroke="#666666" points="861,-177.5 650,-177.5 650,-136.5 861,-136.5 861,-177.5"/>
<text text-anchor="start" x="658" y="-165.5" font-family="Helvetica,sans-Serif" font-size="10.00">NookpostBackend.ApiEndpoints.</text>
<text text-anchor="start" x="658" y="-154.5" font-family="Helvetica,sans-Serif" font-size="10.00">Authentication.ChangePassword.Handle</text>
<text text-anchor="middle" x="755.5" y="-143.5" font-family="Helvetica,sans-Serif" font-size="10.00">Request</text>
</a>
</g>
</g>
<!-- Node1&#45;&gt;Node2 -->
<g id="edge1_Node000001_Node000002" class="edge">
<title>Node1&#45;&gt;Node2</title>
<g id="a_edge1_Node000001_Node000002"><a xlink:title=" ">
<path fill="none" stroke="#63b8ff" d="M1162.91,-106.23C1139.33,-116.62 1108.61,-128.6 1080,-135 1008.03,-151.09 925.01,-156.48 861.09,-157.9"/>
<polygon fill="#63b8ff" stroke="#63b8ff" points="1164.54,-109.33 1172.23,-102.04 1161.67,-102.95 1164.54,-109.33"/>
</a>
</g>
</g>
<!-- Node6 -->
<g id="Node000006" class="node">
<title>Node6</title>
<g id="a_Node000006"><a xlink:href="../../d6/df1/classNookpostBackend_1_1ApiEndpoints_1_1Users_1_1PostUser.html#a8700a486b1505274c3477371788540ed" target="_top" xlink:title="Creates a new user.">
<polygon fill="white" stroke="#666666" points="1075.5,-78 901.5,-78 901.5,-48 1075.5,-48 1075.5,-78"/>
<text text-anchor="start" x="909.5" y="-66" font-family="Helvetica,sans-Serif" font-size="10.00">NookpostBackend.ApiEndpoints.</text>
<text text-anchor="middle" x="988.5" y="-55" font-family="Helvetica,sans-Serif" font-size="10.00">Users.PostUser.HandleRequest</text>
</a>
</g>
</g>
<!-- Node1&#45;&gt;Node6 -->
<g id="edge5_Node000001_Node000006" class="edge">
<title>Node1&#45;&gt;Node6</title>
<g id="a_edge5_Node000001_Node000006"><a xlink:title=" ">
<path fill="none" stroke="#63b8ff" d="M1105.84,-76.08C1095.78,-74.95 1085.61,-73.8 1075.68,-72.69"/>
<polygon fill="#63b8ff" stroke="#63b8ff" points="1105.53,-79.56 1115.85,-77.2 1106.31,-72.61 1105.53,-79.56"/>
</a>
</g>
</g>
<!-- Node8 -->
<g id="Node000008" class="node">
<title>Node8</title>
<g id="a_Node000008"><a xlink:href="../../d3/d34/classNookpostBackend_1_1Cryptography_1_1PasswordHashing.html#a40192bd81c7fc4e7cc265f84e5d99df3" target="_top" xlink:title="Validate a password for a user.">
<polygon fill="white" stroke="#666666" points="1080,-126 897,-126 897,-96 1080,-96 1080,-126"/>
<text text-anchor="start" x="905" y="-114" font-family="Helvetica,sans-Serif" font-size="10.00">NookpostBackend.Cryptography.</text>
<text text-anchor="middle" x="988.5" y="-103" font-family="Helvetica,sans-Serif" font-size="10.00">PasswordHashing.isPasswordValid</text>
</a>
</g>
</g>
<!-- Node1&#45;&gt;Node8 -->
<g id="edge8_Node000001_Node000008" class="edge">
<title>Node1&#45;&gt;Node8</title>
<g id="a_edge8_Node000001_Node000008"><a xlink:title=" ">
<path fill="none" stroke="#63b8ff" d="M1105.87,-97.92C1097.31,-98.88 1088.68,-99.85 1080.18,-100.81"/>
<polygon fill="#63b8ff" stroke="#63b8ff" points="1106.31,-101.39 1115.85,-96.8 1105.53,-94.44 1106.31,-101.39"/>
</a>
</g>
</g>
<!-- Node10 -->
<g id="Node000010" class="node">
<title>Node10</title>
<g id="a_Node000010"><a xlink:href="../../d3/da4/classNookpostBackend_1_1Data_1_1ModelBuilderExtensions.html#a8d2ffb833bf2db585cd87ae1a85b60cc" target="_top" xlink:title=" ">
<polygon fill="white" stroke="#666666" points="1070.5,-30 906.5,-30 906.5,0 1070.5,0 1070.5,-30"/>
<text text-anchor="start" x="914.5" y="-18" font-family="Helvetica,sans-Serif" font-size="10.00">NookpostBackend.Data.Model</text>
<text text-anchor="middle" x="988.5" y="-7" font-family="Helvetica,sans-Serif" font-size="10.00">BuilderExtensions.SeedUsers</text>
</a>
</g>
</g>
<!-- Node1&#45;&gt;Node10 -->
<g id="edge12_Node000001_Node000010" class="edge">
<title>Node1&#45;&gt;Node10</title>
<g id="a_edge12_Node000001_Node000010"><a xlink:title=" ">
<path fill="none" stroke="#63b8ff" d="M1158.06,-68.06C1134.96,-58.68 1106.22,-47.56 1080,-39 1070.42,-35.87 1060.17,-32.85 1050.14,-30.07"/>
<polygon fill="#63b8ff" stroke="#63b8ff" points="1157.01,-71.41 1167.59,-71.96 1159.66,-64.93 1157.01,-71.41"/>
</a>
</g>
</g>
<!-- Node3 -->
<g id="Node000003" class="node">
<title>Node3</title>
<g id="a_Node000003"><a xlink:href="../../da/dec/classNookpostBackend_1_1ApiEndpoints_1_1Authentication_1_1EndpointSetup.html#a1ce02f35f787186f930949cddfb0a906" target="_top" xlink:title="Initialize the Authentication Endpoints on the WebApp object.">
<polygon fill="white" stroke="#666666" points="614,-123 422,-123 422,-93 614,-93 614,-123"/>
<text text-anchor="start" x="430" y="-111" font-family="Helvetica,sans-Serif" font-size="10.00">NookpostBackend.ApiEndpoints.</text>
<text text-anchor="middle" x="518" y="-100" font-family="Helvetica,sans-Serif" font-size="10.00">Authentication.EndpointSetup.Setup</text>
</a>
</g>
</g>
<!-- Node2&#45;&gt;Node3 -->
<g id="edge2_Node000002_Node000003" class="edge">
<title>Node2&#45;&gt;Node3</title>
<g id="a_edge2_Node000002_Node000003"><a xlink:title=" ">
<path fill="none" stroke="#63b8ff" d="M645.71,-134.36C627.19,-130.51 608.37,-126.6 591.11,-123"/>
<polygon fill="#63b8ff" stroke="#63b8ff" points="645.15,-137.82 655.65,-136.43 646.57,-130.97 645.15,-137.82"/>
</a>
</g>
</g>
<!-- Node4 -->
<g id="Node000004" class="node">
<title>Node4</title>
<g id="a_Node000004"><a xlink:href="../../db/d6a/classNookpostBackend_1_1ApiEndpoints_1_1EndpointSetup.html#a00aafd7a4451d533ddb2969de9ac57a3" target="_top" xlink:title="Sets up all API Endpints on the given webapp">
<polygon fill="white" stroke="#666666" points="386,-99 212,-99 212,-69 386,-69 386,-99"/>
<text text-anchor="start" x="220" y="-87" font-family="Helvetica,sans-Serif" font-size="10.00">NookpostBackend.ApiEndpoints.</text>
<text text-anchor="middle" x="299" y="-76" font-family="Helvetica,sans-Serif" font-size="10.00">EndpointSetup.Setup</text>
</a>
</g>
</g>
<!-- Node3&#45;&gt;Node4 -->
<g id="edge3_Node000003_Node000004" class="edge">
<title>Node3&#45;&gt;Node4</title>
<g id="a_edge3_Node000003_Node000004"><a xlink:title=" ">
<path fill="none" stroke="#63b8ff" d="M411.79,-96.36C403.22,-95.42 394.63,-94.47 386.22,-93.54"/>
<polygon fill="#63b8ff" stroke="#63b8ff" points="411.5,-99.85 421.82,-97.47 412.27,-92.9 411.5,-99.85"/>
</a>
</g>
</g>
<!-- Node5 -->
<g id="Node000005" class="node">
<title>Node5</title>
<g id="a_Node000005"><a xlink:href="../../d8/dc6/classNookpostBackend_1_1Program.html#a3920d589512f09ab0634c9b16cefa59e" target="_top" xlink:title=" ">
<polygon fill="white" stroke="#666666" points="176,-93.5 0,-93.5 0,-74.5 176,-74.5 176,-93.5"/>
<text text-anchor="middle" x="88" y="-81.5" font-family="Helvetica,sans-Serif" font-size="10.00">NookpostBackend.Program.Main</text>
</a>
</g>
</g>
<!-- Node4&#45;&gt;Node5 -->
<g id="edge4_Node000004_Node000005" class="edge">
<title>Node4&#45;&gt;Node5</title>
<g id="a_edge4_Node000004_Node000005"><a xlink:title=" ">
<path fill="none" stroke="#63b8ff" d="M201.76,-84C193.18,-84 184.53,-84 176.03,-84"/>
<polygon fill="#63b8ff" stroke="#63b8ff" points="201.79,-87.5 211.79,-84 201.79,-80.5 201.79,-87.5"/>
</a>
</g>
</g>
<!-- Node7 -->
<g id="Node000007" class="node">
<title>Node7</title>
<g id="a_Node000007"><a xlink:href="../../d3/dd0/classNookpostBackend_1_1ApiEndpoints_1_1Users_1_1EndpointSetup.html#a676597125ea860c4be862c26004f1eb0" target="_top" xlink:title="Sets up the user endpoints on the given Webapp">
<polygon fill="white" stroke="#666666" points="605,-75 431,-75 431,-45 605,-45 605,-75"/>
<text text-anchor="start" x="439" y="-63" font-family="Helvetica,sans-Serif" font-size="10.00">NookpostBackend.ApiEndpoints.</text>
<text text-anchor="middle" x="518" y="-52" font-family="Helvetica,sans-Serif" font-size="10.00">Users.EndpointSetup.Setup</text>
</a>
</g>
</g>
<!-- Node6&#45;&gt;Node7 -->
<g id="edge6_Node000006_Node000007" class="edge">
<title>Node6&#45;&gt;Node7</title>
<g id="a_edge6_Node000006_Node000007"><a xlink:title=" ">
<path fill="none" stroke="#63b8ff" d="M891.22,-62.38C807.08,-61.84 686.04,-61.07 605.07,-60.55"/>
<polygon fill="#63b8ff" stroke="#63b8ff" points="891.27,-65.88 901.3,-62.45 891.32,-58.88 891.27,-65.88"/>
</a>
</g>
</g>
<!-- Node7&#45;&gt;Node4 -->
<g id="edge7_Node000007_Node000004" class="edge">
<title>Node7&#45;&gt;Node4</title>
<g id="a_edge7_Node000007_Node000004"><a xlink:title=" ">
<path fill="none" stroke="#63b8ff" d="M420.88,-70.63C409.37,-71.9 397.68,-73.2 386.33,-74.45"/>
<polygon fill="#63b8ff" stroke="#63b8ff" points="421.37,-74.1 430.92,-69.52 420.6,-67.14 421.37,-74.1"/>
</a>
</g>
</g>
<!-- Node8&#45;&gt;Node2 -->
<g id="edge9_Node000008_Node000002" class="edge">
<title>Node8&#45;&gt;Node2</title>
<g id="a_edge9_Node000008_Node000002"><a xlink:title=" ">
<path fill="none" stroke="#63b8ff" d="M901.94,-128.04C888.14,-130.79 873.74,-133.65 859.58,-136.47"/>
<polygon fill="#63b8ff" stroke="#63b8ff" points="902.74,-131.45 911.86,-126.06 901.37,-124.58 902.74,-131.45"/>
</a>
</g>
</g>
<!-- Node9 -->
<g id="Node000009" class="node">
<title>Node9</title>
<g id="a_Node000009"><a xlink:href="../../d0/d93/classNookpostBackend_1_1ApiEndpoints_1_1Authentication_1_1Login.html#a918444cedb461f353b4f3a00642ba169" target="_top" xlink:title="Authenticates the user and returns an access token.">
<polygon fill="white" stroke="#666666" points="842.5,-118 668.5,-118 668.5,-88 842.5,-88 842.5,-118"/>
<text text-anchor="start" x="676.5" y="-106" font-family="Helvetica,sans-Serif" font-size="10.00">NookpostBackend.ApiEndpoints.</text>
<text text-anchor="middle" x="755.5" y="-95" font-family="Helvetica,sans-Serif" font-size="10.00">Authentication.Login.PostLogin</text>
</a>
</g>
</g>
<!-- Node8&#45;&gt;Node9 -->
<g id="edge10_Node000008_Node000009" class="edge">
<title>Node8&#45;&gt;Node9</title>
<g id="a_edge10_Node000008_Node000009"><a xlink:title=" ">
<path fill="none" stroke="#63b8ff" d="M886.77,-107.51C872.08,-107 857.08,-106.48 842.72,-105.99"/>
<polygon fill="#63b8ff" stroke="#63b8ff" points="886.75,-111.01 896.87,-107.86 886.99,-104.02 886.75,-111.01"/>
</a>
</g>
</g>
<!-- Node9&#45;&gt;Node3 -->
<g id="edge11_Node000009_Node000003" class="edge">
<title>Node9&#45;&gt;Node3</title>
<g id="a_edge11_Node000009_Node000003"><a xlink:title=" ">
<path fill="none" stroke="#63b8ff" d="M658.48,-105.04C643.91,-105.35 628.88,-105.67 614.33,-105.98"/>
<polygon fill="#63b8ff" stroke="#63b8ff" points="658.56,-108.54 668.48,-104.83 658.41,-101.54 658.56,-108.54"/>
</a>
</g>
</g>
<!-- Node11 -->
<g id="Node000011" class="node">
<title>Node11</title>
<g id="a_Node000011"><a xlink:href="../../d3/da4/classNookpostBackend_1_1Data_1_1ModelBuilderExtensions.html#a4684185af94fe47d0174b9df7a0ee150" target="_top" xlink:title="Populates the database with the sample data for testing and development.">
<polygon fill="white" stroke="#666666" points="842.5,-30 668.5,-30 668.5,0 842.5,0 842.5,-30"/>
<text text-anchor="start" x="676.5" y="-18" font-family="Helvetica,sans-Serif" font-size="10.00">NookpostBackend.Data.Model</text>
<text text-anchor="middle" x="755.5" y="-7" font-family="Helvetica,sans-Serif" font-size="10.00">BuilderExtensions.SeedTestData</text>
</a>
</g>
</g>
<!-- Node10&#45;&gt;Node11 -->
<g id="edge13_Node000010_Node000011" class="edge">
<title>Node10&#45;&gt;Node11</title>
<g id="a_edge13_Node000010_Node000011"><a xlink:title=" ">
<path fill="none" stroke="#63b8ff" d="M896.09,-15C878.44,-15 860,-15 842.52,-15"/>
<polygon fill="#63b8ff" stroke="#63b8ff" points="896.38,-18.5 906.38,-15 896.38,-11.5 896.38,-18.5"/>
</a>
</g>
</g>
</g>
</svg>
