<?xml version="1.0" encoding="UTF-8" standalone="no"?>
<!DOCTYPE svg PUBLIC "-//W3C//DTD SVG 1.1//EN"
 "http://www.w3.org/Graphics/SVG/1.1/DTD/svg11.dtd">
<!-- Generated by graphviz version 2.43.0 (0)
 -->
<!-- Title: NookpostBackend.Cryptography.PasswordHashing.isPasswordValid Pages: 1 -->
<svg width="1051pt" height="38pt"
 viewBox="0.00 0.00 1051.00 38.00" xmlns="http://www.w3.org/2000/svg" xmlns:xlink="http://www.w3.org/1999/xlink">
<g id="graph0" class="graph" transform="scale(1 1) rotate(0) translate(4 34)">
<title>NookpostBackend.Cryptography.PasswordHashing.isPasswordValid</title>
<!-- Node1 -->
<g id="Node000001" class="node">
<title>Node1</title>
<g id="a_Node000001"><a xlink:title="Validate a password for a user.">
<polygon fill="#999999" stroke="#666666" points="1043,-30 860,-30 860,0 1043,0 1043,-30"/>
<text text-anchor="start" x="868" y="-18" font-family="Helvetica,sans-Serif" font-size="10.00">NookpostBackend.Cryptography.</text>
<text text-anchor="middle" x="951.5" y="-7" font-family="Helvetica,sans-Serif" font-size="10.00">PasswordHashing.isPasswordValid</text>
</a>
</g>
</g>
<!-- Node2 -->
<g id="Node000002" class="node">
<title>Node2</title>
<g id="a_Node000002"><a xlink:href="../../d0/d93/classNookpostBackend_1_1ApiEndpoints_1_1Authentication_1_1Login.html#a918444cedb461f353b4f3a00642ba169" target="_top" xlink:title="Authenticates the user and returns an access token.">
<polygon fill="white" stroke="#666666" points="824,-30 650,-30 650,0 824,0 824,-30"/>
<text text-anchor="start" x="658" y="-18" font-family="Helvetica,sans-Serif" font-size="10.00">NookpostBackend.ApiEndpoints.</text>
<text text-anchor="middle" x="737" y="-7" font-family="Helvetica,sans-Serif" font-size="10.00">Authentication.Login.PostLogin</text>
</a>
</g>
</g>
<!-- Node1&#45;&gt;Node2 -->
<g id="edge1_Node000001_Node000002" class="edge">
<title>Node1&#45;&gt;Node2</title>
<g id="a_edge1_Node000001_Node000002"><a xlink:title=" ">
<path fill="none" stroke="#63b8ff" d="M849.72,-15C841.14,-15 832.5,-15 824.05,-15"/>
<polygon fill="#63b8ff" stroke="#63b8ff" points="849.76,-18.5 859.76,-15 849.76,-11.5 849.76,-18.5"/>
</a>
</g>
</g>
<!-- Node3 -->
<g id="Node000003" class="node">
<title>Node3</title>
<g id="a_Node000003"><a xlink:href="../../da/dec/classNookpostBackend_1_1ApiEndpoints_1_1Authentication_1_1EndpointSetup.html#a8392c3a12fa78c0464e385e38fb3e4c1" target="_top" xlink:title="Initialize the Authentication Endpoints on the WebApp object.">
<polygon fill="white" stroke="#666666" points="614,-30 422,-30 422,0 614,0 614,-30"/>
<text text-anchor="start" x="430" y="-18" font-family="Helvetica,sans-Serif" font-size="10.00">NookpostBackend.ApiEndpoints.</text>
<text text-anchor="middle" x="518" y="-7" font-family="Helvetica,sans-Serif" font-size="10.00">Authentication.EndpointSetup.Setup</text>
</a>
</g>
</g>
<!-- Node2&#45;&gt;Node3 -->
<g id="edge2_Node000002_Node000003" class="edge">
<title>Node2&#45;&gt;Node3</title>
<g id="a_edge2_Node000002_Node000003"><a xlink:title=" ">
<path fill="none" stroke="#63b8ff" d="M639.69,-15C631.24,-15 622.7,-15 614.27,-15"/>
<polygon fill="#63b8ff" stroke="#63b8ff" points="639.92,-18.5 649.92,-15 639.92,-11.5 639.92,-18.5"/>
</a>
</g>
</g>
<!-- Node4 -->
<g id="Node000004" class="node">
<title>Node4</title>
<g id="a_Node000004"><a xlink:href="../../db/d6a/classNookpostBackend_1_1ApiEndpoints_1_1EndpointSetup.html#a00aafd7a4451d533ddb2969de9ac57a3" target="_top" xlink:title="Sets up all API Endpints on the given webapp">
<polygon fill="white" stroke="#666666" points="386,-30 212,-30 212,0 386,0 386,-30"/>
<text text-anchor="start" x="220" y="-18" font-family="Helvetica,sans-Serif" font-size="10.00">NookpostBackend.ApiEndpoints.</text>
<text text-anchor="middle" x="299" y="-7" font-family="Helvetica,sans-Serif" font-size="10.00">EndpointSetup.Setup</text>
</a>
</g>
</g>
<!-- Node3&#45;&gt;Node4 -->
<g id="edge3_Node000003_Node000004" class="edge">
<title>Node3&#45;&gt;Node4</title>
<g id="a_edge3_Node000003_Node000004"><a xlink:title=" ">
<path fill="none" stroke="#63b8ff" d="M411.79,-15C403.22,-15 394.63,-15 386.22,-15"/>
<polygon fill="#63b8ff" stroke="#63b8ff" points="411.82,-18.5 421.82,-15 411.82,-11.5 411.82,-18.5"/>
</a>
</g>
</g>
<!-- Node5 -->
<g id="Node000005" class="node">
<title>Node5</title>
<g id="a_Node000005"><a xlink:href="../../d8/dc6/classNookpostBackend_1_1Program.html#a3920d589512f09ab0634c9b16cefa59e" target="_top" xlink:title=" ">
<polygon fill="white" stroke="#666666" points="176,-24.5 0,-24.5 0,-5.5 176,-5.5 176,-24.5"/>
<text text-anchor="middle" x="88" y="-12.5" font-family="Helvetica,sans-Serif" font-size="10.00">NookpostBackend.Program.Main</text>
</a>
</g>
</g>
<!-- Node4&#45;&gt;Node5 -->
<g id="edge4_Node000004_Node000005" class="edge">
<title>Node4&#45;&gt;Node5</title>
<g id="a_edge4_Node000004_Node000005"><a xlink:title=" ">
<path fill="none" stroke="#63b8ff" d="M201.76,-15C193.18,-15 184.53,-15 176.03,-15"/>
<polygon fill="#63b8ff" stroke="#63b8ff" points="201.79,-18.5 211.79,-15 201.79,-11.5 201.79,-18.5"/>
</a>
</g>
</g>
</g>
</svg>
