<?xml version="1.0" encoding="UTF-8" standalone="no"?>
<!DOCTYPE svg PUBLIC "-//W3C//DTD SVG 1.1//EN"
 "http://www.w3.org/Graphics/SVG/1.1/DTD/svg11.dtd">
<!-- Generated by graphviz version 2.43.0 (0)
 -->
<!-- Title: Car Pages: 1 -->
<svg width="151pt" height="323pt"
 viewBox="0.00 0.00 151.00 323.00" xmlns="http://www.w3.org/2000/svg" xmlns:xlink="http://www.w3.org/1999/xlink">
<g id="graph0" class="graph" transform="scale(1 1) rotate(0) translate(4 319)">
<title>Car</title>
<!-- Node1 -->
<g id="Node000001" class="node">
<title>Node1</title>
<g id="a_Node000001"><a xlink:title=" ">
<polygon fill="#999999" stroke="transparent" points="85,-49 58,-49 58,0 85,0 85,-49"/>
<text text-anchor="start" x="63.5" y="-36.5" font-family="Helvetica,sans-Serif" font-size="10.00">Car</text>
<text text-anchor="start" x="70" y="-21.5" font-family="Helvetica,sans-Serif" font-size="10.00"> </text>
<text text-anchor="start" x="70" y="-6.5" font-family="Helvetica,sans-Serif" font-size="10.00"> </text>
<polygon fill="#666666" stroke="#666666" points="58.5,-31.5 58.5,-31.5 85.5,-31.5 85.5,-31.5 58.5,-31.5"/>
<polygon fill="#666666" stroke="#666666" points="58.5,-16.5 58.5,-16.5 85.5,-16.5 85.5,-16.5 58.5,-16.5"/>
<polygon fill="none" stroke="#666666" points="58,0 58,-49 85,-49 85,0 58,0"/>
</a>
</g>
</g>
<!-- Node2 -->
<g id="Node000002" class="node">
<title>Node2</title>
<g id="a_Node000002"><a xlink:href="../../d0/dba/structVehicle.html" target="_top" xlink:title=" ">
<polygon fill="white" stroke="transparent" points="143,-182 0,-182 0,-96 143,-96 143,-182"/>
<text text-anchor="start" x="54" y="-170" font-family="Helvetica,sans-Serif" font-size="10.00">Vehicle</text>
<text text-anchor="start" x="70" y="-155" font-family="Helvetica,sans-Serif" font-size="10.00"> </text>
<text text-anchor="start" x="4.5" y="-140" font-family="Helvetica,sans-Serif" font-size="10.00">+</text>
<text text-anchor="start" x="17.5" y="-140" font-family="Helvetica,sans-Serif" font-size="10.00">void vehicleStart(Vehicle</text>
<text text-anchor="start" x="17.5" y="-129" font-family="Helvetica,sans-Serif" font-size="10.00"> *obj)</text>
<text text-anchor="start" x="4.5" y="-114" font-family="Helvetica,sans-Serif" font-size="10.00">+</text>
<text text-anchor="start" x="17.5" y="-114" font-family="Helvetica,sans-Serif" font-size="10.00">void vehicleStop(Vehicle</text>
<text text-anchor="start" x="17.5" y="-103" font-family="Helvetica,sans-Serif" font-size="10.00"> *obj)</text>
<polygon fill="#666666" stroke="#666666" points="0.5,-165 0.5,-165 143.5,-165 143.5,-165 0.5,-165"/>
<polygon fill="#666666" stroke="#666666" points="0.5,-150 0.5,-150 143.5,-150 143.5,-150 0.5,-150"/>
<polygon fill="none" stroke="#666666" points="0,-96 0,-182 143,-182 143,-96 0,-96"/>
</a>
</g>
</g>
<!-- Node2&#45;&gt;Node1 -->
<g id="edge1_Node000001_Node000002" class="edge">
<title>Node2&#45;&gt;Node1</title>
<g id="a_edge1_Node000001_Node000002"><a xlink:title=" ">
<path fill="none" stroke="#63b8ff" d="M69.41,-85.54C69.34,-79.29 69.36,-73 69.5,-67 69.64,-61.23 69.89,-55.02 70.16,-49.19"/>
<polygon fill="none" stroke="#63b8ff" points="65.91,-86.02 69.59,-95.95 72.91,-85.89 65.91,-86.02"/>
</a>
</g>
</g>
<!-- Node2&#45;&gt;Node1 -->
<g id="edge4_Node000001_Node000002" class="edge">
<title>Node2&#45;&gt;Node1</title>
<g id="a_edge4_Node000001_Node000002"><a xlink:title=" ">
<path fill="none" stroke="#63b8ff" d="M71.5,-95.79C71.5,-84.5 71.5,-72.4 71.5,-61.47"/>
<polygon fill="none" stroke="#63b8ff" points="71.5,-61.31 67.5,-55.31 71.5,-49.31 75.5,-55.31 71.5,-61.31"/>
</a>
</g>
<text text-anchor="middle" x="89" y="-70" font-family="Helvetica,sans-Serif" font-size="10.00" fill="grey"> #base</text>
</g>
<!-- Node3 -->
<g id="Node000003" class="node">
<title>Node3</title>
<g id="a_Node000003"><a xlink:href="../../de/de7/structObject.html" target="_top" xlink:title=" ">
<polygon fill="white" stroke="transparent" points="139.5,-315 3.5,-315 3.5,-229 139.5,-229 139.5,-315"/>
<text text-anchor="start" x="55.5" y="-303" font-family="Helvetica,sans-Serif" font-size="10.00">Object</text>
<text text-anchor="start" x="10" y="-288" font-family="Helvetica,sans-Serif" font-size="10.00">&#45;</text>
<text text-anchor="start" x="20.5" y="-288" font-family="Helvetica,sans-Serif" font-size="10.00">int ref</text>
<text text-anchor="start" x="7.5" y="-273" font-family="Helvetica,sans-Serif" font-size="10.00">+</text>
<text text-anchor="start" x="20.5" y="-273" font-family="Helvetica,sans-Serif" font-size="10.00">static Object * objRef</text>
<text text-anchor="start" x="20.5" y="-262" font-family="Helvetica,sans-Serif" font-size="10.00">(Object *obj)</text>
<text text-anchor="start" x="7.5" y="-247" font-family="Helvetica,sans-Serif" font-size="10.00">+</text>
<text text-anchor="start" x="20.5" y="-247" font-family="Helvetica,sans-Serif" font-size="10.00">static Object * objUnref</text>
<text text-anchor="start" x="20.5" y="-236" font-family="Helvetica,sans-Serif" font-size="10.00">(Object *obj)</text>
<polygon fill="#666666" stroke="#666666" points="3.5,-298 3.5,-298 139.5,-298 139.5,-298 3.5,-298"/>
<polygon fill="#666666" stroke="#666666" points="3.5,-283 3.5,-283 18.5,-283 18.5,-283 3.5,-283"/>
<polygon fill="#666666" stroke="#666666" points="18.5,-283 18.5,-283 139.5,-283 139.5,-283 18.5,-283"/>
<polygon fill="none" stroke="#666666" points="3.5,-229 3.5,-315 139.5,-315 139.5,-229 3.5,-229"/>
</a>
</g>
</g>
<!-- Node3&#45;&gt;Node2 -->
<g id="edge2_Node000002_Node000003" class="edge">
<title>Node3&#45;&gt;Node2</title>
<g id="a_edge2_Node000002_Node000003"><a xlink:title=" ">
<path fill="none" stroke="#63b8ff" d="M69.49,-218.54C69.41,-212.29 69.4,-206 69.5,-200 69.6,-194.27 69.74,-188.23 69.91,-182.28"/>
<polygon fill="none" stroke="#63b8ff" points="66,-219.02 69.69,-228.96 73,-218.89 66,-219.02"/>
</a>
</g>
</g>
<!-- Node3&#45;&gt;Node2 -->
<g id="edge3_Node000002_Node000003" class="edge">
<title>Node3&#45;&gt;Node2</title>
<g id="a_edge3_Node000002_Node000003"><a xlink:title=" ">
<path fill="none" stroke="#63b8ff" d="M71.5,-228.83C71.5,-217.84 71.5,-205.85 71.5,-194.33"/>
<polygon fill="none" stroke="#63b8ff" points="71.5,-194.09 67.5,-188.09 71.5,-182.09 75.5,-188.09 71.5,-194.09"/>
</a>
</g>
<text text-anchor="middle" x="89" y="-203" font-family="Helvetica,sans-Serif" font-size="10.00" fill="grey"> #base</text>
</g>
</g>
</svg>
