<?xml version="1.0" encoding="UTF-8" standalone="no"?>
<!DOCTYPE svg PUBLIC "-//W3C//DTD SVG 1.1//EN"
 "http://www.w3.org/Graphics/SVG/1.1/DTD/svg11.dtd">
<!-- Generated by graphviz version 2.43.0 (0)
 -->
<!-- Title: NookpostBackend.ApiSchemas.Users.PostUser.UsersPostRequestBody Pages: 1 -->
<svg width="208pt" height="239pt"
 viewBox="0.00 0.00 208.00 239.00" xmlns="http://www.w3.org/2000/svg" xmlns:xlink="http://www.w3.org/1999/xlink">

<svg id="main" version="1.1" xmlns="http://www.w3.org/2000/svg" xmlns:xlink="http://www.w3.org/1999/xlink" xml:space="preserve">

<style type="text/css"><![CDATA[
.node, .edge {opacity: 0.7;}
.node.selected, .edge.selected {opacity: 1;}
.edge:hover path { stroke: red; }
.edge:hover polygon { stroke: red; fill: red; }
]]></style>
<script type="application/ecmascript" xlink:href="../../svg.min.js"/>
<svg id="graph" class="graph">
<g id="graph0" class="graph" transform="scale(1 1) rotate(0) translate(4 235)">
<title>NookpostBackend.ApiSchemas.Users.PostUser.UsersPostRequestBody</title>
<!-- Node1 -->
<g id="Node000001" class="node">
<title>Node1</title>
<g id="a_Node000001"><a xlink:title="The request body of a user create request.">
<polygon fill="#999999" stroke="transparent" points="200,-60 0,-60 0,0 200,0 200,-60"/>
<text text-anchor="start" x="5" y="-48" font-family="Helvetica,sans-Serif" font-size="10.00">NookpostBackend.ApiSchemas.</text>
<text text-anchor="start" x="5" y="-37" font-family="Helvetica,sans-Serif" font-size="10.00">Users.PostUser.UsersPostRequestBody</text>
<text text-anchor="start" x="28" y="-22" font-family="Helvetica,sans-Serif" font-size="10.00">+</text>
<text text-anchor="start" x="65" y="-22" font-family="Helvetica,sans-Serif" font-size="10.00">string? Password</text>
<text text-anchor="start" x="98" y="-7" font-family="Helvetica,sans-Serif" font-size="10.00"> </text>
<polygon fill="#666666" stroke="#666666" points="0,-32 0,-32 200,-32 200,-32 0,-32"/>
<polygon fill="#666666" stroke="#666666" points="0,-17 0,-17 63,-17 63,-17 0,-17"/>
<polygon fill="#666666" stroke="#666666" points="63,-17 63,-17 200,-17 200,-17 63,-17"/>
<polygon fill="none" stroke="#666666" points="0,0 0,-60 200,-60 200,0 0,0"/>
</a>
</g>
</g>
<!-- Node2 -->
<g id="Node000002" class="node">
<title>Node2</title>
<g id="a_Node000002"><a xlink:href="../../d8/d91/classNookpostBackend_1_1ApiSchemas_1_1Users_1_1UserData.html" target="_top" xlink:title="Common data for the user object.">
<polygon fill="white" stroke="transparent" points="182,-231 18,-231 18,-96 182,-96 182,-231"/>
<text text-anchor="start" x="23" y="-218.5" font-family="Helvetica,sans-Serif" font-size="10.00">NookpostBackend.ApiSchemas.</text>
<text text-anchor="start" x="61.5" y="-207.5" font-family="Helvetica,sans-Serif" font-size="10.00">Users.UserData</text>
<text text-anchor="start" x="23.5" y="-192.5" font-family="Helvetica,sans-Serif" font-size="10.00">+</text>
<text text-anchor="start" x="38" y="-192.5" font-family="Helvetica,sans-Serif" font-size="10.00">string? Username</text>
<text text-anchor="start" x="23.5" y="-177.5" font-family="Helvetica,sans-Serif" font-size="10.00">+</text>
<text text-anchor="start" x="38" y="-177.5" font-family="Helvetica,sans-Serif" font-size="10.00">string? DisplayName</text>
<text text-anchor="start" x="23.5" y="-162.5" font-family="Helvetica,sans-Serif" font-size="10.00">+</text>
<text text-anchor="start" x="38" y="-162.5" font-family="Helvetica,sans-Serif" font-size="10.00">string? TagLine</text>
<text text-anchor="start" x="23.5" y="-147.5" font-family="Helvetica,sans-Serif" font-size="10.00">+</text>
<text text-anchor="start" x="38" y="-147.5" font-family="Helvetica,sans-Serif" font-size="10.00">string? Bio</text>
<text text-anchor="start" x="23.5" y="-132.5" font-family="Helvetica,sans-Serif" font-size="10.00">+</text>
<text text-anchor="start" x="38" y="-132.5" font-family="Helvetica,sans-Serif" font-size="10.00">string? ProfilePictureBase64</text>
<text text-anchor="start" x="23.5" y="-117.5" font-family="Helvetica,sans-Serif" font-size="10.00">+</text>
<text text-anchor="start" x="38" y="-117.5" font-family="Helvetica,sans-Serif" font-size="10.00">string? Email</text>
<text text-anchor="start" x="98" y="-102.5" font-family="Helvetica,sans-Serif" font-size="10.00"> </text>
<polygon fill="#666666" stroke="#666666" points="18,-202.5 18,-202.5 182,-202.5 182,-202.5 18,-202.5"/>
<polygon fill="#666666" stroke="#666666" points="18,-112.5 18,-112.5 36,-112.5 36,-112.5 18,-112.5"/>
<polygon fill="#666666" stroke="#666666" points="36,-112.5 36,-112.5 182,-112.5 182,-112.5 36,-112.5"/>
<polygon fill="none" stroke="#666666" points="18,-96 18,-231 182,-231 182,-96 18,-96"/>
</a>
</g>
</g>
<!-- Node2&#45;&gt;Node1 -->
<g id="edge1_Node000001_Node000002" class="edge">
<title>Node2&#45;&gt;Node1</title>
<g id="a_edge1_Node000001_Node000002"><a xlink:title=" ">
<path fill="none" stroke="#63b8ff" d="M100,-85.97C100,-76.82 100,-67.95 100,-60.11"/>
<polygon fill="none" stroke="#63b8ff" points="96.5,-85.98 100,-95.98 103.5,-85.98 96.5,-85.98"/>
</a>
</g>
</g>
</g>
</svg>
</svg>

<style type='text/css'>
<![CDATA[
[data-mouse-over-selected='false'] { opacity: 0.7; }
[data-mouse-over-selected='true']  { opacity: 1.0; }
]]>
</style>
<script type="application/ecmascript"><![CDATA[
document.addEventListener('DOMContentLoaded', (event) => {
  highlightEdges();
  highlightAdjacentNodes();
});
]]></script>
</svg>
