<?xml version="1.0" encoding="UTF-8" standalone="no"?>
<!DOCTYPE svg PUBLIC "-//W3C//DTD SVG 1.1//EN"
 "http://www.w3.org/Graphics/SVG/1.1/DTD/svg11.dtd">
<!-- Generated by graphviz version 2.43.0 (0)
 -->
<!-- Title: NookpostBackend.ApiSchemas.Users.PutUser.UserPutRequestBody Pages: 1 -->
<svg width="193pt" height="239pt"
 viewBox="0.00 0.00 193.00 239.00" xmlns="http://www.w3.org/2000/svg" xmlns:xlink="http://www.w3.org/1999/xlink">
<g id="graph0" class="graph" transform="scale(1 1) rotate(0) translate(4 235)">
<title>NookpostBackend.ApiSchemas.Users.PutUser.UserPutRequestBody</title>
<!-- Node1 -->
<g id="Node000001" class="node">
<title>Node1</title>
<g id="a_Node000001"><a xlink:title="Request body of a user put request.">
<polygon fill="#999999" stroke="transparent" points="185,-60 0,-60 0,0 185,0 185,-60"/>
<text text-anchor="start" x="5.5" y="-48" font-family="Helvetica,sans-Serif" font-size="10.00">NookpostBackend.ApiSchemas.</text>
<text text-anchor="start" x="5.5" y="-37" font-family="Helvetica,sans-Serif" font-size="10.00">Users.PutUser.UserPutRequestBody</text>
<text text-anchor="start" x="91" y="-22" font-family="Helvetica,sans-Serif" font-size="10.00"> </text>
<text text-anchor="start" x="91" y="-7" font-family="Helvetica,sans-Serif" font-size="10.00"> </text>
<polygon fill="#666666" stroke="#666666" points="0.5,-32 0.5,-32 185.5,-32 185.5,-32 0.5,-32"/>
<polygon fill="#666666" stroke="#666666" points="0.5,-17 0.5,-17 185.5,-17 185.5,-17 0.5,-17"/>
<polygon fill="none" stroke="#666666" points="0,0 0,-60 185,-60 185,0 0,0"/>
</a>
</g>
</g>
<!-- Node2 -->
<g id="Node000002" class="node">
<title>Node2</title>
<g id="a_Node000002"><a xlink:href="../../d8/d91/classNookpostBackend_1_1ApiSchemas_1_1Users_1_1UserData.html" target="_top" xlink:title="Common data for the user object.">
<polygon fill="white" stroke="transparent" points="174.5,-231 10.5,-231 10.5,-96 174.5,-96 174.5,-231"/>
<text text-anchor="start" x="15.5" y="-218.5" font-family="Helvetica,sans-Serif" font-size="10.00">NookpostBackend.ApiSchemas.</text>
<text text-anchor="start" x="54" y="-207.5" font-family="Helvetica,sans-Serif" font-size="10.00">Users.UserData</text>
<text text-anchor="start" x="16" y="-192.5" font-family="Helvetica,sans-Serif" font-size="10.00">+</text>
<text text-anchor="start" x="30.5" y="-192.5" font-family="Helvetica,sans-Serif" font-size="10.00">string? Username</text>
<text text-anchor="start" x="16" y="-177.5" font-family="Helvetica,sans-Serif" font-size="10.00">+</text>
<text text-anchor="start" x="30.5" y="-177.5" font-family="Helvetica,sans-Serif" font-size="10.00">string? DisplayName</text>
<text text-anchor="start" x="16" y="-162.5" font-family="Helvetica,sans-Serif" font-size="10.00">+</text>
<text text-anchor="start" x="30.5" y="-162.5" font-family="Helvetica,sans-Serif" font-size="10.00">string? TagLine</text>
<text text-anchor="start" x="16" y="-147.5" font-family="Helvetica,sans-Serif" font-size="10.00">+</text>
<text text-anchor="start" x="30.5" y="-147.5" font-family="Helvetica,sans-Serif" font-size="10.00">string? Bio</text>
<text text-anchor="start" x="16" y="-132.5" font-family="Helvetica,sans-Serif" font-size="10.00">+</text>
<text text-anchor="start" x="30.5" y="-132.5" font-family="Helvetica,sans-Serif" font-size="10.00">string? ProfilePictureBase64</text>
<text text-anchor="start" x="16" y="-117.5" font-family="Helvetica,sans-Serif" font-size="10.00">+</text>
<text text-anchor="start" x="30.5" y="-117.5" font-family="Helvetica,sans-Serif" font-size="10.00">string? Email</text>
<text text-anchor="start" x="90.5" y="-102.5" font-family="Helvetica,sans-Serif" font-size="10.00"> </text>
<polygon fill="#666666" stroke="#666666" points="10.5,-202.5 10.5,-202.5 174.5,-202.5 174.5,-202.5 10.5,-202.5"/>
<polygon fill="#666666" stroke="#666666" points="10.5,-112.5 10.5,-112.5 28.5,-112.5 28.5,-112.5 10.5,-112.5"/>
<polygon fill="#666666" stroke="#666666" points="28.5,-112.5 28.5,-112.5 174.5,-112.5 174.5,-112.5 28.5,-112.5"/>
<polygon fill="none" stroke="#666666" points="10.5,-96 10.5,-231 174.5,-231 174.5,-96 10.5,-96"/>
</a>
</g>
</g>
<!-- Node2&#45;&gt;Node1 -->
<g id="edge1_Node000001_Node000002" class="edge">
<title>Node2&#45;&gt;Node1</title>
<g id="a_edge1_Node000001_Node000002"><a xlink:title=" ">
<path fill="none" stroke="#63b8ff" d="M92.5,-85.97C92.5,-76.82 92.5,-67.95 92.5,-60.11"/>
<polygon fill="none" stroke="#63b8ff" points="89,-85.98 92.5,-95.98 96,-85.98 89,-85.98"/>
</a>
</g>
</g>
</g>
</svg>
