<?xml version="1.0" encoding="UTF-8" standalone="no"?>
<!DOCTYPE svg PUBLIC "-//W3C//DTD SVG 1.1//EN"
 "http://www.w3.org/Graphics/SVG/1.1/DTD/svg11.dtd">
<!-- Generated by graphviz version 2.43.0 (0)
 -->
<!-- Title: NookpostBackend.ApiEndpoints.Authentication.EndpointSetup.Setup Pages: 1 -->
<svg width="878pt" height="98pt"
 viewBox="0.00 0.00 878.00 97.50" xmlns="http://www.w3.org/2000/svg" xmlns:xlink="http://www.w3.org/1999/xlink">
<g id="graph0" class="graph" transform="scale(1 1) rotate(0) translate(4 93.5)">
<title>NookpostBackend.ApiEndpoints.Authentication.EndpointSetup.Setup</title>
<!-- Node1 -->
<g id="Node000001" class="node">
<title>Node1</title>
<g id="a_Node000001"><a xlink:title="Initialize the Authentication Endpoints on the WebApp object.">
<polygon fill="#999999" stroke="#666666" points="192,-57 0,-57 0,-27 192,-27 192,-57"/>
<text text-anchor="start" x="8" y="-45" font-family="Helvetica,sans-Serif" font-size="10.00">NookpostBackend.ApiEndpoints.</text>
<text text-anchor="middle" x="96" y="-34" font-family="Helvetica,sans-Serif" font-size="10.00">Authentication.EndpointSetup.Setup</text>
</a>
</g>
</g>
<!-- Node2 -->
<g id="Node000002" class="node">
<title>Node2</title>
<g id="a_Node000002"><a xlink:href="../../de/dbb/classNookpostBackend_1_1ApiEndpoints_1_1Authentication_1_1ChangePassword.html#abd3c4e5b346311d2d9d92063e1e0aa2e" target="_top" xlink:title="Changes the password of a user.">
<polygon fill="white" stroke="#666666" points="439,-89.5 228,-89.5 228,-48.5 439,-48.5 439,-89.5"/>
<text text-anchor="start" x="236" y="-77.5" font-family="Helvetica,sans-Serif" font-size="10.00">NookpostBackend.ApiEndpoints.</text>
<text text-anchor="start" x="236" y="-66.5" font-family="Helvetica,sans-Serif" font-size="10.00">Authentication.ChangePassword.Handle</text>
<text text-anchor="middle" x="333.5" y="-55.5" font-family="Helvetica,sans-Serif" font-size="10.00">Request</text>
</a>
</g>
</g>
<!-- Node1&#45;&gt;Node2 -->
<g id="edge1_Node000001_Node000002" class="edge">
<title>Node1&#45;&gt;Node2</title>
<g id="a_edge1_Node000001_Node000002"><a xlink:title=" ">
<path fill="none" stroke="#63b8ff" d="M192.11,-52.9C200.55,-53.87 209.15,-54.86 217.73,-55.84"/>
<polygon fill="#63b8ff" stroke="#63b8ff" points="217.45,-59.33 227.79,-56.99 218.25,-52.38 217.45,-59.33"/>
</a>
</g>
</g>
<!-- Node5 -->
<g id="Node000005" class="node">
<title>Node5</title>
<g id="a_Node000005"><a xlink:href="../../d0/d93/classNookpostBackend_1_1ApiEndpoints_1_1Authentication_1_1Login.html#a918444cedb461f353b4f3a00642ba169" target="_top" xlink:title="Authenticates the user and returns an access token.">
<polygon fill="white" stroke="#666666" points="420.5,-30 246.5,-30 246.5,0 420.5,0 420.5,-30"/>
<text text-anchor="start" x="254.5" y="-18" font-family="Helvetica,sans-Serif" font-size="10.00">NookpostBackend.ApiEndpoints.</text>
<text text-anchor="middle" x="333.5" y="-7" font-family="Helvetica,sans-Serif" font-size="10.00">Authentication.Login.PostLogin</text>
</a>
</g>
</g>
<!-- Node1&#45;&gt;Node5 -->
<g id="edge5_Node000001_Node000005" class="edge">
<title>Node1&#45;&gt;Node5</title>
<g id="a_edge5_Node000001_Node000005"><a xlink:title=" ">
<path fill="none" stroke="#63b8ff" d="M192.11,-31.1C206.63,-29.43 221.63,-27.71 236.17,-26.04"/>
<polygon fill="#63b8ff" stroke="#63b8ff" points="236.63,-29.52 246.16,-24.9 235.83,-22.56 236.63,-29.52"/>
</a>
</g>
</g>
<!-- Node3 -->
<g id="Node000003" class="node">
<title>Node3</title>
<g id="a_Node000003"><a xlink:href="../../d3/d34/classNookpostBackend_1_1Cryptography_1_1PasswordHashing.html#aeb943c5a3973106cc7405123255da371" target="_top" xlink:title="Hash a password with the given salt and password. The Pepper will automatically be obtained from sett...">
<polygon fill="white" stroke="#666666" points="870,-62 694,-62 694,-32 870,-32 870,-62"/>
<text text-anchor="start" x="702" y="-50" font-family="Helvetica,sans-Serif" font-size="10.00">NookpostBackend.Cryptography.</text>
<text text-anchor="middle" x="782" y="-39" font-family="Helvetica,sans-Serif" font-size="10.00">PasswordHashing.HashPassword</text>
</a>
</g>
</g>
<!-- Node2&#45;&gt;Node3 -->
<g id="edge2_Node000002_Node000003" class="edge">
<title>Node2&#45;&gt;Node3</title>
<g id="a_edge2_Node000002_Node000003"><a xlink:title=" ">
<path fill="none" stroke="#63b8ff" d="M439.18,-63.84C513.16,-60.2 611.61,-55.35 683.84,-51.79"/>
<polygon fill="#63b8ff" stroke="#63b8ff" points="684.04,-55.28 693.86,-51.29 683.7,-48.29 684.04,-55.28"/>
</a>
</g>
</g>
<!-- Node4 -->
<g id="Node000004" class="node">
<title>Node4</title>
<g id="a_Node000004"><a xlink:href="../../d3/d34/classNookpostBackend_1_1Cryptography_1_1PasswordHashing.html#a40192bd81c7fc4e7cc265f84e5d99df3" target="_top" xlink:title="Validate a password for a user.">
<polygon fill="white" stroke="#666666" points="658,-41 475,-41 475,-11 658,-11 658,-41"/>
<text text-anchor="start" x="483" y="-29" font-family="Helvetica,sans-Serif" font-size="10.00">NookpostBackend.Cryptography.</text>
<text text-anchor="middle" x="566.5" y="-18" font-family="Helvetica,sans-Serif" font-size="10.00">PasswordHashing.isPasswordValid</text>
</a>
</g>
</g>
<!-- Node2&#45;&gt;Node4 -->
<g id="edge3_Node000002_Node000004" class="edge">
<title>Node2&#45;&gt;Node4</title>
<g id="a_edge3_Node000002_Node000004"><a xlink:title=" ">
<path fill="none" stroke="#63b8ff" d="M439.19,-49.51C451,-47.31 462.97,-45.08 474.6,-42.92"/>
<polygon fill="#63b8ff" stroke="#63b8ff" points="475.52,-46.31 484.71,-41.04 474.24,-39.43 475.52,-46.31"/>
</a>
</g>
</g>
<!-- Node4&#45;&gt;Node3 -->
<g id="edge4_Node000004_Node000003" class="edge">
<title>Node4&#45;&gt;Node3</title>
<g id="a_edge4_Node000004_Node000003"><a xlink:title=" ">
<path fill="none" stroke="#63b8ff" d="M658.04,-34.91C666.54,-35.74 675.17,-36.59 683.73,-37.43"/>
<polygon fill="#63b8ff" stroke="#63b8ff" points="683.42,-40.92 693.72,-38.41 684.11,-33.95 683.42,-40.92"/>
</a>
</g>
</g>
<!-- Node5&#45;&gt;Node4 -->
<g id="edge6_Node000005_Node000004" class="edge">
<title>Node5&#45;&gt;Node4</title>
<g id="a_edge6_Node000005_Node000004"><a xlink:title=" ">
<path fill="none" stroke="#63b8ff" d="M420.52,-19.1C434.9,-19.78 449.94,-20.5 464.65,-21.2"/>
<polygon fill="#63b8ff" stroke="#63b8ff" points="464.62,-24.7 474.77,-21.68 464.95,-17.71 464.62,-24.7"/>
</a>
</g>
</g>
</g>
</svg>
