<?xml version="1.0" encoding="UTF-8" standalone="no"?>
<!DOCTYPE svg PUBLIC "-//W3C//DTD SVG 1.1//EN"
 "http://www.w3.org/Graphics/SVG/1.1/DTD/svg11.dtd">
<!-- Generated by graphviz version 2.43.0 (0)
 -->
<!-- Title: Truck Pages: 1 -->
<svg width="151pt" height="301pt"
 viewBox="0.00 0.00 151.00 301.00" xmlns="http://www.w3.org/2000/svg" xmlns:xlink="http://www.w3.org/1999/xlink">

<svg id="main" version="1.1" xmlns="http://www.w3.org/2000/svg" xmlns:xlink="http://www.w3.org/1999/xlink" xml:space="preserve">

<style type="text/css"><![CDATA[
.node, .edge {opacity: 0.7;}
.node.selected, .edge.selected {opacity: 1;}
.edge:hover path { stroke: red; }
.edge:hover polygon { stroke: red; fill: red; }
]]></style>
<script type="application/ecmascript" xlink:href="../../svg.min.js"/>
<svg id="graph" class="graph">
<g id="graph0" class="graph" transform="scale(1 1) rotate(0) translate(4 297)">
<title>Truck</title>
<!-- Node1 -->
<g id="Node000001" class="node">
<title>Node1</title>
<g id="a_Node000001"><a xlink:title=" ">
<polygon fill="#999999" stroke="transparent" points="113,-49 30,-49 30,0 113,0 113,-49"/>
<text text-anchor="start" x="59" y="-36.5" font-family="Helvetica,sans-Serif" font-size="10.00">Truck</text>
<text text-anchor="start" x="34.5" y="-21.5" font-family="Helvetica,sans-Serif" font-size="10.00">#</text>
<text text-anchor="start" x="47.5" y="-21.5" font-family="Helvetica,sans-Serif" font-size="10.00">Vehicle base</text>
<text text-anchor="start" x="70" y="-6.5" font-family="Helvetica,sans-Serif" font-size="10.00"> </text>
<polygon fill="#666666" stroke="#666666" points="30.5,-31.5 30.5,-31.5 113.5,-31.5 113.5,-31.5 30.5,-31.5"/>
<polygon fill="#666666" stroke="#666666" points="30.5,-16.5 30.5,-16.5 45.5,-16.5 45.5,-16.5 30.5,-16.5"/>
<polygon fill="#666666" stroke="#666666" points="45.5,-16.5 45.5,-16.5 113.5,-16.5 113.5,-16.5 45.5,-16.5"/>
<polygon fill="none" stroke="#666666" points="30,0 30,-49 113,-49 113,0 30,0"/>
</a>
</g>
</g>
<!-- Node2 -->
<g id="Node000002" class="node">
<title>Node2</title>
<g id="a_Node000002"><a xlink:href="../../d0/dba/structVehicle.html" target="_top" xlink:title=" ">
<polygon fill="white" stroke="transparent" points="143,-171 0,-171 0,-85 143,-85 143,-171"/>
<text text-anchor="start" x="54" y="-159" font-family="Helvetica,sans-Serif" font-size="10.00">Vehicle</text>
<text text-anchor="start" x="4.5" y="-144" font-family="Helvetica,sans-Serif" font-size="10.00">#</text>
<text text-anchor="start" x="17.5" y="-144" font-family="Helvetica,sans-Serif" font-size="10.00">Object base</text>
<text text-anchor="start" x="4.5" y="-129" font-family="Helvetica,sans-Serif" font-size="10.00">+</text>
<text text-anchor="start" x="17.5" y="-129" font-family="Helvetica,sans-Serif" font-size="10.00">void vehicleStart(Vehicle</text>
<text text-anchor="start" x="17.5" y="-118" font-family="Helvetica,sans-Serif" font-size="10.00"> *obj)</text>
<text text-anchor="start" x="4.5" y="-103" font-family="Helvetica,sans-Serif" font-size="10.00">+</text>
<text text-anchor="start" x="17.5" y="-103" font-family="Helvetica,sans-Serif" font-size="10.00">void vehicleStop(Vehicle</text>
<text text-anchor="start" x="17.5" y="-92" font-family="Helvetica,sans-Serif" font-size="10.00"> *obj)</text>
<polygon fill="#666666" stroke="#666666" points="0.5,-154 0.5,-154 143.5,-154 143.5,-154 0.5,-154"/>
<polygon fill="#666666" stroke="#666666" points="0.5,-139 0.5,-139 15.5,-139 15.5,-139 0.5,-139"/>
<polygon fill="#666666" stroke="#666666" points="15.5,-139 15.5,-139 143.5,-139 143.5,-139 15.5,-139"/>
<polygon fill="none" stroke="#666666" points="0,-85 0,-171 143,-171 143,-85 0,-85"/>
</a>
</g>
</g>
<!-- Node2&#45;&gt;Node1 -->
<g id="edge1_Node000001_Node000002" class="edge">
<title>Node2&#45;&gt;Node1</title>
<g id="a_edge1_Node000001_Node000002"><a xlink:title=" ">
<path fill="none" stroke="#63b8ff" d="M71.5,-74.74C71.5,-65.76 71.5,-56.85 71.5,-49.12"/>
<polygon fill="none" stroke="#63b8ff" points="68,-74.84 71.5,-84.84 75,-74.84 68,-74.84"/>
</a>
</g>
</g>
<!-- Node3 -->
<g id="Node000003" class="node">
<title>Node3</title>
<g id="a_Node000003"><a xlink:href="../../de/de7/structObject.html" target="_top" xlink:title=" ">
<polygon fill="white" stroke="transparent" points="139.5,-293 3.5,-293 3.5,-207 139.5,-207 139.5,-293"/>
<text text-anchor="start" x="55.5" y="-281" font-family="Helvetica,sans-Serif" font-size="10.00">Object</text>
<text text-anchor="start" x="10" y="-266" font-family="Helvetica,sans-Serif" font-size="10.00">&#45;</text>
<text text-anchor="start" x="20.5" y="-266" font-family="Helvetica,sans-Serif" font-size="10.00">int ref</text>
<text text-anchor="start" x="7.5" y="-251" font-family="Helvetica,sans-Serif" font-size="10.00">+</text>
<text text-anchor="start" x="20.5" y="-251" font-family="Helvetica,sans-Serif" font-size="10.00">static Object * objRef</text>
<text text-anchor="start" x="20.5" y="-240" font-family="Helvetica,sans-Serif" font-size="10.00">(Object *obj)</text>
<text text-anchor="start" x="7.5" y="-225" font-family="Helvetica,sans-Serif" font-size="10.00">+</text>
<text text-anchor="start" x="20.5" y="-225" font-family="Helvetica,sans-Serif" font-size="10.00">static Object * objUnref</text>
<text text-anchor="start" x="20.5" y="-214" font-family="Helvetica,sans-Serif" font-size="10.00">(Object *obj)</text>
<polygon fill="#666666" stroke="#666666" points="3.5,-276 3.5,-276 139.5,-276 139.5,-276 3.5,-276"/>
<polygon fill="#666666" stroke="#666666" points="3.5,-261 3.5,-261 18.5,-261 18.5,-261 3.5,-261"/>
<polygon fill="#666666" stroke="#666666" points="18.5,-261 18.5,-261 139.5,-261 139.5,-261 18.5,-261"/>
<polygon fill="none" stroke="#666666" points="3.5,-207 3.5,-293 139.5,-293 139.5,-207 3.5,-207"/>
</a>
</g>
</g>
<!-- Node3&#45;&gt;Node2 -->
<g id="edge2_Node000002_Node000003" class="edge">
<title>Node3&#45;&gt;Node2</title>
<g id="a_edge2_Node000002_Node000003"><a xlink:title=" ">
<path fill="none" stroke="#63b8ff" d="M71.5,-196.55C71.5,-188.12 71.5,-179.49 71.5,-171.33"/>
<polygon fill="none" stroke="#63b8ff" points="68,-196.69 71.5,-206.69 75,-196.69 68,-196.69"/>
</a>
</g>
</g>
</g>
</svg>
</svg>

<style type='text/css'>
<![CDATA[
[data-mouse-over-selected='false'] { opacity: 0.7; }
[data-mouse-over-selected='true']  { opacity: 1.0; }
]]>
</style>
<script type="application/ecmascript"><![CDATA[
document.addEventListener('DOMContentLoaded', (event) => {
  highlightEdges();
  highlightAdjacentNodes();
});
]]></script>
</svg>
