<?xml version="1.0" encoding="UTF-8" standalone="no"?>
<!DOCTYPE svg PUBLIC "-//W3C//DTD SVG 1.1//EN"
 "http://www.w3.org/Graphics/SVG/1.1/DTD/svg11.dtd">
<!-- Generated by graphviz version 2.43.0 (0)
 -->
<!-- Title: NookpostBackend.Cryptography.PasswordHashing Pages: 1 -->
<svg width="205pt" height="105pt"
 viewBox="0.00 0.00 205.00 105.00" xmlns="http://www.w3.org/2000/svg" xmlns:xlink="http://www.w3.org/1999/xlink">
<g id="graph0" class="graph" transform="scale(1 1) rotate(0) translate(4 101)">
<title>NookpostBackend.Cryptography.PasswordHashing</title>
<!-- Node1 -->
<g id="Node000001" class="node">
<title>Node1</title>
<g id="a_Node000001"><a xlink:title="Holds methods for hashing passwords, and checking the hashed passwords.">
<polygon fill="#999999" stroke="transparent" points="197,-97 0,-97 0,0 197,0 197,-97"/>
<text text-anchor="start" x="19.5" y="-84.5" font-family="Helvetica,sans-Serif" font-size="10.00">NookpostBackend.Cryptography.</text>
<text text-anchor="start" x="56" y="-73.5" font-family="Helvetica,sans-Serif" font-size="10.00">PasswordHashing</text>
<text text-anchor="start" x="97" y="-58.5" font-family="Helvetica,sans-Serif" font-size="10.00"> </text>
<text text-anchor="start" x="4.5" y="-43.5" font-family="Helvetica,sans-Serif" font-size="10.00">+</text>
<text text-anchor="start" x="17.5" y="-43.5" font-family="Helvetica,sans-Serif" font-size="10.00">static string HashPassword</text>
<text text-anchor="start" x="17.5" y="-32.5" font-family="Helvetica,sans-Serif" font-size="10.00">(string password, string salt)</text>
<text text-anchor="start" x="4.5" y="-17.5" font-family="Helvetica,sans-Serif" font-size="10.00">+</text>
<text text-anchor="start" x="17.5" y="-17.5" font-family="Helvetica,sans-Serif" font-size="10.00">static bool isPasswordValid</text>
<text text-anchor="start" x="17.5" y="-6.5" font-family="Helvetica,sans-Serif" font-size="10.00">(string password, Models.User user)</text>
<polygon fill="#666666" stroke="#666666" points="0.5,-68.5 0.5,-68.5 197.5,-68.5 197.5,-68.5 0.5,-68.5"/>
<polygon fill="#666666" stroke="#666666" points="0.5,-53.5 0.5,-53.5 197.5,-53.5 197.5,-53.5 0.5,-53.5"/>
<polygon fill="none" stroke="#666666" points="0,0 0,-97 197,-97 197,0 0,0"/>
</a>
</g>
</g>
</g>
</svg>
