<?xml version="1.0" encoding="UTF-8" standalone="no"?>
<!DOCTYPE svg PUBLIC "-//W3C//DTD SVG 1.1//EN"
 "http://www.w3.org/Graphics/SVG/1.1/DTD/svg11.dtd">
<!-- Generated by graphviz version 2.43.0 (0)
 -->
<!-- Title: NookpostBackend.Configuration.Settings.ReadSettings Pages: 1 -->
<svg width="608pt" height="108pt"
 viewBox="0.00 0.00 608.00 108.00" xmlns="http://www.w3.org/2000/svg" xmlns:xlink="http://www.w3.org/1999/xlink">
<g id="graph0" class="graph" transform="scale(1 1) rotate(0) translate(4 104)">
<title>NookpostBackend.Configuration.Settings.ReadSettings</title>
<!-- Node1 -->
<g id="Node000001" class="node">
<title>Node1</title>
<g id="a_Node000001"><a xlink:title="Read the settings from the settings.json file. Create a default instance if the file can&#39;t be read.">
<polygon fill="#999999" stroke="#666666" points="600,-52 424,-52 424,-22 600,-22 600,-52"/>
<text text-anchor="start" x="432" y="-40" font-family="Helvetica,sans-Serif" font-size="10.00">NookpostBackend.Configuration.</text>
<text text-anchor="middle" x="512" y="-29" font-family="Helvetica,sans-Serif" font-size="10.00">Settings.ReadSettings</text>
</a>
</g>
</g>
<!-- Node2 -->
<g id="Node000002" class="node">
<title>Node2</title>
<g id="a_Node000002"><a xlink:href="../../df/d2d/classNookpostBackend_1_1Configuration_1_1Settings.html#a78d635f673594032c0a57154d845e8d5" target="_top" xlink:title="Read the settings from the settings.json file and place them into the singleton instance variable....">
<polygon fill="white" stroke="#666666" points="388,-100 212,-100 212,-70 388,-70 388,-100"/>
<text text-anchor="start" x="220" y="-88" font-family="Helvetica,sans-Serif" font-size="10.00">NookpostBackend.Configuration.</text>
<text text-anchor="middle" x="300" y="-77" font-family="Helvetica,sans-Serif" font-size="10.00">Settings.LoadSettings</text>
</a>
</g>
</g>
<!-- Node1&#45;&gt;Node2 -->
<g id="edge1_Node000001_Node000002" class="edge">
<title>Node1&#45;&gt;Node2</title>
<g id="a_edge1_Node000001_Node000002"><a xlink:title=" ">
<path fill="none" stroke="#63b8ff" d="M435.3,-54.3C412.83,-59.44 388.41,-65.02 366.64,-70"/>
<polygon fill="#63b8ff" stroke="#63b8ff" points="436.16,-57.7 445.13,-52.06 434.6,-50.87 436.16,-57.7"/>
</a>
</g>
</g>
<!-- Node3 -->
<g id="Node000003" class="node">
<title>Node3</title>
<g id="a_Node000003"><a xlink:href="../../df/d2d/classNookpostBackend_1_1Configuration_1_1Settings.html#a7bfe8ba447a6f52cc93aa59d0de0cdfe" target="_top" xlink:title="Initializes the settings on first access, and saves them again should they be newly generated.">
<polygon fill="white" stroke="#666666" points="388,-52 212,-52 212,-22 388,-22 388,-52"/>
<text text-anchor="start" x="220" y="-40" font-family="Helvetica,sans-Serif" font-size="10.00">NookpostBackend.Configuration.</text>
<text text-anchor="middle" x="300" y="-29" font-family="Helvetica,sans-Serif" font-size="10.00">Settings.Settings</text>
</a>
</g>
</g>
<!-- Node1&#45;&gt;Node3 -->
<g id="edge2_Node000001_Node000003" class="edge">
<title>Node1&#45;&gt;Node3</title>
<g id="a_edge2_Node000001_Node000003"><a xlink:title=" ">
<path fill="none" stroke="#63b8ff" d="M413.54,-30.27C405.12,-30.23 396.63,-30.25 388.3,-30.34"/>
<polygon fill="#63b8ff" stroke="#63b8ff" points="413.74,-33.77 423.77,-30.34 413.79,-26.77 413.74,-33.77"/>
</a>
</g>
</g>
<!-- Node3&#45;&gt;Node1 -->
<g id="edge5_Node000003_Node000001" class="edge">
<title>Node3&#45;&gt;Node1</title>
<g id="a_edge5_Node000003_Node000001"><a xlink:title=" ">
<path fill="none" stroke="#63b8ff" d="M398.53,-43.73C406.95,-43.77 415.43,-43.75 423.77,-43.66"/>
<polygon fill="#63b8ff" stroke="#63b8ff" points="398.32,-40.23 388.3,-43.66 398.28,-47.23 398.32,-40.23"/>
</a>
</g>
</g>
<!-- Node4 -->
<g id="Node000004" class="node">
<title>Node4</title>
<g id="a_Node000004"><a xlink:href="../../df/d2d/classNookpostBackend_1_1Configuration_1_1Settings.html#aeb5be3c202c4088a8e05b2d0b721da60" target="_top" xlink:title=" ">
<polygon fill="white" stroke="#666666" points="176,-30 0,-30 0,0 176,0 176,-30"/>
<text text-anchor="start" x="8" y="-18" font-family="Helvetica,sans-Serif" font-size="10.00">NookpostBackend.Configuration.</text>
<text text-anchor="middle" x="88" y="-7" font-family="Helvetica,sans-Serif" font-size="10.00">Settings.isSettingsIntegrityOk</text>
</a>
</g>
</g>
<!-- Node3&#45;&gt;Node4 -->
<g id="edge3_Node000003_Node000004" class="edge">
<title>Node3&#45;&gt;Node4</title>
<g id="a_edge3_Node000003_Node000004"><a xlink:title=" ">
<path fill="none" stroke="#63b8ff" d="M201.82,-26.82C193.31,-25.93 184.73,-25.03 176.3,-24.15"/>
<polygon fill="#63b8ff" stroke="#63b8ff" points="201.46,-30.3 211.77,-27.86 202.18,-23.34 201.46,-30.3"/>
</a>
</g>
</g>
<!-- Node4&#45;&gt;Node1 -->
<g id="edge4_Node000004_Node000001" class="edge">
<title>Node4&#45;&gt;Node1</title>
<g id="a_edge4_Node000004_Node000001"><a xlink:title=" ">
<path fill="none" stroke="#63b8ff" d="M186.57,-9.29C245.11,-7.12 320.98,-6.52 388,-13 407.06,-14.84 427.55,-18.25 446.23,-21.94"/>
<polygon fill="#63b8ff" stroke="#63b8ff" points="186.07,-5.81 176.22,-9.7 186.35,-12.8 186.07,-5.81"/>
</a>
</g>
</g>
</g>
</svg>
