<?xml version="1.0" encoding="UTF-8" standalone="no"?>
<!DOCTYPE svg PUBLIC "-//W3C//DTD SVG 1.1//EN"
 "http://www.w3.org/Graphics/SVG/1.1/DTD/svg11.dtd">
<!-- Generated by graphviz version 2.43.0 (0)
 -->
<!-- Title: NookpostBackend.Configuration.Settings.ReadSettings Pages: 1 -->
<svg width="820pt" height="90pt"
 viewBox="0.00 0.00 820.00 90.00" xmlns="http://www.w3.org/2000/svg" xmlns:xlink="http://www.w3.org/1999/xlink">
<g id="graph0" class="graph" transform="scale(1 1) rotate(0) translate(4 86)">
<title>NookpostBackend.Configuration.Settings.ReadSettings</title>
<!-- Node1 -->
<g id="Node000001" class="node">
<title>Node1</title>
<g id="a_Node000001"><a xlink:title="Read the settings from the settings.json file. Create a default instance if the file can&#39;t be read.">
<polygon fill="#999999" stroke="#666666" points="176,-30 0,-30 0,0 176,0 176,-30"/>
<text text-anchor="start" x="8" y="-18" font-family="Helvetica,sans-Serif" font-size="10.00">NookpostBackend.Configuration.</text>
<text text-anchor="middle" x="88" y="-7" font-family="Helvetica,sans-Serif" font-size="10.00">Settings.ReadSettings</text>
</a>
</g>
</g>
<!-- Node2 -->
<g id="Node000002" class="node">
<title>Node2</title>
<g id="a_Node000002"><a xlink:href="../../df/d2d/classNookpostBackend_1_1Configuration_1_1Settings.html#aeb5be3c202c4088a8e05b2d0b721da60" target="_top" xlink:title=" ">
<polygon fill="white" stroke="#666666" points="388,-82 212,-82 212,-52 388,-52 388,-82"/>
<text text-anchor="start" x="220" y="-70" font-family="Helvetica,sans-Serif" font-size="10.00">NookpostBackend.Configuration.</text>
<text text-anchor="middle" x="300" y="-59" font-family="Helvetica,sans-Serif" font-size="10.00">Settings.isSettingsIntegrityOk</text>
</a>
</g>
</g>
<!-- Node1&#45;&gt;Node2 -->
<g id="edge1_Node000001_Node000002" class="edge">
<title>Node1&#45;&gt;Node2</title>
<g id="a_edge1_Node000001_Node000002"><a xlink:title=" ">
<path fill="none" stroke="#63b8ff" d="M149.74,-30.04C174.34,-36.13 202.9,-43.2 228.41,-49.52"/>
<polygon fill="#63b8ff" stroke="#63b8ff" points="227.85,-52.99 238.4,-51.99 229.53,-46.19 227.85,-52.99"/>
</a>
</g>
</g>
<!-- Node3 -->
<g id="Node000003" class="node">
<title>Node3</title>
<g id="a_Node000003"><a xlink:href="../../df/d2d/classNookpostBackend_1_1Configuration_1_1Settings.html#a7bfe8ba447a6f52cc93aa59d0de0cdfe" target="_top" xlink:title="Initializes the settings on first access, and saves them again should they be newly generated.">
<polygon fill="white" stroke="#666666" points="600,-30 424,-30 424,0 600,0 600,-30"/>
<text text-anchor="start" x="432" y="-18" font-family="Helvetica,sans-Serif" font-size="10.00">NookpostBackend.Configuration.</text>
<text text-anchor="middle" x="512" y="-7" font-family="Helvetica,sans-Serif" font-size="10.00">Settings.Settings</text>
</a>
</g>
</g>
<!-- Node1&#45;&gt;Node3 -->
<g id="edge5_Node000001_Node000003" class="edge">
<title>Node1&#45;&gt;Node3</title>
<g id="a_edge5_Node000001_Node000003"><a xlink:title=" ">
<path fill="none" stroke="#63b8ff" d="M176.18,-9.41C245.31,-7.93 341.87,-7.87 413.54,-9.21"/>
<polygon fill="#63b8ff" stroke="#63b8ff" points="413.86,-12.71 423.93,-9.42 414,-5.72 413.86,-12.71"/>
</a>
</g>
</g>
<!-- Node2&#45;&gt;Node3 -->
<g id="edge2_Node000002_Node000003" class="edge">
<title>Node2&#45;&gt;Node3</title>
<g id="a_edge2_Node000002_Node000003"><a xlink:title=" ">
<path fill="none" stroke="#63b8ff" d="M361.74,-51.96C386.34,-45.87 414.9,-38.8 440.41,-32.48"/>
<polygon fill="#63b8ff" stroke="#63b8ff" points="441.53,-35.81 450.4,-30.01 439.85,-29.01 441.53,-35.81"/>
</a>
</g>
</g>
<!-- Node3&#45;&gt;Node1 -->
<g id="edge3_Node000003_Node000001" class="edge">
<title>Node3&#45;&gt;Node1</title>
<g id="a_edge3_Node000003_Node000001"><a xlink:title=" ">
<path fill="none" stroke="#63b8ff" d="M423.93,-20.58C354.83,-22.06 258.27,-22.13 186.57,-20.8"/>
<polygon fill="#63b8ff" stroke="#63b8ff" points="186.25,-17.29 176.18,-20.59 186.11,-24.29 186.25,-17.29"/>
</a>
</g>
</g>
<!-- Node4 -->
<g id="Node000004" class="node">
<title>Node4</title>
<g id="a_Node000004"><a xlink:href="../../df/d2d/classNookpostBackend_1_1Configuration_1_1Settings.html#a746e745f21cd6a9165a77428593e3e90" target="_top" xlink:title="Save settings to the settings.json file.">
<polygon fill="white" stroke="#666666" points="812,-30 636,-30 636,0 812,0 812,-30"/>
<text text-anchor="start" x="644" y="-18" font-family="Helvetica,sans-Serif" font-size="10.00">NookpostBackend.Configuration.</text>
<text text-anchor="middle" x="724" y="-7" font-family="Helvetica,sans-Serif" font-size="10.00">Settings.SaveSettings</text>
</a>
</g>
</g>
<!-- Node3&#45;&gt;Node4 -->
<g id="edge4_Node000003_Node000004" class="edge">
<title>Node3&#45;&gt;Node4</title>
<g id="a_edge4_Node000003_Node000004"><a xlink:title=" ">
<path fill="none" stroke="#63b8ff" d="M600.23,-15C608.57,-15 617.05,-15 625.47,-15"/>
<polygon fill="#63b8ff" stroke="#63b8ff" points="625.7,-18.5 635.7,-15 625.7,-11.5 625.7,-18.5"/>
</a>
</g>
</g>
</g>
</svg>
