<?xml version="1.0" encoding="UTF-8" standalone="no"?>
<!DOCTYPE svg PUBLIC "-//W3C//DTD SVG 1.1//EN"
 "http://www.w3.org/Graphics/SVG/1.1/DTD/svg11.dtd">
<!-- Generated by graphviz version 2.43.0 (0)
 -->
<!-- Title: NookpostBackend.Configuration.Settings.isSettingsIntegrityOk Pages: 1 -->
<svg width="608pt" height="86pt"
 viewBox="0.00 0.00 608.00 86.00" xmlns="http://www.w3.org/2000/svg" xmlns:xlink="http://www.w3.org/1999/xlink">
<g id="graph0" class="graph" transform="scale(1 1) rotate(0) translate(4 82)">
<title>NookpostBackend.Configuration.Settings.isSettingsIntegrityOk</title>
<!-- Node1 -->
<g id="Node000001" class="node">
<title>Node1</title>
<g id="a_Node000001"><a xlink:title=" ">
<polygon fill="#999999" stroke="#666666" points="600,-30 424,-30 424,0 600,0 600,-30"/>
<text text-anchor="start" x="432" y="-18" font-family="Helvetica,sans-Serif" font-size="10.00">NookpostBackend.Configuration.</text>
<text text-anchor="middle" x="512" y="-7" font-family="Helvetica,sans-Serif" font-size="10.00">Settings.isSettingsIntegrityOk</text>
</a>
</g>
</g>
<!-- Node2 -->
<g id="Node000002" class="node">
<title>Node2</title>
<g id="a_Node000002"><a xlink:href="../../df/d2d/classNookpostBackend_1_1Configuration_1_1Settings.html#a2967c1094bca506bc8e78ddf4ce8fc87" target="_top" xlink:title="Read the settings from the settings.json file. Create a default instance if the file can&#39;t be read.">
<polygon fill="white" stroke="#666666" points="388,-52 212,-52 212,-22 388,-22 388,-52"/>
<text text-anchor="start" x="220" y="-40" font-family="Helvetica,sans-Serif" font-size="10.00">NookpostBackend.Configuration.</text>
<text text-anchor="middle" x="300" y="-29" font-family="Helvetica,sans-Serif" font-size="10.00">Settings.ReadSettings</text>
</a>
</g>
</g>
<!-- Node1&#45;&gt;Node2 -->
<g id="edge1_Node000001_Node000002" class="edge">
<title>Node1&#45;&gt;Node2</title>
<g id="a_edge1_Node000001_Node000002"><a xlink:title=" ">
<path fill="none" stroke="#63b8ff" d="M413.82,-25.18C405.31,-26.07 396.73,-26.97 388.3,-27.85"/>
<polygon fill="#63b8ff" stroke="#63b8ff" points="414.18,-28.66 423.77,-24.14 413.46,-21.7 414.18,-28.66"/>
</a>
</g>
</g>
<!-- Node3 -->
<g id="Node000003" class="node">
<title>Node3</title>
<g id="a_Node000003"><a xlink:href="../../df/d2d/classNookpostBackend_1_1Configuration_1_1Settings.html#a78d635f673594032c0a57154d845e8d5" target="_top" xlink:title="Read the settings from the settings.json file and place them into the singleton instance variable....">
<polygon fill="white" stroke="#666666" points="176,-78 0,-78 0,-48 176,-48 176,-78"/>
<text text-anchor="start" x="8" y="-66" font-family="Helvetica,sans-Serif" font-size="10.00">NookpostBackend.Configuration.</text>
<text text-anchor="middle" x="88" y="-55" font-family="Helvetica,sans-Serif" font-size="10.00">Settings.LoadSettings</text>
</a>
</g>
</g>
<!-- Node2&#45;&gt;Node3 -->
<g id="edge2_Node000002_Node000003" class="edge">
<title>Node2&#45;&gt;Node3</title>
<g id="a_edge2_Node000002_Node000003"><a xlink:title=" ">
<path fill="none" stroke="#63b8ff" d="M201.82,-49.03C193.31,-50.09 184.73,-51.15 176.3,-52.19"/>
<polygon fill="#63b8ff" stroke="#63b8ff" points="202.27,-52.5 211.77,-47.8 201.41,-45.56 202.27,-52.5"/>
</a>
</g>
</g>
<!-- Node4 -->
<g id="Node000004" class="node">
<title>Node4</title>
<g id="a_Node000004"><a xlink:href="../../df/d2d/classNookpostBackend_1_1Configuration_1_1Settings.html#a7bfe8ba447a6f52cc93aa59d0de0cdfe" target="_top" xlink:title="Initializes the settings on first access, and saves them again should they be newly generated.">
<polygon fill="white" stroke="#666666" points="176,-30 0,-30 0,0 176,0 176,-30"/>
<text text-anchor="start" x="8" y="-18" font-family="Helvetica,sans-Serif" font-size="10.00">NookpostBackend.Configuration.</text>
<text text-anchor="middle" x="88" y="-7" font-family="Helvetica,sans-Serif" font-size="10.00">Settings.Settings</text>
</a>
</g>
</g>
<!-- Node2&#45;&gt;Node4 -->
<g id="edge3_Node000002_Node000004" class="edge">
<title>Node2&#45;&gt;Node4</title>
<g id="a_edge3_Node000002_Node000004"><a xlink:title=" ">
<path fill="none" stroke="#63b8ff" d="M208.23,-20.8C197.54,-19.59 186.65,-18.46 176.01,-17.45"/>
<polygon fill="#63b8ff" stroke="#63b8ff" points="208.07,-24.3 218.41,-21.97 208.88,-17.35 208.07,-24.3"/>
</a>
</g>
</g>
<!-- Node4&#45;&gt;Node1 -->
<g id="edge4_Node000004_Node000001" class="edge">
<title>Node4&#45;&gt;Node1</title>
<g id="a_edge4_Node000004_Node000001"><a xlink:title=" ">
<path fill="none" stroke="#63b8ff" d="M186.24,-13.27C194.95,-13.16 203.63,-13.07 212,-13 290.22,-12.36 309.78,-12.36 388,-13 399.64,-13.09 411.9,-13.24 423.98,-13.41"/>
<polygon fill="#63b8ff" stroke="#63b8ff" points="185.97,-9.78 176.02,-13.41 186.06,-16.78 185.97,-9.78"/>
</a>
</g>
</g>
<!-- Node4&#45;&gt;Node2 -->
<g id="edge5_Node000004_Node000002" class="edge">
<title>Node4&#45;&gt;Node2</title>
<g id="a_edge5_Node000004_Node000002"><a xlink:title=" ">
<path fill="none" stroke="#63b8ff" d="M179.7,-31.2C190.34,-32.39 201.18,-33.52 211.77,-34.52"/>
<polygon fill="#63b8ff" stroke="#63b8ff" points="179.91,-27.7 169.58,-30.03 179.11,-34.65 179.91,-27.7"/>
</a>
</g>
</g>
</g>
</svg>
