<?xml version="1.0" encoding="UTF-8" standalone="no"?>
<!DOCTYPE svg PUBLIC "-//W3C//DTD SVG 1.1//EN"
 "http://www.w3.org/Graphics/SVG/1.1/DTD/svg11.dtd">
<!-- Generated by graphviz version 2.43.0 (0)
 -->
<!-- Title: NookpostBackend.Configuration.Settings.Settings Pages: 1 -->
<svg width="820pt" height="90pt"
 viewBox="0.00 0.00 820.00 90.00" xmlns="http://www.w3.org/2000/svg" xmlns:xlink="http://www.w3.org/1999/xlink">
<g id="graph0" class="graph" transform="scale(1 1) rotate(0) translate(4 86)">
<title>NookpostBackend.Configuration.Settings.Settings</title>
<!-- Node1 -->
<g id="Node000001" class="node">
<title>Node1</title>
<g id="a_Node000001"><a xlink:title="Initializes the settings on first access, and saves them again should they be newly generated.">
<polygon fill="#999999" stroke="#666666" points="812,-30 636,-30 636,0 812,0 812,-30"/>
<text text-anchor="start" x="644" y="-18" font-family="Helvetica,sans-Serif" font-size="10.00">NookpostBackend.Configuration.</text>
<text text-anchor="middle" x="724" y="-7" font-family="Helvetica,sans-Serif" font-size="10.00">Settings.Settings</text>
</a>
</g>
</g>
<!-- Node2 -->
<g id="Node000002" class="node">
<title>Node2</title>
<g id="a_Node000002"><a xlink:href="../../df/d2d/classNookpostBackend_1_1Configuration_1_1Settings.html#aeb5be3c202c4088a8e05b2d0b721da60" target="_top" xlink:title=" ">
<polygon fill="white" stroke="#666666" points="600,-82 424,-82 424,-52 600,-52 600,-82"/>
<text text-anchor="start" x="432" y="-70" font-family="Helvetica,sans-Serif" font-size="10.00">NookpostBackend.Configuration.</text>
<text text-anchor="middle" x="512" y="-59" font-family="Helvetica,sans-Serif" font-size="10.00">Settings.isSettingsIntegrityOk</text>
</a>
</g>
</g>
<!-- Node1&#45;&gt;Node2 -->
<g id="edge1_Node000001_Node000002" class="edge">
<title>Node1&#45;&gt;Node2</title>
<g id="a_edge1_Node000001_Node000002"><a xlink:title=" ">
<path fill="none" stroke="#63b8ff" d="M652.27,-32.51C626.75,-38.83 598.19,-45.91 573.6,-51.99"/>
<polygon fill="#63b8ff" stroke="#63b8ff" points="653.39,-35.84 662.26,-30.04 651.71,-29.05 653.39,-35.84"/>
</a>
</g>
</g>
<!-- Node3 -->
<g id="Node000003" class="node">
<title>Node3</title>
<g id="a_Node000003"><a xlink:href="../../df/d2d/classNookpostBackend_1_1Configuration_1_1Settings.html#a2967c1094bca506bc8e78ddf4ce8fc87" target="_top" xlink:title="Read the settings from the settings.json file. Create a default instance if the file can&#39;t be read.">
<polygon fill="white" stroke="#666666" points="388,-30 212,-30 212,0 388,0 388,-30"/>
<text text-anchor="start" x="220" y="-18" font-family="Helvetica,sans-Serif" font-size="10.00">NookpostBackend.Configuration.</text>
<text text-anchor="middle" x="300" y="-7" font-family="Helvetica,sans-Serif" font-size="10.00">Settings.ReadSettings</text>
</a>
</g>
</g>
<!-- Node1&#45;&gt;Node3 -->
<g id="edge5_Node000001_Node000003" class="edge">
<title>Node1&#45;&gt;Node3</title>
<g id="a_edge5_Node000001_Node000003"><a xlink:title=" ">
<path fill="none" stroke="#63b8ff" d="M625.43,-9.2C553.73,-7.87 457.17,-7.94 388.07,-9.42"/>
<polygon fill="#63b8ff" stroke="#63b8ff" points="625.75,-12.71 635.82,-9.41 625.89,-5.71 625.75,-12.71"/>
</a>
</g>
</g>
<!-- Node2&#45;&gt;Node3 -->
<g id="edge2_Node000002_Node000003" class="edge">
<title>Node2&#45;&gt;Node3</title>
<g id="a_edge2_Node000002_Node000003"><a xlink:title=" ">
<path fill="none" stroke="#63b8ff" d="M440.27,-49.49C414.75,-43.17 386.19,-36.09 361.6,-30.01"/>
<polygon fill="#63b8ff" stroke="#63b8ff" points="439.71,-52.95 450.26,-51.96 441.39,-46.16 439.71,-52.95"/>
</a>
</g>
</g>
<!-- Node3&#45;&gt;Node1 -->
<g id="edge4_Node000003_Node000001" class="edge">
<title>Node3&#45;&gt;Node1</title>
<g id="a_edge4_Node000003_Node000001"><a xlink:title=" ">
<path fill="none" stroke="#63b8ff" d="M398.46,-20.79C470.13,-22.13 566.69,-22.07 635.82,-20.59"/>
<polygon fill="#63b8ff" stroke="#63b8ff" points="398.14,-17.29 388.07,-20.58 398,-24.28 398.14,-17.29"/>
</a>
</g>
</g>
<!-- Node4 -->
<g id="Node000004" class="node">
<title>Node4</title>
<g id="a_Node000004"><a xlink:href="../../df/d2d/classNookpostBackend_1_1Configuration_1_1Settings.html#a78d635f673594032c0a57154d845e8d5" target="_top" xlink:title="Read the settings from the settings.json file and place them into the singleton instance variable....">
<polygon fill="white" stroke="#666666" points="176,-30 0,-30 0,0 176,0 176,-30"/>
<text text-anchor="start" x="8" y="-18" font-family="Helvetica,sans-Serif" font-size="10.00">NookpostBackend.Configuration.</text>
<text text-anchor="middle" x="88" y="-7" font-family="Helvetica,sans-Serif" font-size="10.00">Settings.LoadSettings</text>
</a>
</g>
</g>
<!-- Node3&#45;&gt;Node4 -->
<g id="edge3_Node000003_Node000004" class="edge">
<title>Node3&#45;&gt;Node4</title>
<g id="a_edge3_Node000003_Node000004"><a xlink:title=" ">
<path fill="none" stroke="#63b8ff" d="M201.54,-15C193.12,-15 184.63,-15 176.3,-15"/>
<polygon fill="#63b8ff" stroke="#63b8ff" points="201.77,-18.5 211.77,-15 201.77,-11.5 201.77,-18.5"/>
</a>
</g>
</g>
</g>
</svg>
