<?xml version="1.0" encoding="UTF-8" standalone="no"?>
<!DOCTYPE svg PUBLIC "-//W3C//DTD SVG 1.1//EN"
 "http://www.w3.org/Graphics/SVG/1.1/DTD/svg11.dtd">
<!-- Generated by graphviz version 2.43.0 (0)
 -->
<!-- Title: NookpostBackend.Configuration.Settings.Settings Pages: 1 -->
<svg width="608pt" height="104pt"
 viewBox="0.00 0.00 608.00 103.87" xmlns="http://www.w3.org/2000/svg" xmlns:xlink="http://www.w3.org/1999/xlink">
<g id="graph0" class="graph" transform="scale(1 1) rotate(0) translate(4 99.87)">
<title>NookpostBackend.Configuration.Settings.Settings</title>
<!-- Node1 -->
<g id="Node000001" class="node">
<title>Node1</title>
<g id="a_Node000001"><a xlink:title="Initializes the settings on first access, and saves them again should they be newly generated.">
<polygon fill="#999999" stroke="#666666" points="176,-71.87 0,-71.87 0,-41.87 176,-41.87 176,-71.87"/>
<text text-anchor="start" x="8" y="-59.87" font-family="Helvetica,sans-Serif" font-size="10.00">NookpostBackend.Configuration.</text>
<text text-anchor="middle" x="88" y="-48.87" font-family="Helvetica,sans-Serif" font-size="10.00">Settings.Settings</text>
</a>
</g>
</g>
<!-- Node2 -->
<g id="Node000002" class="node">
<title>Node2</title>
<g id="a_Node000002"><a xlink:href="../../df/d2d/classNookpostBackend_1_1Configuration_1_1Settings.html#a2967c1094bca506bc8e78ddf4ce8fc87" target="_top" xlink:title="Read the settings from the settings.json file. Create a default instance if the file can&#39;t be read.">
<polygon fill="white" stroke="#666666" points="388,-95.87 212,-95.87 212,-65.87 388,-65.87 388,-95.87"/>
<text text-anchor="start" x="220" y="-83.87" font-family="Helvetica,sans-Serif" font-size="10.00">NookpostBackend.Configuration.</text>
<text text-anchor="middle" x="300" y="-72.87" font-family="Helvetica,sans-Serif" font-size="10.00">Settings.ReadSettings</text>
</a>
</g>
</g>
<!-- Node1&#45;&gt;Node2 -->
<g id="edge1_Node000001_Node000002" class="edge">
<title>Node1&#45;&gt;Node2</title>
<g id="a_edge1_Node000001_Node000002"><a xlink:title=" ">
<path fill="none" stroke="#63b8ff" d="M176.23,-60.18C188.86,-61.5 201.84,-62.99 214.41,-64.57"/>
<polygon fill="#63b8ff" stroke="#63b8ff" points="214.03,-68.05 224.4,-65.85 214.92,-61.11 214.03,-68.05"/>
</a>
</g>
</g>
<!-- Node4 -->
<g id="Node000004" class="node">
<title>Node4</title>
<g id="a_Node000004"><a xlink:href="../../df/d2d/classNookpostBackend_1_1Configuration_1_1Settings.html#a746e745f21cd6a9165a77428593e3e90" target="_top" xlink:title="Save settings to the settings.json file.">
<polygon fill="white" stroke="#666666" points="388,-47.87 212,-47.87 212,-17.87 388,-17.87 388,-47.87"/>
<text text-anchor="start" x="220" y="-35.87" font-family="Helvetica,sans-Serif" font-size="10.00">NookpostBackend.Configuration.</text>
<text text-anchor="middle" x="300" y="-24.87" font-family="Helvetica,sans-Serif" font-size="10.00">Settings.SaveSettings</text>
</a>
</g>
</g>
<!-- Node1&#45;&gt;Node4 -->
<g id="edge5_Node000001_Node000004" class="edge">
<title>Node1&#45;&gt;Node4</title>
<g id="a_edge5_Node000001_Node000004"><a xlink:title=" ">
<path fill="none" stroke="#63b8ff" d="M176.23,-46.9C184.66,-45.94 193.24,-44.96 201.75,-43.99"/>
<polygon fill="#63b8ff" stroke="#63b8ff" points="202.16,-47.46 211.7,-42.85 201.37,-40.51 202.16,-47.46"/>
</a>
</g>
</g>
<!-- Node2&#45;&gt;Node1 -->
<g id="edge4_Node000002_Node000001" class="edge">
<title>Node2&#45;&gt;Node1</title>
<g id="a_edge4_Node000002_Node000001"><a xlink:title=" ">
<path fill="none" stroke="#63b8ff" d="M211.7,-77.56C199.1,-76.24 186.14,-74.75 173.59,-73.17"/>
<polygon fill="#63b8ff" stroke="#63b8ff" points="173.99,-69.7 163.63,-71.89 173.1,-76.64 173.99,-69.7"/>
</a>
</g>
</g>
<!-- Node3 -->
<g id="Node000003" class="node">
<title>Node3</title>
<g id="a_Node000003"><a xlink:href="../../df/d2d/classNookpostBackend_1_1Configuration_1_1Settings.html#aeb5be3c202c4088a8e05b2d0b721da60" target="_top" xlink:title=" ">
<polygon fill="white" stroke="#666666" points="600,-49.87 424,-49.87 424,-19.87 600,-19.87 600,-49.87"/>
<text text-anchor="start" x="432" y="-37.87" font-family="Helvetica,sans-Serif" font-size="10.00">NookpostBackend.Configuration.</text>
<text text-anchor="middle" x="512" y="-26.87" font-family="Helvetica,sans-Serif" font-size="10.00">Settings.isSettingsIntegrityOk</text>
</a>
</g>
</g>
<!-- Node2&#45;&gt;Node3 -->
<g id="edge2_Node000002_Node000003" class="edge">
<title>Node2&#45;&gt;Node3</title>
<g id="a_edge2_Node000002_Node000003"><a xlink:title=" ">
<path fill="none" stroke="#63b8ff" d="M369.76,-65.81C389.81,-61.42 411.86,-56.59 432.46,-52.07"/>
<polygon fill="#63b8ff" stroke="#63b8ff" points="433.42,-55.45 442.44,-49.89 431.93,-48.61 433.42,-55.45"/>
</a>
</g>
</g>
<!-- Node3&#45;&gt;Node1 -->
<g id="edge3_Node000003_Node000001" class="edge">
<title>Node3&#45;&gt;Node1</title>
<g id="a_edge3_Node000003_Node000001"><a xlink:title=" ">
<path fill="none" stroke="#63b8ff" d="M452.27,-19.86C432.05,-15.38 409.17,-11.08 388,-8.87 310.2,-0.74 288.87,5.6 212,-8.87 182.7,-14.39 151.42,-26.69 127.73,-37.46"/>
<polygon fill="#63b8ff" stroke="#63b8ff" points="125.99,-34.41 118.4,-41.8 128.94,-40.76 125.99,-34.41"/>
</a>
</g>
</g>
</g>
</svg>
