<?xml version="1.0" encoding="UTF-8" standalone="no"?>
<!DOCTYPE svg PUBLIC "-//W3C//DTD SVG 1.1//EN"
 "http://www.w3.org/Graphics/SVG/1.1/DTD/svg11.dtd">
<!-- Generated by graphviz version 2.43.0 (0)
 -->
<!-- Title: NookpostBackend.ApiSchemas.Posts.PostData Pages: 1 -->
<svg width="631pt" height="239pt"
 viewBox="0.00 0.00 631.00 239.00" xmlns="http://www.w3.org/2000/svg" xmlns:xlink="http://www.w3.org/1999/xlink">
<g id="graph0" class="graph" transform="scale(1 1) rotate(0) translate(4 235)">
<title>NookpostBackend.ApiSchemas.Posts.PostData</title>
<!-- Node1 -->
<g id="Node000001" class="node">
<title>Node1</title>
<g id="a_Node000001"><a xlink:title="Represents a post created by a user.">
<polygon fill="#999999" stroke="transparent" points="398.5,-231 234.5,-231 234.5,-141 398.5,-141 398.5,-231"/>
<text text-anchor="start" x="239.5" y="-219" font-family="Helvetica,sans-Serif" font-size="10.00">NookpostBackend.ApiSchemas.</text>
<text text-anchor="start" x="279.5" y="-208" font-family="Helvetica,sans-Serif" font-size="10.00">Posts.PostData</text>
<text text-anchor="start" x="248.5" y="-193" font-family="Helvetica,sans-Serif" font-size="10.00">+</text>
<text text-anchor="start" x="271.5" y="-193" font-family="Helvetica,sans-Serif" font-size="10.00">string? Title</text>
<text text-anchor="start" x="248.5" y="-178" font-family="Helvetica,sans-Serif" font-size="10.00">+</text>
<text text-anchor="start" x="271.5" y="-178" font-family="Helvetica,sans-Serif" font-size="10.00">string? Body</text>
<text text-anchor="start" x="248.5" y="-163" font-family="Helvetica,sans-Serif" font-size="10.00">+</text>
<text text-anchor="start" x="271.5" y="-163" font-family="Helvetica,sans-Serif" font-size="10.00">string? CategoryUuid</text>
<text text-anchor="start" x="314.5" y="-148" font-family="Helvetica,sans-Serif" font-size="10.00"> </text>
<polygon fill="#666666" stroke="#666666" points="234.5,-203 234.5,-203 398.5,-203 398.5,-203 234.5,-203"/>
<polygon fill="#666666" stroke="#666666" points="234.5,-158 234.5,-158 269.5,-158 269.5,-158 234.5,-158"/>
<polygon fill="#666666" stroke="#666666" points="269.5,-158 269.5,-158 398.5,-158 398.5,-158 269.5,-158"/>
<polygon fill="none" stroke="#666666" points="234.5,-141 234.5,-231 398.5,-231 398.5,-141 234.5,-141"/>
</a>
</g>
</g>
<!-- Node2 -->
<g id="Node000002" class="node">
<title>Node2</title>
<g id="a_Node000002"><a xlink:href="../../d6/db5/classNookpostBackend_1_1ApiSchemas_1_1Posts_1_1GetPost_1_1GetPostResponseBody.html" target="_top" xlink:title="Response to a post get request.">
<polygon fill="white" stroke="transparent" points="191,-105 0,-105 0,0 191,0 191,-105"/>
<text text-anchor="start" x="5.5" y="-92.5" font-family="Helvetica,sans-Serif" font-size="10.00">NookpostBackend.ApiSchemas.</text>
<text text-anchor="start" x="5.5" y="-81.5" font-family="Helvetica,sans-Serif" font-size="10.00">Posts.GetPost.GetPostResponseBody</text>
<text text-anchor="start" x="17" y="-66.5" font-family="Helvetica,sans-Serif" font-size="10.00">+</text>
<text text-anchor="start" x="42.5" y="-66.5" font-family="Helvetica,sans-Serif" font-size="10.00">string? Uuid</text>
<text text-anchor="start" x="17" y="-51.5" font-family="Helvetica,sans-Serif" font-size="10.00">+</text>
<text text-anchor="start" x="42.5" y="-51.5" font-family="Helvetica,sans-Serif" font-size="10.00">string? AuthorUsername</text>
<text text-anchor="start" x="17" y="-36.5" font-family="Helvetica,sans-Serif" font-size="10.00">+</text>
<text text-anchor="start" x="42.5" y="-36.5" font-family="Helvetica,sans-Serif" font-size="10.00">long ModifiedOn</text>
<text text-anchor="start" x="17" y="-21.5" font-family="Helvetica,sans-Serif" font-size="10.00">+</text>
<text text-anchor="start" x="42.5" y="-21.5" font-family="Helvetica,sans-Serif" font-size="10.00">long CreatedOn</text>
<text text-anchor="start" x="94" y="-6.5" font-family="Helvetica,sans-Serif" font-size="10.00"> </text>
<polygon fill="#666666" stroke="#666666" points="0.5,-76.5 0.5,-76.5 191.5,-76.5 191.5,-76.5 0.5,-76.5"/>
<polygon fill="#666666" stroke="#666666" points="0.5,-16.5 0.5,-16.5 40.5,-16.5 40.5,-16.5 0.5,-16.5"/>
<polygon fill="#666666" stroke="#666666" points="40.5,-16.5 40.5,-16.5 191.5,-16.5 191.5,-16.5 40.5,-16.5"/>
<polygon fill="none" stroke="#666666" points="0,0 0,-105 191,-105 191,0 0,0"/>
</a>
</g>
</g>
<!-- Node1&#45;&gt;Node2 -->
<g id="edge1_Node000001_Node000002" class="edge">
<title>Node1&#45;&gt;Node2</title>
<g id="a_edge1_Node000001_Node000002"><a xlink:title=" ">
<path fill="none" stroke="#63b8ff" d="M233.59,-135.67C216.78,-125.67 199.06,-115.12 182.12,-105.04"/>
<polygon fill="none" stroke="#63b8ff" points="231.91,-138.74 242.3,-140.85 235.49,-132.73 231.91,-138.74"/>
</a>
</g>
</g>
<!-- Node3 -->
<g id="Node000003" class="node">
<title>Node3</title>
<g id="a_Node000003"><a xlink:href="../../d0/d1f/classNookpostBackend_1_1ApiSchemas_1_1Posts_1_1GetPostFiltered_1_1GetPostFilteredPost.html" target="_top" xlink:title="Response to a post get request.">
<polygon fill="white" stroke="transparent" points="423.5,-105 209.5,-105 209.5,0 423.5,0 423.5,-105"/>
<text text-anchor="start" x="214.5" y="-92.5" font-family="Helvetica,sans-Serif" font-size="10.00">NookpostBackend.ApiSchemas.</text>
<text text-anchor="start" x="214.5" y="-81.5" font-family="Helvetica,sans-Serif" font-size="10.00">Posts.GetPostFiltered.GetPostFilteredPost</text>
<text text-anchor="start" x="232" y="-66.5" font-family="Helvetica,sans-Serif" font-size="10.00">+</text>
<text text-anchor="start" x="263.5" y="-66.5" font-family="Helvetica,sans-Serif" font-size="10.00">string? Uuid</text>
<text text-anchor="start" x="232" y="-51.5" font-family="Helvetica,sans-Serif" font-size="10.00">+</text>
<text text-anchor="start" x="263.5" y="-51.5" font-family="Helvetica,sans-Serif" font-size="10.00">string? AuthorUsername</text>
<text text-anchor="start" x="232" y="-36.5" font-family="Helvetica,sans-Serif" font-size="10.00">+</text>
<text text-anchor="start" x="263.5" y="-36.5" font-family="Helvetica,sans-Serif" font-size="10.00">long ModifiedOn</text>
<text text-anchor="start" x="232" y="-21.5" font-family="Helvetica,sans-Serif" font-size="10.00">+</text>
<text text-anchor="start" x="263.5" y="-21.5" font-family="Helvetica,sans-Serif" font-size="10.00">long CreatedOn</text>
<text text-anchor="start" x="314.5" y="-6.5" font-family="Helvetica,sans-Serif" font-size="10.00"> </text>
<polygon fill="#666666" stroke="#666666" points="209.5,-76.5 209.5,-76.5 423.5,-76.5 423.5,-76.5 209.5,-76.5"/>
<polygon fill="#666666" stroke="#666666" points="209.5,-16.5 209.5,-16.5 261.5,-16.5 261.5,-16.5 209.5,-16.5"/>
<polygon fill="#666666" stroke="#666666" points="261.5,-16.5 261.5,-16.5 423.5,-16.5 423.5,-16.5 261.5,-16.5"/>
<polygon fill="none" stroke="#666666" points="209.5,0 209.5,-105 423.5,-105 423.5,0 209.5,0"/>
</a>
</g>
</g>
<!-- Node1&#45;&gt;Node3 -->
<g id="edge2_Node000001_Node000003" class="edge">
<title>Node1&#45;&gt;Node3</title>
<g id="a_edge2_Node000001_Node000003"><a xlink:title=" ">
<path fill="none" stroke="#63b8ff" d="M316.5,-130.67C316.5,-122.19 316.5,-113.45 316.5,-105.04"/>
<polygon fill="none" stroke="#63b8ff" points="313,-130.85 316.5,-140.85 320,-130.85 313,-130.85"/>
</a>
</g>
</g>
<!-- Node4 -->
<g id="Node000004" class="node">
<title>Node4</title>
<g id="a_Node000004"><a xlink:href="../../d1/d89/classNookpostBackend_1_1ApiSchemas_1_1Posts_1_1PutPost_1_1PutPostRequestBody.html" target="_top" xlink:title="Response to a post get request.">
<polygon fill="white" stroke="transparent" points="623,-82.5 442,-82.5 442,-22.5 623,-22.5 623,-82.5"/>
<text text-anchor="start" x="447.5" y="-70.5" font-family="Helvetica,sans-Serif" font-size="10.00">NookpostBackend.ApiSchemas.</text>
<text text-anchor="start" x="447.5" y="-59.5" font-family="Helvetica,sans-Serif" font-size="10.00">Posts.PutPost.PutPostRequestBody</text>
<text text-anchor="start" x="471.5" y="-44.5" font-family="Helvetica,sans-Serif" font-size="10.00">+</text>
<text text-anchor="start" x="509.5" y="-44.5" font-family="Helvetica,sans-Serif" font-size="10.00">string? Uuid</text>
<text text-anchor="start" x="531" y="-29.5" font-family="Helvetica,sans-Serif" font-size="10.00"> </text>
<polygon fill="#666666" stroke="#666666" points="442.5,-54.5 442.5,-54.5 623.5,-54.5 623.5,-54.5 442.5,-54.5"/>
<polygon fill="#666666" stroke="#666666" points="442.5,-39.5 442.5,-39.5 507.5,-39.5 507.5,-39.5 442.5,-39.5"/>
<polygon fill="#666666" stroke="#666666" points="507.5,-39.5 507.5,-39.5 623.5,-39.5 623.5,-39.5 507.5,-39.5"/>
<polygon fill="none" stroke="#666666" points="442,-22.5 442,-82.5 623,-82.5 623,-22.5 442,-22.5"/>
</a>
</g>
</g>
<!-- Node1&#45;&gt;Node4 -->
<g id="edge3_Node000001_Node000004" class="edge">
<title>Node1&#45;&gt;Node4</title>
<g id="a_edge3_Node000001_Node000004"><a xlink:title=" ">
<path fill="none" stroke="#63b8ff" d="M397.62,-135.62C426.93,-117.77 459.07,-98.2 484.62,-82.65"/>
<polygon fill="none" stroke="#63b8ff" points="395.75,-132.66 389.03,-140.85 399.39,-138.64 395.75,-132.66"/>
</a>
</g>
</g>
</g>
</svg>
