<?xml version="1.0" encoding="UTF-8" standalone="no"?>
<!DOCTYPE svg PUBLIC "-//W3C//DTD SVG 1.1//EN"
 "http://www.w3.org/Graphics/SVG/1.1/DTD/svg11.dtd">
<!-- Generated by graphviz version 2.43.0 (0)
 -->
<!-- Title: NookpostBackend.ApiSchemas.Posts.PostData Pages: 1 -->
<svg width="495pt" height="350pt"
 viewBox="0.00 0.00 495.00 350.00" xmlns="http://www.w3.org/2000/svg" xmlns:xlink="http://www.w3.org/1999/xlink">

<svg id="main" version="1.1" xmlns="http://www.w3.org/2000/svg" xmlns:xlink="http://www.w3.org/1999/xlink" xml:space="preserve">

<style type="text/css"><![CDATA[
.node, .edge {opacity: 0.7;}
.node.selected, .edge.selected {opacity: 1;}
.edge:hover path { stroke: red; }
.edge:hover polygon { stroke: red; fill: red; }
]]></style>
<script type="application/ecmascript" xlink:href="../../svg.min.js"/>
<svg id="graph" class="graph">
<g id="graph0" class="graph" transform="scale(1 1) rotate(0) translate(4 346)">
<title>NookpostBackend.ApiSchemas.Posts.PostData</title>
<!-- Node1 -->
<g id="Node000001" class="node">
<title>Node1</title>
<g id="a_Node000001"><a xlink:title="Represents a post created by a user.">
<polygon fill="#999999" stroke="transparent" points="382.5,-342 218.5,-342 218.5,-237 382.5,-237 382.5,-342"/>
<text text-anchor="start" x="223.5" y="-329.5" font-family="Helvetica,sans-Serif" font-size="10.00">NookpostBackend.ApiSchemas.</text>
<text text-anchor="start" x="263.5" y="-318.5" font-family="Helvetica,sans-Serif" font-size="10.00">Posts.PostData</text>
<text text-anchor="start" x="223.5" y="-303.5" font-family="Helvetica,sans-Serif" font-size="10.00">+</text>
<text text-anchor="start" x="237.5" y="-303.5" font-family="Helvetica,sans-Serif" font-size="10.00">string? Title</text>
<text text-anchor="start" x="223.5" y="-288.5" font-family="Helvetica,sans-Serif" font-size="10.00">+</text>
<text text-anchor="start" x="237.5" y="-288.5" font-family="Helvetica,sans-Serif" font-size="10.00">string? Body</text>
<text text-anchor="start" x="223.5" y="-273.5" font-family="Helvetica,sans-Serif" font-size="10.00">+</text>
<text text-anchor="start" x="237.5" y="-273.5" font-family="Helvetica,sans-Serif" font-size="10.00">string? BannerImageBase64</text>
<text text-anchor="start" x="223.5" y="-258.5" font-family="Helvetica,sans-Serif" font-size="10.00">+</text>
<text text-anchor="start" x="237.5" y="-258.5" font-family="Helvetica,sans-Serif" font-size="10.00">string? CategoryUuid</text>
<text text-anchor="start" x="298.5" y="-243.5" font-family="Helvetica,sans-Serif" font-size="10.00"> </text>
<polygon fill="#666666" stroke="#666666" points="218.5,-313.5 218.5,-313.5 382.5,-313.5 382.5,-313.5 218.5,-313.5"/>
<polygon fill="#666666" stroke="#666666" points="218.5,-253.5 218.5,-253.5 235.5,-253.5 235.5,-253.5 218.5,-253.5"/>
<polygon fill="#666666" stroke="#666666" points="235.5,-253.5 235.5,-253.5 382.5,-253.5 382.5,-253.5 235.5,-253.5"/>
<polygon fill="none" stroke="#666666" points="218.5,-237 218.5,-342 382.5,-342 382.5,-237 218.5,-237"/>
</a>
</g>
</g>
<!-- Node2 -->
<g id="Node000002" class="node">
<title>Node2</title>
<g id="a_Node000002"><a xlink:href="../../d8/d95/classNookpostBackend_1_1ApiSchemas_1_1Posts_1_1PostGetData.html" target="_top" xlink:title="Common data for a psot get response.">
<polygon fill="white" stroke="transparent" points="287.5,-201 123.5,-201 123.5,-141 287.5,-141 287.5,-201"/>
<text text-anchor="start" x="128.5" y="-189" font-family="Helvetica,sans-Serif" font-size="10.00">NookpostBackend.ApiSchemas.</text>
<text text-anchor="start" x="160" y="-178" font-family="Helvetica,sans-Serif" font-size="10.00">Posts.PostGetData</text>
<text text-anchor="start" x="129.5" y="-163" font-family="Helvetica,sans-Serif" font-size="10.00">+</text>
<text text-anchor="start" x="144.5" y="-163" font-family="Helvetica,sans-Serif" font-size="10.00">string? AuthorDisplayName</text>
<text text-anchor="start" x="203.5" y="-148" font-family="Helvetica,sans-Serif" font-size="10.00"> </text>
<polygon fill="#666666" stroke="#666666" points="123.5,-173 123.5,-173 287.5,-173 287.5,-173 123.5,-173"/>
<polygon fill="#666666" stroke="#666666" points="123.5,-158 123.5,-158 142.5,-158 142.5,-158 123.5,-158"/>
<polygon fill="#666666" stroke="#666666" points="142.5,-158 142.5,-158 287.5,-158 287.5,-158 142.5,-158"/>
<polygon fill="none" stroke="#666666" points="123.5,-141 123.5,-201 287.5,-201 287.5,-141 123.5,-141"/>
</a>
</g>
</g>
<!-- Node1&#45;&gt;Node2 -->
<g id="edge1_Node000001_Node000002" class="edge">
<title>Node1&#45;&gt;Node2</title>
<g id="a_edge1_Node000001_Node000002"><a xlink:title=" ">
<path fill="none" stroke="#63b8ff" d="M251.75,-228.71C243.96,-219.17 236.23,-209.68 229.37,-201.27"/>
<polygon fill="none" stroke="#63b8ff" points="249.25,-231.18 258.28,-236.72 254.67,-226.76 249.25,-231.18"/>
</a>
</g>
</g>
<!-- Node5 -->
<g id="Node000005" class="node">
<title>Node5</title>
<g id="a_Node000005"><a xlink:href="../../d1/d89/classNookpostBackend_1_1ApiSchemas_1_1Posts_1_1PutPost_1_1PutPostRequestBody.html" target="_top" xlink:title="Response to a post get request.">
<polygon fill="white" stroke="transparent" points="487,-201 306,-201 306,-141 487,-141 487,-201"/>
<text text-anchor="start" x="311.5" y="-189" font-family="Helvetica,sans-Serif" font-size="10.00">NookpostBackend.ApiSchemas.</text>
<text text-anchor="start" x="311.5" y="-178" font-family="Helvetica,sans-Serif" font-size="10.00">Posts.PutPost.PutPostRequestBody</text>
<text text-anchor="start" x="335.5" y="-163" font-family="Helvetica,sans-Serif" font-size="10.00">+</text>
<text text-anchor="start" x="373.5" y="-163" font-family="Helvetica,sans-Serif" font-size="10.00">string? Uuid</text>
<text text-anchor="start" x="395" y="-148" font-family="Helvetica,sans-Serif" font-size="10.00"> </text>
<polygon fill="#666666" stroke="#666666" points="306.5,-173 306.5,-173 487.5,-173 487.5,-173 306.5,-173"/>
<polygon fill="#666666" stroke="#666666" points="306.5,-158 306.5,-158 371.5,-158 371.5,-158 306.5,-158"/>
<polygon fill="#666666" stroke="#666666" points="371.5,-158 371.5,-158 487.5,-158 487.5,-158 371.5,-158"/>
<polygon fill="none" stroke="#666666" points="306,-141 306,-201 487,-201 487,-141 306,-141"/>
</a>
</g>
</g>
<!-- Node1&#45;&gt;Node5 -->
<g id="edge4_Node000001_Node000005" class="edge">
<title>Node1&#45;&gt;Node5</title>
<g id="a_edge4_Node000001_Node000005"><a xlink:title=" ">
<path fill="none" stroke="#63b8ff" d="M349.53,-229C357.47,-219.36 365.38,-209.76 372.38,-201.27"/>
<polygon fill="none" stroke="#63b8ff" points="346.82,-226.78 343.17,-236.72 352.23,-231.23 346.82,-226.78"/>
</a>
</g>
</g>
<!-- Node3 -->
<g id="Node000003" class="node">
<title>Node3</title>
<g id="a_Node000003"><a xlink:href="../../d6/db5/classNookpostBackend_1_1ApiSchemas_1_1Posts_1_1GetPost_1_1GetPostResponseBody.html" target="_top" xlink:title="Response to a post get request.">
<polygon fill="white" stroke="transparent" points="191,-105 0,-105 0,0 191,0 191,-105"/>
<text text-anchor="start" x="5.5" y="-92.5" font-family="Helvetica,sans-Serif" font-size="10.00">NookpostBackend.ApiSchemas.</text>
<text text-anchor="start" x="5.5" y="-81.5" font-family="Helvetica,sans-Serif" font-size="10.00">Posts.GetPost.GetPostResponseBody</text>
<text text-anchor="start" x="17" y="-66.5" font-family="Helvetica,sans-Serif" font-size="10.00">+</text>
<text text-anchor="start" x="42.5" y="-66.5" font-family="Helvetica,sans-Serif" font-size="10.00">string? Uuid</text>
<text text-anchor="start" x="17" y="-51.5" font-family="Helvetica,sans-Serif" font-size="10.00">+</text>
<text text-anchor="start" x="42.5" y="-51.5" font-family="Helvetica,sans-Serif" font-size="10.00">string? AuthorUsername</text>
<text text-anchor="start" x="17" y="-36.5" font-family="Helvetica,sans-Serif" font-size="10.00">+</text>
<text text-anchor="start" x="42.5" y="-36.5" font-family="Helvetica,sans-Serif" font-size="10.00">long ModifiedOn</text>
<text text-anchor="start" x="17" y="-21.5" font-family="Helvetica,sans-Serif" font-size="10.00">+</text>
<text text-anchor="start" x="42.5" y="-21.5" font-family="Helvetica,sans-Serif" font-size="10.00">long CreatedOn</text>
<text text-anchor="start" x="94" y="-6.5" font-family="Helvetica,sans-Serif" font-size="10.00"> </text>
<polygon fill="#666666" stroke="#666666" points="0.5,-76.5 0.5,-76.5 191.5,-76.5 191.5,-76.5 0.5,-76.5"/>
<polygon fill="#666666" stroke="#666666" points="0.5,-16.5 0.5,-16.5 40.5,-16.5 40.5,-16.5 0.5,-16.5"/>
<polygon fill="#666666" stroke="#666666" points="40.5,-16.5 40.5,-16.5 191.5,-16.5 191.5,-16.5 40.5,-16.5"/>
<polygon fill="none" stroke="#666666" points="0,0 0,-105 191,-105 191,0 0,0"/>
</a>
</g>
</g>
<!-- Node2&#45;&gt;Node3 -->
<g id="edge2_Node000002_Node000003" class="edge">
<title>Node2&#45;&gt;Node3</title>
<g id="a_edge2_Node000002_Node000003"><a xlink:title=" ">
<path fill="none" stroke="#63b8ff" d="M171.12,-133.59C162.67,-124.63 153.45,-114.87 144.45,-105.34"/>
<polygon fill="none" stroke="#63b8ff" points="168.62,-136.03 178.03,-140.9 173.71,-131.23 168.62,-136.03"/>
</a>
</g>
</g>
<!-- Node4 -->
<g id="Node000004" class="node">
<title>Node4</title>
<g id="a_Node000004"><a xlink:href="../../d0/d1f/classNookpostBackend_1_1ApiSchemas_1_1Posts_1_1GetPostFiltered_1_1GetPostFilteredPost.html" target="_top" xlink:title="Response to a post get request.">
<polygon fill="white" stroke="transparent" points="423.5,-105 209.5,-105 209.5,0 423.5,0 423.5,-105"/>
<text text-anchor="start" x="214.5" y="-92.5" font-family="Helvetica,sans-Serif" font-size="10.00">NookpostBackend.ApiSchemas.</text>
<text text-anchor="start" x="214.5" y="-81.5" font-family="Helvetica,sans-Serif" font-size="10.00">Posts.GetPostFiltered.GetPostFilteredPost</text>
<text text-anchor="start" x="232" y="-66.5" font-family="Helvetica,sans-Serif" font-size="10.00">+</text>
<text text-anchor="start" x="263.5" y="-66.5" font-family="Helvetica,sans-Serif" font-size="10.00">string? Uuid</text>
<text text-anchor="start" x="232" y="-51.5" font-family="Helvetica,sans-Serif" font-size="10.00">+</text>
<text text-anchor="start" x="263.5" y="-51.5" font-family="Helvetica,sans-Serif" font-size="10.00">string? AuthorUsername</text>
<text text-anchor="start" x="232" y="-36.5" font-family="Helvetica,sans-Serif" font-size="10.00">+</text>
<text text-anchor="start" x="263.5" y="-36.5" font-family="Helvetica,sans-Serif" font-size="10.00">long ModifiedOn</text>
<text text-anchor="start" x="232" y="-21.5" font-family="Helvetica,sans-Serif" font-size="10.00">+</text>
<text text-anchor="start" x="263.5" y="-21.5" font-family="Helvetica,sans-Serif" font-size="10.00">long CreatedOn</text>
<text text-anchor="start" x="314.5" y="-6.5" font-family="Helvetica,sans-Serif" font-size="10.00"> </text>
<polygon fill="#666666" stroke="#666666" points="209.5,-76.5 209.5,-76.5 423.5,-76.5 423.5,-76.5 209.5,-76.5"/>
<polygon fill="#666666" stroke="#666666" points="209.5,-16.5 209.5,-16.5 261.5,-16.5 261.5,-16.5 209.5,-16.5"/>
<polygon fill="#666666" stroke="#666666" points="261.5,-16.5 261.5,-16.5 423.5,-16.5 423.5,-16.5 261.5,-16.5"/>
<polygon fill="none" stroke="#666666" points="209.5,0 209.5,-105 423.5,-105 423.5,0 209.5,0"/>
</a>
</g>
</g>
<!-- Node2&#45;&gt;Node4 -->
<g id="edge3_Node000002_Node000004" class="edge">
<title>Node2&#45;&gt;Node4</title>
<g id="a_edge3_Node000002_Node000004"><a xlink:title=" ">
<path fill="none" stroke="#63b8ff" d="M240.19,-133.59C248.72,-124.63 258.03,-114.87 267.11,-105.34"/>
<polygon fill="none" stroke="#63b8ff" points="237.59,-131.25 233.22,-140.9 242.66,-136.08 237.59,-131.25"/>
</a>
</g>
</g>
</g>
</svg>
</svg>

<style type='text/css'>
<![CDATA[
[data-mouse-over-selected='false'] { opacity: 0.7; }
[data-mouse-over-selected='true']  { opacity: 1.0; }
]]>
</style>
<script type="application/ecmascript"><![CDATA[
document.addEventListener('DOMContentLoaded', (event) => {
  highlightEdges();
  highlightAdjacentNodes();
});
]]></script>
</svg>
