<?xml version="1.0" encoding="UTF-8" standalone="no"?>
<!DOCTYPE svg PUBLIC "-//W3C//DTD SVG 1.1//EN"
 "http://www.w3.org/Graphics/SVG/1.1/DTD/svg11.dtd">
<!-- Generated by graphviz version 2.43.0 (0)
 -->
<!-- Title: NookpostBackend.ApiSchemas.Posts.PutPost.PutPostRequestBody Pages: 1 -->
<svg width="189pt" height="194pt"
 viewBox="0.00 0.00 189.00 194.00" xmlns="http://www.w3.org/2000/svg" xmlns:xlink="http://www.w3.org/1999/xlink">

<svg id="main" version="1.1" xmlns="http://www.w3.org/2000/svg" xmlns:xlink="http://www.w3.org/1999/xlink" xml:space="preserve">

<style type="text/css"><![CDATA[
.node, .edge {opacity: 0.7;}
.node.selected, .edge.selected {opacity: 1;}
.edge:hover path { stroke: red; }
.edge:hover polygon { stroke: red; fill: red; }
]]></style>
<script type="application/ecmascript" xlink:href="../../svg.min.js"/>
<svg id="graph" class="graph">
<g id="graph0" class="graph" transform="scale(1 1) rotate(0) translate(4 190)">
<title>NookpostBackend.ApiSchemas.Posts.PutPost.PutPostRequestBody</title>
<!-- Node1 -->
<g id="Node000001" class="node">
<title>Node1</title>
<g id="a_Node000001"><a xlink:title="Response to a post get request.">
<polygon fill="#999999" stroke="transparent" points="181,-60 0,-60 0,0 181,0 181,-60"/>
<text text-anchor="start" x="5.5" y="-48" font-family="Helvetica,sans-Serif" font-size="10.00">NookpostBackend.ApiSchemas.</text>
<text text-anchor="start" x="5.5" y="-37" font-family="Helvetica,sans-Serif" font-size="10.00">Posts.PutPost.PutPostRequestBody</text>
<text text-anchor="start" x="29.5" y="-22" font-family="Helvetica,sans-Serif" font-size="10.00">+</text>
<text text-anchor="start" x="67.5" y="-22" font-family="Helvetica,sans-Serif" font-size="10.00">string? Uuid</text>
<text text-anchor="start" x="89" y="-7" font-family="Helvetica,sans-Serif" font-size="10.00"> </text>
<polygon fill="#666666" stroke="#666666" points="0.5,-32 0.5,-32 181.5,-32 181.5,-32 0.5,-32"/>
<polygon fill="#666666" stroke="#666666" points="0.5,-17 0.5,-17 65.5,-17 65.5,-17 0.5,-17"/>
<polygon fill="#666666" stroke="#666666" points="65.5,-17 65.5,-17 181.5,-17 181.5,-17 65.5,-17"/>
<polygon fill="none" stroke="#666666" points="0,0 0,-60 181,-60 181,0 0,0"/>
</a>
</g>
</g>
<!-- Node2 -->
<g id="Node000002" class="node">
<title>Node2</title>
<g id="a_Node000002"><a xlink:href="../../d4/d64/classNookpostBackend_1_1ApiSchemas_1_1Posts_1_1PostData.html" target="_top" xlink:title="Represents a post created by a user.">
<polygon fill="white" stroke="transparent" points="172.5,-186 8.5,-186 8.5,-96 172.5,-96 172.5,-186"/>
<text text-anchor="start" x="13.5" y="-174" font-family="Helvetica,sans-Serif" font-size="10.00">NookpostBackend.ApiSchemas.</text>
<text text-anchor="start" x="53.5" y="-163" font-family="Helvetica,sans-Serif" font-size="10.00">Posts.PostData</text>
<text text-anchor="start" x="22.5" y="-148" font-family="Helvetica,sans-Serif" font-size="10.00">+</text>
<text text-anchor="start" x="45.5" y="-148" font-family="Helvetica,sans-Serif" font-size="10.00">string? Title</text>
<text text-anchor="start" x="22.5" y="-133" font-family="Helvetica,sans-Serif" font-size="10.00">+</text>
<text text-anchor="start" x="45.5" y="-133" font-family="Helvetica,sans-Serif" font-size="10.00">string? Body</text>
<text text-anchor="start" x="22.5" y="-118" font-family="Helvetica,sans-Serif" font-size="10.00">+</text>
<text text-anchor="start" x="45.5" y="-118" font-family="Helvetica,sans-Serif" font-size="10.00">string? CategoryUuid</text>
<text text-anchor="start" x="88.5" y="-103" font-family="Helvetica,sans-Serif" font-size="10.00"> </text>
<polygon fill="#666666" stroke="#666666" points="8.5,-158 8.5,-158 172.5,-158 172.5,-158 8.5,-158"/>
<polygon fill="#666666" stroke="#666666" points="8.5,-113 8.5,-113 43.5,-113 43.5,-113 8.5,-113"/>
<polygon fill="#666666" stroke="#666666" points="43.5,-113 43.5,-113 172.5,-113 172.5,-113 43.5,-113"/>
<polygon fill="none" stroke="#666666" points="8.5,-96 8.5,-186 172.5,-186 172.5,-96 8.5,-96"/>
</a>
</g>
</g>
<!-- Node2&#45;&gt;Node1 -->
<g id="edge1_Node000001_Node000002" class="edge">
<title>Node2&#45;&gt;Node1</title>
<g id="a_edge1_Node000001_Node000002"><a xlink:title=" ">
<path fill="none" stroke="#63b8ff" d="M90.5,-85.7C90.5,-76.89 90.5,-68.07 90.5,-60.17"/>
<polygon fill="none" stroke="#63b8ff" points="87,-85.98 90.5,-95.98 94,-85.98 87,-85.98"/>
</a>
</g>
</g>
</g>
</svg>
</svg>

<style type='text/css'>
<![CDATA[
[data-mouse-over-selected='false'] { opacity: 0.7; }
[data-mouse-over-selected='true']  { opacity: 1.0; }
]]>
</style>
<script type="application/ecmascript"><![CDATA[
document.addEventListener('DOMContentLoaded', (event) => {
  highlightEdges();
  highlightAdjacentNodes();
});
]]></script>
</svg>
