<?xml version="1.0" encoding="UTF-8" standalone="no"?>
<!DOCTYPE svg PUBLIC "-//W3C//DTD SVG 1.1//EN"
 "http://www.w3.org/Graphics/SVG/1.1/DTD/svg11.dtd">
<!-- Generated by graphviz version 2.43.0 (0)
 -->
<!-- Title: NookpostBackend.ApiEndpoints.Authentication.Login Pages: 1 -->
<svg width="384pt" height="145pt"
 viewBox="0.00 0.00 384.00 145.00" xmlns="http://www.w3.org/2000/svg" xmlns:xlink="http://www.w3.org/1999/xlink">
<g id="graph0" class="graph" transform="scale(1 1) rotate(0) translate(4 141)">
<title>NookpostBackend.ApiEndpoints.Authentication.Login</title>
<!-- Node1 -->
<g id="Node000001" class="node">
<title>Node1</title>
<g id="a_Node000001"><a xlink:title="Handles the authentication login endpoint.">
<polygon fill="#999999" stroke="transparent" points="376,-137 0,-137 0,0 376,0 376,-137"/>
<text text-anchor="start" x="109" y="-124.5" font-family="Helvetica,sans-Serif" font-size="10.00">NookpostBackend.ApiEndpoints.</text>
<text text-anchor="start" x="137.5" y="-113.5" font-family="Helvetica,sans-Serif" font-size="10.00">Authentication.Login</text>
<text text-anchor="start" x="186" y="-98.5" font-family="Helvetica,sans-Serif" font-size="10.00"> </text>
<text text-anchor="start" x="4" y="-83.5" font-family="Helvetica,sans-Serif" font-size="10.00">+</text>
<text text-anchor="start" x="17" y="-83.5" font-family="Helvetica,sans-Serif" font-size="10.00">static Microsoft.AspNetCore.</text>
<text text-anchor="start" x="17" y="-72.5" font-family="Helvetica,sans-Serif" font-size="10.00">Http.HttpResults.Results</text>
<text text-anchor="start" x="17" y="-61.5" font-family="Helvetica,sans-Serif" font-size="10.00">&lt; Ok&lt; NookpostBackend.ApiSchemas.</text>
<text text-anchor="start" x="17" y="-50.5" font-family="Helvetica,sans-Serif" font-size="10.00">Authentication.Login.AuthenticationLogin</text>
<text text-anchor="start" x="17" y="-39.5" font-family="Helvetica,sans-Serif" font-size="10.00">ResponseBody &gt;, NotFound, BadRequest</text>
<text text-anchor="start" x="17" y="-28.5" font-family="Helvetica,sans-Serif" font-size="10.00"> &gt; PostLogin(ApiSchemas.Authentication.Login.Authentication</text>
<text text-anchor="start" x="17" y="-17.5" font-family="Helvetica,sans-Serif" font-size="10.00">LoginRequestBody requestBody, NookpostBackend.Authentication.Token</text>
<text text-anchor="start" x="17" y="-6.5" font-family="Helvetica,sans-Serif" font-size="10.00">Service tokenService, Data.DatabaseHandle databaseHandle)</text>
<polygon fill="#666666" stroke="#666666" points="0,-108.5 0,-108.5 376,-108.5 376,-108.5 0,-108.5"/>
<polygon fill="#666666" stroke="#666666" points="0,-93.5 0,-93.5 376,-93.5 376,-93.5 0,-93.5"/>
<polygon fill="none" stroke="#666666" points="0,0 0,-137 376,-137 376,0 0,0"/>
</a>
</g>
</g>
</g>
</svg>
