<?xml version="1.0" encoding="UTF-8" standalone="no"?>
<!DOCTYPE svg PUBLIC "-//W3C//DTD SVG 1.1//EN"
 "http://www.w3.org/Graphics/SVG/1.1/DTD/svg11.dtd">
<!-- Generated by graphviz version 2.43.0 (0)
 -->
<!-- Title: C Pages: 1 -->
<svg width="166pt" height="249pt"
 viewBox="0.00 0.00 166.22 249.00" xmlns="http://www.w3.org/2000/svg" xmlns:xlink="http://www.w3.org/1999/xlink">

<svg id="main" version="1.1" xmlns="http://www.w3.org/2000/svg" xmlns:xlink="http://www.w3.org/1999/xlink" xml:space="preserve">

<style type="text/css"><![CDATA[
.node, .edge {opacity: 0.7;}
.node.selected, .edge.selected {opacity: 1;}
.edge:hover path { stroke: red; }
.edge:hover polygon { stroke: red; fill: red; }
]]></style>
<script type="application/ecmascript" xlink:href="../../svg.min.js"/>
<svg id="graph" class="graph">
<g id="graph0" class="graph" transform="scale(1 1) rotate(0) translate(4 245)">
<title>C</title>
<!-- Node1 -->
<g id="Node000001" class="node">
<title>Node1</title>
<g id="a_Node000001"><a xlink:title=" ">
<polygon fill="#999999" stroke="transparent" points="47.22,-145 30.22,-145 30.22,-96 47.22,-96 47.22,-145"/>
<text text-anchor="start" x="35.72" y="-132.5" font-family="Helvetica,sans-Serif" font-size="10.00">C</text>
<text text-anchor="start" x="37.22" y="-117.5" font-family="Helvetica,sans-Serif" font-size="10.00"> </text>
<text text-anchor="start" x="37.22" y="-102.5" font-family="Helvetica,sans-Serif" font-size="10.00"> </text>
<polygon fill="#666666" stroke="#666666" points="30.72,-127.5 30.72,-127.5 47.72,-127.5 47.72,-127.5 30.72,-127.5"/>
<polygon fill="#666666" stroke="#666666" points="30.72,-112.5 30.72,-112.5 47.72,-112.5 47.72,-112.5 30.72,-112.5"/>
<polygon fill="none" stroke="#666666" points="30.22,-96 30.22,-145 47.22,-145 47.22,-96 30.22,-96"/>
</a>
</g>
</g>
<!-- Node3 -->
<g id="Node000003" class="node">
<title>Node3</title>
<g id="a_Node000003"><a xlink:href="../../de/d26/classD.html" target="_top" xlink:title=" ">
<polygon fill="white" stroke="transparent" points="71.72,-49 53.72,-49 53.72,0 71.72,0 71.72,-49"/>
<text text-anchor="start" x="58.72" y="-36.5" font-family="Helvetica,sans-Serif" font-size="10.00">D</text>
<text text-anchor="start" x="60.72" y="-21.5" font-family="Helvetica,sans-Serif" font-size="10.00"> </text>
<text text-anchor="start" x="60.72" y="-6.5" font-family="Helvetica,sans-Serif" font-size="10.00"> </text>
<polygon fill="#666666" stroke="#666666" points="53.72,-31.5 53.72,-31.5 71.72,-31.5 71.72,-31.5 53.72,-31.5"/>
<polygon fill="#666666" stroke="#666666" points="53.72,-16.5 53.72,-16.5 71.72,-16.5 71.72,-16.5 53.72,-16.5"/>
<polygon fill="none" stroke="#666666" points="53.72,0 53.72,-49 71.72,-49 71.72,0 53.72,0"/>
</a>
</g>
</g>
<!-- Node1&#45;&gt;Node3 -->
<g id="edge7_Node000003_Node000001" class="edge">
<title>Node1&#45;&gt;Node3</title>
<g id="a_edge7_Node000003_Node000001"><a xlink:title=" ">
<path fill="none" stroke="#63b8ff" d="M29.97,-113.95C16.5,-104.67 -6.83,-85.21 2.72,-67 11.09,-51.04 28.69,-40 42.68,-33.34"/>
<polygon fill="none" stroke="#63b8ff" points="42.69,-33.34 46.63,-27.29 53.72,-28.6 49.78,-34.65 42.69,-33.34"/>
</a>
</g>
<text text-anchor="middle" x="18.72" y="-70" font-family="Helvetica,sans-Serif" font-size="10.00" fill="grey"> +m_c</text>
</g>
<!-- Node2 -->
<g id="Node000002" class="node">
<title>Node2</title>
<g id="a_Node000002"><a xlink:href="../../d2/d88/classA.html" target="_top" xlink:title=" ">
<polygon fill="white" stroke="transparent" points="95.22,-241 78.22,-241 78.22,-192 95.22,-192 95.22,-241"/>
<text text-anchor="start" x="83.72" y="-228.5" font-family="Helvetica,sans-Serif" font-size="10.00">A</text>
<text text-anchor="start" x="85.22" y="-213.5" font-family="Helvetica,sans-Serif" font-size="10.00"> </text>
<text text-anchor="start" x="85.22" y="-198.5" font-family="Helvetica,sans-Serif" font-size="10.00"> </text>
<polygon fill="#666666" stroke="#666666" points="78.72,-223.5 78.72,-223.5 95.72,-223.5 95.72,-223.5 78.72,-223.5"/>
<polygon fill="#666666" stroke="#666666" points="78.72,-208.5 78.72,-208.5 95.72,-208.5 95.72,-208.5 78.72,-208.5"/>
<polygon fill="none" stroke="#666666" points="78.22,-192 78.22,-241 95.22,-241 95.22,-192 78.22,-192"/>
</a>
</g>
</g>
<!-- Node2&#45;&gt;Node1 -->
<g id="edge1_Node000001_Node000002" class="edge">
<title>Node2&#45;&gt;Node1</title>
<g id="a_edge1_Node000001_Node000002"><a xlink:title=" ">
<path fill="none" stroke="#63b8ff" d="M73.5,-189.61C65.11,-173.18 54.51,-152.42 47.22,-138.16"/>
<polygon fill="none" stroke="#63b8ff" points="70.47,-191.38 78.14,-198.69 76.71,-188.2 70.47,-191.38"/>
</a>
</g>
</g>
<!-- Node2&#45;&gt;Node2 -->
<g id="edge2_Node000002_Node000002" class="edge">
<title>Node2&#45;&gt;Node2</title>
<g id="a_edge2_Node000002_Node000002"><a xlink:title=" ">
<path fill="none" stroke="#63b8ff" d="M95.4,-223.65C103.89,-227.6 113.22,-225.22 113.22,-216.5 113.22,-212.14 110.89,-209.36 107.49,-208.17"/>
<polygon fill="none" stroke="#63b8ff" points="107.35,-208.19 101.76,-212.75 95.4,-209.35 100.99,-204.79 107.35,-208.19"/>
</a>
</g>
<text text-anchor="middle" x="135.72" y="-214" font-family="Helvetica,sans-Serif" font-size="10.00" fill="grey"> +m_self</text>
</g>
<!-- Node2&#45;&gt;Node3 -->
<g id="edge4_Node000003_Node000002" class="edge">
<title>Node2&#45;&gt;Node3</title>
<g id="a_edge4_Node000003_Node000002"><a xlink:title=" ">
<path fill="none" stroke="darkgreen" d="M84.92,-181.95C82.98,-151.74 79.25,-106.19 72.72,-67 71.74,-61.15 70.4,-54.91 69.02,-49.08"/>
<polygon fill="none" stroke="darkgreen" points="81.43,-182.19 85.54,-191.96 88.42,-181.77 81.43,-182.19"/>
</a>
</g>
</g>
<!-- Node4 -->
<g id="Node000004" class="node">
<title>Node4</title>
<g id="a_Node000004"><a xlink:href="../../d3/d1a/classB.html" target="_top" xlink:title=" ">
<polygon fill="white" stroke="transparent" points="132.22,-145 115.22,-145 115.22,-96 132.22,-96 132.22,-145"/>
<text text-anchor="start" x="120.72" y="-132.5" font-family="Helvetica,sans-Serif" font-size="10.00">B</text>
<text text-anchor="start" x="122.22" y="-117.5" font-family="Helvetica,sans-Serif" font-size="10.00"> </text>
<text text-anchor="start" x="122.22" y="-102.5" font-family="Helvetica,sans-Serif" font-size="10.00"> </text>
<polygon fill="#666666" stroke="#666666" points="115.72,-127.5 115.72,-127.5 132.72,-127.5 132.72,-127.5 115.72,-127.5"/>
<polygon fill="#666666" stroke="#666666" points="115.72,-112.5 115.72,-112.5 132.72,-112.5 132.72,-112.5 115.72,-112.5"/>
<polygon fill="none" stroke="#666666" points="115.22,-96 115.22,-145 132.22,-145 132.22,-96 115.22,-96"/>
</a>
</g>
</g>
<!-- Node2&#45;&gt;Node4 -->
<g id="edge6_Node000004_Node000002" class="edge">
<title>Node2&#45;&gt;Node4</title>
<g id="a_edge6_Node000004_Node000002"><a xlink:title=" ">
<path fill="none" stroke="#63b8ff" d="M95.3,-193.7C99.88,-182.07 105.6,-167.52 110.71,-154.54"/>
<polygon fill="none" stroke="#63b8ff" points="110.79,-154.35 109.26,-147.3 115.18,-143.18 116.71,-150.23 110.79,-154.35"/>
</a>
</g>
<text text-anchor="middle" x="123.22" y="-166" font-family="Helvetica,sans-Serif" font-size="10.00" fill="grey"> +m_a</text>
</g>
<!-- Node3&#45;&gt;Node1 -->
<g id="edge3_Node000001_Node000003" class="edge">
<title>Node3&#45;&gt;Node1</title>
<g id="a_edge3_Node000001_Node000003"><a xlink:title=" ">
<path fill="none" stroke="#63b8ff" d="M53.51,-38.25C48.38,-46.12 42.5,-56.66 39.72,-67 38.28,-72.34 37.47,-78.11 37.07,-83.79"/>
<polygon fill="none" stroke="#63b8ff" points="37.06,-83.9 40.91,-90 36.76,-95.9 32.91,-89.8 37.06,-83.9"/>
</a>
</g>
<text text-anchor="middle" x="56.22" y="-70" font-family="Helvetica,sans-Serif" font-size="10.00" fill="grey"> +m_d</text>
</g>
<!-- Node4&#45;&gt;Node3 -->
<g id="edge5_Node000003_Node000004" class="edge">
<title>Node4&#45;&gt;Node3</title>
<g id="a_edge5_Node000003_Node000004"><a xlink:title=" ">
<path fill="none" stroke="#8b1a1a" d="M111.2,-86.4C108.15,-79.76 104.62,-72.99 100.72,-67 92.4,-54.23 80.11,-41.61 71.78,-33.7"/>
<polygon fill="none" stroke="#8b1a1a" points="108.13,-88.13 115.32,-95.92 114.56,-85.35 108.13,-88.13"/>
</a>
</g>
</g>
</g>
</svg>
</svg>

<style type='text/css'>
<![CDATA[
[data-mouse-over-selected='false'] { opacity: 0.7; }
[data-mouse-over-selected='true']  { opacity: 1.0; }
]]>
</style>
<script type="application/ecmascript"><![CDATA[
document.addEventListener('DOMContentLoaded', (event) => {
  highlightEdges();
  highlightAdjacentNodes();
});
]]></script>
</svg>
