<?xml version="1.0" encoding="UTF-8" standalone="no"?>
<!DOCTYPE svg PUBLIC "-//W3C//DTD SVG 1.1//EN"
 "http://www.w3.org/Graphics/SVG/1.1/DTD/svg11.dtd">
<!-- Generated by graphviz version 2.43.0 (0)
 -->
<!-- Title: Vehicle Pages: 1 -->
<svg width="192pt" height="301pt"
 viewBox="0.00 0.00 192.00 301.00" xmlns="http://www.w3.org/2000/svg" xmlns:xlink="http://www.w3.org/1999/xlink">

<svg id="main" version="1.1" xmlns="http://www.w3.org/2000/svg" xmlns:xlink="http://www.w3.org/1999/xlink" xml:space="preserve">

<style type="text/css"><![CDATA[
.node, .edge {opacity: 0.7;}
.node.selected, .edge.selected {opacity: 1;}
.edge:hover path { stroke: red; }
.edge:hover polygon { stroke: red; fill: red; }
]]></style>
<script type="application/ecmascript" xlink:href="../../svg.min.js"/>
<svg id="graph" class="graph">
<g id="graph0" class="graph" transform="scale(1 1) rotate(0) translate(4 297)">
<title>Vehicle</title>
<!-- Node1 -->
<g id="Node000001" class="node">
<title>Node1</title>
<g id="a_Node000001"><a xlink:title=" ">
<polygon fill="#999999" stroke="transparent" points="163,-171 20,-171 20,-85 163,-85 163,-171"/>
<text text-anchor="start" x="74" y="-159" font-family="Helvetica,sans-Serif" font-size="10.00">Vehicle</text>
<text text-anchor="start" x="24.5" y="-144" font-family="Helvetica,sans-Serif" font-size="10.00">#</text>
<text text-anchor="start" x="37.5" y="-144" font-family="Helvetica,sans-Serif" font-size="10.00">Object base</text>
<text text-anchor="start" x="24.5" y="-129" font-family="Helvetica,sans-Serif" font-size="10.00">+</text>
<text text-anchor="start" x="37.5" y="-129" font-family="Helvetica,sans-Serif" font-size="10.00">void vehicleStart(Vehicle</text>
<text text-anchor="start" x="37.5" y="-118" font-family="Helvetica,sans-Serif" font-size="10.00"> *obj)</text>
<text text-anchor="start" x="24.5" y="-103" font-family="Helvetica,sans-Serif" font-size="10.00">+</text>
<text text-anchor="start" x="37.5" y="-103" font-family="Helvetica,sans-Serif" font-size="10.00">void vehicleStop(Vehicle</text>
<text text-anchor="start" x="37.5" y="-92" font-family="Helvetica,sans-Serif" font-size="10.00"> *obj)</text>
<polygon fill="#666666" stroke="#666666" points="20.5,-154 20.5,-154 163.5,-154 163.5,-154 20.5,-154"/>
<polygon fill="#666666" stroke="#666666" points="20.5,-139 20.5,-139 35.5,-139 35.5,-139 20.5,-139"/>
<polygon fill="#666666" stroke="#666666" points="35.5,-139 35.5,-139 163.5,-139 163.5,-139 35.5,-139"/>
<polygon fill="none" stroke="#666666" points="20,-85 20,-171 163,-171 163,-85 20,-85"/>
</a>
</g>
</g>
<!-- Node3 -->
<g id="Node000003" class="node">
<title>Node3</title>
<g id="a_Node000003"><a xlink:href="../../dd/d92/structCar.html" target="_top" xlink:title=" ">
<polygon fill="white" stroke="transparent" points="83,-49 0,-49 0,0 83,0 83,-49"/>
<text text-anchor="start" x="33.5" y="-36.5" font-family="Helvetica,sans-Serif" font-size="10.00">Car</text>
<text text-anchor="start" x="4.5" y="-21.5" font-family="Helvetica,sans-Serif" font-size="10.00">#</text>
<text text-anchor="start" x="17.5" y="-21.5" font-family="Helvetica,sans-Serif" font-size="10.00">Vehicle base</text>
<text text-anchor="start" x="40" y="-6.5" font-family="Helvetica,sans-Serif" font-size="10.00"> </text>
<polygon fill="#666666" stroke="#666666" points="0.5,-31.5 0.5,-31.5 83.5,-31.5 83.5,-31.5 0.5,-31.5"/>
<polygon fill="#666666" stroke="#666666" points="0.5,-16.5 0.5,-16.5 15.5,-16.5 15.5,-16.5 0.5,-16.5"/>
<polygon fill="#666666" stroke="#666666" points="15.5,-16.5 15.5,-16.5 83.5,-16.5 83.5,-16.5 15.5,-16.5"/>
<polygon fill="none" stroke="#666666" points="0,0 0,-49 83,-49 83,0 0,0"/>
</a>
</g>
</g>
<!-- Node1&#45;&gt;Node3 -->
<g id="edge2_Node000001_Node000003" class="edge">
<title>Node1&#45;&gt;Node3</title>
<g id="a_edge2_Node000001_Node000003"><a xlink:title=" ">
<path fill="none" stroke="#63b8ff" d="M66.18,-75.6C61.62,-66.34 57.06,-57.1 53.14,-49.12"/>
<polygon fill="none" stroke="#63b8ff" points="63.17,-77.41 70.73,-84.84 69.45,-74.32 63.17,-77.41"/>
</a>
</g>
</g>
<!-- Node4 -->
<g id="Node000004" class="node">
<title>Node4</title>
<g id="a_Node000004"><a xlink:href="../../d7/d01/structTruck.html" target="_top" xlink:title=" ">
<polygon fill="white" stroke="transparent" points="184,-49 101,-49 101,0 184,0 184,-49"/>
<text text-anchor="start" x="130" y="-36.5" font-family="Helvetica,sans-Serif" font-size="10.00">Truck</text>
<text text-anchor="start" x="105.5" y="-21.5" font-family="Helvetica,sans-Serif" font-size="10.00">#</text>
<text text-anchor="start" x="118.5" y="-21.5" font-family="Helvetica,sans-Serif" font-size="10.00">Vehicle base</text>
<text text-anchor="start" x="141" y="-6.5" font-family="Helvetica,sans-Serif" font-size="10.00"> </text>
<polygon fill="#666666" stroke="#666666" points="101.5,-31.5 101.5,-31.5 184.5,-31.5 184.5,-31.5 101.5,-31.5"/>
<polygon fill="#666666" stroke="#666666" points="101.5,-16.5 101.5,-16.5 116.5,-16.5 116.5,-16.5 101.5,-16.5"/>
<polygon fill="#666666" stroke="#666666" points="116.5,-16.5 116.5,-16.5 184.5,-16.5 184.5,-16.5 116.5,-16.5"/>
<polygon fill="none" stroke="#666666" points="101,0 101,-49 184,-49 184,0 101,0"/>
</a>
</g>
</g>
<!-- Node1&#45;&gt;Node4 -->
<g id="edge3_Node000001_Node000004" class="edge">
<title>Node1&#45;&gt;Node4</title>
<g id="a_edge3_Node000001_Node000004"><a xlink:title=" ">
<path fill="none" stroke="#63b8ff" d="M117.18,-75.89C121.88,-66.53 126.58,-57.18 130.63,-49.12"/>
<polygon fill="none" stroke="#63b8ff" points="114.05,-74.33 112.69,-84.84 120.3,-77.47 114.05,-74.33"/>
</a>
</g>
</g>
<!-- Node2 -->
<g id="Node000002" class="node">
<title>Node2</title>
<g id="a_Node000002"><a xlink:href="../../de/de7/structObject.html" target="_top" xlink:title=" ">
<polygon fill="white" stroke="transparent" points="159.5,-293 23.5,-293 23.5,-207 159.5,-207 159.5,-293"/>
<text text-anchor="start" x="75.5" y="-281" font-family="Helvetica,sans-Serif" font-size="10.00">Object</text>
<text text-anchor="start" x="30" y="-266" font-family="Helvetica,sans-Serif" font-size="10.00">&#45;</text>
<text text-anchor="start" x="40.5" y="-266" font-family="Helvetica,sans-Serif" font-size="10.00">int ref</text>
<text text-anchor="start" x="27.5" y="-251" font-family="Helvetica,sans-Serif" font-size="10.00">+</text>
<text text-anchor="start" x="40.5" y="-251" font-family="Helvetica,sans-Serif" font-size="10.00">static Object * objRef</text>
<text text-anchor="start" x="40.5" y="-240" font-family="Helvetica,sans-Serif" font-size="10.00">(Object *obj)</text>
<text text-anchor="start" x="27.5" y="-225" font-family="Helvetica,sans-Serif" font-size="10.00">+</text>
<text text-anchor="start" x="40.5" y="-225" font-family="Helvetica,sans-Serif" font-size="10.00">static Object * objUnref</text>
<text text-anchor="start" x="40.5" y="-214" font-family="Helvetica,sans-Serif" font-size="10.00">(Object *obj)</text>
<polygon fill="#666666" stroke="#666666" points="23.5,-276 23.5,-276 159.5,-276 159.5,-276 23.5,-276"/>
<polygon fill="#666666" stroke="#666666" points="23.5,-261 23.5,-261 38.5,-261 38.5,-261 23.5,-261"/>
<polygon fill="#666666" stroke="#666666" points="38.5,-261 38.5,-261 159.5,-261 159.5,-261 38.5,-261"/>
<polygon fill="none" stroke="#666666" points="23.5,-207 23.5,-293 159.5,-293 159.5,-207 23.5,-207"/>
</a>
</g>
</g>
<!-- Node2&#45;&gt;Node1 -->
<g id="edge1_Node000001_Node000002" class="edge">
<title>Node2&#45;&gt;Node1</title>
<g id="a_edge1_Node000001_Node000002"><a xlink:title=" ">
<path fill="none" stroke="#63b8ff" d="M91.5,-196.55C91.5,-188.12 91.5,-179.49 91.5,-171.33"/>
<polygon fill="none" stroke="#63b8ff" points="88,-196.69 91.5,-206.69 95,-196.69 88,-196.69"/>
</a>
</g>
</g>
</g>
</svg>
</svg>

<style type='text/css'>
<![CDATA[
[data-mouse-over-selected='false'] { opacity: 0.7; }
[data-mouse-over-selected='true']  { opacity: 1.0; }
]]>
</style>
<script type="application/ecmascript"><![CDATA[
document.addEventListener('DOMContentLoaded', (event) => {
  highlightEdges();
  highlightAdjacentNodes();
});
]]></script>
</svg>
