<?xml version="1.0" encoding="UTF-8" standalone="no"?>
<!DOCTYPE svg PUBLIC "-//W3C//DTD SVG 1.1//EN"
 "http://www.w3.org/Graphics/SVG/1.1/DTD/svg11.dtd">
<!-- Generated by graphviz version 2.43.0 (0)
 -->
<!-- Title: NookpostBackend.Data.DatabaseHandle Pages: 1 -->
<svg width="182pt" height="257pt"
 viewBox="0.00 0.00 182.00 257.00" xmlns="http://www.w3.org/2000/svg" xmlns:xlink="http://www.w3.org/1999/xlink">

<svg id="main" version="1.1" xmlns="http://www.w3.org/2000/svg" xmlns:xlink="http://www.w3.org/1999/xlink" xml:space="preserve">

<style type="text/css"><![CDATA[
.node, .edge {opacity: 0.7;}
.node.selected, .edge.selected {opacity: 1;}
.edge:hover path { stroke: red; }
.edge:hover polygon { stroke: red; fill: red; }
]]></style>
<script type="application/ecmascript" xlink:href="../../svg.min.js"/>
<svg id="graph" class="graph">
<g id="graph0" class="graph" transform="scale(1 1) rotate(0) translate(4 253)">
<title>NookpostBackend.Data.DatabaseHandle</title>
<!-- Node1 -->
<g id="Node000001" class="node">
<title>Node1</title>
<g id="a_Node000001"><a xlink:title="Create a Context for the API.">
<polygon fill="#999999" stroke="transparent" points="174,-164 0,-164 0,0 174,0 174,-164"/>
<text text-anchor="start" x="5" y="-152" font-family="Helvetica,sans-Serif" font-size="10.00">NookpostBackend.Data.Database</text>
<text text-anchor="start" x="69.5" y="-141" font-family="Helvetica,sans-Serif" font-size="10.00">Handle</text>
<text text-anchor="start" x="4" y="-126" font-family="Helvetica,sans-Serif" font-size="10.00">+</text>
<text text-anchor="start" x="17" y="-126" font-family="Helvetica,sans-Serif" font-size="10.00">DbSet&lt; User &gt; Users</text>
<text text-anchor="start" x="4" y="-111" font-family="Helvetica,sans-Serif" font-size="10.00">+</text>
<text text-anchor="start" x="17" y="-111" font-family="Helvetica,sans-Serif" font-size="10.00">DbSet&lt; UserSettings</text>
<text text-anchor="start" x="17" y="-100" font-family="Helvetica,sans-Serif" font-size="10.00"> &gt; UserSettings</text>
<text text-anchor="start" x="4" y="-85" font-family="Helvetica,sans-Serif" font-size="10.00">+</text>
<text text-anchor="start" x="17" y="-85" font-family="Helvetica,sans-Serif" font-size="10.00">DbSet&lt; Category &gt; Categories</text>
<text text-anchor="start" x="4" y="-70" font-family="Helvetica,sans-Serif" font-size="10.00">+</text>
<text text-anchor="start" x="17" y="-70" font-family="Helvetica,sans-Serif" font-size="10.00">DbSet&lt; Post &gt; Posts</text>
<text text-anchor="start" x="4" y="-55" font-family="Helvetica,sans-Serif" font-size="10.00">+</text>
<text text-anchor="start" x="17" y="-55" font-family="Helvetica,sans-Serif" font-size="10.00">DatabaseHandle(DbContext</text>
<text text-anchor="start" x="17" y="-44" font-family="Helvetica,sans-Serif" font-size="10.00">Options&lt; DatabaseHandle</text>
<text text-anchor="start" x="17" y="-33" font-family="Helvetica,sans-Serif" font-size="10.00"> &gt; Options)</text>
<text text-anchor="start" x="4" y="-18" font-family="Helvetica,sans-Serif" font-size="10.00">#</text>
<text text-anchor="start" x="17" y="-18" font-family="Helvetica,sans-Serif" font-size="10.00">override void OnModelCreating</text>
<text text-anchor="start" x="17" y="-7" font-family="Helvetica,sans-Serif" font-size="10.00">(ModelBuilder modelBuilder)</text>
<polygon fill="#666666" stroke="#666666" points="0,-136 0,-136 174,-136 174,-136 0,-136"/>
<polygon fill="#666666" stroke="#666666" points="0,-65 0,-65 15,-65 15,-65 0,-65"/>
<polygon fill="#666666" stroke="#666666" points="15,-65 15,-65 174,-65 174,-65 15,-65"/>
<polygon fill="none" stroke="#666666" points="0,0 0,-164 174,-164 174,0 0,0"/>
</a>
</g>
</g>
<!-- Node2 -->
<g id="Node000002" class="node">
<title>Node2</title>
<g id="a_Node000002"><a xlink:title=" ">
<polygon fill="white" stroke="transparent" points="118,-249 56,-249 56,-200 118,-200 118,-249"/>
<text text-anchor="start" x="61" y="-236.5" font-family="Helvetica,sans-Serif" font-size="10.00">DbContext</text>
<text text-anchor="start" x="85" y="-221.5" font-family="Helvetica,sans-Serif" font-size="10.00"> </text>
<text text-anchor="start" x="85" y="-206.5" font-family="Helvetica,sans-Serif" font-size="10.00"> </text>
<polygon fill="#666666" stroke="#666666" points="56,-231.5 56,-231.5 118,-231.5 118,-231.5 56,-231.5"/>
<polygon fill="#666666" stroke="#666666" points="56,-216.5 56,-216.5 118,-216.5 118,-216.5 56,-216.5"/>
<polygon fill="none" stroke="#666666" points="56,-200 56,-249 118,-249 118,-200 56,-200"/>
</a>
</g>
</g>
<!-- Node2&#45;&gt;Node1 -->
<g id="edge1_Node000001_Node000002" class="edge">
<title>Node2&#45;&gt;Node1</title>
<g id="a_edge1_Node000001_Node000002"><a xlink:title=" ">
<path fill="none" stroke="#63b8ff" d="M87,-189.82C87,-181.94 87,-173.21 87,-164.23"/>
<polygon fill="none" stroke="#63b8ff" points="83.5,-189.98 87,-199.98 90.5,-189.98 83.5,-189.98"/>
</a>
</g>
</g>
</g>
</svg>
</svg>

<style type='text/css'>
<![CDATA[
[data-mouse-over-selected='false'] { opacity: 0.7; }
[data-mouse-over-selected='true']  { opacity: 1.0; }
]]>
</style>
<script type="application/ecmascript"><![CDATA[
document.addEventListener('DOMContentLoaded', (event) => {
  highlightEdges();
  highlightAdjacentNodes();
});
]]></script>
</svg>
