<?xml version="1.0" encoding="UTF-8" standalone="no"?>
<!DOCTYPE svg PUBLIC "-//W3C//DTD SVG 1.1//EN"
 "http://www.w3.org/Graphics/SVG/1.1/DTD/svg11.dtd">
<!-- Generated by graphviz version 2.43.0 (0)
 -->
<!-- Title: NookpostBackend.ApiSchemas.Categories.GetAllCategories.GetAllCategoriesResponseBody Pages: 1 -->
<svg width="185pt" height="90pt"
 viewBox="0.00 0.00 185.00 90.00" xmlns="http://www.w3.org/2000/svg" xmlns:xlink="http://www.w3.org/1999/xlink">
<g id="graph0" class="graph" transform="scale(1 1) rotate(0) translate(4 86)">
<title>NookpostBackend.ApiSchemas.Categories.GetAllCategories.GetAllCategoriesResponseBody</title>
<!-- Node1 -->
<g id="Node000001" class="node">
<title>Node1</title>
<g id="a_Node000001"><a xlink:title="The body of a Get request to category/all.">
<polygon fill="#999999" stroke="transparent" points="177,-82 0,-82 0,0 177,0 177,-82"/>
<text text-anchor="start" x="9.5" y="-70" font-family="Helvetica,sans-Serif" font-size="10.00">NookpostBackend.ApiSchemas.</text>
<text text-anchor="start" x="9.5" y="-59" font-family="Helvetica,sans-Serif" font-size="10.00">Categories.GetAllCategories.Get</text>
<text text-anchor="start" x="20" y="-48" font-family="Helvetica,sans-Serif" font-size="10.00">AllCategoriesResponseBody</text>
<text text-anchor="start" x="4.5" y="-33" font-family="Helvetica,sans-Serif" font-size="10.00">+</text>
<text text-anchor="start" x="17.5" y="-33" font-family="Helvetica,sans-Serif" font-size="10.00">List&lt; GetAllCategoriesCategory</text>
<text text-anchor="start" x="17.5" y="-22" font-family="Helvetica,sans-Serif" font-size="10.00"> &gt;? categories</text>
<text text-anchor="start" x="87" y="-7" font-family="Helvetica,sans-Serif" font-size="10.00"> </text>
<polygon fill="#666666" stroke="#666666" points="0.5,-43 0.5,-43 177.5,-43 177.5,-43 0.5,-43"/>
<polygon fill="#666666" stroke="#666666" points="0.5,-17 0.5,-17 15.5,-17 15.5,-17 0.5,-17"/>
<polygon fill="#666666" stroke="#666666" points="15.5,-17 15.5,-17 177.5,-17 177.5,-17 15.5,-17"/>
<polygon fill="none" stroke="#666666" points="0,0 0,-82 177,-82 177,0 0,0"/>
</a>
</g>
</g>
</g>
</svg>
