<?xml version="1.0" encoding="UTF-8" standalone="no"?>
<!DOCTYPE svg PUBLIC "-//W3C//DTD SVG 1.1//EN"
 "http://www.w3.org/Graphics/SVG/1.1/DTD/svg11.dtd">
<!-- Generated by graphviz version 2.43.0 (0)
 -->
<!-- Title: NookpostBackend.ApiSchemas.Users.UserData Pages: 1 -->
<!--zoomable 239 -->

<svg id="main" version="1.1" xmlns="http://www.w3.org/2000/svg" xmlns:xlink="http://www.w3.org/1999/xlink" xml:space="preserve" onload="init(evt)">

<style type="text/css"><![CDATA[
.node, .edge {opacity: 0.7;}
.node.selected, .edge.selected {opacity: 1;}
.edge:hover path { stroke: red; }
.edge:hover polygon { stroke: red; fill: red; }
]]></style>

<defs>
  <circle id="rim" cx="0" cy="0" r="7"/>
  <circle id="rim2" cx="0" cy="0" r="3.5"/>
  <g id="zoomPlus">
    <use xlink:href="#rim" fill="#404040"><set attributeName="fill" to="#808080" begin="zoomplus.mouseover" end="zoomplus.mouseout"/></use>
    <path d="M-4,0h8M0,-4v8" fill="none" stroke="white" stroke-width="1.5" pointer-events="none"/>
  </g>
  <g id="zoomMin">
    <use xlink:href="#rim" fill="#404040"><set attributeName="fill" to="#808080" begin="zoomminus.mouseover" end="zoomminus.mouseout"/></use>
    <path d="M-4,0h8" fill="none" stroke="white" stroke-width="1.5" pointer-events="none"/>
  </g>
  <g id="arrowUp" transform="translate(30 24)">
    <use xlink:href="#rim"/>
    <path pointer-events="none" fill="none" stroke="white" stroke-width="1.5" d="M0,-3.0v7 M-2.5,-0.5L0,-3.0L2.5,-0.5"/>
  </g>
  <g id="arrowRight" transform="rotate(90) translate(36 -43)">
    <use xlink:href="#rim"/>
    <path pointer-events="none" fill="none" stroke="white" stroke-width="1.5" d="M0,-3.0v7 M-2.5,-0.5L0,-3.0L2.5,-0.5"/>
  </g>
  <g id="arrowDown" transform="rotate(180) translate(-30 -48)">
    <use xlink:href="#rim"/>
    <path pointer-events="none" fill="none" stroke="white" stroke-width="1.5" d="M0,-3.0v7 M-2.5,-0.5L0,-3.0L2.5,-0.5"/>
  </g>
  <g id="arrowLeft" transform="rotate(270) translate(-36 17)">
    <use xlink:href="#rim"/>
    <path pointer-events="none" fill="none" stroke="white" stroke-width="1.5" d="M0,-3.0v7 M-2.5,-0.5L0,-3.0L2.5,-0.5"/>
  </g>
  <g id="resetDef">
    <use xlink:href="#rim2" fill="#404040"><set attributeName="fill" to="#808080" begin="reset.mouseover" end="reset.mouseout"/></use>
  </g>
</defs>
<script type="application/ecmascript">
var viewWidth = 630;
var viewHeight = 239;
var sectionId = 'dynsection-0';
</script>
<script type="application/ecmascript" xlink:href="../../svg.min.js"/>
<svg id="graph" class="graph">
<g id="viewport">
<title>NookpostBackend.ApiSchemas.Users.UserData</title>
<!-- Node1 -->
<g id="Node000001" class="node">
<title>Node1</title>
<g id="a_Node000001"><a xlink:title="Common data for the user object.">
<polygon fill="#999999" stroke="transparent" points="400,-231 236,-231 236,-96 400,-96 400,-231"/>
<text text-anchor="start" x="241" y="-218.5" font-family="Helvetica,sans-Serif" font-size="10.00">NookpostBackend.ApiSchemas.</text>
<text text-anchor="start" x="279.5" y="-207.5" font-family="Helvetica,sans-Serif" font-size="10.00">Users.UserData</text>
<text text-anchor="start" x="241.5" y="-192.5" font-family="Helvetica,sans-Serif" font-size="10.00">+</text>
<text text-anchor="start" x="256" y="-192.5" font-family="Helvetica,sans-Serif" font-size="10.00">string? Username</text>
<text text-anchor="start" x="241.5" y="-177.5" font-family="Helvetica,sans-Serif" font-size="10.00">+</text>
<text text-anchor="start" x="256" y="-177.5" font-family="Helvetica,sans-Serif" font-size="10.00">string? DisplayName</text>
<text text-anchor="start" x="241.5" y="-162.5" font-family="Helvetica,sans-Serif" font-size="10.00">+</text>
<text text-anchor="start" x="256" y="-162.5" font-family="Helvetica,sans-Serif" font-size="10.00">string? TagLine</text>
<text text-anchor="start" x="241.5" y="-147.5" font-family="Helvetica,sans-Serif" font-size="10.00">+</text>
<text text-anchor="start" x="256" y="-147.5" font-family="Helvetica,sans-Serif" font-size="10.00">string? Bio</text>
<text text-anchor="start" x="241.5" y="-132.5" font-family="Helvetica,sans-Serif" font-size="10.00">+</text>
<text text-anchor="start" x="256" y="-132.5" font-family="Helvetica,sans-Serif" font-size="10.00">string? ProfilePictureBase64</text>
<text text-anchor="start" x="241.5" y="-117.5" font-family="Helvetica,sans-Serif" font-size="10.00">+</text>
<text text-anchor="start" x="256" y="-117.5" font-family="Helvetica,sans-Serif" font-size="10.00">string? Email</text>
<text text-anchor="start" x="316" y="-102.5" font-family="Helvetica,sans-Serif" font-size="10.00"> </text>
<polygon fill="#666666" stroke="#666666" points="236,-202.5 236,-202.5 400,-202.5 400,-202.5 236,-202.5"/>
<polygon fill="#666666" stroke="#666666" points="236,-112.5 236,-112.5 254,-112.5 254,-112.5 236,-112.5"/>
<polygon fill="#666666" stroke="#666666" points="254,-112.5 254,-112.5 400,-112.5 400,-112.5 254,-112.5"/>
<polygon fill="none" stroke="#666666" points="236,-96 236,-231 400,-231 400,-96 236,-96"/>
</a>
</g>
</g>
<!-- Node2 -->
<g id="Node000002" class="node">
<title>Node2</title>
<g id="a_Node000002"><a xlink:href="../../d7/db0/classNookpostBackend_1_1ApiSchemas_1_1Users_1_1GetUser_1_1UsersGetResponseBody.html" target="_top" xlink:title="The response to a user get request if successful.">
<polygon fill="white" stroke="transparent" points="200,-60 0,-60 0,0 200,0 200,-60"/>
<text text-anchor="start" x="5" y="-48" font-family="Helvetica,sans-Serif" font-size="10.00">NookpostBackend.ApiSchemas.</text>
<text text-anchor="start" x="5" y="-37" font-family="Helvetica,sans-Serif" font-size="10.00">Users.GetUser.UsersGetResponseBody</text>
<text text-anchor="start" x="98" y="-22" font-family="Helvetica,sans-Serif" font-size="10.00"> </text>
<text text-anchor="start" x="98" y="-7" font-family="Helvetica,sans-Serif" font-size="10.00"> </text>
<polygon fill="#666666" stroke="#666666" points="0,-32 0,-32 200,-32 200,-32 0,-32"/>
<polygon fill="#666666" stroke="#666666" points="0,-17 0,-17 200,-17 200,-17 0,-17"/>
<polygon fill="none" stroke="#666666" points="0,0 0,-60 200,-60 200,0 0,0"/>
</a>
</g>
</g>
<!-- Node1&#45;&gt;Node2 -->
<g id="edge1_Node000001_Node000002" class="edge">
<title>Node1&#45;&gt;Node2</title>
<g id="a_edge1_Node000001_Node000002"><a xlink:title=" ">
<path fill="none" stroke="#63b8ff" d="M227.16,-107.7C200.06,-91.36 171.42,-74.08 148.2,-60.07"/>
<polygon fill="none" stroke="#63b8ff" points="225.52,-110.8 235.89,-112.97 229.14,-104.81 225.52,-110.8"/>
</a>
</g>
</g>
<!-- Node3 -->
<g id="Node000003" class="node">
<title>Node3</title>
<g id="a_Node000003"><a xlink:href="../../d6/d75/classNookpostBackend_1_1ApiSchemas_1_1Users_1_1PostUser_1_1UsersPostRequestBody.html" target="_top" xlink:title="The request body of a user create request.">
<polygon fill="white" stroke="transparent" points="418,-60 218,-60 218,0 418,0 418,-60"/>
<text text-anchor="start" x="223" y="-48" font-family="Helvetica,sans-Serif" font-size="10.00">NookpostBackend.ApiSchemas.</text>
<text text-anchor="start" x="223" y="-37" font-family="Helvetica,sans-Serif" font-size="10.00">Users.PostUser.UsersPostRequestBody</text>
<text text-anchor="start" x="246" y="-22" font-family="Helvetica,sans-Serif" font-size="10.00">+</text>
<text text-anchor="start" x="283" y="-22" font-family="Helvetica,sans-Serif" font-size="10.00">string? Password</text>
<text text-anchor="start" x="316" y="-7" font-family="Helvetica,sans-Serif" font-size="10.00"> </text>
<polygon fill="#666666" stroke="#666666" points="218,-32 218,-32 418,-32 418,-32 218,-32"/>
<polygon fill="#666666" stroke="#666666" points="218,-17 218,-17 281,-17 281,-17 218,-17"/>
<polygon fill="#666666" stroke="#666666" points="281,-17 281,-17 418,-17 418,-17 281,-17"/>
<polygon fill="none" stroke="#666666" points="218,0 218,-60 418,-60 418,0 218,0"/>
</a>
</g>
</g>
<!-- Node1&#45;&gt;Node3 -->
<g id="edge2_Node000001_Node000003" class="edge">
<title>Node1&#45;&gt;Node3</title>
<g id="a_edge2_Node000001_Node000003"><a xlink:title=" ">
<path fill="none" stroke="#63b8ff" d="M318,-85.97C318,-76.82 318,-67.95 318,-60.11"/>
<polygon fill="none" stroke="#63b8ff" points="314.5,-85.98 318,-95.98 321.5,-85.98 314.5,-85.98"/>
</a>
</g>
</g>
<!-- Node4 -->
<g id="Node000004" class="node">
<title>Node4</title>
<g id="a_Node000004"><a xlink:href="../../db/d04/classNookpostBackend_1_1ApiSchemas_1_1Users_1_1PutUser_1_1UserPutRequestBody.html" target="_top" xlink:title="Request body of a user put request.">
<polygon fill="white" stroke="transparent" points="621.5,-60 436.5,-60 436.5,0 621.5,0 621.5,-60"/>
<text text-anchor="start" x="442" y="-48" font-family="Helvetica,sans-Serif" font-size="10.00">NookpostBackend.ApiSchemas.</text>
<text text-anchor="start" x="442" y="-37" font-family="Helvetica,sans-Serif" font-size="10.00">Users.PutUser.UserPutRequestBody</text>
<text text-anchor="start" x="527.5" y="-22" font-family="Helvetica,sans-Serif" font-size="10.00"> </text>
<text text-anchor="start" x="527.5" y="-7" font-family="Helvetica,sans-Serif" font-size="10.00"> </text>
<polygon fill="#666666" stroke="#666666" points="437,-32 437,-32 622,-32 622,-32 437,-32"/>
<polygon fill="#666666" stroke="#666666" points="437,-17 437,-17 622,-17 622,-17 437,-17"/>
<polygon fill="none" stroke="#666666" points="436.5,0 436.5,-60 621.5,-60 621.5,0 436.5,0"/>
</a>
</g>
</g>
<!-- Node1&#45;&gt;Node4 -->
<g id="edge3_Node000001_Node000004" class="edge">
<title>Node1&#45;&gt;Node4</title>
<g id="a_edge3_Node000001_Node000004"><a xlink:title=" ">
<path fill="none" stroke="#63b8ff" d="M408.74,-105.95C434.14,-90.12 460.7,-73.57 482.37,-60.06"/>
<polygon fill="none" stroke="#63b8ff" points="406.82,-103.02 400.18,-111.28 410.52,-108.96 406.82,-103.02"/>
</a>
</g>
</g>
</g>
</svg>

<g id="navigator" transform="translate(0 0)" fill="#404254">
  <rect fill="#f2f5e9" fill-opacity="0.5" stroke="#606060" stroke-width=".5" x="0" y="0" width="60" height="60"/>
  <use id="zoomplus" xlink:href="#zoomPlus" x="17" y="9" onmousedown="handleZoom(evt,'in')"/>
  <use id="zoomminus" xlink:href="#zoomMin" x="42" y="9" onmousedown="handleZoom(evt,'out')"/>
  <use id="reset" xlink:href="#resetDef" x="30" y="36" onmousedown="handleReset()"/>
   <use id="arrowup" xlink:href="#arrowUp" x="0" y="0" onmousedown="handlePan(0,-1)"/>
  <use id="arrowright" xlink:href="#arrowRight" x="0" y="0" onmousedown="handlePan(1,0)"/>
  <use id="arrowdown" xlink:href="#arrowDown" x="0" y="0" onmousedown="handlePan(0,1)"/>
  <use id="arrowleft" xlink:href="#arrowLeft" x="0" y="0" onmousedown="handlePan(-1,0)"/>
</g>
<svg viewBox="0 0 15 15" width="100%" height="30px" preserveAspectRatio="xMaxYMin meet">
 <g id="arrow_out" transform="scale(0.3 0.3)">
  <a xlink:href="classNookpostBackend_1_1ApiSchemas_1_1Users_1_1UserData__inherit__graph_org.svg" target="_base">
   <rect id="button" ry="5" rx="5" y="6" x="6" height="38" width="38"
        fill="#f2f5e9" fill-opacity="0.5" stroke="#606060" stroke-width="1.0"/>
   <path id="arrow"
     d="M 11.500037,31.436501 C 11.940474,20.09759 22.043105,11.32322 32.158766,21.979434 L 37.068811,17.246167 C 37.068811,17.246167 37.088388,32 37.088388,32 L 22.160133,31.978069 C 22.160133,31.978069 26.997745,27.140456 26.997745,27.140456 C 18.528582,18.264221 13.291696,25.230495 11.500037,31.436501 z"
     style="fill:#404040;"/>
  </a>
 </g>
</svg>

<style type='text/css'>
<![CDATA[
[data-mouse-over-selected='false'] { opacity: 0.7; }
[data-mouse-over-selected='true']  { opacity: 1.0; }
]]>
</style>
<script type="application/ecmascript"><![CDATA[
document.addEventListener('DOMContentLoaded', (event) => {
  highlightEdges();
  highlightAdjacentNodes();
});
]]></script>
</svg>
