<?xml version="1.0" encoding="UTF-8" standalone="no"?>
<!DOCTYPE svg PUBLIC "-//W3C//DTD SVG 1.1//EN"
 "http://www.w3.org/Graphics/SVG/1.1/DTD/svg11.dtd">
<!-- Generated by graphviz version 2.43.0 (0)
 -->
<!-- Title: NookpostBackend.ApiSchemas.Users.UserData Pages: 1 -->
<svg width="630pt" height="239pt"
 viewBox="0.00 0.00 629.50 239.00" xmlns="http://www.w3.org/2000/svg" xmlns:xlink="http://www.w3.org/1999/xlink">
<g id="graph0" class="graph" transform="scale(1 1) rotate(0) translate(4 235)">
<title>NookpostBackend.ApiSchemas.Users.UserData</title>
<!-- Node1 -->
<g id="Node000001" class="node">
<title>Node1</title>
<g id="a_Node000001"><a xlink:title="Common data for the user object.">
<polygon fill="#999999" stroke="transparent" points="400,-231 236,-231 236,-96 400,-96 400,-231"/>
<text text-anchor="start" x="241" y="-218.5" font-family="Helvetica,sans-Serif" font-size="10.00">NookpostBackend.ApiSchemas.</text>
<text text-anchor="start" x="279.5" y="-207.5" font-family="Helvetica,sans-Serif" font-size="10.00">Users.UserData</text>
<text text-anchor="start" x="241.5" y="-192.5" font-family="Helvetica,sans-Serif" font-size="10.00">+</text>
<text text-anchor="start" x="256" y="-192.5" font-family="Helvetica,sans-Serif" font-size="10.00">string? Username</text>
<text text-anchor="start" x="241.5" y="-177.5" font-family="Helvetica,sans-Serif" font-size="10.00">+</text>
<text text-anchor="start" x="256" y="-177.5" font-family="Helvetica,sans-Serif" font-size="10.00">string? DisplayName</text>
<text text-anchor="start" x="241.5" y="-162.5" font-family="Helvetica,sans-Serif" font-size="10.00">+</text>
<text text-anchor="start" x="256" y="-162.5" font-family="Helvetica,sans-Serif" font-size="10.00">string? TagLine</text>
<text text-anchor="start" x="241.5" y="-147.5" font-family="Helvetica,sans-Serif" font-size="10.00">+</text>
<text text-anchor="start" x="256" y="-147.5" font-family="Helvetica,sans-Serif" font-size="10.00">string? Bio</text>
<text text-anchor="start" x="241.5" y="-132.5" font-family="Helvetica,sans-Serif" font-size="10.00">+</text>
<text text-anchor="start" x="256" y="-132.5" font-family="Helvetica,sans-Serif" font-size="10.00">string? ProfilePictureBase64</text>
<text text-anchor="start" x="241.5" y="-117.5" font-family="Helvetica,sans-Serif" font-size="10.00">+</text>
<text text-anchor="start" x="256" y="-117.5" font-family="Helvetica,sans-Serif" font-size="10.00">string? Email</text>
<text text-anchor="start" x="316" y="-102.5" font-family="Helvetica,sans-Serif" font-size="10.00"> </text>
<polygon fill="#666666" stroke="#666666" points="236,-202.5 236,-202.5 400,-202.5 400,-202.5 236,-202.5"/>
<polygon fill="#666666" stroke="#666666" points="236,-112.5 236,-112.5 254,-112.5 254,-112.5 236,-112.5"/>
<polygon fill="#666666" stroke="#666666" points="254,-112.5 254,-112.5 400,-112.5 400,-112.5 254,-112.5"/>
<polygon fill="none" stroke="#666666" points="236,-96 236,-231 400,-231 400,-96 236,-96"/>
</a>
</g>
</g>
<!-- Node2 -->
<g id="Node000002" class="node">
<title>Node2</title>
<g id="a_Node000002"><a xlink:href="../../d7/db0/classNookpostBackend_1_1ApiSchemas_1_1Users_1_1GetUser_1_1UsersGetResponseBody.html" target="_top" xlink:title="The response to a user get request if successful.">
<polygon fill="white" stroke="transparent" points="200,-60 0,-60 0,0 200,0 200,-60"/>
<text text-anchor="start" x="5" y="-48" font-family="Helvetica,sans-Serif" font-size="10.00">NookpostBackend.ApiSchemas.</text>
<text text-anchor="start" x="5" y="-37" font-family="Helvetica,sans-Serif" font-size="10.00">Users.GetUser.UsersGetResponseBody</text>
<text text-anchor="start" x="98" y="-22" font-family="Helvetica,sans-Serif" font-size="10.00"> </text>
<text text-anchor="start" x="98" y="-7" font-family="Helvetica,sans-Serif" font-size="10.00"> </text>
<polygon fill="#666666" stroke="#666666" points="0,-32 0,-32 200,-32 200,-32 0,-32"/>
<polygon fill="#666666" stroke="#666666" points="0,-17 0,-17 200,-17 200,-17 0,-17"/>
<polygon fill="none" stroke="#666666" points="0,0 0,-60 200,-60 200,0 0,0"/>
</a>
</g>
</g>
<!-- Node1&#45;&gt;Node2 -->
<g id="edge1_Node000001_Node000002" class="edge">
<title>Node1&#45;&gt;Node2</title>
<g id="a_edge1_Node000001_Node000002"><a xlink:title=" ">
<path fill="none" stroke="#63b8ff" d="M227.16,-107.7C200.06,-91.36 171.42,-74.08 148.2,-60.07"/>
<polygon fill="none" stroke="#63b8ff" points="225.52,-110.8 235.89,-112.97 229.14,-104.81 225.52,-110.8"/>
</a>
</g>
</g>
<!-- Node3 -->
<g id="Node000003" class="node">
<title>Node3</title>
<g id="a_Node000003"><a xlink:href="../../d6/d75/classNookpostBackend_1_1ApiSchemas_1_1Users_1_1PostUser_1_1UsersPostRequestBody.html" target="_top" xlink:title="The request body of a user create request.">
<polygon fill="white" stroke="transparent" points="418,-60 218,-60 218,0 418,0 418,-60"/>
<text text-anchor="start" x="223" y="-48" font-family="Helvetica,sans-Serif" font-size="10.00">NookpostBackend.ApiSchemas.</text>
<text text-anchor="start" x="223" y="-37" font-family="Helvetica,sans-Serif" font-size="10.00">Users.PostUser.UsersPostRequestBody</text>
<text text-anchor="start" x="246" y="-22" font-family="Helvetica,sans-Serif" font-size="10.00">+</text>
<text text-anchor="start" x="283" y="-22" font-family="Helvetica,sans-Serif" font-size="10.00">string? Password</text>
<text text-anchor="start" x="316" y="-7" font-family="Helvetica,sans-Serif" font-size="10.00"> </text>
<polygon fill="#666666" stroke="#666666" points="218,-32 218,-32 418,-32 418,-32 218,-32"/>
<polygon fill="#666666" stroke="#666666" points="218,-17 218,-17 281,-17 281,-17 218,-17"/>
<polygon fill="#666666" stroke="#666666" points="281,-17 281,-17 418,-17 418,-17 281,-17"/>
<polygon fill="none" stroke="#666666" points="218,0 218,-60 418,-60 418,0 218,0"/>
</a>
</g>
</g>
<!-- Node1&#45;&gt;Node3 -->
<g id="edge2_Node000001_Node000003" class="edge">
<title>Node1&#45;&gt;Node3</title>
<g id="a_edge2_Node000001_Node000003"><a xlink:title=" ">
<path fill="none" stroke="#63b8ff" d="M318,-85.97C318,-76.82 318,-67.95 318,-60.11"/>
<polygon fill="none" stroke="#63b8ff" points="314.5,-85.98 318,-95.98 321.5,-85.98 314.5,-85.98"/>
</a>
</g>
</g>
<!-- Node4 -->
<g id="Node000004" class="node">
<title>Node4</title>
<g id="a_Node000004"><a xlink:href="../../db/d04/classNookpostBackend_1_1ApiSchemas_1_1Users_1_1PutUser_1_1UserPutRequestBody.html" target="_top" xlink:title="Request body of a user put request.">
<polygon fill="white" stroke="transparent" points="621.5,-60 436.5,-60 436.5,0 621.5,0 621.5,-60"/>
<text text-anchor="start" x="442" y="-48" font-family="Helvetica,sans-Serif" font-size="10.00">NookpostBackend.ApiSchemas.</text>
<text text-anchor="start" x="442" y="-37" font-family="Helvetica,sans-Serif" font-size="10.00">Users.PutUser.UserPutRequestBody</text>
<text text-anchor="start" x="527.5" y="-22" font-family="Helvetica,sans-Serif" font-size="10.00"> </text>
<text text-anchor="start" x="527.5" y="-7" font-family="Helvetica,sans-Serif" font-size="10.00"> </text>
<polygon fill="#666666" stroke="#666666" points="437,-32 437,-32 622,-32 622,-32 437,-32"/>
<polygon fill="#666666" stroke="#666666" points="437,-17 437,-17 622,-17 622,-17 437,-17"/>
<polygon fill="none" stroke="#666666" points="436.5,0 436.5,-60 621.5,-60 621.5,0 436.5,0"/>
</a>
</g>
</g>
<!-- Node1&#45;&gt;Node4 -->
<g id="edge3_Node000001_Node000004" class="edge">
<title>Node1&#45;&gt;Node4</title>
<g id="a_edge3_Node000001_Node000004"><a xlink:title=" ">
<path fill="none" stroke="#63b8ff" d="M408.74,-105.95C434.14,-90.12 460.7,-73.57 482.37,-60.06"/>
<polygon fill="none" stroke="#63b8ff" points="406.82,-103.02 400.18,-111.28 410.52,-108.96 406.82,-103.02"/>
</a>
</g>
</g>
</g>
</svg>
