<?xml version="1.0" encoding="UTF-8" standalone="no"?>
<!DOCTYPE svg PUBLIC "-//W3C//DTD SVG 1.1//EN"
 "http://www.w3.org/Graphics/SVG/1.1/DTD/svg11.dtd">
<!-- Generated by graphviz version 2.43.0 (0)
 -->
<!-- Title: NookpostBackend.ApiEndpoints.Posts.DeletePost Pages: 1 -->
<svg width="234pt" height="134pt"
 viewBox="0.00 0.00 234.00 134.00" xmlns="http://www.w3.org/2000/svg" xmlns:xlink="http://www.w3.org/1999/xlink">
<g id="graph0" class="graph" transform="scale(1 1) rotate(0) translate(4 130)">
<title>NookpostBackend.ApiEndpoints.Posts.DeletePost</title>
<!-- Node1 -->
<g id="Node000001" class="node">
<title>Node1</title>
<g id="a_Node000001"><a xlink:title=" ">
<polygon fill="#999999" stroke="transparent" points="226,-126 0,-126 0,0 226,0 226,-126"/>
<text text-anchor="start" x="34" y="-114" font-family="Helvetica,sans-Serif" font-size="10.00">NookpostBackend.ApiEndpoints.</text>
<text text-anchor="start" x="71.5" y="-103" font-family="Helvetica,sans-Serif" font-size="10.00">Posts.DeletePost</text>
<text text-anchor="start" x="111" y="-88" font-family="Helvetica,sans-Serif" font-size="10.00"> </text>
<text text-anchor="start" x="4" y="-73" font-family="Helvetica,sans-Serif" font-size="10.00">+</text>
<text text-anchor="start" x="17" y="-73" font-family="Helvetica,sans-Serif" font-size="10.00">static Microsoft.AspNetCore.</text>
<text text-anchor="start" x="17" y="-62" font-family="Helvetica,sans-Serif" font-size="10.00">Http.HttpResults.Results</text>
<text text-anchor="start" x="17" y="-51" font-family="Helvetica,sans-Serif" font-size="10.00">&lt; NoContent, NotFound, Unauthorized</text>
<text text-anchor="start" x="17" y="-40" font-family="Helvetica,sans-Serif" font-size="10.00">HttpResult, BadRequest &gt; HandleRequest</text>
<text text-anchor="start" x="17" y="-29" font-family="Helvetica,sans-Serif" font-size="10.00">(string uuid, ClaimsPrincipal user,</text>
<text text-anchor="start" x="17" y="-18" font-family="Helvetica,sans-Serif" font-size="10.00"> NookpostBackend.Data.DatabaseHandle</text>
<text text-anchor="start" x="17" y="-7" font-family="Helvetica,sans-Serif" font-size="10.00"> databaseHandle)</text>
<polygon fill="#666666" stroke="#666666" points="0,-98 0,-98 226,-98 226,-98 0,-98"/>
<polygon fill="#666666" stroke="#666666" points="0,-83 0,-83 226,-83 226,-83 0,-83"/>
<polygon fill="none" stroke="#666666" points="0,0 0,-126 226,-126 226,0 0,0"/>
</a>
</g>
</g>
</g>
</svg>
