<?xml version="1.0" encoding="UTF-8" standalone="no"?>
<!DOCTYPE svg PUBLIC "-//W3C//DTD SVG 1.1//EN"
 "http://www.w3.org/Graphics/SVG/1.1/DTD/svg11.dtd">
<!-- Generated by graphviz version 2.43.0 (0)
 -->
<!-- Title: NookpostBackend.ApiEndpoints.Users.EndpointSetup.Setup Pages: 1 -->
<svg width="624pt" height="230pt"
 viewBox="0.00 0.00 624.00 230.00" xmlns="http://www.w3.org/2000/svg" xmlns:xlink="http://www.w3.org/1999/xlink">
<g id="graph0" class="graph" transform="scale(1 1) rotate(0) translate(4 226)">
<title>NookpostBackend.ApiEndpoints.Users.EndpointSetup.Setup</title>
<!-- Node1 -->
<g id="Node000001" class="node">
<title>Node1</title>
<g id="a_Node000001"><a xlink:title="Sets up the user endpoints on the given Webapp">
<polygon fill="#999999" stroke="#666666" points="174,-126 0,-126 0,-96 174,-96 174,-126"/>
<text text-anchor="start" x="8" y="-114" font-family="Helvetica,sans-Serif" font-size="10.00">NookpostBackend.ApiEndpoints.</text>
<text text-anchor="middle" x="87" y="-103" font-family="Helvetica,sans-Serif" font-size="10.00">Users.EndpointSetup.Setup</text>
</a>
</g>
</g>
<!-- Node2 -->
<g id="Node000002" class="node">
<title>Node2</title>
<g id="a_Node000002"><a xlink:href="../../db/d18/classNookpostBackend_1_1ApiEndpoints_1_1Users_1_1DeleteUserMe.html#aae42f13191e9d45986c2b7b38ff59f6f" target="_top" xlink:title="Deletes a user.">
<polygon fill="white" stroke="#666666" points="404,-222 210,-222 210,-192 404,-192 404,-222"/>
<text text-anchor="start" x="218" y="-210" font-family="Helvetica,sans-Serif" font-size="10.00">NookpostBackend.ApiEndpoints.</text>
<text text-anchor="middle" x="307" y="-199" font-family="Helvetica,sans-Serif" font-size="10.00">Users.DeleteUserMe.HandleRequest</text>
</a>
</g>
</g>
<!-- Node1&#45;&gt;Node2 -->
<g id="edge1_Node000001_Node000002" class="edge">
<title>Node1&#45;&gt;Node2</title>
<g id="a_edge1_Node000001_Node000002"><a xlink:title=" ">
<path fill="none" stroke="#63b8ff" d="M109.48,-126.29C133.11,-142.45 172.68,-167.7 210,-183 215.12,-185.1 220.46,-187.05 225.9,-188.85"/>
<polygon fill="#63b8ff" stroke="#63b8ff" points="225.17,-192.29 235.76,-191.95 227.27,-185.61 225.17,-192.29"/>
</a>
</g>
</g>
<!-- Node3 -->
<g id="Node000003" class="node">
<title>Node3</title>
<g id="a_Node000003"><a xlink:href="../../d9/dc5/classNookpostBackend_1_1ApiEndpoints_1_1Users_1_1GetUser.html#aafe1f7a8c5753df2bd92177a685b5d69" target="_top" xlink:title="Gets a user.">
<polygon fill="white" stroke="#666666" points="394,-174 220,-174 220,-144 394,-144 394,-174"/>
<text text-anchor="start" x="228" y="-162" font-family="Helvetica,sans-Serif" font-size="10.00">NookpostBackend.ApiEndpoints.</text>
<text text-anchor="middle" x="307" y="-151" font-family="Helvetica,sans-Serif" font-size="10.00">Users.GetUser.HandleRequest</text>
</a>
</g>
</g>
<!-- Node1&#45;&gt;Node3 -->
<g id="edge2_Node000001_Node000003" class="edge">
<title>Node1&#45;&gt;Node3</title>
<g id="a_edge2_Node000001_Node000003"><a xlink:title=" ">
<path fill="none" stroke="#63b8ff" d="M156.38,-126.06C179.1,-131.06 204.58,-136.67 227.98,-141.82"/>
<polygon fill="#63b8ff" stroke="#63b8ff" points="227.35,-145.27 237.86,-144 228.85,-138.43 227.35,-145.27"/>
</a>
</g>
</g>
<!-- Node4 -->
<g id="Node000004" class="node">
<title>Node4</title>
<g id="a_Node000004"><a xlink:href="../../d5/dd1/classNookpostBackend_1_1ApiEndpoints_1_1Users_1_1GetUserMe.html#ab0714f7a75f23d54d5e96a7af1da3c37" target="_top" xlink:title="Gets a user.">
<polygon fill="white" stroke="#666666" points="396.5,-126 217.5,-126 217.5,-96 396.5,-96 396.5,-126"/>
<text text-anchor="start" x="225.5" y="-114" font-family="Helvetica,sans-Serif" font-size="10.00">NookpostBackend.ApiEndpoints.</text>
<text text-anchor="middle" x="307" y="-103" font-family="Helvetica,sans-Serif" font-size="10.00">Users.GetUserMe.HandleRequest</text>
</a>
</g>
</g>
<!-- Node1&#45;&gt;Node4 -->
<g id="edge3_Node000001_Node000004" class="edge">
<title>Node1&#45;&gt;Node4</title>
<g id="a_edge3_Node000001_Node000004"><a xlink:title=" ">
<path fill="none" stroke="#63b8ff" d="M174.16,-111C185,-111 196.16,-111 207.18,-111"/>
<polygon fill="#63b8ff" stroke="#63b8ff" points="207.25,-114.5 217.25,-111 207.25,-107.5 207.25,-114.5"/>
</a>
</g>
</g>
<!-- Node5 -->
<g id="Node000005" class="node">
<title>Node5</title>
<g id="a_Node000005"><a xlink:href="../../d6/df1/classNookpostBackend_1_1ApiEndpoints_1_1Users_1_1PostUser.html#a9f3f056050d7adf6dd07e6671928d306" target="_top" xlink:title="Creates a new user.">
<polygon fill="white" stroke="#666666" points="394,-78 220,-78 220,-48 394,-48 394,-78"/>
<text text-anchor="start" x="228" y="-66" font-family="Helvetica,sans-Serif" font-size="10.00">NookpostBackend.ApiEndpoints.</text>
<text text-anchor="middle" x="307" y="-55" font-family="Helvetica,sans-Serif" font-size="10.00">Users.PostUser.HandleRequest</text>
</a>
</g>
</g>
<!-- Node1&#45;&gt;Node5 -->
<g id="edge4_Node000001_Node000005" class="edge">
<title>Node1&#45;&gt;Node5</title>
<g id="a_edge4_Node000001_Node000005"><a xlink:title=" ">
<path fill="none" stroke="#63b8ff" d="M156.38,-95.94C179.1,-90.94 204.58,-85.33 227.98,-80.18"/>
<polygon fill="#63b8ff" stroke="#63b8ff" points="228.85,-83.57 237.86,-78 227.35,-76.73 228.85,-83.57"/>
</a>
</g>
</g>
<!-- Node8 -->
<g id="Node000008" class="node">
<title>Node8</title>
<g id="a_Node000008"><a xlink:href="../../de/d32/classNookpostBackend_1_1ApiEndpoints_1_1Users_1_1PutUserMe.html#a3f88a9d10120a42efb3e0c2ef3e6430b" target="_top" xlink:title="Modifies a user.">
<polygon fill="white" stroke="#666666" points="396,-30 218,-30 218,0 396,0 396,-30"/>
<text text-anchor="start" x="226" y="-18" font-family="Helvetica,sans-Serif" font-size="10.00">NookpostBackend.ApiEndpoints.</text>
<text text-anchor="middle" x="307" y="-7" font-family="Helvetica,sans-Serif" font-size="10.00">Users.PutUserMe.HandleRequest</text>
</a>
</g>
</g>
<!-- Node1&#45;&gt;Node8 -->
<g id="edge7_Node000001_Node000008" class="edge">
<title>Node1&#45;&gt;Node8</title>
<g id="a_edge7_Node000001_Node000008"><a xlink:title=" ">
<path fill="none" stroke="#63b8ff" d="M109.48,-95.71C133.11,-79.55 172.68,-54.3 210,-39 215.12,-36.9 220.46,-34.95 225.9,-33.15"/>
<polygon fill="#63b8ff" stroke="#63b8ff" points="227.27,-36.39 235.76,-30.05 225.17,-29.71 227.27,-36.39"/>
</a>
</g>
</g>
<!-- Node6 -->
<g id="Node000006" class="node">
<title>Node6</title>
<g id="a_Node000006"><a xlink:href="../../d3/d34/classNookpostBackend_1_1Cryptography_1_1PasswordHashing.html#aeb943c5a3973106cc7405123255da371" target="_top" xlink:title="Hash a password with the given salt and password. The Pepper will automatically be obtained from sett...">
<polygon fill="white" stroke="#666666" points="616,-102 440,-102 440,-72 616,-72 616,-102"/>
<text text-anchor="start" x="448" y="-90" font-family="Helvetica,sans-Serif" font-size="10.00">NookpostBackend.Cryptography.</text>
<text text-anchor="middle" x="528" y="-79" font-family="Helvetica,sans-Serif" font-size="10.00">PasswordHashing.HashPassword</text>
</a>
</g>
</g>
<!-- Node5&#45;&gt;Node6 -->
<g id="edge5_Node000005_Node000006" class="edge">
<title>Node5&#45;&gt;Node6</title>
<g id="a_edge5_Node000005_Node000006"><a xlink:title=" ">
<path fill="none" stroke="#63b8ff" d="M394.24,-72.45C405.81,-73.72 417.75,-75.03 429.5,-76.31"/>
<polygon fill="#63b8ff" stroke="#63b8ff" points="429.44,-79.83 439.76,-77.44 430.2,-72.87 429.44,-79.83"/>
</a>
</g>
</g>
<!-- Node7 -->
<g id="Node000007" class="node">
<title>Node7</title>
<g id="a_Node000007"><a xlink:href="../../d5/d04/classNookpostBackend_1_1Cryptography_1_1Generators.html#a3472fe1c61d5f1bc60d0af99a253be6b" target="_top" xlink:title="Generate a new random hex string with the specified length.">
<polygon fill="white" stroke="#666666" points="615.5,-54 440.5,-54 440.5,-24 615.5,-24 615.5,-54"/>
<text text-anchor="start" x="448.5" y="-42" font-family="Helvetica,sans-Serif" font-size="10.00">NookpostBackend.Cryptography.</text>
<text text-anchor="middle" x="528" y="-31" font-family="Helvetica,sans-Serif" font-size="10.00">Generators.NewRandomString</text>
</a>
</g>
</g>
<!-- Node5&#45;&gt;Node7 -->
<g id="edge6_Node000005_Node000007" class="edge">
<title>Node5&#45;&gt;Node7</title>
<g id="a_edge6_Node000005_Node000007"><a xlink:title=" ">
<path fill="none" stroke="#63b8ff" d="M394.24,-53.55C406.12,-52.25 418.38,-50.9 430.42,-49.58"/>
<polygon fill="#63b8ff" stroke="#63b8ff" points="430.92,-53.05 440.48,-48.48 430.16,-46.09 430.92,-53.05"/>
</a>
</g>
</g>
</g>
</svg>
