<?xml version="1.0" encoding="UTF-8" standalone="no"?>
<!DOCTYPE svg PUBLIC "-//W3C//DTD SVG 1.1//EN"
 "http://www.w3.org/Graphics/SVG/1.1/DTD/svg11.dtd">
<!-- Generated by graphviz version 2.43.0 (0)
 -->
<!-- Title: NookpostBackend.ApiEndpoints.Authentication.Login.PostLogin Pages: 1 -->
<svg width="613pt" height="38pt"
 viewBox="0.00 0.00 613.00 38.00" xmlns="http://www.w3.org/2000/svg" xmlns:xlink="http://www.w3.org/1999/xlink">
<g id="graph0" class="graph" transform="scale(1 1) rotate(0) translate(4 34)">
<title>NookpostBackend.ApiEndpoints.Authentication.Login.PostLogin</title>
<!-- Node1 -->
<g id="Node000001" class="node">
<title>Node1</title>
<g id="a_Node000001"><a xlink:title="Authenticates the user and returns an access token.">
<polygon fill="#999999" stroke="#666666" points="174,-30 0,-30 0,0 174,0 174,-30"/>
<text text-anchor="start" x="8" y="-18" font-family="Helvetica,sans-Serif" font-size="10.00">NookpostBackend.ApiEndpoints.</text>
<text text-anchor="middle" x="87" y="-7" font-family="Helvetica,sans-Serif" font-size="10.00">Authentication.Login.PostLogin</text>
</a>
</g>
</g>
<!-- Node2 -->
<g id="Node000002" class="node">
<title>Node2</title>
<g id="a_Node000002"><a xlink:href="../../d3/d34/classNookpostBackend_1_1Cryptography_1_1PasswordHashing.html#a40192bd81c7fc4e7cc265f84e5d99df3" target="_top" xlink:title="Validate a password for a user.">
<polygon fill="white" stroke="#666666" points="393,-30 210,-30 210,0 393,0 393,-30"/>
<text text-anchor="start" x="218" y="-18" font-family="Helvetica,sans-Serif" font-size="10.00">NookpostBackend.Cryptography.</text>
<text text-anchor="middle" x="301.5" y="-7" font-family="Helvetica,sans-Serif" font-size="10.00">PasswordHashing.isPasswordValid</text>
</a>
</g>
</g>
<!-- Node1&#45;&gt;Node2 -->
<g id="edge1_Node000001_Node000002" class="edge">
<title>Node1&#45;&gt;Node2</title>
<g id="a_edge1_Node000001_Node000002"><a xlink:title=" ">
<path fill="none" stroke="#63b8ff" d="M174.13,-15C182.56,-15 191.17,-15 199.73,-15"/>
<polygon fill="#63b8ff" stroke="#63b8ff" points="199.75,-18.5 209.75,-15 199.75,-11.5 199.75,-18.5"/>
</a>
</g>
</g>
<!-- Node3 -->
<g id="Node000003" class="node">
<title>Node3</title>
<g id="a_Node000003"><a xlink:href="../../d3/d34/classNookpostBackend_1_1Cryptography_1_1PasswordHashing.html#aeb943c5a3973106cc7405123255da371" target="_top" xlink:title="Hash a password with the given salt and password. The Pepper will automatically be obtained from sett...">
<polygon fill="white" stroke="#666666" points="605,-30 429,-30 429,0 605,0 605,-30"/>
<text text-anchor="start" x="437" y="-18" font-family="Helvetica,sans-Serif" font-size="10.00">NookpostBackend.Cryptography.</text>
<text text-anchor="middle" x="517" y="-7" font-family="Helvetica,sans-Serif" font-size="10.00">PasswordHashing.HashPassword</text>
</a>
</g>
</g>
<!-- Node2&#45;&gt;Node3 -->
<g id="edge2_Node000002_Node000003" class="edge">
<title>Node2&#45;&gt;Node3</title>
<g id="a_edge2_Node000002_Node000003"><a xlink:title=" ">
<path fill="none" stroke="#63b8ff" d="M393.04,-15C401.45,-15 409.99,-15 418.45,-15"/>
<polygon fill="#63b8ff" stroke="#63b8ff" points="418.72,-18.5 428.72,-15 418.72,-11.5 418.72,-18.5"/>
</a>
</g>
</g>
</g>
</svg>
