<?xml version="1.0" encoding="UTF-8" standalone="no"?>
<!DOCTYPE svg PUBLIC "-//W3C//DTD SVG 1.1//EN"
 "http://www.w3.org/Graphics/SVG/1.1/DTD/svg11.dtd">
<!-- Generated by graphviz version 2.43.0 (0)
 -->
<!-- Title: D Pages: 1 -->
<svg width="160pt" height="227pt"
 viewBox="0.00 0.00 160.00 227.00" xmlns="http://www.w3.org/2000/svg" xmlns:xlink="http://www.w3.org/1999/xlink">

<svg id="main" version="1.1" xmlns="http://www.w3.org/2000/svg" xmlns:xlink="http://www.w3.org/1999/xlink" xml:space="preserve">

<style type="text/css"><![CDATA[
.node, .edge {opacity: 0.7;}
.node.selected, .edge.selected {opacity: 1;}
.edge:hover path { stroke: red; }
.edge:hover polygon { stroke: red; fill: red; }
]]></style>
<script type="application/ecmascript" xlink:href="../../svg.min.js"/>
<svg id="graph" class="graph">
<g id="graph0" class="graph" transform="scale(1 1) rotate(0) translate(4 223)">
<title>D</title>
<!-- Node1 -->
<g id="Node000001" class="node">
<title>Node1</title>
<g id="a_Node000001"><a xlink:title=" ">
<polygon fill="#999999" stroke="transparent" points="104.5,-134 52.5,-134 52.5,-85 104.5,-85 104.5,-134"/>
<text text-anchor="start" x="74.5" y="-121.5" font-family="Helvetica,sans-Serif" font-size="10.00">D</text>
<text text-anchor="start" x="56.5" y="-106.5" font-family="Helvetica,sans-Serif" font-size="10.00">+</text>
<text text-anchor="start" x="69.5" y="-106.5" font-family="Helvetica,sans-Serif" font-size="10.00">C m_c</text>
<text text-anchor="start" x="76.5" y="-91.5" font-family="Helvetica,sans-Serif" font-size="10.00"> </text>
<polygon fill="#666666" stroke="#666666" points="52.5,-116.5 52.5,-116.5 104.5,-116.5 104.5,-116.5 52.5,-116.5"/>
<polygon fill="#666666" stroke="#666666" points="52.5,-101.5 52.5,-101.5 67.5,-101.5 67.5,-101.5 52.5,-101.5"/>
<polygon fill="#666666" stroke="#666666" points="67.5,-101.5 67.5,-101.5 104.5,-101.5 104.5,-101.5 67.5,-101.5"/>
<polygon fill="none" stroke="#666666" points="52.5,-85 52.5,-134 104.5,-134 104.5,-85 52.5,-85"/>
</a>
</g>
</g>
<!-- Node4 -->
<g id="Node000004" class="node">
<title>Node4</title>
<g id="a_Node000004"><a xlink:href="../../da/d5a/classE.html" target="_top" xlink:title=" ">
<polygon fill="white" stroke="transparent" points="87,-49 70,-49 70,0 87,0 87,-49"/>
<text text-anchor="start" x="75.5" y="-36.5" font-family="Helvetica,sans-Serif" font-size="10.00">E</text>
<text text-anchor="start" x="77" y="-21.5" font-family="Helvetica,sans-Serif" font-size="10.00"> </text>
<text text-anchor="start" x="77" y="-6.5" font-family="Helvetica,sans-Serif" font-size="10.00"> </text>
<polygon fill="#666666" stroke="#666666" points="70.5,-31.5 70.5,-31.5 87.5,-31.5 87.5,-31.5 70.5,-31.5"/>
<polygon fill="#666666" stroke="#666666" points="70.5,-16.5 70.5,-16.5 87.5,-16.5 87.5,-16.5 70.5,-16.5"/>
<polygon fill="none" stroke="#666666" points="70,0 70,-49 87,-49 87,0 70,0"/>
</a>
</g>
</g>
<!-- Node1&#45;&gt;Node4 -->
<g id="edge3_Node000001_Node000004" class="edge">
<title>Node1&#45;&gt;Node4</title>
<g id="a_edge3_Node000001_Node000004"><a xlink:title=" ">
<path fill="none" stroke="#63b8ff" d="M78.5,-74.77C78.5,-66.17 78.5,-57.1 78.5,-49.12"/>
<polygon fill="none" stroke="#63b8ff" points="75,-74.94 78.5,-84.94 82,-74.94 75,-74.94"/>
</a>
</g>
</g>
<!-- Node2 -->
<g id="Node000002" class="node">
<title>Node2</title>
<g id="a_Node000002"><a xlink:href="../../d2/d88/classA.html" target="_top" xlink:title=" ">
<polygon fill="white" stroke="transparent" points="73,-219 0,-219 0,-170 73,-170 73,-219"/>
<text text-anchor="start" x="33.5" y="-206.5" font-family="Helvetica,sans-Serif" font-size="10.00">A</text>
<text text-anchor="start" x="4.5" y="-191.5" font-family="Helvetica,sans-Serif" font-size="10.00">+</text>
<text text-anchor="start" x="17.5" y="-191.5" font-family="Helvetica,sans-Serif" font-size="10.00">A * m_self</text>
<text text-anchor="start" x="35" y="-176.5" font-family="Helvetica,sans-Serif" font-size="10.00"> </text>
<polygon fill="#666666" stroke="#666666" points="0.5,-201.5 0.5,-201.5 73.5,-201.5 73.5,-201.5 0.5,-201.5"/>
<polygon fill="#666666" stroke="#666666" points="0.5,-186.5 0.5,-186.5 15.5,-186.5 15.5,-186.5 0.5,-186.5"/>
<polygon fill="#666666" stroke="#666666" points="15.5,-186.5 15.5,-186.5 73.5,-186.5 73.5,-186.5 15.5,-186.5"/>
<polygon fill="none" stroke="#666666" points="0,-170 0,-219 73,-219 73,-170 0,-170"/>
</a>
</g>
</g>
<!-- Node2&#45;&gt;Node1 -->
<g id="edge1_Node000001_Node000002" class="edge">
<title>Node2&#45;&gt;Node1</title>
<g id="a_edge1_Node000001_Node000002"><a xlink:title=" ">
<path fill="none" stroke="darkgreen" d="M52.99,-160.91C57.52,-151.97 62.33,-142.45 66.55,-134.12"/>
<polygon fill="none" stroke="darkgreen" points="49.82,-159.43 48.42,-169.94 56.06,-162.6 49.82,-159.43"/>
</a>
</g>
</g>
<!-- Node3 -->
<g id="Node000003" class="node">
<title>Node3</title>
<g id="a_Node000003"><a xlink:href="../../d3/d1a/classB.html" target="_top" xlink:title=" ">
<polygon fill="white" stroke="transparent" points="152,-219 91,-219 91,-170 152,-170 152,-219"/>
<text text-anchor="start" x="118.5" y="-206.5" font-family="Helvetica,sans-Serif" font-size="10.00">B</text>
<text text-anchor="start" x="95.5" y="-191.5" font-family="Helvetica,sans-Serif" font-size="10.00">+</text>
<text text-anchor="start" x="108.5" y="-191.5" font-family="Helvetica,sans-Serif" font-size="10.00">A * m_a</text>
<text text-anchor="start" x="120" y="-176.5" font-family="Helvetica,sans-Serif" font-size="10.00"> </text>
<polygon fill="#666666" stroke="#666666" points="91.5,-201.5 91.5,-201.5 152.5,-201.5 152.5,-201.5 91.5,-201.5"/>
<polygon fill="#666666" stroke="#666666" points="91.5,-186.5 91.5,-186.5 106.5,-186.5 106.5,-186.5 91.5,-186.5"/>
<polygon fill="#666666" stroke="#666666" points="106.5,-186.5 106.5,-186.5 152.5,-186.5 152.5,-186.5 106.5,-186.5"/>
<polygon fill="none" stroke="#666666" points="91,-170 91,-219 152,-219 152,-170 91,-170"/>
</a>
</g>
</g>
<!-- Node3&#45;&gt;Node1 -->
<g id="edge2_Node000001_Node000003" class="edge">
<title>Node3&#45;&gt;Node1</title>
<g id="a_edge2_Node000001_Node000003"><a xlink:title=" ">
<path fill="none" stroke="#8b1a1a" d="M104.61,-160.91C99.98,-151.97 95.05,-142.45 90.74,-134.12"/>
<polygon fill="none" stroke="#8b1a1a" points="101.59,-162.67 109.29,-169.94 107.8,-159.45 101.59,-162.67"/>
</a>
</g>
</g>
</g>
</svg>
</svg>

<style type='text/css'>
<![CDATA[
[data-mouse-over-selected='false'] { opacity: 0.7; }
[data-mouse-over-selected='true']  { opacity: 1.0; }
]]>
</style>
<script type="application/ecmascript"><![CDATA[
document.addEventListener('DOMContentLoaded', (event) => {
  highlightEdges();
  highlightAdjacentNodes();
});
]]></script>
</svg>
