<?xml version="1.0" encoding="UTF-8" standalone="no"?>
<!DOCTYPE svg PUBLIC "-//W3C//DTD SVG 1.1//EN"
 "http://www.w3.org/Graphics/SVG/1.1/DTD/svg11.dtd">
<!-- Generated by graphviz version 2.43.0 (0)
 -->
<!-- Title: E Pages: 1 -->
<svg width="167pt" height="335pt"
 viewBox="0.00 0.00 167.00 335.00" xmlns="http://www.w3.org/2000/svg" xmlns:xlink="http://www.w3.org/1999/xlink">
<g id="graph0" class="graph" transform="scale(1 1) rotate(0) translate(4 331)">
<title>E</title>
<!-- Node1 -->
<g id="Node000001" class="node">
<title>Node1</title>
<g id="a_Node000001"><a xlink:title=" ">
<polygon fill="#999999" stroke="transparent" points="17,-49 0,-49 0,0 17,0 17,-49"/>
<text text-anchor="start" x="5.5" y="-36.5" font-family="Helvetica,sans-Serif" font-size="10.00">E</text>
<text text-anchor="start" x="7" y="-21.5" font-family="Helvetica,sans-Serif" font-size="10.00"> </text>
<text text-anchor="start" x="7" y="-6.5" font-family="Helvetica,sans-Serif" font-size="10.00"> </text>
<polygon fill="#666666" stroke="#666666" points="0.5,-31.5 0.5,-31.5 17.5,-31.5 17.5,-31.5 0.5,-31.5"/>
<polygon fill="#666666" stroke="#666666" points="0.5,-16.5 0.5,-16.5 17.5,-16.5 17.5,-16.5 0.5,-16.5"/>
<polygon fill="none" stroke="#666666" points="0,0 0,-49 17,-49 17,0 0,0"/>
</a>
</g>
</g>
<!-- Node2 -->
<g id="Node000002" class="node">
<title>Node2</title>
<g id="a_Node000002"><a xlink:href="../../de/d26/classD.html" target="_top" xlink:title=" ">
<polygon fill="white" stroke="transparent" points="59.5,-145 41.5,-145 41.5,-96 59.5,-96 59.5,-145"/>
<text text-anchor="start" x="46.5" y="-132.5" font-family="Helvetica,sans-Serif" font-size="10.00">D</text>
<text text-anchor="start" x="48.5" y="-117.5" font-family="Helvetica,sans-Serif" font-size="10.00"> </text>
<text text-anchor="start" x="48.5" y="-102.5" font-family="Helvetica,sans-Serif" font-size="10.00"> </text>
<polygon fill="#666666" stroke="#666666" points="41.5,-127.5 41.5,-127.5 59.5,-127.5 59.5,-127.5 41.5,-127.5"/>
<polygon fill="#666666" stroke="#666666" points="41.5,-112.5 41.5,-112.5 59.5,-112.5 59.5,-112.5 41.5,-112.5"/>
<polygon fill="none" stroke="#666666" points="41.5,-96 41.5,-145 59.5,-145 59.5,-96 41.5,-96"/>
</a>
</g>
</g>
<!-- Node2&#45;&gt;Node1 -->
<g id="edge1_Node000001_Node000002" class="edge">
<title>Node2&#45;&gt;Node1</title>
<g id="a_edge1_Node000001_Node000002"><a xlink:title=" ">
<path fill="none" stroke="#63b8ff" d="M35.25,-99.79C30.65,-93.15 25.92,-85.51 22.5,-78 18.36,-68.9 15.25,-58.33 13.02,-49.08"/>
<polygon fill="none" stroke="#63b8ff" points="32.6,-102.1 41.3,-108.13 38.26,-97.99 32.6,-102.1"/>
</a>
</g>
</g>
<!-- Node5 -->
<g id="Node000005" class="node">
<title>Node5</title>
<g id="a_Node000005"><a xlink:href="../../d9/d56/classC.html" target="_top" xlink:title=" ">
<polygon fill="white" stroke="transparent" points="106,-49 89,-49 89,0 106,0 106,-49"/>
<text text-anchor="start" x="94.5" y="-36.5" font-family="Helvetica,sans-Serif" font-size="10.00">C</text>
<text text-anchor="start" x="96" y="-21.5" font-family="Helvetica,sans-Serif" font-size="10.00"> </text>
<text text-anchor="start" x="96" y="-6.5" font-family="Helvetica,sans-Serif" font-size="10.00"> </text>
<polygon fill="#666666" stroke="#666666" points="89.5,-31.5 89.5,-31.5 106.5,-31.5 106.5,-31.5 89.5,-31.5"/>
<polygon fill="#666666" stroke="#666666" points="89.5,-16.5 89.5,-16.5 106.5,-16.5 106.5,-16.5 89.5,-16.5"/>
<polygon fill="none" stroke="#666666" points="89,0 89,-49 106,-49 106,0 89,0"/>
</a>
</g>
</g>
<!-- Node2&#45;&gt;Node5 -->
<g id="edge8_Node000005_Node000002" class="edge">
<title>Node2&#45;&gt;Node5</title>
<g id="a_edge8_Node000005_Node000002"><a xlink:title=" ">
<path fill="none" stroke="#63b8ff" d="M41.41,-103.62C36.51,-92.81 32.55,-78.45 38.5,-67 46.63,-51.34 63.68,-40.35 77.37,-33.63"/>
<polygon fill="none" stroke="#63b8ff" points="77.67,-33.5 81.54,-27.41 88.64,-28.65 84.77,-34.73 77.67,-33.5"/>
</a>
</g>
<text text-anchor="middle" x="55" y="-70" font-family="Helvetica,sans-Serif" font-size="10.00" fill="grey"> +m_d</text>
</g>
<!-- Node3 -->
<g id="Node000003" class="node">
<title>Node3</title>
<g id="a_Node000003"><a xlink:href="../../d2/d88/classA.html" target="_top" xlink:title=" ">
<polygon fill="white" stroke="transparent" points="96,-327 79,-327 79,-278 96,-278 96,-327"/>
<text text-anchor="start" x="84.5" y="-314.5" font-family="Helvetica,sans-Serif" font-size="10.00">A</text>
<text text-anchor="start" x="86" y="-299.5" font-family="Helvetica,sans-Serif" font-size="10.00"> </text>
<text text-anchor="start" x="86" y="-284.5" font-family="Helvetica,sans-Serif" font-size="10.00"> </text>
<polygon fill="#666666" stroke="#666666" points="79.5,-309.5 79.5,-309.5 96.5,-309.5 96.5,-309.5 79.5,-309.5"/>
<polygon fill="#666666" stroke="#666666" points="79.5,-294.5 79.5,-294.5 96.5,-294.5 96.5,-294.5 79.5,-294.5"/>
<polygon fill="none" stroke="#666666" points="79,-278 79,-327 96,-327 96,-278 79,-278"/>
</a>
</g>
</g>
<!-- Node3&#45;&gt;Node2 -->
<g id="edge2_Node000002_Node000003" class="edge">
<title>Node3&#45;&gt;Node2</title>
<g id="a_edge2_Node000002_Node000003"><a xlink:title=" ">
<path fill="none" stroke="darkgreen" d="M79.01,-267.96C76.16,-256.29 73.06,-243.1 70.5,-231 64.26,-201.51 58.19,-167.3 54.41,-145.07"/>
<polygon fill="none" stroke="darkgreen" points="75.63,-268.88 81.42,-277.75 82.43,-267.21 75.63,-268.88"/>
</a>
</g>
</g>
<!-- Node3&#45;&gt;Node3 -->
<g id="edge3_Node000003_Node000003" class="edge">
<title>Node3&#45;&gt;Node3</title>
<g id="a_edge3_Node000003_Node000003"><a xlink:title=" ">
<path fill="none" stroke="#63b8ff" d="M96.19,-309.65C104.67,-313.6 114,-311.22 114,-302.5 114,-298.14 111.67,-295.36 108.28,-294.17"/>
<polygon fill="none" stroke="#63b8ff" points="108.13,-294.19 102.54,-298.75 96.19,-295.35 101.77,-290.79 108.13,-294.19"/>
</a>
</g>
<text text-anchor="middle" x="136.5" y="-300" font-family="Helvetica,sans-Serif" font-size="10.00" fill="grey"> +m_self</text>
</g>
<!-- Node4 -->
<g id="Node000004" class="node">
<title>Node4</title>
<g id="a_Node000004"><a xlink:href="../../d3/d1a/classB.html" target="_top" xlink:title=" ">
<polygon fill="white" stroke="transparent" points="96,-231 79,-231 79,-182 96,-182 96,-231"/>
<text text-anchor="start" x="84.5" y="-218.5" font-family="Helvetica,sans-Serif" font-size="10.00">B</text>
<text text-anchor="start" x="86" y="-203.5" font-family="Helvetica,sans-Serif" font-size="10.00"> </text>
<text text-anchor="start" x="86" y="-188.5" font-family="Helvetica,sans-Serif" font-size="10.00"> </text>
<polygon fill="#666666" stroke="#666666" points="79.5,-213.5 79.5,-213.5 96.5,-213.5 96.5,-213.5 79.5,-213.5"/>
<polygon fill="#666666" stroke="#666666" points="79.5,-198.5 79.5,-198.5 96.5,-198.5 96.5,-198.5 79.5,-198.5"/>
<polygon fill="none" stroke="#666666" points="79,-182 79,-231 96,-231 96,-182 79,-182"/>
</a>
</g>
</g>
<!-- Node3&#45;&gt;Node4 -->
<g id="edge5_Node000004_Node000003" class="edge">
<title>Node3&#45;&gt;Node4</title>
<g id="a_edge5_Node000004_Node000003"><a xlink:title=" ">
<path fill="none" stroke="#63b8ff" d="M87.5,-277.78C87.5,-267.32 87.5,-254.79 87.5,-243.23"/>
<polygon fill="none" stroke="#63b8ff" points="87.5,-243.21 83.5,-237.21 87.5,-231.21 91.5,-237.21 87.5,-243.21"/>
</a>
</g>
<text text-anchor="middle" x="104" y="-252" font-family="Helvetica,sans-Serif" font-size="10.00" fill="grey"> +m_a</text>
</g>
<!-- Node3&#45;&gt;Node5 -->
<g id="edge7_Node000005_Node000003" class="edge">
<title>Node3&#45;&gt;Node5</title>
<g id="a_edge7_Node000005_Node000003"><a xlink:title=" ">
<path fill="none" stroke="#63b8ff" d="M104.16,-288.05C111.93,-280.69 120.36,-270.86 124.5,-260 155.08,-179.76 135.02,-150.62 115.5,-67 113.46,-58.28 109.67,-49.1 106.09,-41.59"/>
<polygon fill="none" stroke="#63b8ff" points="101.43,-285.78 96.22,-295 106.05,-291.05 101.43,-285.78"/>
</a>
</g>
</g>
<!-- Node4&#45;&gt;Node2 -->
<g id="edge4_Node000002_Node000004" class="edge">
<title>Node4&#45;&gt;Node2</title>
<g id="a_edge4_Node000002_Node000004"><a xlink:title=" ">
<path fill="none" stroke="#8b1a1a" d="M74.88,-176.85C69.85,-165.42 64.16,-152.52 59.55,-142.05"/>
<polygon fill="none" stroke="#8b1a1a" points="71.68,-178.28 78.92,-186.02 78.09,-175.46 71.68,-178.28"/>
</a>
</g>
</g>
<!-- Node5&#45;&gt;Node2 -->
<g id="edge6_Node000002_Node000005" class="edge">
<title>Node5&#45;&gt;Node2</title>
<g id="a_edge6_Node000002_Node000005"><a xlink:title=" ">
<path fill="none" stroke="#63b8ff" d="M88.99,-47.79C85.17,-57.25 80.42,-68.31 75.5,-78 72.65,-83.61 69.33,-89.49 66.06,-94.99"/>
<polygon fill="none" stroke="#63b8ff" points="65.85,-95.34 66.13,-102.55 59.58,-105.58 59.31,-98.37 65.85,-95.34"/>
</a>
</g>
<text text-anchor="middle" x="95.5" y="-70" font-family="Helvetica,sans-Serif" font-size="10.00" fill="grey"> +m_c</text>
</g>
</g>
</svg>
