<?xml version="1.0" encoding="UTF-8" standalone="no"?>
<!DOCTYPE svg PUBLIC "-//W3C//DTD SVG 1.1//EN"
 "http://www.w3.org/Graphics/SVG/1.1/DTD/svg11.dtd">
<!-- Generated by graphviz version 2.43.0 (0)
 -->
<!-- Title: D Pages: 1 -->
<svg width="128pt" height="335pt"
 viewBox="0.00 0.00 127.76 335.00" xmlns="http://www.w3.org/2000/svg" xmlns:xlink="http://www.w3.org/1999/xlink">

<svg id="main" version="1.1" xmlns="http://www.w3.org/2000/svg" xmlns:xlink="http://www.w3.org/1999/xlink" xml:space="preserve">

<style type="text/css"><![CDATA[
.node, .edge {opacity: 0.7;}
.node.selected, .edge.selected {opacity: 1;}
.edge:hover path { stroke: red; }
.edge:hover polygon { stroke: red; fill: red; }
]]></style>
<script type="application/ecmascript" xlink:href="../../svg.min.js"/>
<svg id="graph" class="graph">
<g id="graph0" class="graph" transform="scale(1 1) rotate(0) translate(4 331)">
<title>D</title>
<!-- Node1 -->
<g id="Node000001" class="node">
<title>Node1</title>
<g id="a_Node000001"><a xlink:title=" ">
<polygon fill="#999999" stroke="transparent" points="39.26,-145 21.26,-145 21.26,-96 39.26,-96 39.26,-145"/>
<text text-anchor="start" x="26.26" y="-132.5" font-family="Helvetica,sans-Serif" font-size="10.00">D</text>
<text text-anchor="start" x="28.26" y="-117.5" font-family="Helvetica,sans-Serif" font-size="10.00"> </text>
<text text-anchor="start" x="28.26" y="-102.5" font-family="Helvetica,sans-Serif" font-size="10.00"> </text>
<polygon fill="#666666" stroke="#666666" points="21.26,-127.5 21.26,-127.5 39.26,-127.5 39.26,-127.5 21.26,-127.5"/>
<polygon fill="#666666" stroke="#666666" points="21.26,-112.5 21.26,-112.5 39.26,-112.5 39.26,-112.5 21.26,-112.5"/>
<polygon fill="none" stroke="#666666" points="21.26,-96 21.26,-145 39.26,-145 39.26,-96 21.26,-96"/>
</a>
</g>
</g>
<!-- Node4 -->
<g id="Node000004" class="node">
<title>Node4</title>
<g id="a_Node000004"><a xlink:href="../../d9/d56/classC.html" target="_top" xlink:title=" ">
<polygon fill="white" stroke="transparent" points="57.76,-49 40.76,-49 40.76,0 57.76,0 57.76,-49"/>
<text text-anchor="start" x="46.26" y="-36.5" font-family="Helvetica,sans-Serif" font-size="10.00">C</text>
<text text-anchor="start" x="47.76" y="-21.5" font-family="Helvetica,sans-Serif" font-size="10.00"> </text>
<text text-anchor="start" x="47.76" y="-6.5" font-family="Helvetica,sans-Serif" font-size="10.00"> </text>
<polygon fill="#666666" stroke="#666666" points="41.26,-31.5 41.26,-31.5 58.26,-31.5 58.26,-31.5 41.26,-31.5"/>
<polygon fill="#666666" stroke="#666666" points="41.26,-16.5 41.26,-16.5 58.26,-16.5 58.26,-16.5 41.26,-16.5"/>
<polygon fill="none" stroke="#666666" points="40.76,0 40.76,-49 57.76,-49 57.76,0 40.76,0"/>
</a>
</g>
</g>
<!-- Node1&#45;&gt;Node4 -->
<g id="edge7_Node000004_Node000001" class="edge">
<title>Node1&#45;&gt;Node4</title>
<g id="a_edge7_Node000004_Node000001"><a xlink:title=" ">
<path fill="none" stroke="#63b8ff" d="M21.21,-111.83C10.46,-101.75 -5.13,-83.38 2.26,-67 8.04,-54.17 19.97,-43.72 30.36,-36.51"/>
<polygon fill="none" stroke="#63b8ff" points="30.52,-36.41 33.46,-29.83 40.67,-30.01 37.73,-36.59 30.52,-36.41"/>
</a>
</g>
<text text-anchor="middle" x="18.76" y="-70" font-family="Helvetica,sans-Serif" font-size="10.00" fill="grey"> +m_d</text>
</g>
<!-- Node2 -->
<g id="Node000002" class="node">
<title>Node2</title>
<g id="a_Node000002"><a xlink:href="../../d2/d88/classA.html" target="_top" xlink:title=" ">
<polygon fill="white" stroke="transparent" points="56.76,-327 39.76,-327 39.76,-278 56.76,-278 56.76,-327"/>
<text text-anchor="start" x="45.26" y="-314.5" font-family="Helvetica,sans-Serif" font-size="10.00">A</text>
<text text-anchor="start" x="46.76" y="-299.5" font-family="Helvetica,sans-Serif" font-size="10.00"> </text>
<text text-anchor="start" x="46.76" y="-284.5" font-family="Helvetica,sans-Serif" font-size="10.00"> </text>
<polygon fill="#666666" stroke="#666666" points="40.26,-309.5 40.26,-309.5 57.26,-309.5 57.26,-309.5 40.26,-309.5"/>
<polygon fill="#666666" stroke="#666666" points="40.26,-294.5 40.26,-294.5 57.26,-294.5 57.26,-294.5 40.26,-294.5"/>
<polygon fill="none" stroke="#666666" points="39.76,-278 39.76,-327 56.76,-327 56.76,-278 39.76,-278"/>
</a>
</g>
</g>
<!-- Node2&#45;&gt;Node1 -->
<g id="edge1_Node000001_Node000002" class="edge">
<title>Node2&#45;&gt;Node1</title>
<g id="a_edge1_Node000001_Node000002"><a xlink:title=" ">
<path fill="none" stroke="darkgreen" d="M39.21,-268.12C36.44,-256.46 33.74,-243.24 32.26,-231 28.69,-201.55 28.73,-167.33 29.3,-145.09"/>
<polygon fill="none" stroke="darkgreen" points="35.83,-269.02 41.63,-277.89 42.62,-267.34 35.83,-269.02"/>
</a>
</g>
</g>
<!-- Node2&#45;&gt;Node2 -->
<g id="edge2_Node000002_Node000002" class="edge">
<title>Node2&#45;&gt;Node2</title>
<g id="a_edge2_Node000002_Node000002"><a xlink:title=" ">
<path fill="none" stroke="#63b8ff" d="M56.94,-309.65C65.43,-313.6 74.76,-311.22 74.76,-302.5 74.76,-298.14 72.43,-295.36 69.03,-294.17"/>
<polygon fill="none" stroke="#63b8ff" points="68.89,-294.19 63.3,-298.75 56.94,-295.35 62.53,-290.79 68.89,-294.19"/>
</a>
</g>
<text text-anchor="middle" x="97.26" y="-300" font-family="Helvetica,sans-Serif" font-size="10.00" fill="grey"> +m_self</text>
</g>
<!-- Node3 -->
<g id="Node000003" class="node">
<title>Node3</title>
<g id="a_Node000003"><a xlink:href="../../d3/d1a/classB.html" target="_top" xlink:title=" ">
<polygon fill="white" stroke="transparent" points="58.76,-231 41.76,-231 41.76,-182 58.76,-182 58.76,-231"/>
<text text-anchor="start" x="47.26" y="-218.5" font-family="Helvetica,sans-Serif" font-size="10.00">B</text>
<text text-anchor="start" x="48.76" y="-203.5" font-family="Helvetica,sans-Serif" font-size="10.00"> </text>
<text text-anchor="start" x="48.76" y="-188.5" font-family="Helvetica,sans-Serif" font-size="10.00"> </text>
<polygon fill="#666666" stroke="#666666" points="42.26,-213.5 42.26,-213.5 59.26,-213.5 59.26,-213.5 42.26,-213.5"/>
<polygon fill="#666666" stroke="#666666" points="42.26,-198.5 42.26,-198.5 59.26,-198.5 59.26,-198.5 42.26,-198.5"/>
<polygon fill="none" stroke="#666666" points="41.76,-182 41.76,-231 58.76,-231 58.76,-182 41.76,-182"/>
</a>
</g>
</g>
<!-- Node2&#45;&gt;Node3 -->
<g id="edge4_Node000003_Node000002" class="edge">
<title>Node2&#45;&gt;Node3</title>
<g id="a_edge4_Node000003_Node000002"><a xlink:title=" ">
<path fill="none" stroke="#63b8ff" d="M48.68,-277.98C48.85,-268.92 49.05,-258.48 49.26,-249 49.3,-247.11 49.34,-245.17 49.39,-243.21"/>
<polygon fill="none" stroke="#63b8ff" points="49.39,-243.2 45.53,-237.11 49.67,-231.2 53.53,-237.29 49.39,-243.2"/>
</a>
</g>
<text text-anchor="middle" x="65.76" y="-252" font-family="Helvetica,sans-Serif" font-size="10.00" fill="grey"> +m_a</text>
</g>
<!-- Node2&#45;&gt;Node4 -->
<g id="edge6_Node000004_Node000002" class="edge">
<title>Node2&#45;&gt;Node4</title>
<g id="a_edge6_Node000004_Node000002"><a xlink:title=" ">
<path fill="none" stroke="#63b8ff" d="M64.11,-287.25C71.11,-279.89 78.58,-270.31 82.26,-260 83.9,-255.4 82.33,-253.89 82.26,-249 81.15,-168.09 101.98,-144.05 77.26,-67 73.33,-54.75 64.58,-42.8 57.91,-34.89"/>
<polygon fill="none" stroke="#63b8ff" points="61.61,-284.8 56.9,-294.29 66.5,-289.81 61.61,-284.8"/>
</a>
</g>
</g>
<!-- Node3&#45;&gt;Node1 -->
<g id="edge3_Node000001_Node000003" class="edge">
<title>Node3&#45;&gt;Node1</title>
<g id="a_edge3_Node000001_Node000003"><a xlink:title=" ">
<path fill="none" stroke="#8b1a1a" d="M42.25,-171.86C40.12,-162.9 37.86,-153.41 35.88,-145.12"/>
<polygon fill="none" stroke="#8b1a1a" points="38.86,-172.74 44.58,-181.65 45.67,-171.11 38.86,-172.74"/>
</a>
</g>
</g>
<!-- Node4&#45;&gt;Node1 -->
<g id="edge5_Node000001_Node000004" class="edge">
<title>Node4&#45;&gt;Node1</title>
<g id="a_edge5_Node000001_Node000004"><a xlink:title=" ">
<path fill="none" stroke="#63b8ff" d="M44.47,-49.21C42.35,-59.68 39.82,-72.2 37.48,-83.76"/>
<polygon fill="none" stroke="#63b8ff" points="37.43,-84.02 40.16,-90.69 35.05,-95.78 32.32,-89.11 37.43,-84.02"/>
</a>
</g>
<text text-anchor="middle" x="57.26" y="-70" font-family="Helvetica,sans-Serif" font-size="10.00" fill="grey"> +m_c</text>
</g>
</g>
</svg>
</svg>

<style type='text/css'>
<![CDATA[
[data-mouse-over-selected='false'] { opacity: 0.7; }
[data-mouse-over-selected='true']  { opacity: 1.0; }
]]>
</style>
<script type="application/ecmascript"><![CDATA[
document.addEventListener('DOMContentLoaded', (event) => {
  highlightEdges();
  highlightAdjacentNodes();
});
]]></script>
</svg>
