<?xml version="1.0" encoding="UTF-8" standalone="no"?>
<!DOCTYPE svg PUBLIC "-//W3C//DTD SVG 1.1//EN"
 "http://www.w3.org/Graphics/SVG/1.1/DTD/svg11.dtd">
<!-- Generated by graphviz version 2.43.0 (0)
 -->
<!-- Title: NookpostBackend.ApiEndpoints.UserSettings.PutUserSettings.HandleRequest Pages: 1 -->
<svg width="846pt" height="49pt"
 viewBox="0.00 0.00 846.00 49.00" xmlns="http://www.w3.org/2000/svg" xmlns:xlink="http://www.w3.org/1999/xlink">
<g id="graph0" class="graph" transform="scale(1 1) rotate(0) translate(4 45)">
<title>NookpostBackend.ApiEndpoints.UserSettings.PutUserSettings.HandleRequest</title>
<!-- Node1 -->
<g id="Node000001" class="node">
<title>Node1</title>
<g id="a_Node000001"><a xlink:title="Updates the user&#39;s settings.">
<polygon fill="#999999" stroke="#666666" points="838,-41 641,-41 641,0 838,0 838,-41"/>
<text text-anchor="start" x="649" y="-29" font-family="Helvetica,sans-Serif" font-size="10.00">NookpostBackend.ApiEndpoints.</text>
<text text-anchor="start" x="649" y="-18" font-family="Helvetica,sans-Serif" font-size="10.00">UserSettings.PutUserSettings.Handle</text>
<text text-anchor="middle" x="739.5" y="-7" font-family="Helvetica,sans-Serif" font-size="10.00">Request</text>
</a>
</g>
</g>
<!-- Node2 -->
<g id="Node000002" class="node">
<title>Node2</title>
<g id="a_Node000002"><a xlink:href="../../d2/d5d/classNookpostBackend_1_1ApiEndpoints_1_1UserSettings_1_1EndpointSetup.html#a3a95720b985443f2506ff318db7eec2c" target="_top" xlink:title="Sets up the user settigns endpoints on the given Webapp">
<polygon fill="white" stroke="#666666" points="605,-35.5 422,-35.5 422,-5.5 605,-5.5 605,-35.5"/>
<text text-anchor="start" x="430" y="-23.5" font-family="Helvetica,sans-Serif" font-size="10.00">NookpostBackend.ApiEndpoints.</text>
<text text-anchor="middle" x="513.5" y="-12.5" font-family="Helvetica,sans-Serif" font-size="10.00">UserSettings.EndpointSetup.Setup</text>
</a>
</g>
</g>
<!-- Node1&#45;&gt;Node2 -->
<g id="edge1_Node000001_Node000002" class="edge">
<title>Node1&#45;&gt;Node2</title>
<g id="a_edge1_Node000001_Node000002"><a xlink:title=" ">
<path fill="none" stroke="#63b8ff" d="M630.81,-20.5C622.2,-20.5 613.55,-20.5 605.07,-20.5"/>
<polygon fill="#63b8ff" stroke="#63b8ff" points="630.9,-24 640.9,-20.5 630.9,-17 630.9,-24"/>
</a>
</g>
</g>
<!-- Node3 -->
<g id="Node000003" class="node">
<title>Node3</title>
<g id="a_Node000003"><a xlink:href="../../db/d6a/classNookpostBackend_1_1ApiEndpoints_1_1EndpointSetup.html#a00aafd7a4451d533ddb2969de9ac57a3" target="_top" xlink:title="Sets up all API Endpints on the given webapp">
<polygon fill="white" stroke="#666666" points="386,-35.5 212,-35.5 212,-5.5 386,-5.5 386,-35.5"/>
<text text-anchor="start" x="220" y="-23.5" font-family="Helvetica,sans-Serif" font-size="10.00">NookpostBackend.ApiEndpoints.</text>
<text text-anchor="middle" x="299" y="-12.5" font-family="Helvetica,sans-Serif" font-size="10.00">EndpointSetup.Setup</text>
</a>
</g>
</g>
<!-- Node2&#45;&gt;Node3 -->
<g id="edge2_Node000002_Node000003" class="edge">
<title>Node2&#45;&gt;Node3</title>
<g id="a_edge2_Node000002_Node000003"><a xlink:title=" ">
<path fill="none" stroke="#63b8ff" d="M411.72,-20.5C403.14,-20.5 394.5,-20.5 386.05,-20.5"/>
<polygon fill="#63b8ff" stroke="#63b8ff" points="411.76,-24 421.76,-20.5 411.76,-17 411.76,-24"/>
</a>
</g>
</g>
<!-- Node4 -->
<g id="Node000004" class="node">
<title>Node4</title>
<g id="a_Node000004"><a xlink:href="../../d8/dc6/classNookpostBackend_1_1Program.html#a3920d589512f09ab0634c9b16cefa59e" target="_top" xlink:title=" ">
<polygon fill="white" stroke="#666666" points="176,-30 0,-30 0,-11 176,-11 176,-30"/>
<text text-anchor="middle" x="88" y="-18" font-family="Helvetica,sans-Serif" font-size="10.00">NookpostBackend.Program.Main</text>
</a>
</g>
</g>
<!-- Node3&#45;&gt;Node4 -->
<g id="edge3_Node000003_Node000004" class="edge">
<title>Node3&#45;&gt;Node4</title>
<g id="a_edge3_Node000003_Node000004"><a xlink:title=" ">
<path fill="none" stroke="#63b8ff" d="M201.76,-20.5C193.18,-20.5 184.53,-20.5 176.03,-20.5"/>
<polygon fill="#63b8ff" stroke="#63b8ff" points="201.79,-24 211.79,-20.5 201.79,-17 201.79,-24"/>
</a>
</g>
</g>
</g>
</svg>
