<?xml version="1.0" encoding="UTF-8" standalone="no"?>
<!DOCTYPE svg PUBLIC "-//W3C//DTD SVG 1.1//EN"
 "http://www.w3.org/Graphics/SVG/1.1/DTD/svg11.dtd">
<!-- Generated by graphviz version 2.43.0 (0)
 -->
<!-- Title: NookpostBackend.ApiSchemas.Categories.PostCategory.PostCategoryResponseBody Pages: 1 -->
<svg width="206pt" height="79pt"
 viewBox="0.00 0.00 206.00 79.00" xmlns="http://www.w3.org/2000/svg" xmlns:xlink="http://www.w3.org/1999/xlink">
<g id="graph0" class="graph" transform="scale(1 1) rotate(0) translate(4 75)">
<title>NookpostBackend.ApiSchemas.Categories.PostCategory.PostCategoryResponseBody</title>
<!-- Node1 -->
<g id="Node000001" class="node">
<title>Node1</title>
<g id="a_Node000001"><a xlink:title="The body of a response to a POST request to category.">
<polygon fill="#999999" stroke="transparent" points="198,-71 0,-71 0,0 198,0 198,-71"/>
<text text-anchor="start" x="5" y="-58.5" font-family="Helvetica,sans-Serif" font-size="10.00">NookpostBackend.ApiSchemas.</text>
<text text-anchor="start" x="5" y="-47.5" font-family="Helvetica,sans-Serif" font-size="10.00">Categories.PostCategory.PostCategory</text>
<text text-anchor="start" x="62.5" y="-36.5" font-family="Helvetica,sans-Serif" font-size="10.00">ResponseBody</text>
<text text-anchor="start" x="33.5" y="-21.5" font-family="Helvetica,sans-Serif" font-size="10.00">+</text>
<text text-anchor="start" x="76" y="-21.5" font-family="Helvetica,sans-Serif" font-size="10.00">string? Uuid</text>
<text text-anchor="start" x="97" y="-6.5" font-family="Helvetica,sans-Serif" font-size="10.00"> </text>
<polygon fill="#666666" stroke="#666666" points="0,-31.5 0,-31.5 198,-31.5 198,-31.5 0,-31.5"/>
<polygon fill="#666666" stroke="#666666" points="0,-16.5 0,-16.5 74,-16.5 74,-16.5 0,-16.5"/>
<polygon fill="#666666" stroke="#666666" points="74,-16.5 74,-16.5 198,-16.5 198,-16.5 74,-16.5"/>
<polygon fill="none" stroke="#666666" points="0,0 0,-71 198,-71 198,0 0,0"/>
</a>
</g>
</g>
</g>
</svg>
