<?xml version="1.0" encoding="UTF-8" standalone="no"?>
<!DOCTYPE svg PUBLIC "-//W3C//DTD SVG 1.1//EN"
 "http://www.w3.org/Graphics/SVG/1.1/DTD/svg11.dtd">
<!-- Generated by graphviz version 2.43.0 (0)
 -->
<!-- Title: NookpostBackend.ApiSchemas.Posts.GetPostFiltered.GetPostFilteredPost Pages: 1 -->
<svg width="222pt" height="350pt"
 viewBox="0.00 0.00 222.00 350.00" xmlns="http://www.w3.org/2000/svg" xmlns:xlink="http://www.w3.org/1999/xlink">
<g id="graph0" class="graph" transform="scale(1 1) rotate(0) translate(4 346)">
<title>NookpostBackend.ApiSchemas.Posts.GetPostFiltered.GetPostFilteredPost</title>
<!-- Node1 -->
<g id="Node000001" class="node">
<title>Node1</title>
<g id="a_Node000001"><a xlink:title="Response to a post get request.">
<polygon fill="#999999" stroke="transparent" points="214,-105 0,-105 0,0 214,0 214,-105"/>
<text text-anchor="start" x="5" y="-92.5" font-family="Helvetica,sans-Serif" font-size="10.00">NookpostBackend.ApiSchemas.</text>
<text text-anchor="start" x="5" y="-81.5" font-family="Helvetica,sans-Serif" font-size="10.00">Posts.GetPostFiltered.GetPostFilteredPost</text>
<text text-anchor="start" x="22.5" y="-66.5" font-family="Helvetica,sans-Serif" font-size="10.00">+</text>
<text text-anchor="start" x="54" y="-66.5" font-family="Helvetica,sans-Serif" font-size="10.00">string? Uuid</text>
<text text-anchor="start" x="22.5" y="-51.5" font-family="Helvetica,sans-Serif" font-size="10.00">+</text>
<text text-anchor="start" x="54" y="-51.5" font-family="Helvetica,sans-Serif" font-size="10.00">string? AuthorUsername</text>
<text text-anchor="start" x="22.5" y="-36.5" font-family="Helvetica,sans-Serif" font-size="10.00">+</text>
<text text-anchor="start" x="54" y="-36.5" font-family="Helvetica,sans-Serif" font-size="10.00">long ModifiedOn</text>
<text text-anchor="start" x="22.5" y="-21.5" font-family="Helvetica,sans-Serif" font-size="10.00">+</text>
<text text-anchor="start" x="54" y="-21.5" font-family="Helvetica,sans-Serif" font-size="10.00">long CreatedOn</text>
<text text-anchor="start" x="105" y="-6.5" font-family="Helvetica,sans-Serif" font-size="10.00"> </text>
<polygon fill="#666666" stroke="#666666" points="0,-76.5 0,-76.5 214,-76.5 214,-76.5 0,-76.5"/>
<polygon fill="#666666" stroke="#666666" points="0,-16.5 0,-16.5 52,-16.5 52,-16.5 0,-16.5"/>
<polygon fill="#666666" stroke="#666666" points="52,-16.5 52,-16.5 214,-16.5 214,-16.5 52,-16.5"/>
<polygon fill="none" stroke="#666666" points="0,0 0,-105 214,-105 214,0 0,0"/>
</a>
</g>
</g>
<!-- Node2 -->
<g id="Node000002" class="node">
<title>Node2</title>
<g id="a_Node000002"><a xlink:href="../../d8/d95/classNookpostBackend_1_1ApiSchemas_1_1Posts_1_1PostGetData.html" target="_top" xlink:title="Common data for a psot get response.">
<polygon fill="white" stroke="transparent" points="189,-201 25,-201 25,-141 189,-141 189,-201"/>
<text text-anchor="start" x="30" y="-189" font-family="Helvetica,sans-Serif" font-size="10.00">NookpostBackend.ApiSchemas.</text>
<text text-anchor="start" x="61.5" y="-178" font-family="Helvetica,sans-Serif" font-size="10.00">Posts.PostGetData</text>
<text text-anchor="start" x="31" y="-163" font-family="Helvetica,sans-Serif" font-size="10.00">+</text>
<text text-anchor="start" x="46" y="-163" font-family="Helvetica,sans-Serif" font-size="10.00">string? AuthorDisplayName</text>
<text text-anchor="start" x="105" y="-148" font-family="Helvetica,sans-Serif" font-size="10.00"> </text>
<polygon fill="#666666" stroke="#666666" points="25,-173 25,-173 189,-173 189,-173 25,-173"/>
<polygon fill="#666666" stroke="#666666" points="25,-158 25,-158 44,-158 44,-158 25,-158"/>
<polygon fill="#666666" stroke="#666666" points="44,-158 44,-158 189,-158 189,-158 44,-158"/>
<polygon fill="none" stroke="#666666" points="25,-141 25,-201 189,-201 189,-141 25,-141"/>
</a>
</g>
</g>
<!-- Node2&#45;&gt;Node1 -->
<g id="edge1_Node000001_Node000002" class="edge">
<title>Node2&#45;&gt;Node1</title>
<g id="a_edge1_Node000001_Node000002"><a xlink:title=" ">
<path fill="none" stroke="#63b8ff" d="M107,-130.88C107,-122.68 107,-113.92 107,-105.34"/>
<polygon fill="none" stroke="#63b8ff" points="103.5,-130.9 107,-140.9 110.5,-130.9 103.5,-130.9"/>
</a>
</g>
</g>
<!-- Node3 -->
<g id="Node000003" class="node">
<title>Node3</title>
<g id="a_Node000003"><a xlink:href="../../d4/d64/classNookpostBackend_1_1ApiSchemas_1_1Posts_1_1PostData.html" target="_top" xlink:title="Represents a post created by a user.">
<polygon fill="white" stroke="transparent" points="189,-342 25,-342 25,-237 189,-237 189,-342"/>
<text text-anchor="start" x="30" y="-329.5" font-family="Helvetica,sans-Serif" font-size="10.00">NookpostBackend.ApiSchemas.</text>
<text text-anchor="start" x="70" y="-318.5" font-family="Helvetica,sans-Serif" font-size="10.00">Posts.PostData</text>
<text text-anchor="start" x="30" y="-303.5" font-family="Helvetica,sans-Serif" font-size="10.00">+</text>
<text text-anchor="start" x="44" y="-303.5" font-family="Helvetica,sans-Serif" font-size="10.00">string? Title</text>
<text text-anchor="start" x="30" y="-288.5" font-family="Helvetica,sans-Serif" font-size="10.00">+</text>
<text text-anchor="start" x="44" y="-288.5" font-family="Helvetica,sans-Serif" font-size="10.00">string? Body</text>
<text text-anchor="start" x="30" y="-273.5" font-family="Helvetica,sans-Serif" font-size="10.00">+</text>
<text text-anchor="start" x="44" y="-273.5" font-family="Helvetica,sans-Serif" font-size="10.00">string? BannerImageBase64</text>
<text text-anchor="start" x="30" y="-258.5" font-family="Helvetica,sans-Serif" font-size="10.00">+</text>
<text text-anchor="start" x="44" y="-258.5" font-family="Helvetica,sans-Serif" font-size="10.00">string? CategoryUuid</text>
<text text-anchor="start" x="105" y="-243.5" font-family="Helvetica,sans-Serif" font-size="10.00"> </text>
<polygon fill="#666666" stroke="#666666" points="25,-313.5 25,-313.5 189,-313.5 189,-313.5 25,-313.5"/>
<polygon fill="#666666" stroke="#666666" points="25,-253.5 25,-253.5 42,-253.5 42,-253.5 25,-253.5"/>
<polygon fill="#666666" stroke="#666666" points="42,-253.5 42,-253.5 189,-253.5 189,-253.5 42,-253.5"/>
<polygon fill="none" stroke="#666666" points="25,-237 25,-342 189,-342 189,-237 25,-237"/>
</a>
</g>
</g>
<!-- Node3&#45;&gt;Node2 -->
<g id="edge2_Node000002_Node000003" class="edge">
<title>Node3&#45;&gt;Node2</title>
<g id="a_edge2_Node000002_Node000003"><a xlink:title=" ">
<path fill="none" stroke="#63b8ff" d="M107,-226.71C107,-217.85 107,-209.09 107,-201.27"/>
<polygon fill="none" stroke="#63b8ff" points="103.5,-226.72 107,-236.72 110.5,-226.72 103.5,-226.72"/>
</a>
</g>
</g>
</g>
</svg>
