<?xml version="1.0" encoding="UTF-8" standalone="no"?>
<!DOCTYPE svg PUBLIC "-//W3C//DTD SVG 1.1//EN"
 "http://www.w3.org/Graphics/SVG/1.1/DTD/svg11.dtd">
<!-- Generated by graphviz version 2.43.0 (0)
 -->
<!-- Title: Vehicle Pages: 1 -->
<svg width="151pt" height="227pt"
 viewBox="0.00 0.00 151.00 227.00" xmlns="http://www.w3.org/2000/svg" xmlns:xlink="http://www.w3.org/1999/xlink">
<g id="graph0" class="graph" transform="scale(1 1) rotate(0) translate(4 223)">
<title>Vehicle</title>
<!-- Node1 -->
<g id="Node000001" class="node">
<title>Node1</title>
<g id="a_Node000001"><a xlink:title=" ">
<polygon fill="#999999" stroke="transparent" points="143,-86 0,-86 0,0 143,0 143,-86"/>
<text text-anchor="start" x="54" y="-74" font-family="Helvetica,sans-Serif" font-size="10.00">Vehicle</text>
<text text-anchor="start" x="70" y="-59" font-family="Helvetica,sans-Serif" font-size="10.00"> </text>
<text text-anchor="start" x="4.5" y="-44" font-family="Helvetica,sans-Serif" font-size="10.00">+</text>
<text text-anchor="start" x="17.5" y="-44" font-family="Helvetica,sans-Serif" font-size="10.00">void vehicleStart(Vehicle</text>
<text text-anchor="start" x="17.5" y="-33" font-family="Helvetica,sans-Serif" font-size="10.00"> *obj)</text>
<text text-anchor="start" x="4.5" y="-18" font-family="Helvetica,sans-Serif" font-size="10.00">+</text>
<text text-anchor="start" x="17.5" y="-18" font-family="Helvetica,sans-Serif" font-size="10.00">void vehicleStop(Vehicle</text>
<text text-anchor="start" x="17.5" y="-7" font-family="Helvetica,sans-Serif" font-size="10.00"> *obj)</text>
<polygon fill="#666666" stroke="#666666" points="0.5,-69 0.5,-69 143.5,-69 143.5,-69 0.5,-69"/>
<polygon fill="#666666" stroke="#666666" points="0.5,-54 0.5,-54 143.5,-54 143.5,-54 0.5,-54"/>
<polygon fill="none" stroke="#666666" points="0,0 0,-86 143,-86 143,0 0,0"/>
</a>
</g>
</g>
<!-- Node2 -->
<g id="Node000002" class="node">
<title>Node2</title>
<g id="a_Node000002"><a xlink:href="../../de/de7/structObject.html" target="_top" xlink:title=" ">
<polygon fill="white" stroke="transparent" points="139.5,-219 3.5,-219 3.5,-133 139.5,-133 139.5,-219"/>
<text text-anchor="start" x="55.5" y="-207" font-family="Helvetica,sans-Serif" font-size="10.00">Object</text>
<text text-anchor="start" x="10" y="-192" font-family="Helvetica,sans-Serif" font-size="10.00">&#45;</text>
<text text-anchor="start" x="20.5" y="-192" font-family="Helvetica,sans-Serif" font-size="10.00">int ref</text>
<text text-anchor="start" x="7.5" y="-177" font-family="Helvetica,sans-Serif" font-size="10.00">+</text>
<text text-anchor="start" x="20.5" y="-177" font-family="Helvetica,sans-Serif" font-size="10.00">static Object * objRef</text>
<text text-anchor="start" x="20.5" y="-166" font-family="Helvetica,sans-Serif" font-size="10.00">(Object *obj)</text>
<text text-anchor="start" x="7.5" y="-151" font-family="Helvetica,sans-Serif" font-size="10.00">+</text>
<text text-anchor="start" x="20.5" y="-151" font-family="Helvetica,sans-Serif" font-size="10.00">static Object * objUnref</text>
<text text-anchor="start" x="20.5" y="-140" font-family="Helvetica,sans-Serif" font-size="10.00">(Object *obj)</text>
<polygon fill="#666666" stroke="#666666" points="3.5,-202 3.5,-202 139.5,-202 139.5,-202 3.5,-202"/>
<polygon fill="#666666" stroke="#666666" points="3.5,-187 3.5,-187 18.5,-187 18.5,-187 3.5,-187"/>
<polygon fill="#666666" stroke="#666666" points="18.5,-187 18.5,-187 139.5,-187 139.5,-187 18.5,-187"/>
<polygon fill="none" stroke="#666666" points="3.5,-133 3.5,-219 139.5,-219 139.5,-133 3.5,-133"/>
</a>
</g>
</g>
<!-- Node2&#45;&gt;Node1 -->
<g id="edge1_Node000001_Node000002" class="edge">
<title>Node2&#45;&gt;Node1</title>
<g id="a_edge1_Node000001_Node000002"><a xlink:title=" ">
<path fill="none" stroke="#63b8ff" d="M69.49,-122.54C69.41,-116.29 69.4,-110 69.5,-104 69.6,-98.27 69.74,-92.23 69.91,-86.28"/>
<polygon fill="none" stroke="#63b8ff" points="66,-123.02 69.69,-132.96 73,-122.89 66,-123.02"/>
</a>
</g>
</g>
<!-- Node2&#45;&gt;Node1 -->
<g id="edge2_Node000001_Node000002" class="edge">
<title>Node2&#45;&gt;Node1</title>
<g id="a_edge2_Node000001_Node000002"><a xlink:title=" ">
<path fill="none" stroke="#63b8ff" d="M71.5,-132.83C71.5,-121.84 71.5,-109.85 71.5,-98.33"/>
<polygon fill="none" stroke="#63b8ff" points="71.5,-98.09 67.5,-92.09 71.5,-86.09 75.5,-92.09 71.5,-98.09"/>
</a>
</g>
<text text-anchor="middle" x="89" y="-107" font-family="Helvetica,sans-Serif" font-size="10.00" fill="grey"> #base</text>
</g>
</g>
</svg>
