<?xml version="1.0" encoding="UTF-8" standalone="no"?>
<!DOCTYPE svg PUBLIC "-//W3C//DTD SVG 1.1//EN"
 "http://www.w3.org/Graphics/SVG/1.1/DTD/svg11.dtd">
<!-- Generated by graphviz version 2.43.0 (0)
 -->
<!-- Title: NookpostBackend.Program.Main Pages: 1 -->
<svg width="1300pt" height="804pt"
 viewBox="0.00 0.00 1300.00 804.00" xmlns="http://www.w3.org/2000/svg" xmlns:xlink="http://www.w3.org/1999/xlink">
<g id="graph0" class="graph" transform="scale(1 1) rotate(0) translate(4 800)">
<title>NookpostBackend.Program.Main</title>
<!-- Node1 -->
<g id="Node000001" class="node">
<title>Node1</title>
<g id="a_Node000001"><a xlink:title=" ">
<polygon fill="#999999" stroke="#666666" points="176,-479 0,-479 0,-460 176,-460 176,-479"/>
<text text-anchor="middle" x="88" y="-467" font-family="Helvetica,sans-Serif" font-size="10.00">NookpostBackend.Program.Main</text>
</a>
</g>
</g>
<!-- Node2 -->
<g id="Node000002" class="node">
<title>Node2</title>
<g id="a_Node000002"><a xlink:href="../../db/d6a/classNookpostBackend_1_1ApiEndpoints_1_1EndpointSetup.html#a00aafd7a4451d533ddb2969de9ac57a3" target="_top" xlink:title="Sets up all API Endpints on the given webapp">
<polygon fill="white" stroke="#666666" points="386,-484.5 212,-484.5 212,-454.5 386,-454.5 386,-484.5"/>
<text text-anchor="start" x="220" y="-472.5" font-family="Helvetica,sans-Serif" font-size="10.00">NookpostBackend.ApiEndpoints.</text>
<text text-anchor="middle" x="299" y="-461.5" font-family="Helvetica,sans-Serif" font-size="10.00">EndpointSetup.Setup</text>
</a>
</g>
</g>
<!-- Node1&#45;&gt;Node2 -->
<g id="edge1_Node000001_Node000002" class="edge">
<title>Node1&#45;&gt;Node2</title>
<g id="a_edge1_Node000001_Node000002"><a xlink:title=" ">
<path fill="none" stroke="#63b8ff" d="M176.12,-469.5C184.48,-469.5 193,-469.5 201.44,-469.5"/>
<polygon fill="#63b8ff" stroke="#63b8ff" points="201.69,-473 211.69,-469.5 201.69,-466 201.69,-473"/>
</a>
</g>
</g>
<!-- Node3 -->
<g id="Node000003" class="node">
<title>Node3</title>
<g id="a_Node000003"><a xlink:href="../../da/dec/classNookpostBackend_1_1ApiEndpoints_1_1Authentication_1_1EndpointSetup.html#a8392c3a12fa78c0464e385e38fb3e4c1" target="_top" xlink:title="Initialize the Authentication Endpoints on the WebApp object.">
<polygon fill="white" stroke="#666666" points="614,-736.5 422,-736.5 422,-706.5 614,-706.5 614,-736.5"/>
<text text-anchor="start" x="430" y="-724.5" font-family="Helvetica,sans-Serif" font-size="10.00">NookpostBackend.ApiEndpoints.</text>
<text text-anchor="middle" x="518" y="-713.5" font-family="Helvetica,sans-Serif" font-size="10.00">Authentication.EndpointSetup.Setup</text>
</a>
</g>
</g>
<!-- Node2&#45;&gt;Node3 -->
<g id="edge2_Node000002_Node000003" class="edge">
<title>Node2&#45;&gt;Node3</title>
<g id="a_edge2_Node000002_Node000003"><a xlink:title=" ">
<path fill="none" stroke="#63b8ff" d="M309.43,-484.71C328.69,-515.23 374.74,-585.47 422,-637.5 442.85,-660.46 469.52,-683.58 489.29,-699.74"/>
<polygon fill="#63b8ff" stroke="#63b8ff" points="487.33,-702.66 497.31,-706.22 491.73,-697.21 487.33,-702.66"/>
</a>
</g>
</g>
<!-- Node8 -->
<g id="Node000008" class="node">
<title>Node8</title>
<g id="a_Node000008"><a xlink:href="../../d9/de7/classNookpostBackend_1_1ApiEndpoints_1_1Categories_1_1EndpointSetup.html#a86d3e18e54302732e5eebb32bdb6ad57" target="_top" xlink:title="Sets up the post endpoints on the given Webapp">
<polygon fill="white" stroke="#666666" points="605,-628.5 431,-628.5 431,-598.5 605,-598.5 605,-628.5"/>
<text text-anchor="start" x="439" y="-616.5" font-family="Helvetica,sans-Serif" font-size="10.00">NookpostBackend.ApiEndpoints.</text>
<text text-anchor="middle" x="518" y="-605.5" font-family="Helvetica,sans-Serif" font-size="10.00">Categories.EndpointSetup.Setup</text>
</a>
</g>
</g>
<!-- Node2&#45;&gt;Node8 -->
<g id="edge9_Node000002_Node000008" class="edge">
<title>Node2&#45;&gt;Node8</title>
<g id="a_edge9_Node000002_Node000008"><a xlink:title=" ">
<path fill="none" stroke="#63b8ff" d="M322.81,-484.64C361.88,-510.57 441.66,-563.5 485.83,-592.82"/>
<polygon fill="#63b8ff" stroke="#63b8ff" points="483.9,-595.74 494.17,-598.35 487.77,-589.9 483.9,-595.74"/>
</a>
</g>
</g>
<!-- Node11 -->
<g id="Node000011" class="node">
<title>Node11</title>
<g id="a_Node000011"><a xlink:href="../../dd/d3d/classNookpostBackend_1_1ApiEndpoints_1_1Posts_1_1EndpointSetup.html#a464305357459e2d7e611f4e1fb258cf8" target="_top" xlink:title="Sets up the post endpoints on the given Webapp">
<polygon fill="white" stroke="#666666" points="605,-484.5 431,-484.5 431,-454.5 605,-454.5 605,-484.5"/>
<text text-anchor="start" x="439" y="-472.5" font-family="Helvetica,sans-Serif" font-size="10.00">NookpostBackend.ApiEndpoints.</text>
<text text-anchor="middle" x="518" y="-461.5" font-family="Helvetica,sans-Serif" font-size="10.00">Posts.EndpointSetup.Setup</text>
</a>
</g>
</g>
<!-- Node2&#45;&gt;Node11 -->
<g id="edge12_Node000002_Node000011" class="edge">
<title>Node2&#45;&gt;Node11</title>
<g id="a_edge12_Node000002_Node000011"><a xlink:title=" ">
<path fill="none" stroke="#63b8ff" d="M386.08,-469.5C397.42,-469.5 409.12,-469.5 420.62,-469.5"/>
<polygon fill="#63b8ff" stroke="#63b8ff" points="420.67,-473 430.67,-469.5 420.67,-466 420.67,-473"/>
</a>
</g>
</g>
<!-- Node17 -->
<g id="Node000017" class="node">
<title>Node17</title>
<g id="a_Node000017"><a xlink:href="../../d3/dd0/classNookpostBackend_1_1ApiEndpoints_1_1Users_1_1EndpointSetup.html#a4dbfdc6339578aaf6762795e71dbe9dd" target="_top" xlink:title="Sets up the user endpoints on the given Webapp">
<polygon fill="white" stroke="#666666" points="605,-268.5 431,-268.5 431,-238.5 605,-238.5 605,-268.5"/>
<text text-anchor="start" x="439" y="-256.5" font-family="Helvetica,sans-Serif" font-size="10.00">NookpostBackend.ApiEndpoints.</text>
<text text-anchor="middle" x="518" y="-245.5" font-family="Helvetica,sans-Serif" font-size="10.00">Users.EndpointSetup.Setup</text>
</a>
</g>
</g>
<!-- Node2&#45;&gt;Node17 -->
<g id="edge18_Node000002_Node000017" class="edge">
<title>Node2&#45;&gt;Node17</title>
<g id="a_edge18_Node000002_Node000017"><a xlink:title=" ">
<path fill="none" stroke="#63b8ff" d="M315.26,-454.31C352.92,-416.82 450.45,-319.74 494.64,-275.75"/>
<polygon fill="#63b8ff" stroke="#63b8ff" points="497.14,-278.21 501.76,-268.67 492.2,-273.25 497.14,-278.21"/>
</a>
</g>
</g>
<!-- Node24 -->
<g id="Node000024" class="node">
<title>Node24</title>
<g id="a_Node000024"><a xlink:href="../../d2/d5d/classNookpostBackend_1_1ApiEndpoints_1_1UserSettings_1_1EndpointSetup.html#aa202c3a7566b9d1591d3b894013cbc42" target="_top" xlink:title="Sets up the user settigns endpoints on the given Webapp">
<polygon fill="white" stroke="#666666" points="609.5,-94.5 426.5,-94.5 426.5,-64.5 609.5,-64.5 609.5,-94.5"/>
<text text-anchor="start" x="434.5" y="-82.5" font-family="Helvetica,sans-Serif" font-size="10.00">NookpostBackend.ApiEndpoints.</text>
<text text-anchor="middle" x="518" y="-71.5" font-family="Helvetica,sans-Serif" font-size="10.00">UserSettings.EndpointSetup.Setup</text>
</a>
</g>
</g>
<!-- Node2&#45;&gt;Node24 -->
<g id="edge26_Node000002_Node000024" class="edge">
<title>Node2&#45;&gt;Node24</title>
<g id="a_edge26_Node000002_Node000024"><a xlink:title=" ">
<path fill="none" stroke="#63b8ff" d="M307.09,-454.36C325.13,-416.07 374.72,-312.57 422,-229.5 448,-183.81 481.52,-132.43 501,-103.21"/>
<polygon fill="#63b8ff" stroke="#63b8ff" points="504.15,-104.8 506.81,-94.54 498.34,-100.9 504.15,-104.8"/>
</a>
</g>
</g>
<!-- Node4 -->
<g id="Node000004" class="node">
<title>Node4</title>
<g id="a_Node000004"><a xlink:href="../../de/dbb/classNookpostBackend_1_1ApiEndpoints_1_1Authentication_1_1ChangePassword.html#abd3c4e5b346311d2d9d92063e1e0aa2e" target="_top" xlink:title="Changes the password of a user.">
<polygon fill="white" stroke="#666666" points="861,-796 650,-796 650,-755 861,-755 861,-796"/>
<text text-anchor="start" x="658" y="-784" font-family="Helvetica,sans-Serif" font-size="10.00">NookpostBackend.ApiEndpoints.</text>
<text text-anchor="start" x="658" y="-773" font-family="Helvetica,sans-Serif" font-size="10.00">Authentication.ChangePassword.Handle</text>
<text text-anchor="middle" x="755.5" y="-762" font-family="Helvetica,sans-Serif" font-size="10.00">Request</text>
</a>
</g>
</g>
<!-- Node3&#45;&gt;Node4 -->
<g id="edge3_Node000003_Node000004" class="edge">
<title>Node3&#45;&gt;Node4</title>
<g id="a_edge3_Node000003_Node000004"><a xlink:title=" ">
<path fill="none" stroke="#63b8ff" d="M584.6,-736.54C606.49,-741.56 631.39,-747.27 655.26,-752.74"/>
<polygon fill="#63b8ff" stroke="#63b8ff" points="654.52,-756.17 665.05,-754.99 656.09,-749.34 654.52,-756.17"/>
</a>
</g>
</g>
<!-- Node7 -->
<g id="Node000007" class="node">
<title>Node7</title>
<g id="a_Node000007"><a xlink:href="../../d0/d93/classNookpostBackend_1_1ApiEndpoints_1_1Authentication_1_1Login.html#a918444cedb461f353b4f3a00642ba169" target="_top" xlink:title="Authenticates the user and returns an access token.">
<polygon fill="white" stroke="#666666" points="842.5,-736.5 668.5,-736.5 668.5,-706.5 842.5,-706.5 842.5,-736.5"/>
<text text-anchor="start" x="676.5" y="-724.5" font-family="Helvetica,sans-Serif" font-size="10.00">NookpostBackend.ApiEndpoints.</text>
<text text-anchor="middle" x="755.5" y="-713.5" font-family="Helvetica,sans-Serif" font-size="10.00">Authentication.Login.PostLogin</text>
</a>
</g>
</g>
<!-- Node3&#45;&gt;Node7 -->
<g id="edge7_Node000003_Node000007" class="edge">
<title>Node3&#45;&gt;Node7</title>
<g id="a_edge7_Node000003_Node000007"><a xlink:title=" ">
<path fill="none" stroke="#63b8ff" d="M614.11,-721.5C628.49,-721.5 643.34,-721.5 657.75,-721.5"/>
<polygon fill="#63b8ff" stroke="#63b8ff" points="658.16,-725 668.16,-721.5 658.16,-718 658.16,-725"/>
</a>
</g>
</g>
<!-- Node5 -->
<g id="Node000005" class="node">
<title>Node5</title>
<g id="a_Node000005"><a xlink:href="../../d3/d34/classNookpostBackend_1_1Cryptography_1_1PasswordHashing.html#aeb943c5a3973106cc7405123255da371" target="_top" xlink:title="Hash a password with the given salt and password. The Pepper will automatically be obtained from sett...">
<polygon fill="white" stroke="#666666" points="1292,-739.5 1116,-739.5 1116,-709.5 1292,-709.5 1292,-739.5"/>
<text text-anchor="start" x="1124" y="-727.5" font-family="Helvetica,sans-Serif" font-size="10.00">NookpostBackend.Cryptography.</text>
<text text-anchor="middle" x="1204" y="-716.5" font-family="Helvetica,sans-Serif" font-size="10.00">PasswordHashing.HashPassword</text>
</a>
</g>
</g>
<!-- Node4&#45;&gt;Node5 -->
<g id="edge4_Node000004_Node000005" class="edge">
<title>Node4&#45;&gt;Node5</title>
<g id="a_edge4_Node000004_Node000005"><a xlink:title=" ">
<path fill="none" stroke="#63b8ff" d="M861.35,-769.66C924.83,-765.41 1007.29,-758.6 1080,-748.5 1093.87,-746.57 1108.55,-744.1 1122.74,-741.47"/>
<polygon fill="#63b8ff" stroke="#63b8ff" points="1123.8,-744.83 1132.97,-739.54 1122.5,-737.96 1123.8,-744.83"/>
</a>
</g>
</g>
<!-- Node6 -->
<g id="Node000006" class="node">
<title>Node6</title>
<g id="a_Node000006"><a xlink:href="../../d3/d34/classNookpostBackend_1_1Cryptography_1_1PasswordHashing.html#a40192bd81c7fc4e7cc265f84e5d99df3" target="_top" xlink:title="Validate a password for a user.">
<polygon fill="white" stroke="#666666" points="1080,-739.5 897,-739.5 897,-709.5 1080,-709.5 1080,-739.5"/>
<text text-anchor="start" x="905" y="-727.5" font-family="Helvetica,sans-Serif" font-size="10.00">NookpostBackend.Cryptography.</text>
<text text-anchor="middle" x="988.5" y="-716.5" font-family="Helvetica,sans-Serif" font-size="10.00">PasswordHashing.isPasswordValid</text>
</a>
</g>
</g>
<!-- Node4&#45;&gt;Node6 -->
<g id="edge5_Node000004_Node000006" class="edge">
<title>Node4&#45;&gt;Node6</title>
<g id="a_edge5_Node000004_Node000006"><a xlink:title=" ">
<path fill="none" stroke="#63b8ff" d="M849.46,-754.98C869.32,-750.59 890.1,-746 909.33,-741.76"/>
<polygon fill="#63b8ff" stroke="#63b8ff" points="910.23,-745.14 919.24,-739.57 908.72,-738.31 910.23,-745.14"/>
</a>
</g>
</g>
<!-- Node6&#45;&gt;Node5 -->
<g id="edge6_Node000006_Node000005" class="edge">
<title>Node6&#45;&gt;Node5</title>
<g id="a_edge6_Node000006_Node000005"><a xlink:title=" ">
<path fill="none" stroke="#63b8ff" d="M1080.04,-724.5C1088.45,-724.5 1096.99,-724.5 1105.45,-724.5"/>
<polygon fill="#63b8ff" stroke="#63b8ff" points="1105.72,-728 1115.72,-724.5 1105.72,-721 1105.72,-728"/>
</a>
</g>
</g>
<!-- Node7&#45;&gt;Node6 -->
<g id="edge8_Node000007_Node000006" class="edge">
<title>Node7&#45;&gt;Node6</title>
<g id="a_edge8_Node000007_Node000006"><a xlink:title=" ">
<path fill="none" stroke="#63b8ff" d="M842.52,-722.62C856.9,-722.8 871.94,-723 886.65,-723.19"/>
<polygon fill="#63b8ff" stroke="#63b8ff" points="886.73,-726.69 896.77,-723.32 886.82,-719.69 886.73,-726.69"/>
</a>
</g>
</g>
<!-- Node9 -->
<g id="Node000009" class="node">
<title>Node9</title>
<g id="a_Node000009"><a xlink:href="../../da/d57/classNookpostBackend_1_1ApiEndpoints_1_1Categories_1_1GetAllCategories.html#a36e796bcfd7fa5da82d9b48f4aacf17c" target="_top" xlink:title="Gets all categories.">
<polygon fill="white" stroke="#666666" points="851.5,-688 659.5,-688 659.5,-647 851.5,-647 851.5,-688"/>
<text text-anchor="start" x="667.5" y="-676" font-family="Helvetica,sans-Serif" font-size="10.00">NookpostBackend.ApiEndpoints.</text>
<text text-anchor="start" x="667.5" y="-665" font-family="Helvetica,sans-Serif" font-size="10.00">Categories.GetAllCategories.Handle</text>
<text text-anchor="middle" x="755.5" y="-654" font-family="Helvetica,sans-Serif" font-size="10.00">Request</text>
</a>
</g>
</g>
<!-- Node8&#45;&gt;Node9 -->
<g id="edge10_Node000008_Node000009" class="edge">
<title>Node8&#45;&gt;Node9</title>
<g id="a_edge10_Node000008_Node000009"><a xlink:title=" ">
<path fill="none" stroke="#63b8ff" d="M584.6,-628.54C606.49,-633.56 631.39,-639.27 655.26,-644.74"/>
<polygon fill="#63b8ff" stroke="#63b8ff" points="654.52,-648.17 665.05,-646.99 656.09,-641.34 654.52,-648.17"/>
</a>
</g>
</g>
<!-- Node10 -->
<g id="Node000010" class="node">
<title>Node10</title>
<g id="a_Node000010"><a xlink:href="../../d1/d03/classNookpostBackend_1_1ApiEndpoints_1_1Categories_1_1GetCategory.html#aab4933583ea240f4aa8139282030f82b" target="_top" xlink:title="Gets a category.">
<polygon fill="white" stroke="#666666" points="860,-628.5 651,-628.5 651,-598.5 860,-598.5 860,-628.5"/>
<text text-anchor="start" x="659" y="-616.5" font-family="Helvetica,sans-Serif" font-size="10.00">NookpostBackend.ApiEndpoints.</text>
<text text-anchor="middle" x="755.5" y="-605.5" font-family="Helvetica,sans-Serif" font-size="10.00">Categories.GetCategory.HandleRequest</text>
</a>
</g>
</g>
<!-- Node8&#45;&gt;Node10 -->
<g id="edge11_Node000008_Node000010" class="edge">
<title>Node8&#45;&gt;Node10</title>
<g id="a_edge11_Node000008_Node000010"><a xlink:title=" ">
<path fill="none" stroke="#63b8ff" d="M605.02,-613.5C616.62,-613.5 628.66,-613.5 640.65,-613.5"/>
<polygon fill="#63b8ff" stroke="#63b8ff" points="640.7,-617 650.7,-613.5 640.7,-610 640.7,-617"/>
</a>
</g>
</g>
<!-- Node12 -->
<g id="Node000012" class="node">
<title>Node12</title>
<g id="a_Node000012"><a xlink:href="../../d8/dcc/classNookpostBackend_1_1ApiEndpoints_1_1Posts_1_1DeletePost.html#ac56bf91de4be2f970a018bddd2a2fbe7" target="_top" xlink:title="Deletes a post.">
<polygon fill="white" stroke="#666666" points="843.5,-580.5 667.5,-580.5 667.5,-550.5 843.5,-550.5 843.5,-580.5"/>
<text text-anchor="start" x="675.5" y="-568.5" font-family="Helvetica,sans-Serif" font-size="10.00">NookpostBackend.ApiEndpoints.</text>
<text text-anchor="middle" x="755.5" y="-557.5" font-family="Helvetica,sans-Serif" font-size="10.00">Posts.DeletePost.HandleRequest</text>
</a>
</g>
</g>
<!-- Node11&#45;&gt;Node12 -->
<g id="edge13_Node000011_Node000012" class="edge">
<title>Node11&#45;&gt;Node12</title>
<g id="a_edge13_Node000011_Node000012"><a xlink:title=" ">
<path fill="none" stroke="#63b8ff" d="M541.72,-484.54C567.13,-500.75 609.99,-526.25 650,-541.5 655.82,-543.72 661.91,-545.77 668.09,-547.65"/>
<polygon fill="#63b8ff" stroke="#63b8ff" points="667.28,-551.06 677.86,-550.48 669.22,-544.34 667.28,-551.06"/>
</a>
</g>
</g>
<!-- Node13 -->
<g id="Node000013" class="node">
<title>Node13</title>
<g id="a_Node000013"><a xlink:href="../../da/dbd/classNookpostBackend_1_1ApiEndpoints_1_1Posts_1_1GetPost.html#ae9af24ab2b8d507826b031e3c37324c1" target="_top" xlink:title="Gets a post.">
<polygon fill="white" stroke="#666666" points="842.5,-532.5 668.5,-532.5 668.5,-502.5 842.5,-502.5 842.5,-532.5"/>
<text text-anchor="start" x="676.5" y="-520.5" font-family="Helvetica,sans-Serif" font-size="10.00">NookpostBackend.ApiEndpoints.</text>
<text text-anchor="middle" x="755.5" y="-509.5" font-family="Helvetica,sans-Serif" font-size="10.00">Posts.GetPost.HandleRequest</text>
</a>
</g>
</g>
<!-- Node11&#45;&gt;Node13 -->
<g id="edge14_Node000011_Node000013" class="edge">
<title>Node11&#45;&gt;Node13</title>
<g id="a_edge14_Node000011_Node000013"><a xlink:title=" ">
<path fill="none" stroke="#63b8ff" d="M592.87,-484.56C617.64,-489.6 645.43,-495.27 670.89,-500.46"/>
<polygon fill="#63b8ff" stroke="#63b8ff" points="670.4,-503.93 680.89,-502.5 671.8,-497.07 670.4,-503.93"/>
</a>
</g>
</g>
<!-- Node14 -->
<g id="Node000014" class="node">
<title>Node14</title>
<g id="a_Node000014"><a xlink:href="../../d1/df7/classNookpostBackend_1_1ApiEndpoints_1_1Posts_1_1GetPostFiltered.html#a0e6e200bd2e98410f29145d81affdd5e" target="_top" xlink:title="Gets a filtered set of posts.">
<polygon fill="white" stroke="#666666" points="854.5,-484.5 656.5,-484.5 656.5,-454.5 854.5,-454.5 854.5,-484.5"/>
<text text-anchor="start" x="664.5" y="-472.5" font-family="Helvetica,sans-Serif" font-size="10.00">NookpostBackend.ApiEndpoints.</text>
<text text-anchor="middle" x="755.5" y="-461.5" font-family="Helvetica,sans-Serif" font-size="10.00">Posts.GetPostFiltered.HandleRequest</text>
</a>
</g>
</g>
<!-- Node11&#45;&gt;Node14 -->
<g id="edge15_Node000011_Node000014" class="edge">
<title>Node11&#45;&gt;Node14</title>
<g id="a_edge15_Node000011_Node000014"><a xlink:title=" ">
<path fill="none" stroke="#63b8ff" d="M605.02,-469.5C618.45,-469.5 632.47,-469.5 646.32,-469.5"/>
<polygon fill="#63b8ff" stroke="#63b8ff" points="646.36,-473 656.36,-469.5 646.36,-466 646.36,-473"/>
</a>
</g>
</g>
<!-- Node15 -->
<g id="Node000015" class="node">
<title>Node15</title>
<g id="a_Node000015"><a xlink:href="../../d9/d72/classNookpostBackend_1_1ApiEndpoints_1_1Posts_1_1PostPost.html#a1a3b94f025dd1d35853530139c4c1572" target="_top" xlink:title="Creates a post.">
<polygon fill="white" stroke="#666666" points="842.5,-436.5 668.5,-436.5 668.5,-406.5 842.5,-406.5 842.5,-436.5"/>
<text text-anchor="start" x="676.5" y="-424.5" font-family="Helvetica,sans-Serif" font-size="10.00">NookpostBackend.ApiEndpoints.</text>
<text text-anchor="middle" x="755.5" y="-413.5" font-family="Helvetica,sans-Serif" font-size="10.00">Posts.PostPost.HandleRequest</text>
</a>
</g>
</g>
<!-- Node11&#45;&gt;Node15 -->
<g id="edge16_Node000011_Node000015" class="edge">
<title>Node11&#45;&gt;Node15</title>
<g id="a_edge16_Node000011_Node000015"><a xlink:title=" ">
<path fill="none" stroke="#63b8ff" d="M592.87,-454.44C617.64,-449.4 645.43,-443.73 670.89,-438.54"/>
<polygon fill="#63b8ff" stroke="#63b8ff" points="671.8,-441.93 680.89,-436.5 670.4,-435.07 671.8,-441.93"/>
</a>
</g>
</g>
<!-- Node16 -->
<g id="Node000016" class="node">
<title>Node16</title>
<g id="a_Node000016"><a xlink:href="../../d8/d19/classNookpostBackend_1_1ApiEndpoints_1_1Posts_1_1PutPost.html#acdacbe6d57537381287795d5d43c7200" target="_top" xlink:title="Modifies a post.">
<polygon fill="white" stroke="#666666" points="842.5,-388.5 668.5,-388.5 668.5,-358.5 842.5,-358.5 842.5,-388.5"/>
<text text-anchor="start" x="676.5" y="-376.5" font-family="Helvetica,sans-Serif" font-size="10.00">NookpostBackend.ApiEndpoints.</text>
<text text-anchor="middle" x="755.5" y="-365.5" font-family="Helvetica,sans-Serif" font-size="10.00">Posts.PutPost.HandleRequest</text>
</a>
</g>
</g>
<!-- Node11&#45;&gt;Node16 -->
<g id="edge17_Node000011_Node000016" class="edge">
<title>Node11&#45;&gt;Node16</title>
<g id="a_edge17_Node000011_Node000016"><a xlink:title=" ">
<path fill="none" stroke="#63b8ff" d="M541.72,-454.46C567.13,-438.25 609.99,-412.75 650,-397.5 655.82,-395.28 661.91,-393.23 668.09,-391.35"/>
<polygon fill="#63b8ff" stroke="#63b8ff" points="669.22,-394.66 677.86,-388.52 667.28,-387.94 669.22,-394.66"/>
</a>
</g>
</g>
<!-- Node18 -->
<g id="Node000018" class="node">
<title>Node18</title>
<g id="a_Node000018"><a xlink:href="../../db/d18/classNookpostBackend_1_1ApiEndpoints_1_1Users_1_1DeleteUserMe.html#aae42f13191e9d45986c2b7b38ff59f6f" target="_top" xlink:title="Deletes a user.">
<polygon fill="white" stroke="#666666" points="852.5,-340.5 658.5,-340.5 658.5,-310.5 852.5,-310.5 852.5,-340.5"/>
<text text-anchor="start" x="666.5" y="-328.5" font-family="Helvetica,sans-Serif" font-size="10.00">NookpostBackend.ApiEndpoints.</text>
<text text-anchor="middle" x="755.5" y="-317.5" font-family="Helvetica,sans-Serif" font-size="10.00">Users.DeleteUserMe.HandleRequest</text>
</a>
</g>
</g>
<!-- Node17&#45;&gt;Node18 -->
<g id="edge19_Node000017_Node000018" class="edge">
<title>Node17&#45;&gt;Node18</title>
<g id="a_edge19_Node000017_Node000018"><a xlink:title=" ">
<path fill="none" stroke="#63b8ff" d="M556.13,-268.52C582.13,-278.69 617.84,-291.96 650,-301.5 657.68,-303.78 665.72,-305.97 673.8,-308.04"/>
<polygon fill="#63b8ff" stroke="#63b8ff" points="673.09,-311.47 683.64,-310.49 674.79,-304.67 673.09,-311.47"/>
</a>
</g>
</g>
<!-- Node19 -->
<g id="Node000019" class="node">
<title>Node19</title>
<g id="a_Node000019"><a xlink:href="../../d9/dc5/classNookpostBackend_1_1ApiEndpoints_1_1Users_1_1GetUser.html#aafe1f7a8c5753df2bd92177a685b5d69" target="_top" xlink:title="Gets a user.">
<polygon fill="white" stroke="#666666" points="842.5,-292.5 668.5,-292.5 668.5,-262.5 842.5,-262.5 842.5,-292.5"/>
<text text-anchor="start" x="676.5" y="-280.5" font-family="Helvetica,sans-Serif" font-size="10.00">NookpostBackend.ApiEndpoints.</text>
<text text-anchor="middle" x="755.5" y="-269.5" font-family="Helvetica,sans-Serif" font-size="10.00">Users.GetUser.HandleRequest</text>
</a>
</g>
</g>
<!-- Node17&#45;&gt;Node19 -->
<g id="edge20_Node000017_Node000019" class="edge">
<title>Node17&#45;&gt;Node19</title>
<g id="a_edge20_Node000017_Node000019"><a xlink:title=" ">
<path fill="none" stroke="#63b8ff" d="M605.02,-262.27C622.27,-264.02 640.49,-265.88 658.06,-267.67"/>
<polygon fill="#63b8ff" stroke="#63b8ff" points="658.02,-271.19 668.32,-268.72 658.72,-264.22 658.02,-271.19"/>
</a>
</g>
</g>
<!-- Node20 -->
<g id="Node000020" class="node">
<title>Node20</title>
<g id="a_Node000020"><a xlink:href="../../d5/dd1/classNookpostBackend_1_1ApiEndpoints_1_1Users_1_1GetUserMe.html#ab0714f7a75f23d54d5e96a7af1da3c37" target="_top" xlink:title="Gets a user.">
<polygon fill="white" stroke="#666666" points="845,-244.5 666,-244.5 666,-214.5 845,-214.5 845,-244.5"/>
<text text-anchor="start" x="674" y="-232.5" font-family="Helvetica,sans-Serif" font-size="10.00">NookpostBackend.ApiEndpoints.</text>
<text text-anchor="middle" x="755.5" y="-221.5" font-family="Helvetica,sans-Serif" font-size="10.00">Users.GetUserMe.HandleRequest</text>
</a>
</g>
</g>
<!-- Node17&#45;&gt;Node20 -->
<g id="edge21_Node000017_Node000020" class="edge">
<title>Node17&#45;&gt;Node20</title>
<g id="a_edge21_Node000017_Node000020"><a xlink:title=" ">
<path fill="none" stroke="#63b8ff" d="M605.02,-244.73C621.45,-243.06 638.77,-241.29 655.57,-239.58"/>
<polygon fill="#63b8ff" stroke="#63b8ff" points="656.35,-243.02 665.95,-238.52 655.64,-236.06 656.35,-243.02"/>
</a>
</g>
</g>
<!-- Node21 -->
<g id="Node000021" class="node">
<title>Node21</title>
<g id="a_Node000021"><a xlink:href="../../d6/df1/classNookpostBackend_1_1ApiEndpoints_1_1Users_1_1PostUser.html#a9f3f056050d7adf6dd07e6671928d306" target="_top" xlink:title="Creates a new user.">
<polygon fill="white" stroke="#666666" points="842.5,-196.5 668.5,-196.5 668.5,-166.5 842.5,-166.5 842.5,-196.5"/>
<text text-anchor="start" x="676.5" y="-184.5" font-family="Helvetica,sans-Serif" font-size="10.00">NookpostBackend.ApiEndpoints.</text>
<text text-anchor="middle" x="755.5" y="-173.5" font-family="Helvetica,sans-Serif" font-size="10.00">Users.PostUser.HandleRequest</text>
</a>
</g>
</g>
<!-- Node17&#45;&gt;Node21 -->
<g id="edge22_Node000017_Node000021" class="edge">
<title>Node17&#45;&gt;Node21</title>
<g id="a_edge22_Node000017_Node000021"><a xlink:title=" ">
<path fill="none" stroke="#63b8ff" d="M556.13,-238.48C582.13,-228.31 617.84,-215.04 650,-205.5 657.68,-203.22 665.72,-201.03 673.8,-198.96"/>
<polygon fill="#63b8ff" stroke="#63b8ff" points="674.79,-202.33 683.64,-196.51 673.09,-195.53 674.79,-202.33"/>
</a>
</g>
</g>
<!-- Node23 -->
<g id="Node000023" class="node">
<title>Node23</title>
<g id="a_Node000023"><a xlink:href="../../de/d32/classNookpostBackend_1_1ApiEndpoints_1_1Users_1_1PutUserMe.html#a3f88a9d10120a42efb3e0c2ef3e6430b" target="_top" xlink:title="Modifies a user.">
<polygon fill="white" stroke="#666666" points="844.5,-148.5 666.5,-148.5 666.5,-118.5 844.5,-118.5 844.5,-148.5"/>
<text text-anchor="start" x="674.5" y="-136.5" font-family="Helvetica,sans-Serif" font-size="10.00">NookpostBackend.ApiEndpoints.</text>
<text text-anchor="middle" x="755.5" y="-125.5" font-family="Helvetica,sans-Serif" font-size="10.00">Users.PutUserMe.HandleRequest</text>
</a>
</g>
</g>
<!-- Node17&#45;&gt;Node23 -->
<g id="edge25_Node000017_Node000023" class="edge">
<title>Node17&#45;&gt;Node23</title>
<g id="a_edge25_Node000017_Node000023"><a xlink:title=" ">
<path fill="none" stroke="#63b8ff" d="M534.97,-238.37C558.34,-217.07 604.1,-178.5 650,-157.5 654.59,-155.4 659.38,-153.48 664.28,-151.71"/>
<polygon fill="#63b8ff" stroke="#63b8ff" points="665.43,-155.02 673.8,-148.52 663.21,-148.38 665.43,-155.02"/>
</a>
</g>
</g>
<!-- Node21&#45;&gt;Node5 -->
<g id="edge23_Node000021_Node000005" class="edge">
<title>Node21&#45;&gt;Node5</title>
<g id="a_edge23_Node000021_Node000005"><a xlink:title=" ">
<path fill="none" stroke="#63b8ff" d="M842.66,-195.52C849.14,-198.28 855.34,-201.57 861,-205.5 1052.02,-338.14 1163.8,-615.27 1194.38,-699.61"/>
<polygon fill="#63b8ff" stroke="#63b8ff" points="1191.12,-700.9 1197.78,-709.14 1197.71,-698.54 1191.12,-700.9"/>
</a>
</g>
</g>
<!-- Node22 -->
<g id="Node000022" class="node">
<title>Node22</title>
<g id="a_Node000022"><a xlink:href="../../d5/d04/classNookpostBackend_1_1Cryptography_1_1Generators.html#a3472fe1c61d5f1bc60d0af99a253be6b" target="_top" xlink:title="Generate a new random hex string with the specified length.">
<polygon fill="white" stroke="#666666" points="1076,-196.5 901,-196.5 901,-166.5 1076,-166.5 1076,-196.5"/>
<text text-anchor="start" x="909" y="-184.5" font-family="Helvetica,sans-Serif" font-size="10.00">NookpostBackend.Cryptography.</text>
<text text-anchor="middle" x="988.5" y="-173.5" font-family="Helvetica,sans-Serif" font-size="10.00">Generators.NewRandomString</text>
</a>
</g>
</g>
<!-- Node21&#45;&gt;Node22 -->
<g id="edge24_Node000021_Node000022" class="edge">
<title>Node21&#45;&gt;Node22</title>
<g id="a_edge24_Node000021_Node000022"><a xlink:title=" ">
<path fill="none" stroke="#63b8ff" d="M842.52,-181.5C858.09,-181.5 874.43,-181.5 890.3,-181.5"/>
<polygon fill="#63b8ff" stroke="#63b8ff" points="890.64,-185 900.64,-181.5 890.64,-178 890.64,-185"/>
</a>
</g>
</g>
<!-- Node25 -->
<g id="Node000025" class="node">
<title>Node25</title>
<g id="a_Node000025"><a xlink:href="../../df/da2/classNookpostBackend_1_1ApiEndpoints_1_1UserSettings_1_1GetUserSettings.html#aa366405fbc610d9f97f12515d60cc643" target="_top" xlink:title="Gets the user&#39;s settings.">
<polygon fill="white" stroke="#666666" points="855,-100 656,-100 656,-59 855,-59 855,-100"/>
<text text-anchor="start" x="664" y="-88" font-family="Helvetica,sans-Serif" font-size="10.00">NookpostBackend.ApiEndpoints.</text>
<text text-anchor="start" x="664" y="-77" font-family="Helvetica,sans-Serif" font-size="10.00">UserSettings.GetUserSettings.Handle</text>
<text text-anchor="middle" x="755.5" y="-66" font-family="Helvetica,sans-Serif" font-size="10.00">Request</text>
</a>
</g>
</g>
<!-- Node24&#45;&gt;Node25 -->
<g id="edge27_Node000024_Node000025" class="edge">
<title>Node24&#45;&gt;Node25</title>
<g id="a_edge27_Node000024_Node000025"><a xlink:title=" ">
<path fill="none" stroke="#63b8ff" d="M609.71,-79.5C621.46,-79.5 633.58,-79.5 645.58,-79.5"/>
<polygon fill="#63b8ff" stroke="#63b8ff" points="645.62,-83 655.62,-79.5 645.62,-76 645.62,-83"/>
</a>
</g>
</g>
<!-- Node26 -->
<g id="Node000026" class="node">
<title>Node26</title>
<g id="a_Node000026"><a xlink:href="../../df/db7/classNookpostBackend_1_1ApiEndpoints_1_1UserSettings_1_1PutUserSettings.html#aa029e02f5547b89c2d3f354a9fd462fc" target="_top" xlink:title="Updates the user&#39;s settings.">
<polygon fill="white" stroke="#666666" points="854,-41 657,-41 657,0 854,0 854,-41"/>
<text text-anchor="start" x="665" y="-29" font-family="Helvetica,sans-Serif" font-size="10.00">NookpostBackend.ApiEndpoints.</text>
<text text-anchor="start" x="665" y="-18" font-family="Helvetica,sans-Serif" font-size="10.00">UserSettings.PutUserSettings.Handle</text>
<text text-anchor="middle" x="755.5" y="-7" font-family="Helvetica,sans-Serif" font-size="10.00">Request</text>
</a>
</g>
</g>
<!-- Node24&#45;&gt;Node26 -->
<g id="edge28_Node000024_Node000026" class="edge">
<title>Node24&#45;&gt;Node26</title>
<g id="a_edge28_Node000024_Node000026"><a xlink:title=" ">
<path fill="none" stroke="#63b8ff" d="M579.04,-64.46C604.39,-58.11 634.49,-50.57 662.54,-43.54"/>
<polygon fill="#63b8ff" stroke="#63b8ff" points="663.51,-46.9 672.36,-41.08 661.81,-40.11 663.51,-46.9"/>
</a>
</g>
</g>
</g>
</svg>
