<?xml version="1.0" encoding="UTF-8" standalone="no"?>
<!DOCTYPE svg PUBLIC "-//W3C//DTD SVG 1.1//EN"
 "http://www.w3.org/Graphics/SVG/1.1/DTD/svg11.dtd">
<!-- Generated by graphviz version 2.43.0 (0)
 -->
<!-- Title: NookpostBackend.Cryptography.Generators.NewRandomString Pages: 1 -->
<svg width="1027pt" height="134pt"
 viewBox="0.00 0.00 1027.00 134.00" xmlns="http://www.w3.org/2000/svg" xmlns:xlink="http://www.w3.org/1999/xlink">
<g id="graph0" class="graph" transform="scale(1 1) rotate(0) translate(4 130)">
<title>NookpostBackend.Cryptography.Generators.NewRandomString</title>
<!-- Node1 -->
<g id="Node000001" class="node">
<title>Node1</title>
<g id="a_Node000001"><a xlink:title="Generate a new random hex string with the specified length.">
<polygon fill="#999999" stroke="#666666" points="1019,-78 844,-78 844,-48 1019,-48 1019,-78"/>
<text text-anchor="start" x="852" y="-66" font-family="Helvetica,sans-Serif" font-size="10.00">NookpostBackend.Cryptography.</text>
<text text-anchor="middle" x="931.5" y="-55" font-family="Helvetica,sans-Serif" font-size="10.00">Generators.NewRandomString</text>
</a>
</g>
</g>
<!-- Node2 -->
<g id="Node000002" class="node">
<title>Node2</title>
<g id="a_Node000002"><a xlink:href="../../d6/df1/classNookpostBackend_1_1ApiEndpoints_1_1Users_1_1PostUser.html#a8700a486b1505274c3477371788540ed" target="_top" xlink:title="Creates a new user.">
<polygon fill="white" stroke="#666666" points="807,-126 633,-126 633,-96 807,-96 807,-126"/>
<text text-anchor="start" x="641" y="-114" font-family="Helvetica,sans-Serif" font-size="10.00">NookpostBackend.ApiEndpoints.</text>
<text text-anchor="middle" x="720" y="-103" font-family="Helvetica,sans-Serif" font-size="10.00">Users.PostUser.HandleRequest</text>
</a>
</g>
</g>
<!-- Node1&#45;&gt;Node2 -->
<g id="edge1_Node000001_Node000002" class="edge">
<title>Node1&#45;&gt;Node2</title>
<g id="a_edge1_Node000001_Node000002"><a xlink:title=" ">
<path fill="none" stroke="#63b8ff" d="M854.98,-80.3C832.56,-85.44 808.2,-91.02 786.48,-96"/>
<polygon fill="#63b8ff" stroke="#63b8ff" points="855.82,-83.7 864.79,-78.06 854.26,-76.88 855.82,-83.7"/>
</a>
</g>
</g>
<!-- Node6 -->
<g id="Node000006" class="node">
<title>Node6</title>
<g id="a_Node000006"><a xlink:href="../../d3/da4/classNookpostBackend_1_1Data_1_1ModelBuilderExtensions.html#a8d2ffb833bf2db585cd87ae1a85b60cc" target="_top" xlink:title=" ">
<polygon fill="white" stroke="#666666" points="802,-78 638,-78 638,-48 802,-48 802,-78"/>
<text text-anchor="start" x="646" y="-66" font-family="Helvetica,sans-Serif" font-size="10.00">NookpostBackend.Data.Model</text>
<text text-anchor="middle" x="720" y="-55" font-family="Helvetica,sans-Serif" font-size="10.00">BuilderExtensions.SeedUsers</text>
</a>
</g>
</g>
<!-- Node1&#45;&gt;Node6 -->
<g id="edge5_Node000001_Node000006" class="edge">
<title>Node1&#45;&gt;Node6</title>
<g id="a_edge5_Node000001_Node000006"><a xlink:title=" ">
<path fill="none" stroke="#63b8ff" d="M833.74,-63C823.22,-63 812.59,-63 802.28,-63"/>
<polygon fill="#63b8ff" stroke="#63b8ff" points="833.78,-66.5 843.78,-63 833.78,-59.5 833.78,-66.5"/>
</a>
</g>
</g>
<!-- Node8 -->
<g id="Node000008" class="node">
<title>Node8</title>
<g id="a_Node000008"><a xlink:href="../../df/d2d/classNookpostBackend_1_1Configuration_1_1Settings.html#a475533e72adb7167db5cdca3ac8377c1" target="_top" xlink:title="Initialize a new settings object with default values.">
<polygon fill="white" stroke="#666666" points="808,-30 632,-30 632,0 808,0 808,-30"/>
<text text-anchor="start" x="640" y="-18" font-family="Helvetica,sans-Serif" font-size="10.00">NookpostBackend.Configuration.</text>
<text text-anchor="middle" x="720" y="-7" font-family="Helvetica,sans-Serif" font-size="10.00">Settings.Settings</text>
</a>
</g>
</g>
<!-- Node1&#45;&gt;Node8 -->
<g id="edge7_Node000001_Node000008" class="edge">
<title>Node1&#45;&gt;Node8</title>
<g id="a_edge7_Node000001_Node000008"><a xlink:title=" ">
<path fill="none" stroke="#63b8ff" d="M854.98,-45.7C832.56,-40.56 808.2,-34.98 786.48,-30"/>
<polygon fill="#63b8ff" stroke="#63b8ff" points="854.26,-49.12 864.79,-47.94 855.82,-42.3 854.26,-49.12"/>
</a>
</g>
</g>
<!-- Node3 -->
<g id="Node000003" class="node">
<title>Node3</title>
<g id="a_Node000003"><a xlink:href="../../d3/dd0/classNookpostBackend_1_1ApiEndpoints_1_1Users_1_1EndpointSetup.html#a4dbfdc6339578aaf6762795e71dbe9dd" target="_top" xlink:title="Sets up the user endpoints on the given Webapp">
<polygon fill="white" stroke="#666666" points="596,-126 422,-126 422,-96 596,-96 596,-126"/>
<text text-anchor="start" x="430" y="-114" font-family="Helvetica,sans-Serif" font-size="10.00">NookpostBackend.ApiEndpoints.</text>
<text text-anchor="middle" x="509" y="-103" font-family="Helvetica,sans-Serif" font-size="10.00">Users.EndpointSetup.Setup</text>
</a>
</g>
</g>
<!-- Node2&#45;&gt;Node3 -->
<g id="edge2_Node000002_Node000003" class="edge">
<title>Node2&#45;&gt;Node3</title>
<g id="a_edge2_Node000002_Node000003"><a xlink:title=" ">
<path fill="none" stroke="#63b8ff" d="M622.76,-111C613.84,-111 604.84,-111 596.02,-111"/>
<polygon fill="#63b8ff" stroke="#63b8ff" points="622.79,-114.5 632.79,-111 622.79,-107.5 622.79,-114.5"/>
</a>
</g>
</g>
<!-- Node4 -->
<g id="Node000004" class="node">
<title>Node4</title>
<g id="a_Node000004"><a xlink:href="../../db/d6a/classNookpostBackend_1_1ApiEndpoints_1_1EndpointSetup.html#a00aafd7a4451d533ddb2969de9ac57a3" target="_top" xlink:title="Sets up all API Endpints on the given webapp">
<polygon fill="white" stroke="#666666" points="386,-126 212,-126 212,-96 386,-96 386,-126"/>
<text text-anchor="start" x="220" y="-114" font-family="Helvetica,sans-Serif" font-size="10.00">NookpostBackend.ApiEndpoints.</text>
<text text-anchor="middle" x="299" y="-103" font-family="Helvetica,sans-Serif" font-size="10.00">EndpointSetup.Setup</text>
</a>
</g>
</g>
<!-- Node3&#45;&gt;Node4 -->
<g id="edge3_Node000003_Node000004" class="edge">
<title>Node3&#45;&gt;Node4</title>
<g id="a_edge3_Node000003_Node000004"><a xlink:title=" ">
<path fill="none" stroke="#63b8ff" d="M411.84,-111C403.23,-111 394.55,-111 386.04,-111"/>
<polygon fill="#63b8ff" stroke="#63b8ff" points="411.9,-114.5 421.9,-111 411.9,-107.5 411.9,-114.5"/>
</a>
</g>
</g>
<!-- Node5 -->
<g id="Node000005" class="node">
<title>Node5</title>
<g id="a_Node000005"><a xlink:href="../../d8/dc6/classNookpostBackend_1_1Program.html#a3920d589512f09ab0634c9b16cefa59e" target="_top" xlink:title=" ">
<polygon fill="white" stroke="#666666" points="176,-120.5 0,-120.5 0,-101.5 176,-101.5 176,-120.5"/>
<text text-anchor="middle" x="88" y="-108.5" font-family="Helvetica,sans-Serif" font-size="10.00">NookpostBackend.Program.Main</text>
</a>
</g>
</g>
<!-- Node4&#45;&gt;Node5 -->
<g id="edge4_Node000004_Node000005" class="edge">
<title>Node4&#45;&gt;Node5</title>
<g id="a_edge4_Node000004_Node000005"><a xlink:title=" ">
<path fill="none" stroke="#63b8ff" d="M201.76,-111C193.18,-111 184.53,-111 176.03,-111"/>
<polygon fill="#63b8ff" stroke="#63b8ff" points="201.79,-114.5 211.79,-111 201.79,-107.5 201.79,-114.5"/>
</a>
</g>
</g>
<!-- Node7 -->
<g id="Node000007" class="node">
<title>Node7</title>
<g id="a_Node000007"><a xlink:href="../../d3/da4/classNookpostBackend_1_1Data_1_1ModelBuilderExtensions.html#a4684185af94fe47d0174b9df7a0ee150" target="_top" xlink:title="Populates the database with the sample data for testing and development.">
<polygon fill="white" stroke="#666666" points="596,-78 422,-78 422,-48 596,-48 596,-78"/>
<text text-anchor="start" x="430" y="-66" font-family="Helvetica,sans-Serif" font-size="10.00">NookpostBackend.Data.Model</text>
<text text-anchor="middle" x="509" y="-55" font-family="Helvetica,sans-Serif" font-size="10.00">BuilderExtensions.SeedTestData</text>
</a>
</g>
</g>
<!-- Node6&#45;&gt;Node7 -->
<g id="edge6_Node000006_Node000007" class="edge">
<title>Node6&#45;&gt;Node7</title>
<g id="a_edge6_Node000006_Node000007"><a xlink:title=" ">
<path fill="none" stroke="#63b8ff" d="M627.89,-63C617.38,-63 606.69,-63 596.25,-63"/>
<polygon fill="#63b8ff" stroke="#63b8ff" points="627.9,-66.5 637.9,-63 627.9,-59.5 627.9,-66.5"/>
</a>
</g>
</g>
</g>
</svg>
