<?xml version="1.0" encoding="UTF-8" standalone="no"?>
<!DOCTYPE svg PUBLIC "-//W3C//DTD SVG 1.1//EN"
 "http://www.w3.org/Graphics/SVG/1.1/DTD/svg11.dtd">
<!-- Generated by graphviz version 2.43.0 (0)
 -->
<!-- Title: NookpostBackend.ApiSchemas.Posts.GetPostFiltered.GetPostFilteredPost Pages: 1 -->
<svg width="222pt" height="254pt"
 viewBox="0.00 0.00 222.00 254.00" xmlns="http://www.w3.org/2000/svg" xmlns:xlink="http://www.w3.org/1999/xlink">
<g id="graph0" class="graph" transform="scale(1 1) rotate(0) translate(4 250)">
<title>NookpostBackend.ApiSchemas.Posts.GetPostFiltered.GetPostFilteredPost</title>
<!-- Node1 -->
<g id="Node000001" class="node">
<title>Node1</title>
<g id="a_Node000001"><a xlink:title="Response to a post get request.">
<polygon fill="#999999" stroke="transparent" points="214,-105 0,-105 0,0 214,0 214,-105"/>
<text text-anchor="start" x="5" y="-92.5" font-family="Helvetica,sans-Serif" font-size="10.00">NookpostBackend.ApiSchemas.</text>
<text text-anchor="start" x="5" y="-81.5" font-family="Helvetica,sans-Serif" font-size="10.00">Posts.GetPostFiltered.GetPostFilteredPost</text>
<text text-anchor="start" x="22.5" y="-66.5" font-family="Helvetica,sans-Serif" font-size="10.00">+</text>
<text text-anchor="start" x="54" y="-66.5" font-family="Helvetica,sans-Serif" font-size="10.00">string? Uuid</text>
<text text-anchor="start" x="22.5" y="-51.5" font-family="Helvetica,sans-Serif" font-size="10.00">+</text>
<text text-anchor="start" x="54" y="-51.5" font-family="Helvetica,sans-Serif" font-size="10.00">string? AuthorUsername</text>
<text text-anchor="start" x="22.5" y="-36.5" font-family="Helvetica,sans-Serif" font-size="10.00">+</text>
<text text-anchor="start" x="54" y="-36.5" font-family="Helvetica,sans-Serif" font-size="10.00">long ModifiedOn</text>
<text text-anchor="start" x="22.5" y="-21.5" font-family="Helvetica,sans-Serif" font-size="10.00">+</text>
<text text-anchor="start" x="54" y="-21.5" font-family="Helvetica,sans-Serif" font-size="10.00">long CreatedOn</text>
<text text-anchor="start" x="105" y="-6.5" font-family="Helvetica,sans-Serif" font-size="10.00"> </text>
<polygon fill="#666666" stroke="#666666" points="0,-76.5 0,-76.5 214,-76.5 214,-76.5 0,-76.5"/>
<polygon fill="#666666" stroke="#666666" points="0,-16.5 0,-16.5 52,-16.5 52,-16.5 0,-16.5"/>
<polygon fill="#666666" stroke="#666666" points="52,-16.5 52,-16.5 214,-16.5 214,-16.5 52,-16.5"/>
<polygon fill="none" stroke="#666666" points="0,0 0,-105 214,-105 214,0 0,0"/>
</a>
</g>
</g>
<!-- Node2 -->
<g id="Node000002" class="node">
<title>Node2</title>
<g id="a_Node000002"><a xlink:href="../../d4/d64/classNookpostBackend_1_1ApiSchemas_1_1Posts_1_1PostData.html" target="_top" xlink:title="Represents a post created by a user.">
<polygon fill="white" stroke="transparent" points="189,-246 25,-246 25,-141 189,-141 189,-246"/>
<text text-anchor="start" x="30" y="-233.5" font-family="Helvetica,sans-Serif" font-size="10.00">NookpostBackend.ApiSchemas.</text>
<text text-anchor="start" x="70" y="-222.5" font-family="Helvetica,sans-Serif" font-size="10.00">Posts.PostData</text>
<text text-anchor="start" x="30" y="-207.5" font-family="Helvetica,sans-Serif" font-size="10.00">+</text>
<text text-anchor="start" x="44" y="-207.5" font-family="Helvetica,sans-Serif" font-size="10.00">string? Title</text>
<text text-anchor="start" x="30" y="-192.5" font-family="Helvetica,sans-Serif" font-size="10.00">+</text>
<text text-anchor="start" x="44" y="-192.5" font-family="Helvetica,sans-Serif" font-size="10.00">string? Body</text>
<text text-anchor="start" x="30" y="-177.5" font-family="Helvetica,sans-Serif" font-size="10.00">+</text>
<text text-anchor="start" x="44" y="-177.5" font-family="Helvetica,sans-Serif" font-size="10.00">string? BannerImageBase64</text>
<text text-anchor="start" x="30" y="-162.5" font-family="Helvetica,sans-Serif" font-size="10.00">+</text>
<text text-anchor="start" x="44" y="-162.5" font-family="Helvetica,sans-Serif" font-size="10.00">string? CategoryUuid</text>
<text text-anchor="start" x="105" y="-147.5" font-family="Helvetica,sans-Serif" font-size="10.00"> </text>
<polygon fill="#666666" stroke="#666666" points="25,-217.5 25,-217.5 189,-217.5 189,-217.5 25,-217.5"/>
<polygon fill="#666666" stroke="#666666" points="25,-157.5 25,-157.5 42,-157.5 42,-157.5 25,-157.5"/>
<polygon fill="#666666" stroke="#666666" points="42,-157.5 42,-157.5 189,-157.5 189,-157.5 42,-157.5"/>
<polygon fill="none" stroke="#666666" points="25,-141 25,-246 189,-246 189,-141 25,-141"/>
</a>
</g>
</g>
<!-- Node2&#45;&gt;Node1 -->
<g id="edge1_Node000001_Node000002" class="edge">
<title>Node2&#45;&gt;Node1</title>
<g id="a_edge1_Node000001_Node000002"><a xlink:title=" ">
<path fill="none" stroke="#63b8ff" d="M107,-130.56C107,-122.12 107,-113.53 107,-105.3"/>
<polygon fill="none" stroke="#63b8ff" points="103.5,-130.74 107,-140.74 110.5,-130.74 103.5,-130.74"/>
</a>
</g>
</g>
</g>
</svg>
