<?xml version="1.0" encoding="UTF-8" standalone="no"?>
<!DOCTYPE svg PUBLIC "-//W3C//DTD SVG 1.1//EN"
 "http://www.w3.org/Graphics/SVG/1.1/DTD/svg11.dtd">
<!-- Generated by graphviz version 2.43.0 (0)
 -->
<!-- Title: NookpostBackend.ApiEndpoints.Users.DeleteUserMe Pages: 1 -->
<svg width="259pt" height="123pt"
 viewBox="0.00 0.00 259.00 123.00" xmlns="http://www.w3.org/2000/svg" xmlns:xlink="http://www.w3.org/1999/xlink">
<g id="graph0" class="graph" transform="scale(1 1) rotate(0) translate(4 119)">
<title>NookpostBackend.ApiEndpoints.Users.DeleteUserMe</title>
<!-- Node1 -->
<g id="Node000001" class="node">
<title>Node1</title>
<g id="a_Node000001"><a xlink:title="Handles delete requests for users.">
<polygon fill="#999999" stroke="transparent" points="251,-115 0,-115 0,0 251,0 251,-115"/>
<text text-anchor="start" x="47" y="-102.5" font-family="Helvetica,sans-Serif" font-size="10.00">NookpostBackend.ApiEndpoints.</text>
<text text-anchor="start" x="75.5" y="-91.5" font-family="Helvetica,sans-Serif" font-size="10.00">Users.DeleteUserMe</text>
<text text-anchor="start" x="124" y="-76.5" font-family="Helvetica,sans-Serif" font-size="10.00"> </text>
<text text-anchor="start" x="4.5" y="-61.5" font-family="Helvetica,sans-Serif" font-size="10.00">+</text>
<text text-anchor="start" x="17.5" y="-61.5" font-family="Helvetica,sans-Serif" font-size="10.00">static Microsoft.AspNetCore.</text>
<text text-anchor="start" x="17.5" y="-50.5" font-family="Helvetica,sans-Serif" font-size="10.00">Http.HttpResults.Results</text>
<text text-anchor="start" x="17.5" y="-39.5" font-family="Helvetica,sans-Serif" font-size="10.00">&lt; NoContent, UnauthorizedHttpResult,</text>
<text text-anchor="start" x="17.5" y="-28.5" font-family="Helvetica,sans-Serif" font-size="10.00"> BadRequest &gt; HandleRequest(ClaimsPrincipal</text>
<text text-anchor="start" x="17.5" y="-17.5" font-family="Helvetica,sans-Serif" font-size="10.00"> user, NookpostBackend.Data.DatabaseHandle</text>
<text text-anchor="start" x="17.5" y="-6.5" font-family="Helvetica,sans-Serif" font-size="10.00"> databaseHandle)</text>
<polygon fill="#666666" stroke="#666666" points="0.5,-86.5 0.5,-86.5 251.5,-86.5 251.5,-86.5 0.5,-86.5"/>
<polygon fill="#666666" stroke="#666666" points="0.5,-71.5 0.5,-71.5 251.5,-71.5 251.5,-71.5 0.5,-71.5"/>
<polygon fill="none" stroke="#666666" points="0,0 0,-115 251,-115 251,0 0,0"/>
</a>
</g>
</g>
</g>
</svg>
