<?xml version="1.0" encoding="UTF-8" standalone="no"?>
<!DOCTYPE svg PUBLIC "-//W3C//DTD SVG 1.1//EN"
 "http://www.w3.org/Graphics/SVG/1.1/DTD/svg11.dtd">
<!-- Generated by graphviz version 2.43.0 (0)
 -->
<!-- Title: NookpostBackend.ApiEndpoints.Posts.EndpointSetup.Setup Pages: 1 -->
<svg width="416pt" height="230pt"
 viewBox="0.00 0.00 416.00 230.00" xmlns="http://www.w3.org/2000/svg" xmlns:xlink="http://www.w3.org/1999/xlink">
<g id="graph0" class="graph" transform="scale(1 1) rotate(0) translate(4 226)">
<title>NookpostBackend.ApiEndpoints.Posts.EndpointSetup.Setup</title>
<!-- Node1 -->
<g id="Node000001" class="node">
<title>Node1</title>
<g id="a_Node000001"><a xlink:title="Sets up the post endpoints on the given Webapp">
<polygon fill="#999999" stroke="#666666" points="174,-126 0,-126 0,-96 174,-96 174,-126"/>
<text text-anchor="start" x="8" y="-114" font-family="Helvetica,sans-Serif" font-size="10.00">NookpostBackend.ApiEndpoints.</text>
<text text-anchor="middle" x="87" y="-103" font-family="Helvetica,sans-Serif" font-size="10.00">Posts.EndpointSetup.Setup</text>
</a>
</g>
</g>
<!-- Node2 -->
<g id="Node000002" class="node">
<title>Node2</title>
<g id="a_Node000002"><a xlink:href="../../d8/dcc/classNookpostBackend_1_1ApiEndpoints_1_1Posts_1_1DeletePost.html#ac56bf91de4be2f970a018bddd2a2fbe7" target="_top" xlink:title="Deletes a post.">
<polygon fill="white" stroke="#666666" points="397,-222 221,-222 221,-192 397,-192 397,-222"/>
<text text-anchor="start" x="229" y="-210" font-family="Helvetica,sans-Serif" font-size="10.00">NookpostBackend.ApiEndpoints.</text>
<text text-anchor="middle" x="309" y="-199" font-family="Helvetica,sans-Serif" font-size="10.00">Posts.DeletePost.HandleRequest</text>
</a>
</g>
</g>
<!-- Node1&#45;&gt;Node2 -->
<g id="edge1_Node000001_Node000002" class="edge">
<title>Node1&#45;&gt;Node2</title>
<g id="a_edge1_Node000001_Node000002"><a xlink:title=" ">
<path fill="none" stroke="#63b8ff" d="M109.04,-126.02C132.6,-142.21 172.42,-167.7 210,-183 215.3,-185.16 220.84,-187.16 226.48,-189"/>
<polygon fill="#63b8ff" stroke="#63b8ff" points="225.45,-192.34 236.04,-191.96 227.52,-185.66 225.45,-192.34"/>
</a>
</g>
</g>
<!-- Node3 -->
<g id="Node000003" class="node">
<title>Node3</title>
<g id="a_Node000003"><a xlink:href="../../da/dbd/classNookpostBackend_1_1ApiEndpoints_1_1Posts_1_1GetPost.html#ae9af24ab2b8d507826b031e3c37324c1" target="_top" xlink:title="Gets a post.">
<polygon fill="white" stroke="#666666" points="396,-174 222,-174 222,-144 396,-144 396,-174"/>
<text text-anchor="start" x="230" y="-162" font-family="Helvetica,sans-Serif" font-size="10.00">NookpostBackend.ApiEndpoints.</text>
<text text-anchor="middle" x="309" y="-151" font-family="Helvetica,sans-Serif" font-size="10.00">Posts.GetPost.HandleRequest</text>
</a>
</g>
</g>
<!-- Node1&#45;&gt;Node3 -->
<g id="edge2_Node000001_Node000003" class="edge">
<title>Node1&#45;&gt;Node3</title>
<g id="a_edge2_Node000001_Node000003"><a xlink:title=" ">
<path fill="none" stroke="#63b8ff" d="M157.01,-126.06C179.94,-131.06 205.65,-136.67 229.26,-141.82"/>
<polygon fill="#63b8ff" stroke="#63b8ff" points="228.72,-145.29 239.24,-144 230.22,-138.45 228.72,-145.29"/>
</a>
</g>
</g>
<!-- Node4 -->
<g id="Node000004" class="node">
<title>Node4</title>
<g id="a_Node000004"><a xlink:href="../../d1/df7/classNookpostBackend_1_1ApiEndpoints_1_1Posts_1_1GetPostFiltered.html#a0e6e200bd2e98410f29145d81affdd5e" target="_top" xlink:title="Gets a filtered set of posts.">
<polygon fill="white" stroke="#666666" points="408,-126 210,-126 210,-96 408,-96 408,-126"/>
<text text-anchor="start" x="218" y="-114" font-family="Helvetica,sans-Serif" font-size="10.00">NookpostBackend.ApiEndpoints.</text>
<text text-anchor="middle" x="309" y="-103" font-family="Helvetica,sans-Serif" font-size="10.00">Posts.GetPostFiltered.HandleRequest</text>
</a>
</g>
</g>
<!-- Node1&#45;&gt;Node4 -->
<g id="edge3_Node000001_Node000004" class="edge">
<title>Node1&#45;&gt;Node4</title>
<g id="a_edge3_Node000001_Node000004"><a xlink:title=" ">
<path fill="none" stroke="#63b8ff" d="M174,-111C182.41,-111 191,-111 199.59,-111"/>
<polygon fill="#63b8ff" stroke="#63b8ff" points="199.65,-114.5 209.65,-111 199.65,-107.5 199.65,-114.5"/>
</a>
</g>
</g>
<!-- Node5 -->
<g id="Node000005" class="node">
<title>Node5</title>
<g id="a_Node000005"><a xlink:href="../../d9/d72/classNookpostBackend_1_1ApiEndpoints_1_1Posts_1_1PostPost.html#a1a3b94f025dd1d35853530139c4c1572" target="_top" xlink:title="Creates a post.">
<polygon fill="white" stroke="#666666" points="396,-78 222,-78 222,-48 396,-48 396,-78"/>
<text text-anchor="start" x="230" y="-66" font-family="Helvetica,sans-Serif" font-size="10.00">NookpostBackend.ApiEndpoints.</text>
<text text-anchor="middle" x="309" y="-55" font-family="Helvetica,sans-Serif" font-size="10.00">Posts.PostPost.HandleRequest</text>
</a>
</g>
</g>
<!-- Node1&#45;&gt;Node5 -->
<g id="edge4_Node000001_Node000005" class="edge">
<title>Node1&#45;&gt;Node5</title>
<g id="a_edge4_Node000001_Node000005"><a xlink:title=" ">
<path fill="none" stroke="#63b8ff" d="M157.01,-95.94C179.94,-90.94 205.65,-85.33 229.26,-80.18"/>
<polygon fill="#63b8ff" stroke="#63b8ff" points="230.22,-83.55 239.24,-78 228.72,-76.71 230.22,-83.55"/>
</a>
</g>
</g>
<!-- Node6 -->
<g id="Node000006" class="node">
<title>Node6</title>
<g id="a_Node000006"><a xlink:href="../../d8/d19/classNookpostBackend_1_1ApiEndpoints_1_1Posts_1_1PutPost.html#acdacbe6d57537381287795d5d43c7200" target="_top" xlink:title="Modifies a post.">
<polygon fill="white" stroke="#666666" points="396,-30 222,-30 222,0 396,0 396,-30"/>
<text text-anchor="start" x="230" y="-18" font-family="Helvetica,sans-Serif" font-size="10.00">NookpostBackend.ApiEndpoints.</text>
<text text-anchor="middle" x="309" y="-7" font-family="Helvetica,sans-Serif" font-size="10.00">Posts.PutPost.HandleRequest</text>
</a>
</g>
</g>
<!-- Node1&#45;&gt;Node6 -->
<g id="edge5_Node000001_Node000006" class="edge">
<title>Node1&#45;&gt;Node6</title>
<g id="a_edge5_Node000001_Node000006"><a xlink:title=" ">
<path fill="none" stroke="#63b8ff" d="M109.04,-95.98C132.6,-79.79 172.42,-54.3 210,-39 215.3,-36.84 220.84,-34.84 226.48,-33"/>
<polygon fill="#63b8ff" stroke="#63b8ff" points="227.52,-36.34 236.04,-30.04 225.45,-29.66 227.52,-36.34"/>
</a>
</g>
</g>
</g>
</svg>
